  0
SECTION
  2
BLOCKS
  0
ENDSEC
  0
SECTION
  2
ENTITIES
  0
LINE
  8
0
 10
4.12238
 20
-21.6103
 11
6.79837
 21
-20.9232
  0
LINE
  8
0
 10
6.79837
 20
-20.9232
 11
9.36714
 21
-19.9062
  0
LINE
  8
0
 10
9.36714
 20
-19.9062
 11
11.7882
 21
-18.5752
  0
LINE
  8
0
 10
11.7882
 20
-18.5752
 11
14.0233
 21
-16.9513
  0
LINE
  8
0
 10
14.0233
 20
-16.9513
 11
16.0373
 21
-15.06
  0
LINE
  8
0
 10
16.0373
 20
-15.06
 11
17.7984
 21
-12.9313
  0
LINE
  8
0
 10
17.7984
 20
-12.9313
 11
19.2787
 21
-10.5986
  0
LINE
  8
0
 10
19.2787
 20
-10.5986
 11
20.4551
 21
-8.09874
  0
LINE
  8
0
 10
20.4551
 20
-8.09874
 11
21.3088
 21
-5.47118
  0
LINE
  8
0
 10
21.3088
 20
-5.47118
 11
21.8265
 21
-2.75732
  0
LINE
  8
0
 10
21.8265
 20
-2.75732
 11
22
 21
0
  0
LINE
  8
0
 10
22
 20
0
 11
21.8265
 21
2.75732
  0
LINE
  8
0
 10
21.8265
 20
2.75732
 11
21.3088
 21
5.47118
  0
LINE
  8
0
 10
21.3088
 20
5.47118
 11
20.4551
 21
8.09874
  0
LINE
  8
0
 10
20.4551
 20
8.09874
 11
19.2787
 21
10.5986
  0
LINE
  8
0
 10
19.2787
 20
10.5986
 11
17.7984
 21
12.9313
  0
LINE
  8
0
 10
17.7984
 20
12.9313
 11
16.0373
 21
15.06
  0
LINE
  8
0
 10
16.0373
 20
15.06
 11
14.0233
 21
16.9513
  0
LINE
  8
0
 10
14.0233
 20
16.9513
 11
11.7882
 21
18.5752
  0
LINE
  8
0
 10
11.7882
 20
18.5752
 11
9.36714
 21
19.9062
  0
LINE
  8
0
 10
9.36714
 20
19.9062
 11
6.79837
 21
20.9232
  0
LINE
  8
0
 10
6.79837
 20
20.9232
 11
4.12238
 21
21.6103
  0
LINE
  8
0
 10
4.12238
 20
21.6103
 11
1.38138
 21
21.9566
  0
LINE
  8
0
 10
1.38138
 20
21.9566
 11
-1.38138
 21
21.9566
  0
LINE
  8
0
 10
-1.38138
 20
21.9566
 11
-4.12238
 21
21.6103
  0
LINE
  8
0
 10
-4.12238
 20
21.6103
 11
-6.79837
 21
20.9232
  0
LINE
  8
0
 10
-6.79837
 20
20.9232
 11
-9.36714
 21
19.9062
  0
LINE
  8
0
 10
-9.36714
 20
19.9062
 11
-11.7882
 21
18.5752
  0
LINE
  8
0
 10
-11.7882
 20
18.5752
 11
-14.0233
 21
16.9513
  0
LINE
  8
0
 10
-14.0233
 20
16.9513
 11
-16.0373
 21
15.06
  0
LINE
  8
0
 10
-16.0373
 20
15.06
 11
-17.7984
 21
12.9313
  0
LINE
  8
0
 10
-17.7984
 20
12.9313
 11
-19.2787
 21
10.5986
  0
LINE
  8
0
 10
-19.2787
 20
10.5986
 11
-20.4551
 21
8.09874
  0
LINE
  8
0
 10
-20.4551
 20
8.09874
 11
-21.3088
 21
5.47118
  0
LINE
  8
0
 10
-21.3088
 20
5.47118
 11
-21.8265
 21
2.75732
  0
LINE
  8
0
 10
-21.8265
 20
2.75732
 11
-22
 21
0
  0
LINE
  8
0
 10
-22
 20
0
 11
-21.8265
 21
-2.75732
  0
LINE
  8
0
 10
-21.8265
 20
-2.75732
 11
-21.3088
 21
-5.47118
  0
LINE
  8
0
 10
-21.3088
 20
-5.47118
 11
-20.4551
 21
-8.09874
  0
LINE
  8
0
 10
-20.4551
 20
-8.09874
 11
-19.2787
 21
-10.5986
  0
LINE
  8
0
 10
-19.2787
 20
-10.5986
 11
-17.7984
 21
-12.9313
  0
LINE
  8
0
 10
-17.7984
 20
-12.9313
 11
-16.0373
 21
-15.06
  0
LINE
  8
0
 10
-16.0373
 20
-15.06
 11
-14.0233
 21
-16.9513
  0
LINE
  8
0
 10
-14.0233
 20
-16.9513
 11
-11.7882
 21
-18.5752
  0
LINE
  8
0
 10
-11.7882
 20
-18.5752
 11
-9.36714
 21
-19.9062
  0
LINE
  8
0
 10
-9.36714
 20
-19.9062
 11
-6.79837
 21
-20.9232
  0
LINE
  8
0
 10
-6.79837
 20
-20.9232
 11
-4.12238
 21
-21.6103
  0
LINE
  8
0
 10
-4.12238
 20
-21.6103
 11
-1.38138
 21
-21.9566
  0
LINE
  8
0
 10
-1.38138
 20
-21.9566
 11
1.38138
 21
-21.9566
  0
LINE
  8
0
 10
1.38138
 20
-21.9566
 11
4.12238
 21
-21.6103
  0
LINE
  8
0
 10
-0.18837
 20
12.0059
 11
-0.562134
 21
12.0531
  0
LINE
  8
0
 10
-0.562134
 20
12.0531
 11
-0.927048
 21
12.1468
  0
LINE
  8
0
 10
-0.927048
 20
12.1468
 11
-1.27733
 21
12.2855
  0
LINE
  8
0
 10
-1.27733
 20
12.2855
 11
-1.60747
 21
12.467
  0
LINE
  8
0
 10
-1.60747
 20
12.467
 11
-1.91226
 21
12.6884
  0
LINE
  8
0
 10
-1.91226
 20
12.6884
 11
-2.1869
 21
12.9464
  0
LINE
  8
0
 10
-2.1869
 20
12.9464
 11
-2.42705
 21
13.2366
  0
LINE
  8
0
 10
-2.42705
 20
13.2366
 11
-2.62891
 21
13.5547
  0
LINE
  8
0
 10
-2.62891
 20
13.5547
 11
-2.78932
 21
13.8956
  0
LINE
  8
0
 10
-2.78932
 20
13.8956
 11
-2.90575
 21
14.2539
  0
LINE
  8
0
 10
-2.90575
 20
14.2539
 11
-2.97633
 21
14.624
  0
LINE
  8
0
 10
-2.97633
 20
14.624
 11
-3
 21
15
  0
LINE
  8
0
 10
-3
 20
15
 11
-2.97633
 21
15.376
  0
LINE
  8
0
 10
-2.97633
 20
15.376
 11
-2.90575
 21
15.7461
  0
LINE
  8
0
 10
-2.90575
 20
15.7461
 11
-2.78932
 21
16.1044
  0
LINE
  8
0
 10
-2.78932
 20
16.1044
 11
-2.62891
 21
16.4453
  0
LINE
  8
0
 10
-2.62891
 20
16.4453
 11
-2.42705
 21
16.7634
  0
LINE
  8
0
 10
-2.42705
 20
16.7634
 11
-2.1869
 21
17.0536
  0
LINE
  8
0
 10
-2.1869
 20
17.0536
 11
-1.91226
 21
17.3115
  0
LINE
  8
0
 10
-1.91226
 20
17.3115
 11
-1.60747
 21
17.533
  0
LINE
  8
0
 10
-1.60747
 20
17.533
 11
-1.27733
 21
17.7145
  0
LINE
  8
0
 10
-1.27733
 20
17.7145
 11
-0.927048
 21
17.8532
  0
LINE
  8
0
 10
-0.927048
 20
17.8532
 11
-0.562134
 21
17.9469
  0
LINE
  8
0
 10
-0.562134
 20
17.9469
 11
-0.18837
 21
17.9941
  0
LINE
  8
0
 10
-0.18837
 20
17.9941
 11
0.18837
 21
17.9941
  0
LINE
  8
0
 10
0.18837
 20
17.9941
 11
0.562134
 21
17.9469
  0
LINE
  8
0
 10
0.562134
 20
17.9469
 11
0.927048
 21
17.8532
  0
LINE
  8
0
 10
0.927048
 20
17.8532
 11
1.27733
 21
17.7145
  0
LINE
  8
0
 10
1.27733
 20
17.7145
 11
1.60747
 21
17.533
  0
LINE
  8
0
 10
1.60747
 20
17.533
 11
1.91226
 21
17.3115
  0
LINE
  8
0
 10
1.91226
 20
17.3115
 11
2.1869
 21
17.0536
  0
LINE
  8
0
 10
2.1869
 20
17.0536
 11
2.42705
 21
16.7634
  0
LINE
  8
0
 10
2.42705
 20
16.7634
 11
2.62891
 21
16.4453
  0
LINE
  8
0
 10
2.62891
 20
16.4453
 11
2.78932
 21
16.1044
  0
LINE
  8
0
 10
2.78932
 20
16.1044
 11
2.90575
 21
15.7461
  0
LINE
  8
0
 10
2.90575
 20
15.7461
 11
2.97633
 21
15.376
  0
LINE
  8
0
 10
2.97633
 20
15.376
 11
3
 21
15
  0
LINE
  8
0
 10
3
 20
15
 11
2.97633
 21
14.624
  0
LINE
  8
0
 10
2.97633
 20
14.624
 11
2.90575
 21
14.2539
  0
LINE
  8
0
 10
2.90575
 20
14.2539
 11
2.78932
 21
13.8956
  0
LINE
  8
0
 10
2.78932
 20
13.8956
 11
2.62891
 21
13.5547
  0
LINE
  8
0
 10
2.62891
 20
13.5547
 11
2.42705
 21
13.2366
  0
LINE
  8
0
 10
2.42705
 20
13.2366
 11
2.1869
 21
12.9464
  0
LINE
  8
0
 10
2.1869
 20
12.9464
 11
1.91226
 21
12.6884
  0
LINE
  8
0
 10
1.91226
 20
12.6884
 11
1.60747
 21
12.467
  0
LINE
  8
0
 10
1.60747
 20
12.467
 11
1.27733
 21
12.2855
  0
LINE
  8
0
 10
1.27733
 20
12.2855
 11
0.927048
 21
12.1468
  0
LINE
  8
0
 10
0.927048
 20
12.1468
 11
0.562134
 21
12.0531
  0
LINE
  8
0
 10
0.562134
 20
12.0531
 11
0.18837
 21
12.0059
  0
LINE
  8
0
 10
0.18837
 20
12.0059
 11
-0.18837
 21
12.0059
  0
LINE
  8
0
 10
14.8116
 20
-2.99408
 11
14.4379
 21
-2.94685
  0
LINE
  8
0
 10
14.4379
 20
-2.94685
 11
14.0729
 21
-2.85316
  0
LINE
  8
0
 10
14.0729
 20
-2.85316
 11
13.7227
 21
-2.71448
  0
LINE
  8
0
 10
13.7227
 20
-2.71448
 11
13.3925
 21
-2.53297
  0
LINE
  8
0
 10
13.3925
 20
-2.53297
 11
13.0877
 21
-2.31154
  0
LINE
  8
0
 10
13.0877
 20
-2.31154
 11
12.8131
 21
-2.05363
  0
LINE
  8
0
 10
12.8131
 20
-2.05363
 11
12.5729
 21
-1.76335
  0
LINE
  8
0
 10
12.5729
 20
-1.76335
 11
12.3711
 21
-1.44525
  0
LINE
  8
0
 10
12.3711
 20
-1.44525
 11
12.2107
 21
-1.10437
  0
LINE
  8
0
 10
12.2107
 20
-1.10437
 11
12.0942
 21
-0.746063
  0
LINE
  8
0
 10
12.0942
 20
-0.746063
 11
12.0237
 21
-0.375992
  0
LINE
  8
0
 10
12.0237
 20
-0.375992
 11
12
 21
0
  0
LINE
  8
0
 10
12
 20
0
 11
12.0237
 21
0.375992
  0
LINE
  8
0
 10
12.0237
 20
0.375992
 11
12.0942
 21
0.746063
  0
LINE
  8
0
 10
12.0942
 20
0.746063
 11
12.2107
 21
1.10437
  0
LINE
  8
0
 10
12.2107
 20
1.10437
 11
12.3711
 21
1.44525
  0
LINE
  8
0
 10
12.3711
 20
1.44525
 11
12.5729
 21
1.76335
  0
LINE
  8
0
 10
12.5729
 20
1.76335
 11
12.8131
 21
2.05363
  0
LINE
  8
0
 10
12.8131
 20
2.05363
 11
13.0877
 21
2.31154
  0
LINE
  8
0
 10
13.0877
 20
2.31154
 11
13.3925
 21
2.53297
  0
LINE
  8
0
 10
13.3925
 20
2.53297
 11
13.7227
 21
2.71448
  0
LINE
  8
0
 10
13.7227
 20
2.71448
 11
14.0729
 21
2.85316
  0
LINE
  8
0
 10
14.0729
 20
2.85316
 11
14.4379
 21
2.94685
  0
LINE
  8
0
 10
14.4379
 20
2.94685
 11
14.8116
 21
2.99408
  0
LINE
  8
0
 10
14.8116
 20
2.99408
 11
15.1884
 21
2.99408
  0
LINE
  8
0
 10
15.1884
 20
2.99408
 11
15.5621
 21
2.94685
  0
LINE
  8
0
 10
15.5621
 20
2.94685
 11
15.927
 21
2.85316
  0
LINE
  8
0
 10
15.927
 20
2.85316
 11
16.2773
 21
2.71448
  0
LINE
  8
0
 10
16.2773
 20
2.71448
 11
16.6075
 21
2.53297
  0
LINE
  8
0
 10
16.6075
 20
2.53297
 11
16.9123
 21
2.31154
  0
LINE
  8
0
 10
16.9123
 20
2.31154
 11
17.1869
 21
2.05363
  0
LINE
  8
0
 10
17.1869
 20
2.05363
 11
17.427
 21
1.76335
  0
LINE
  8
0
 10
17.427
 20
1.76335
 11
17.6289
 21
1.44525
  0
LINE
  8
0
 10
17.6289
 20
1.44525
 11
17.7893
 21
1.10437
  0
LINE
  8
0
 10
17.7893
 20
1.10437
 11
17.9057
 21
0.746063
  0
LINE
  8
0
 10
17.9057
 20
0.746063
 11
17.9763
 21
0.375992
  0
LINE
  8
0
 10
17.9763
 20
0.375992
 11
18
 21
0
  0
LINE
  8
0
 10
18
 20
0
 11
17.9763
 21
-0.375992
  0
LINE
  8
0
 10
17.9763
 20
-0.375992
 11
17.9057
 21
-0.746063
  0
LINE
  8
0
 10
17.9057
 20
-0.746063
 11
17.7893
 21
-1.10437
  0
LINE
  8
0
 10
17.7893
 20
-1.10437
 11
17.6289
 21
-1.44525
  0
LINE
  8
0
 10
17.6289
 20
-1.44525
 11
17.427
 21
-1.76335
  0
LINE
  8
0
 10
17.427
 20
-1.76335
 11
17.1869
 21
-2.05363
  0
LINE
  8
0
 10
17.1869
 20
-2.05363
 11
16.9123
 21
-2.31154
  0
LINE
  8
0
 10
16.9123
 20
-2.31154
 11
16.6075
 21
-2.53297
  0
LINE
  8
0
 10
16.6075
 20
-2.53297
 11
16.2773
 21
-2.71448
  0
LINE
  8
0
 10
16.2773
 20
-2.71448
 11
15.927
 21
-2.85316
  0
LINE
  8
0
 10
15.927
 20
-2.85316
 11
15.5621
 21
-2.94685
  0
LINE
  8
0
 10
15.5621
 20
-2.94685
 11
15.1884
 21
-2.99408
  0
LINE
  8
0
 10
15.1884
 20
-2.99408
 11
14.8116
 21
-2.99408
  0
LINE
  8
0
 10
-1.60747
 20
2.53297
 11
-1.27733
 21
2.71448
  0
LINE
  8
0
 10
-1.27733
 20
2.71448
 11
-0.927048
 21
2.85316
  0
LINE
  8
0
 10
-0.927048
 20
2.85316
 11
-0.562134
 21
2.94685
  0
LINE
  8
0
 10
-0.562134
 20
2.94685
 11
-0.18837
 21
2.99408
  0
LINE
  8
0
 10
-0.18837
 20
2.99408
 11
0.18837
 21
2.99408
  0
LINE
  8
0
 10
0.18837
 20
2.99408
 11
0.562134
 21
2.94685
  0
LINE
  8
0
 10
0.562134
 20
2.94685
 11
0.927048
 21
2.85316
  0
LINE
  8
0
 10
0.927048
 20
2.85316
 11
1.27733
 21
2.71448
  0
LINE
  8
0
 10
1.27733
 20
2.71448
 11
1.60747
 21
2.53297
  0
LINE
  8
0
 10
1.60747
 20
2.53297
 11
1.91226
 21
2.31154
  0
LINE
  8
0
 10
1.91226
 20
2.31154
 11
2.1869
 21
2.05363
  0
LINE
  8
0
 10
2.1869
 20
2.05363
 11
2.42705
 21
1.76335
  0
LINE
  8
0
 10
2.42705
 20
1.76335
 11
2.62891
 21
1.44525
  0
LINE
  8
0
 10
2.62891
 20
1.44525
 11
2.78932
 21
1.10437
  0
LINE
  8
0
 10
2.78932
 20
1.10437
 11
2.90575
 21
0.746063
  0
LINE
  8
0
 10
2.90575
 20
0.746063
 11
2.97633
 21
0.375992
  0
LINE
  8
0
 10
2.97633
 20
0.375992
 11
3
 21
0
  0
LINE
  8
0
 10
3
 20
0
 11
2.97633
 21
-0.375992
  0
LINE
  8
0
 10
2.97633
 20
-0.375992
 11
2.90575
 21
-0.746063
  0
LINE
  8
0
 10
2.90575
 20
-0.746063
 11
2.78932
 21
-1.10437
  0
LINE
  8
0
 10
2.78932
 20
-1.10437
 11
2.62891
 21
-1.44525
  0
LINE
  8
0
 10
2.62891
 20
-1.44525
 11
2.42705
 21
-1.76335
  0
LINE
  8
0
 10
2.42705
 20
-1.76335
 11
2.1869
 21
-2.05363
  0
LINE
  8
0
 10
2.1869
 20
-2.05363
 11
1.91226
 21
-2.31154
  0
LINE
  8
0
 10
1.91226
 20
-2.31154
 11
1.60747
 21
-2.53297
  0
LINE
  8
0
 10
1.60747
 20
-2.53297
 11
1.27733
 21
-2.71448
  0
LINE
  8
0
 10
1.27733
 20
-2.71448
 11
0.927048
 21
-2.85316
  0
LINE
  8
0
 10
0.927048
 20
-2.85316
 11
0.562134
 21
-2.94685
  0
LINE
  8
0
 10
0.562134
 20
-2.94685
 11
0.18837
 21
-2.99408
  0
LINE
  8
0
 10
0.18837
 20
-2.99408
 11
-0.18837
 21
-2.99408
  0
LINE
  8
0
 10
-0.18837
 20
-2.99408
 11
-0.562134
 21
-2.94685
  0
LINE
  8
0
 10
-0.562134
 20
-2.94685
 11
-0.927048
 21
-2.85316
  0
LINE
  8
0
 10
-0.927048
 20
-2.85316
 11
-1.27733
 21
-2.71448
  0
LINE
  8
0
 10
-1.27733
 20
-2.71448
 11
-1.60747
 21
-2.53297
  0
LINE
  8
0
 10
-1.60747
 20
-2.53297
 11
-1.91226
 21
-2.31154
  0
LINE
  8
0
 10
-1.91226
 20
-2.31154
 11
-2.1869
 21
-2.05363
  0
LINE
  8
0
 10
-2.1869
 20
-2.05363
 11
-2.42705
 21
-1.76335
  0
LINE
  8
0
 10
-2.42705
 20
-1.76335
 11
-2.62891
 21
-1.44525
  0
LINE
  8
0
 10
-2.62891
 20
-1.44525
 11
-2.78932
 21
-1.10437
  0
LINE
  8
0
 10
-2.78932
 20
-1.10437
 11
-2.90575
 21
-0.746063
  0
LINE
  8
0
 10
-2.90575
 20
-0.746063
 11
-2.97633
 21
-0.375992
  0
LINE
  8
0
 10
-2.97633
 20
-0.375992
 11
-3
 21
0
  0
LINE
  8
0
 10
-3
 20
0
 11
-2.97633
 21
0.375992
  0
LINE
  8
0
 10
-2.97633
 20
0.375992
 11
-2.90575
 21
0.746063
  0
LINE
  8
0
 10
-2.90575
 20
0.746063
 11
-2.78932
 21
1.10437
  0
LINE
  8
0
 10
-2.78932
 20
1.10437
 11
-2.62891
 21
1.44525
  0
LINE
  8
0
 10
-2.62891
 20
1.44525
 11
-2.42705
 21
1.76335
  0
LINE
  8
0
 10
-2.42705
 20
1.76335
 11
-2.1869
 21
2.05363
  0
LINE
  8
0
 10
-2.1869
 20
2.05363
 11
-1.91226
 21
2.31154
  0
LINE
  8
0
 10
-1.91226
 20
2.31154
 11
-1.60747
 21
2.53297
  0
LINE
  8
0
 10
-0.18837
 20
-17.9941
 11
-0.562134
 21
-17.9469
  0
LINE
  8
0
 10
-0.562134
 20
-17.9469
 11
-0.927048
 21
-17.8532
  0
LINE
  8
0
 10
-0.927048
 20
-17.8532
 11
-1.27733
 21
-17.7145
  0
LINE
  8
0
 10
-1.27733
 20
-17.7145
 11
-1.60747
 21
-17.533
  0
LINE
  8
0
 10
-1.60747
 20
-17.533
 11
-1.91226
 21
-17.3115
  0
LINE
  8
0
 10
-1.91226
 20
-17.3115
 11
-2.1869
 21
-17.0536
  0
LINE
  8
0
 10
-2.1869
 20
-17.0536
 11
-2.42705
 21
-16.7634
  0
LINE
  8
0
 10
-2.42705
 20
-16.7634
 11
-2.62891
 21
-16.4453
  0
LINE
  8
0
 10
-2.62891
 20
-16.4453
 11
-2.78932
 21
-16.1044
  0
LINE
  8
0
 10
-2.78932
 20
-16.1044
 11
-2.90575
 21
-15.7461
  0
LINE
  8
0
 10
-2.90575
 20
-15.7461
 11
-2.97633
 21
-15.376
  0
LINE
  8
0
 10
-2.97633
 20
-15.376
 11
-3
 21
-15
  0
LINE
  8
0
 10
-3
 20
-15
 11
-2.97633
 21
-14.624
  0
LINE
  8
0
 10
-2.97633
 20
-14.624
 11
-2.90575
 21
-14.2539
  0
LINE
  8
0
 10
-2.90575
 20
-14.2539
 11
-2.78932
 21
-13.8956
  0
LINE
  8
0
 10
-2.78932
 20
-13.8956
 11
-2.62891
 21
-13.5547
  0
LINE
  8
0
 10
-2.62891
 20
-13.5547
 11
-2.42705
 21
-13.2366
  0
LINE
  8
0
 10
-2.42705
 20
-13.2366
 11
-2.1869
 21
-12.9464
  0
LINE
  8
0
 10
-2.1869
 20
-12.9464
 11
-1.91226
 21
-12.6884
  0
LINE
  8
0
 10
-1.91226
 20
-12.6884
 11
-1.60747
 21
-12.467
  0
LINE
  8
0
 10
-1.60747
 20
-12.467
 11
-1.27733
 21
-12.2855
  0
LINE
  8
0
 10
-1.27733
 20
-12.2855
 11
-0.927048
 21
-12.1468
  0
LINE
  8
0
 10
-0.927048
 20
-12.1468
 11
-0.562134
 21
-12.0531
  0
LINE
  8
0
 10
-0.562134
 20
-12.0531
 11
-0.18837
 21
-12.0059
  0
LINE
  8
0
 10
-0.18837
 20
-12.0059
 11
0.18837
 21
-12.0059
  0
LINE
  8
0
 10
0.18837
 20
-12.0059
 11
0.562134
 21
-12.0531
  0
LINE
  8
0
 10
0.562134
 20
-12.0531
 11
0.927048
 21
-12.1468
  0
LINE
  8
0
 10
0.927048
 20
-12.1468
 11
1.27733
 21
-12.2855
  0
LINE
  8
0
 10
1.27733
 20
-12.2855
 11
1.60747
 21
-12.467
  0
LINE
  8
0
 10
1.60747
 20
-12.467
 11
1.91226
 21
-12.6884
  0
LINE
  8
0
 10
1.91226
 20
-12.6884
 11
2.1869
 21
-12.9464
  0
LINE
  8
0
 10
2.1869
 20
-12.9464
 11
2.42705
 21
-13.2366
  0
LINE
  8
0
 10
2.42705
 20
-13.2366
 11
2.62891
 21
-13.5547
  0
LINE
  8
0
 10
2.62891
 20
-13.5547
 11
2.78932
 21
-13.8956
  0
LINE
  8
0
 10
2.78932
 20
-13.8956
 11
2.90575
 21
-14.2539
  0
LINE
  8
0
 10
2.90575
 20
-14.2539
 11
2.97633
 21
-14.624
  0
LINE
  8
0
 10
2.97633
 20
-14.624
 11
3
 21
-15
  0
LINE
  8
0
 10
3
 20
-15
 11
2.97633
 21
-15.376
  0
LINE
  8
0
 10
2.97633
 20
-15.376
 11
2.90575
 21
-15.7461
  0
LINE
  8
0
 10
2.90575
 20
-15.7461
 11
2.78932
 21
-16.1044
  0
LINE
  8
0
 10
2.78932
 20
-16.1044
 11
2.62891
 21
-16.4453
  0
LINE
  8
0
 10
2.62891
 20
-16.4453
 11
2.42705
 21
-16.7634
  0
LINE
  8
0
 10
2.42705
 20
-16.7634
 11
2.1869
 21
-17.0536
  0
LINE
  8
0
 10
2.1869
 20
-17.0536
 11
1.91226
 21
-17.3115
  0
LINE
  8
0
 10
1.91226
 20
-17.3115
 11
1.60747
 21
-17.533
  0
LINE
  8
0
 10
1.60747
 20
-17.533
 11
1.27733
 21
-17.7145
  0
LINE
  8
0
 10
1.27733
 20
-17.7145
 11
0.927048
 21
-17.8532
  0
LINE
  8
0
 10
0.927048
 20
-17.8532
 11
0.562134
 21
-17.9469
  0
LINE
  8
0
 10
0.562134
 20
-17.9469
 11
0.18837
 21
-17.9941
  0
LINE
  8
0
 10
0.18837
 20
-17.9941
 11
-0.18837
 21
-17.9941
  0
LINE
  8
0
 10
-12.3711
 20
1.44525
 11
-12.2107
 21
1.10437
  0
LINE
  8
0
 10
-12.2107
 20
1.10437
 11
-12.0942
 21
0.746063
  0
LINE
  8
0
 10
-12.0942
 20
0.746063
 11
-12.0237
 21
0.375992
  0
LINE
  8
0
 10
-12.0237
 20
0.375992
 11
-12
 21
0
  0
LINE
  8
0
 10
-12
 20
0
 11
-12.0237
 21
-0.375992
  0
LINE
  8
0
 10
-12.0237
 20
-0.375992
 11
-12.0942
 21
-0.746063
  0
LINE
  8
0
 10
-12.0942
 20
-0.746063
 11
-12.2107
 21
-1.10437
  0
LINE
  8
0
 10
-12.2107
 20
-1.10437
 11
-12.3711
 21
-1.44525
  0
LINE
  8
0
 10
-12.3711
 20
-1.44525
 11
-12.5729
 21
-1.76335
  0
LINE
  8
0
 10
-12.5729
 20
-1.76335
 11
-12.8131
 21
-2.05363
  0
LINE
  8
0
 10
-12.8131
 20
-2.05363
 11
-13.0877
 21
-2.31154
  0
LINE
  8
0
 10
-13.0877
 20
-2.31154
 11
-13.3925
 21
-2.53297
  0
LINE
  8
0
 10
-13.3925
 20
-2.53297
 11
-13.7227
 21
-2.71448
  0
LINE
  8
0
 10
-13.7227
 20
-2.71448
 11
-14.0729
 21
-2.85316
  0
LINE
  8
0
 10
-14.0729
 20
-2.85316
 11
-14.4379
 21
-2.94685
  0
LINE
  8
0
 10
-14.4379
 20
-2.94685
 11
-14.8116
 21
-2.99408
  0
LINE
  8
0
 10
-14.8116
 20
-2.99408
 11
-15.1884
 21
-2.99408
  0
LINE
  8
0
 10
-15.1884
 20
-2.99408
 11
-15.5621
 21
-2.94685
  0
LINE
  8
0
 10
-15.5621
 20
-2.94685
 11
-15.927
 21
-2.85316
  0
LINE
  8
0
 10
-15.927
 20
-2.85316
 11
-16.2773
 21
-2.71448
  0
LINE
  8
0
 10
-16.2773
 20
-2.71448
 11
-16.6075
 21
-2.53297
  0
LINE
  8
0
 10
-16.6075
 20
-2.53297
 11
-16.9123
 21
-2.31154
  0
LINE
  8
0
 10
-16.9123
 20
-2.31154
 11
-17.1869
 21
-2.05363
  0
LINE
  8
0
 10
-17.1869
 20
-2.05363
 11
-17.427
 21
-1.76335
  0
LINE
  8
0
 10
-17.427
 20
-1.76335
 11
-17.6289
 21
-1.44525
  0
LINE
  8
0
 10
-17.6289
 20
-1.44525
 11
-17.7893
 21
-1.10437
  0
LINE
  8
0
 10
-17.7893
 20
-1.10437
 11
-17.9057
 21
-0.746063
  0
LINE
  8
0
 10
-17.9057
 20
-0.746063
 11
-17.9763
 21
-0.375992
  0
LINE
  8
0
 10
-17.9763
 20
-0.375992
 11
-18
 21
0
  0
LINE
  8
0
 10
-18
 20
0
 11
-17.9763
 21
0.375992
  0
LINE
  8
0
 10
-17.9763
 20
0.375992
 11
-17.9057
 21
0.746063
  0
LINE
  8
0
 10
-17.9057
 20
0.746063
 11
-17.7893
 21
1.10437
  0
LINE
  8
0
 10
-17.7893
 20
1.10437
 11
-17.6289
 21
1.44525
  0
LINE
  8
0
 10
-17.6289
 20
1.44525
 11
-17.427
 21
1.76335
  0
LINE
  8
0
 10
-17.427
 20
1.76335
 11
-17.1869
 21
2.05363
  0
LINE
  8
0
 10
-17.1869
 20
2.05363
 11
-16.9123
 21
2.31154
  0
LINE
  8
0
 10
-16.9123
 20
2.31154
 11
-16.6075
 21
2.53297
  0
LINE
  8
0
 10
-16.6075
 20
2.53297
 11
-16.2773
 21
2.71448
  0
LINE
  8
0
 10
-16.2773
 20
2.71448
 11
-15.927
 21
2.85316
  0
LINE
  8
0
 10
-15.927
 20
2.85316
 11
-15.5621
 21
2.94685
  0
LINE
  8
0
 10
-15.5621
 20
2.94685
 11
-15.1884
 21
2.99408
  0
LINE
  8
0
 10
-15.1884
 20
2.99408
 11
-14.8116
 21
2.99408
  0
LINE
  8
0
 10
-14.8116
 20
2.99408
 11
-14.4379
 21
2.94685
  0
LINE
  8
0
 10
-14.4379
 20
2.94685
 11
-14.0729
 21
2.85316
  0
LINE
  8
0
 10
-14.0729
 20
2.85316
 11
-13.7227
 21
2.71448
  0
LINE
  8
0
 10
-13.7227
 20
2.71448
 11
-13.3925
 21
2.53297
  0
LINE
  8
0
 10
-13.3925
 20
2.53297
 11
-13.0877
 21
2.31154
  0
LINE
  8
0
 10
-13.0877
 20
2.31154
 11
-12.8131
 21
2.05363
  0
LINE
  8
0
 10
-12.8131
 20
2.05363
 11
-12.5729
 21
1.76335
  0
LINE
  8
0
 10
-12.5729
 20
1.76335
 11
-12.3711
 21
1.44525
  0
ENDSEC
  0
SECTION
  2
OBJECTS
  0
DICTIONARY
  0
ENDSEC
  0
EOF
