<?xml version="1.0" standalone="no"?>
<!DOCTYPE svg PUBLIC "-//W3C//DTD SVG 1.1//EN" "http://www.w3.org/Graphics/SVG/1.1/DTD/svg11.dtd">
<svg width="180mm" height="75mm" viewBox="0 -75 180 75" xmlns="http://www.w3.org/2000/svg" version="1.1">
<title>OpenSCAD Model</title>
<path d="
M 175.437,-0.588562 L 176.045,-0.744705 L 176.629,-0.975861 L 177.179,-1.27835 L 177.687,-1.64743 L 178.145,-2.07726
 L 178.545,-2.56107 L 178.882,-3.09122 L 179.149,-3.65936 L 179.343,-4.25655 L 179.461,-4.87332 L 179.5,-5.5
 L 179.5,-69.5 L 179.461,-70.1267 L 179.343,-70.7434 L 179.149,-71.3406 L 178.882,-71.9088 L 178.545,-72.4389
 L 178.145,-72.9227 L 177.687,-73.3526 L 177.179,-73.7216 L 176.629,-74.0241 L 176.045,-74.2553 L 175.437,-74.4114
 L 174.814,-74.4901 L 5.18604,-74.4901 L 4.56308,-74.4114 L 3.95491,-74.2553 L 3.37109,-74.0241 L 2.82086,-73.7216
 L 2.31287,-73.3526 L 1.85515,-72.9227 L 1.45491,-72.4389 L 1.11845,-71.9088 L 0.851105,-71.3406 L 0.657074,-70.7434
 L 0.539413,-70.1267 L 0.5,-69.5 L 0.5,-5.5 L 0.539413,-4.87332 L 0.657074,-4.25655 L 0.851105,-3.65936
 L 1.11845,-3.09122 L 1.45491,-2.56107 L 1.85515,-2.07726 L 2.31287,-1.64743 L 2.82086,-1.27835 L 3.37109,-0.975861
 L 3.95491,-0.744705 L 4.56308,-0.588562 L 5.18604,-0.509857 L 174.814,-0.509857 z
M 97.3116,-64.5059 L 96.9379,-64.5531 L 96.573,-64.6468 L 96.2227,-64.7855 L 95.8925,-64.967 L 95.5877,-65.1885
 L 95.3131,-65.4464 L 95.073,-65.7366 L 94.8711,-66.0547 L 94.7107,-66.3956 L 94.5943,-66.7539 L 94.5237,-67.124
 L 94.5,-67.5 L 94.5237,-67.876 L 94.5943,-68.2461 L 94.7107,-68.6044 L 94.8711,-68.9453 L 95.073,-69.2634
 L 95.3131,-69.5536 L 95.5877,-69.8115 L 95.8925,-70.033 L 96.2227,-70.2145 L 96.573,-70.3532 L 96.9379,-70.4469
 L 97.3116,-70.4941 L 97.6884,-70.4941 L 98.0621,-70.4469 L 98.427,-70.3532 L 98.7773,-70.2145 L 99.1075,-70.033
 L 99.4123,-69.8115 L 99.6869,-69.5536 L 99.927,-69.2634 L 100.129,-68.9453 L 100.289,-68.6044 L 100.406,-68.2461
 L 100.476,-67.876 L 100.5,-67.5 L 100.476,-67.124 L 100.406,-66.7539 L 100.289,-66.3956 L 100.129,-66.0547
 L 99.927,-65.7366 L 99.6869,-65.4464 L 99.4123,-65.1885 L 99.1075,-64.967 L 98.7773,-64.7855 L 98.427,-64.6468
 L 98.0621,-64.5531 L 97.6884,-64.5059 z
M 82.3116,-64.5059 L 81.9379,-64.5531 L 81.573,-64.6468 L 81.2227,-64.7855 L 80.8925,-64.967 L 80.5877,-65.1885
 L 80.3131,-65.4464 L 80.073,-65.7366 L 79.8711,-66.0547 L 79.7107,-66.3956 L 79.5943,-66.7539 L 79.5237,-67.124
 L 79.5,-67.5 L 79.5237,-67.876 L 79.5943,-68.2461 L 79.7107,-68.6044 L 79.8711,-68.9453 L 80.073,-69.2634
 L 80.3131,-69.5536 L 80.5877,-69.8115 L 80.8925,-70.033 L 81.2227,-70.2145 L 81.573,-70.3532 L 81.9379,-70.4469
 L 82.3116,-70.4941 L 82.6884,-70.4941 L 83.0621,-70.4469 L 83.427,-70.3532 L 83.7773,-70.2145 L 84.1075,-70.033
 L 84.4123,-69.8115 L 84.6869,-69.5536 L 84.927,-69.2634 L 85.1289,-68.9453 L 85.2893,-68.6044 L 85.4057,-68.2461
 L 85.4763,-67.876 L 85.5,-67.5 L 85.4763,-67.124 L 85.4057,-66.7539 L 85.2893,-66.3956 L 85.1289,-66.0547
 L 84.927,-65.7366 L 84.6869,-65.4464 L 84.4123,-65.1885 L 84.1075,-64.967 L 83.7773,-64.7855 L 83.427,-64.6468
 L 83.0621,-64.5531 L 82.6884,-64.5059 z
M 34.8711,-66.0547 L 34.7107,-66.3956 L 34.5942,-66.7539 L 34.5237,-67.124 L 34.5,-67.5 L 34.5237,-67.876
 L 34.5942,-68.2461 L 34.7107,-68.6044 L 34.8711,-68.9453 L 35.0729,-69.2634 L 35.3131,-69.5536 L 35.5877,-69.8115
 L 35.8925,-70.033 L 36.2227,-70.2145 L 36.5729,-70.3532 L 36.9379,-70.4469 L 37.3116,-70.4941 L 37.6884,-70.4941
 L 38.0621,-70.4469 L 38.427,-70.3532 L 38.7773,-70.2145 L 39.1075,-70.033 L 39.4123,-69.8115 L 39.6869,-69.5536
 L 39.927,-69.2634 L 40.1289,-68.9453 L 40.2893,-68.6044 L 40.4057,-68.2461 L 40.4763,-67.876 L 40.5,-67.5
 L 40.4763,-67.124 L 40.4057,-66.7539 L 40.2893,-66.3956 L 40.1289,-66.0547 L 39.927,-65.7366 L 39.6869,-65.4464
 L 39.4123,-65.1885 L 39.1075,-64.967 L 38.7773,-64.7855 L 38.427,-64.6468 L 38.0621,-64.5531 L 37.6884,-64.5059
 L 37.3116,-64.5059 L 36.9379,-64.5531 L 36.5729,-64.6468 L 36.2227,-64.7855 L 35.8925,-64.967 L 35.5877,-65.1885
 L 35.3131,-65.4464 L 35.0729,-65.7366 z
M 52.3116,-64.5059 L 51.9379,-64.5531 L 51.5729,-64.6468 L 51.2227,-64.7855 L 50.8925,-64.967 L 50.5877,-65.1885
 L 50.3131,-65.4464 L 50.0729,-65.7366 L 49.8711,-66.0547 L 49.7107,-66.3956 L 49.5942,-66.7539 L 49.5237,-67.124
 L 49.5,-67.5 L 49.5237,-67.876 L 49.5942,-68.2461 L 49.7107,-68.6044 L 49.8711,-68.9453 L 50.0729,-69.2634
 L 50.3131,-69.5536 L 50.5877,-69.8115 L 50.8925,-70.033 L 51.2227,-70.2145 L 51.5729,-70.3532 L 51.9379,-70.4469
 L 52.3116,-70.4941 L 52.6884,-70.4941 L 53.0621,-70.4469 L 53.427,-70.3532 L 53.7773,-70.2145 L 54.1075,-70.033
 L 54.4123,-69.8115 L 54.6869,-69.5536 L 54.927,-69.2634 L 55.1289,-68.9453 L 55.2893,-68.6044 L 55.4057,-68.2461
 L 55.4763,-67.876 L 55.5,-67.5 L 55.4763,-67.124 L 55.4057,-66.7539 L 55.2893,-66.3956 L 55.1289,-66.0547
 L 54.927,-65.7366 L 54.6869,-65.4464 L 54.4123,-65.1885 L 54.1075,-64.967 L 53.7773,-64.7855 L 53.427,-64.6468
 L 53.0621,-64.5531 L 52.6884,-64.5059 z
M 67.3116,-64.5059 L 66.9379,-64.5531 L 66.573,-64.6468 L 66.2227,-64.7855 L 65.8925,-64.967 L 65.5877,-65.1885
 L 65.3131,-65.4464 L 65.073,-65.7366 L 64.8711,-66.0547 L 64.7107,-66.3956 L 64.5943,-66.7539 L 64.5237,-67.124
 L 64.5,-67.5 L 64.5237,-67.876 L 64.5943,-68.2461 L 64.7107,-68.6044 L 64.8711,-68.9453 L 65.073,-69.2634
 L 65.3131,-69.5536 L 65.5877,-69.8115 L 65.8925,-70.033 L 66.2227,-70.2145 L 66.573,-70.3532 L 66.9379,-70.4469
 L 67.3116,-70.4941 L 67.6884,-70.4941 L 68.0621,-70.4469 L 68.427,-70.3532 L 68.7773,-70.2145 L 69.1075,-70.033
 L 69.4123,-69.8115 L 69.6869,-69.5536 L 69.927,-69.2634 L 70.1289,-68.9453 L 70.2893,-68.6044 L 70.4057,-68.2461
 L 70.4763,-67.876 L 70.5,-67.5 L 70.4763,-67.124 L 70.4057,-66.7539 L 70.2893,-66.3956 L 70.1289,-66.0547
 L 69.927,-65.7366 L 69.6869,-65.4464 L 69.4123,-65.1885 L 69.1075,-64.967 L 68.7773,-64.7855 L 68.427,-64.6468
 L 68.0621,-64.5531 L 67.6884,-64.5059 z
M 127.312,-64.5059 L 126.938,-64.5531 L 126.573,-64.6468 L 126.223,-64.7855 L 125.893,-64.967 L 125.588,-65.1885
 L 125.313,-65.4464 L 125.073,-65.7366 L 124.871,-66.0547 L 124.711,-66.3956 L 124.594,-66.7539 L 124.524,-67.124
 L 124.5,-67.5 L 124.524,-67.876 L 124.594,-68.2461 L 124.711,-68.6044 L 124.871,-68.9453 L 125.073,-69.2634
 L 125.313,-69.5536 L 125.588,-69.8115 L 125.893,-70.033 L 126.223,-70.2145 L 126.573,-70.3532 L 126.938,-70.4469
 L 127.312,-70.4941 L 127.688,-70.4941 L 128.062,-70.4469 L 128.427,-70.3532 L 128.777,-70.2145 L 129.107,-70.033
 L 129.412,-69.8115 L 129.687,-69.5536 L 129.927,-69.2634 L 130.129,-68.9453 L 130.289,-68.6044 L 130.406,-68.2461
 L 130.476,-67.876 L 130.5,-67.5 L 130.476,-67.124 L 130.406,-66.7539 L 130.289,-66.3956 L 130.129,-66.0547
 L 129.927,-65.7366 L 129.687,-65.4464 L 129.412,-65.1885 L 129.107,-64.967 L 128.777,-64.7855 L 128.427,-64.6468
 L 128.062,-64.5531 L 127.688,-64.5059 z
M 172.312,-64.5059 L 171.938,-64.5531 L 171.573,-64.6468 L 171.223,-64.7855 L 170.893,-64.967 L 170.588,-65.1885
 L 170.313,-65.4464 L 170.073,-65.7366 L 169.871,-66.0547 L 169.711,-66.3956 L 169.594,-66.7539 L 169.524,-67.124
 L 169.5,-67.5 L 169.524,-67.876 L 169.594,-68.2461 L 169.711,-68.6044 L 169.871,-68.9453 L 170.073,-69.2634
 L 170.313,-69.5536 L 170.588,-69.8115 L 170.893,-70.033 L 171.223,-70.2145 L 171.573,-70.3532 L 171.938,-70.4469
 L 172.312,-70.4941 L 172.688,-70.4941 L 173.062,-70.4469 L 173.427,-70.3532 L 173.777,-70.2145 L 174.107,-70.033
 L 174.412,-69.8115 L 174.687,-69.5536 L 174.927,-69.2634 L 175.129,-68.9453 L 175.289,-68.6044 L 175.406,-68.2461
 L 175.476,-67.876 L 175.5,-67.5 L 175.476,-67.124 L 175.406,-66.7539 L 175.289,-66.3956 L 175.129,-66.0547
 L 174.927,-65.7366 L 174.687,-65.4464 L 174.412,-65.1885 L 174.107,-64.967 L 173.777,-64.7855 L 173.427,-64.6468
 L 173.062,-64.5531 L 172.688,-64.5059 z
M 142.312,-64.5059 L 141.938,-64.5531 L 141.573,-64.6468 L 141.223,-64.7855 L 140.893,-64.967 L 140.588,-65.1885
 L 140.313,-65.4464 L 140.073,-65.7366 L 139.871,-66.0547 L 139.711,-66.3956 L 139.594,-66.7539 L 139.524,-67.124
 L 139.5,-67.5 L 139.524,-67.876 L 139.594,-68.2461 L 139.711,-68.6044 L 139.871,-68.9453 L 140.073,-69.2634
 L 140.313,-69.5536 L 140.588,-69.8115 L 140.893,-70.033 L 141.223,-70.2145 L 141.573,-70.3532 L 141.938,-70.4469
 L 142.312,-70.4941 L 142.688,-70.4941 L 143.062,-70.4469 L 143.427,-70.3532 L 143.777,-70.2145 L 144.107,-70.033
 L 144.412,-69.8115 L 144.687,-69.5536 L 144.927,-69.2634 L 145.129,-68.9453 L 145.289,-68.6044 L 145.406,-68.2461
 L 145.476,-67.876 L 145.5,-67.5 L 145.476,-67.124 L 145.406,-66.7539 L 145.289,-66.3956 L 145.129,-66.0547
 L 144.927,-65.7366 L 144.687,-65.4464 L 144.412,-65.1885 L 144.107,-64.967 L 143.777,-64.7855 L 143.427,-64.6468
 L 143.062,-64.5531 L 142.688,-64.5059 z
M 112.312,-64.5059 L 111.938,-64.5531 L 111.573,-64.6468 L 111.223,-64.7855 L 110.893,-64.967 L 110.588,-65.1885
 L 110.313,-65.4464 L 110.073,-65.7366 L 109.871,-66.0547 L 109.711,-66.3956 L 109.594,-66.7539 L 109.524,-67.124
 L 109.5,-67.5 L 109.524,-67.876 L 109.594,-68.2461 L 109.711,-68.6044 L 109.871,-68.9453 L 110.073,-69.2634
 L 110.313,-69.5536 L 110.588,-69.8115 L 110.893,-70.033 L 111.223,-70.2145 L 111.573,-70.3532 L 111.938,-70.4469
 L 112.312,-70.4941 L 112.688,-70.4941 L 113.062,-70.4469 L 113.427,-70.3532 L 113.777,-70.2145 L 114.107,-70.033
 L 114.412,-69.8115 L 114.687,-69.5536 L 114.927,-69.2634 L 115.129,-68.9453 L 115.289,-68.6044 L 115.406,-68.2461
 L 115.476,-67.876 L 115.5,-67.5 L 115.476,-67.124 L 115.406,-66.7539 L 115.289,-66.3956 L 115.129,-66.0547
 L 114.927,-65.7366 L 114.687,-65.4464 L 114.412,-65.1885 L 114.107,-64.967 L 113.777,-64.7855 L 113.427,-64.6468
 L 113.062,-64.5531 L 112.688,-64.5059 z
M 157.312,-64.5059 L 156.938,-64.5531 L 156.573,-64.6468 L 156.223,-64.7855 L 155.893,-64.967 L 155.588,-65.1885
 L 155.313,-65.4464 L 155.073,-65.7366 L 154.871,-66.0547 L 154.711,-66.3956 L 154.594,-66.7539 L 154.524,-67.124
 L 154.5,-67.5 L 154.524,-67.876 L 154.594,-68.2461 L 154.711,-68.6044 L 154.871,-68.9453 L 155.073,-69.2634
 L 155.313,-69.5536 L 155.588,-69.8115 L 155.893,-70.033 L 156.223,-70.2145 L 156.573,-70.3532 L 156.938,-70.4469
 L 157.312,-70.4941 L 157.688,-70.4941 L 158.062,-70.4469 L 158.427,-70.3532 L 158.777,-70.2145 L 159.107,-70.033
 L 159.412,-69.8115 L 159.687,-69.5536 L 159.927,-69.2634 L 160.129,-68.9453 L 160.289,-68.6044 L 160.406,-68.2461
 L 160.476,-67.876 L 160.5,-67.5 L 160.476,-67.124 L 160.406,-66.7539 L 160.289,-66.3956 L 160.129,-66.0547
 L 159.927,-65.7366 L 159.687,-65.4464 L 159.412,-65.1885 L 159.107,-64.967 L 158.777,-64.7855 L 158.427,-64.6468
 L 158.062,-64.5531 L 157.688,-64.5059 z
M 7.31161,-64.5059 L 6.93785,-64.5531 L 6.57294,-64.6468 L 6.22266,-64.7855 L 5.89252,-64.967 L 5.58772,-65.1885
 L 5.31308,-65.4464 L 5.07294,-65.7366 L 4.87108,-66.0547 L 4.71066,-66.3956 L 4.59424,-66.7539 L 4.52365,-67.124
 L 4.5,-67.5 L 4.52365,-67.876 L 4.59424,-68.2461 L 4.71066,-68.6044 L 4.87108,-68.9453 L 5.07294,-69.2634
 L 5.31308,-69.5536 L 5.58772,-69.8115 L 5.89252,-70.033 L 6.22266,-70.2145 L 6.57294,-70.3532 L 6.93785,-70.4469
 L 7.31161,-70.4941 L 7.68837,-70.4941 L 8.06213,-70.4469 L 8.42705,-70.3532 L 8.77733,-70.2145 L 9.10747,-70.033
 L 9.41226,-69.8115 L 9.6869,-69.5536 L 9.92705,-69.2634 L 10.1289,-68.9453 L 10.2893,-68.6044 L 10.4057,-68.2461
 L 10.4763,-67.876 L 10.5,-67.5 L 10.4763,-67.124 L 10.4057,-66.7539 L 10.2893,-66.3956 L 10.1289,-66.0547
 L 9.92705,-65.7366 L 9.6869,-65.4464 L 9.41226,-65.1885 L 9.10747,-64.967 L 8.77733,-64.7855 L 8.42705,-64.6468
 L 8.06213,-64.5531 L 7.68837,-64.5059 z
M 22.3116,-49.5059 L 21.9379,-49.5531 L 21.5729,-49.6468 L 21.2227,-49.7855 L 20.8925,-49.967 L 20.5877,-50.1885
 L 20.3131,-50.4464 L 20.0729,-50.7366 L 19.8711,-51.0547 L 19.7107,-51.3956 L 19.5942,-51.7539 L 19.5237,-52.124
 L 19.5,-52.5 L 19.5237,-52.876 L 19.5942,-53.2461 L 19.7107,-53.6044 L 19.8711,-53.9453 L 20.0729,-54.2634
 L 20.3131,-54.5536 L 20.5877,-54.8115 L 20.8925,-55.033 L 21.2227,-55.2145 L 21.5729,-55.3532 L 21.9379,-55.4469
 L 22.3116,-55.4941 L 22.6884,-55.4941 L 23.0621,-55.4469 L 23.427,-55.3532 L 23.7773,-55.2145 L 24.1075,-55.033
 L 24.4123,-54.8115 L 24.6869,-54.5536 L 24.927,-54.2634 L 25.1289,-53.9453 L 25.2893,-53.6044 L 25.4057,-53.2461
 L 25.4763,-52.876 L 25.5,-52.5 L 25.4763,-52.124 L 25.4057,-51.7539 L 25.2893,-51.3956 L 25.1289,-51.0547
 L 24.927,-50.7366 L 24.6869,-50.4464 L 24.4123,-50.1885 L 24.1075,-49.967 L 23.7773,-49.7855 L 23.427,-49.6468
 L 23.0621,-49.5531 L 22.6884,-49.5059 z
M 127.312,-49.5059 L 126.938,-49.5531 L 126.573,-49.6468 L 126.223,-49.7855 L 125.893,-49.967 L 125.588,-50.1885
 L 125.313,-50.4464 L 125.073,-50.7366 L 124.871,-51.0547 L 124.711,-51.3956 L 124.594,-51.7539 L 124.524,-52.124
 L 124.5,-52.5 L 124.524,-52.876 L 124.594,-53.2461 L 124.711,-53.6044 L 124.871,-53.9453 L 125.073,-54.2634
 L 125.313,-54.5536 L 125.588,-54.8115 L 125.893,-55.033 L 126.223,-55.2145 L 126.573,-55.3532 L 126.938,-55.4469
 L 127.312,-55.4941 L 127.688,-55.4941 L 128.062,-55.4469 L 128.427,-55.3532 L 128.777,-55.2145 L 129.107,-55.033
 L 129.412,-54.8115 L 129.687,-54.5536 L 129.927,-54.2634 L 130.129,-53.9453 L 130.289,-53.6044 L 130.406,-53.2461
 L 130.476,-52.876 L 130.5,-52.5 L 130.476,-52.124 L 130.406,-51.7539 L 130.289,-51.3956 L 130.129,-51.0547
 L 129.927,-50.7366 L 129.687,-50.4464 L 129.412,-50.1885 L 129.107,-49.967 L 128.777,-49.7855 L 128.427,-49.6468
 L 128.062,-49.5531 L 127.688,-49.5059 z
M 172.312,-49.5059 L 171.938,-49.5531 L 171.573,-49.6468 L 171.223,-49.7855 L 170.893,-49.967 L 170.588,-50.1885
 L 170.313,-50.4464 L 170.073,-50.7366 L 169.871,-51.0547 L 169.711,-51.3956 L 169.594,-51.7539 L 169.524,-52.124
 L 169.5,-52.5 L 169.524,-52.876 L 169.594,-53.2461 L 169.711,-53.6044 L 169.871,-53.9453 L 170.073,-54.2634
 L 170.313,-54.5536 L 170.588,-54.8115 L 170.893,-55.033 L 171.223,-55.2145 L 171.573,-55.3532 L 171.938,-55.4469
 L 172.312,-55.4941 L 172.688,-55.4941 L 173.062,-55.4469 L 173.427,-55.3532 L 173.777,-55.2145 L 174.107,-55.033
 L 174.412,-54.8115 L 174.687,-54.5536 L 174.927,-54.2634 L 175.129,-53.9453 L 175.289,-53.6044 L 175.406,-53.2461
 L 175.476,-52.876 L 175.5,-52.5 L 175.476,-52.124 L 175.406,-51.7539 L 175.289,-51.3956 L 175.129,-51.0547
 L 174.927,-50.7366 L 174.687,-50.4464 L 174.412,-50.1885 L 174.107,-49.967 L 173.777,-49.7855 L 173.427,-49.6468
 L 173.062,-49.5531 L 172.688,-49.5059 z
M 52.3116,-49.5059 L 51.9379,-49.5531 L 51.5729,-49.6468 L 51.2227,-49.7855 L 50.8925,-49.967 L 50.5877,-50.1885
 L 50.3131,-50.4464 L 50.0729,-50.7366 L 49.8711,-51.0547 L 49.7107,-51.3956 L 49.5942,-51.7539 L 49.5237,-52.124
 L 49.5,-52.5 L 49.5237,-52.876 L 49.5942,-53.2461 L 49.7107,-53.6044 L 49.8711,-53.9453 L 50.0729,-54.2634
 L 50.3131,-54.5536 L 50.5877,-54.8115 L 50.8925,-55.033 L 51.2227,-55.2145 L 51.5729,-55.3532 L 51.9379,-55.4469
 L 52.3116,-55.4941 L 52.6884,-55.4941 L 53.0621,-55.4469 L 53.427,-55.3532 L 53.7773,-55.2145 L 54.1075,-55.033
 L 54.4123,-54.8115 L 54.6869,-54.5536 L 54.927,-54.2634 L 55.1289,-53.9453 L 55.2893,-53.6044 L 55.4057,-53.2461
 L 55.4763,-52.876 L 55.5,-52.5 L 55.4763,-52.124 L 55.4057,-51.7539 L 55.2893,-51.3956 L 55.1289,-51.0547
 L 54.927,-50.7366 L 54.6869,-50.4464 L 54.4123,-50.1885 L 54.1075,-49.967 L 53.7773,-49.7855 L 53.427,-49.6468
 L 53.0621,-49.5531 L 52.6884,-49.5059 z
M 7.31161,-49.5059 L 6.93785,-49.5531 L 6.57294,-49.6468 L 6.22266,-49.7855 L 5.89252,-49.967 L 5.58772,-50.1885
 L 5.31308,-50.4464 L 5.07294,-50.7366 L 4.87108,-51.0547 L 4.71066,-51.3956 L 4.59424,-51.7539 L 4.52365,-52.124
 L 4.5,-52.5 L 4.52365,-52.876 L 4.59424,-53.2461 L 4.71066,-53.6044 L 4.87108,-53.9453 L 5.07294,-54.2634
 L 5.31308,-54.5536 L 5.58772,-54.8115 L 5.89252,-55.033 L 6.22266,-55.2145 L 6.57294,-55.3532 L 6.93785,-55.4469
 L 7.31161,-55.4941 L 7.68837,-55.4941 L 8.06213,-55.4469 L 8.42705,-55.3532 L 8.77733,-55.2145 L 9.10747,-55.033
 L 9.41226,-54.8115 L 9.6869,-54.5536 L 9.92705,-54.2634 L 10.1289,-53.9453 L 10.2893,-53.6044 L 10.4057,-53.2461
 L 10.4763,-52.876 L 10.5,-52.5 L 10.4763,-52.124 L 10.4057,-51.7539 L 10.2893,-51.3956 L 10.1289,-51.0547
 L 9.92705,-50.7366 L 9.6869,-50.4464 L 9.41226,-50.1885 L 9.10747,-49.967 L 8.77733,-49.7855 L 8.42705,-49.6468
 L 8.06213,-49.5531 L 7.68837,-49.5059 z
M 37.3116,-49.5059 L 36.9379,-49.5531 L 36.5729,-49.6468 L 36.2227,-49.7855 L 35.8925,-49.967 L 35.5877,-50.1885
 L 35.3131,-50.4464 L 35.0729,-50.7366 L 34.8711,-51.0547 L 34.7107,-51.3956 L 34.5942,-51.7539 L 34.5237,-52.124
 L 34.5,-52.5 L 34.5237,-52.876 L 34.5942,-53.2461 L 34.7107,-53.6044 L 34.8711,-53.9453 L 35.0729,-54.2634
 L 35.3131,-54.5536 L 35.5877,-54.8115 L 35.8925,-55.033 L 36.2227,-55.2145 L 36.5729,-55.3532 L 36.9379,-55.4469
 L 37.3116,-55.4941 L 37.6884,-55.4941 L 38.0621,-55.4469 L 38.427,-55.3532 L 38.7773,-55.2145 L 39.1075,-55.033
 L 39.4123,-54.8115 L 39.6869,-54.5536 L 39.927,-54.2634 L 40.1289,-53.9453 L 40.2893,-53.6044 L 40.4057,-53.2461
 L 40.4763,-52.876 L 40.5,-52.5 L 40.4763,-52.124 L 40.4057,-51.7539 L 40.2893,-51.3956 L 40.1289,-51.0547
 L 39.927,-50.7366 L 39.6869,-50.4464 L 39.4123,-50.1885 L 39.1075,-49.967 L 38.7773,-49.7855 L 38.427,-49.6468
 L 38.0621,-49.5531 L 37.6884,-49.5059 z
M 112.312,-49.5059 L 111.938,-49.5531 L 111.573,-49.6468 L 111.223,-49.7855 L 110.893,-49.967 L 110.588,-50.1885
 L 110.313,-50.4464 L 110.073,-50.7366 L 109.871,-51.0547 L 109.711,-51.3956 L 109.594,-51.7539 L 109.524,-52.124
 L 109.5,-52.5 L 109.524,-52.876 L 109.594,-53.2461 L 109.711,-53.6044 L 109.871,-53.9453 L 110.073,-54.2634
 L 110.313,-54.5536 L 110.588,-54.8115 L 110.893,-55.033 L 111.223,-55.2145 L 111.573,-55.3532 L 111.938,-55.4469
 L 112.312,-55.4941 L 112.688,-55.4941 L 113.062,-55.4469 L 113.427,-55.3532 L 113.777,-55.2145 L 114.107,-55.033
 L 114.412,-54.8115 L 114.687,-54.5536 L 114.927,-54.2634 L 115.129,-53.9453 L 115.289,-53.6044 L 115.406,-53.2461
 L 115.476,-52.876 L 115.5,-52.5 L 115.476,-52.124 L 115.406,-51.7539 L 115.289,-51.3956 L 115.129,-51.0547
 L 114.927,-50.7366 L 114.687,-50.4464 L 114.412,-50.1885 L 114.107,-49.967 L 113.777,-49.7855 L 113.427,-49.6468
 L 113.062,-49.5531 L 112.688,-49.5059 z
M 97.3116,-49.5059 L 96.9379,-49.5531 L 96.573,-49.6468 L 96.2227,-49.7855 L 95.8925,-49.967 L 95.5877,-50.1885
 L 95.3131,-50.4464 L 95.073,-50.7366 L 94.8711,-51.0547 L 94.7107,-51.3956 L 94.5943,-51.7539 L 94.5237,-52.124
 L 94.5,-52.5 L 94.5237,-52.876 L 94.5943,-53.2461 L 94.7107,-53.6044 L 94.8711,-53.9453 L 95.073,-54.2634
 L 95.3131,-54.5536 L 95.5877,-54.8115 L 95.8925,-55.033 L 96.2227,-55.2145 L 96.573,-55.3532 L 96.9379,-55.4469
 L 97.3116,-55.4941 L 97.6884,-55.4941 L 98.0621,-55.4469 L 98.427,-55.3532 L 98.7773,-55.2145 L 99.1075,-55.033
 L 99.4123,-54.8115 L 99.6869,-54.5536 L 99.927,-54.2634 L 100.129,-53.9453 L 100.289,-53.6044 L 100.406,-53.2461
 L 100.476,-52.876 L 100.5,-52.5 L 100.476,-52.124 L 100.406,-51.7539 L 100.289,-51.3956 L 100.129,-51.0547
 L 99.927,-50.7366 L 99.6869,-50.4464 L 99.4123,-50.1885 L 99.1075,-49.967 L 98.7773,-49.7855 L 98.427,-49.6468
 L 98.0621,-49.5531 L 97.6884,-49.5059 z
M 67.3116,-49.5059 L 66.9379,-49.5531 L 66.573,-49.6468 L 66.2227,-49.7855 L 65.8925,-49.967 L 65.5877,-50.1885
 L 65.3131,-50.4464 L 65.073,-50.7366 L 64.8711,-51.0547 L 64.7107,-51.3956 L 64.5943,-51.7539 L 64.5237,-52.124
 L 64.5,-52.5 L 64.5237,-52.876 L 64.5943,-53.2461 L 64.7107,-53.6044 L 64.8711,-53.9453 L 65.073,-54.2634
 L 65.3131,-54.5536 L 65.5877,-54.8115 L 65.8925,-55.033 L 66.2227,-55.2145 L 66.573,-55.3532 L 66.9379,-55.4469
 L 67.3116,-55.4941 L 67.6884,-55.4941 L 68.0621,-55.4469 L 68.427,-55.3532 L 68.7773,-55.2145 L 69.1075,-55.033
 L 69.4123,-54.8115 L 69.6869,-54.5536 L 69.927,-54.2634 L 70.1289,-53.9453 L 70.2893,-53.6044 L 70.4057,-53.2461
 L 70.4763,-52.876 L 70.5,-52.5 L 70.4763,-52.124 L 70.4057,-51.7539 L 70.2893,-51.3956 L 70.1289,-51.0547
 L 69.927,-50.7366 L 69.6869,-50.4464 L 69.4123,-50.1885 L 69.1075,-49.967 L 68.7773,-49.7855 L 68.427,-49.6468
 L 68.0621,-49.5531 L 67.6884,-49.5059 z
M 157.312,-49.5059 L 156.938,-49.5531 L 156.573,-49.6468 L 156.223,-49.7855 L 155.893,-49.967 L 155.588,-50.1885
 L 155.313,-50.4464 L 155.073,-50.7366 L 154.871,-51.0547 L 154.711,-51.3956 L 154.594,-51.7539 L 154.524,-52.124
 L 154.5,-52.5 L 154.524,-52.876 L 154.594,-53.2461 L 154.711,-53.6044 L 154.871,-53.9453 L 155.073,-54.2634
 L 155.313,-54.5536 L 155.588,-54.8115 L 155.893,-55.033 L 156.223,-55.2145 L 156.573,-55.3532 L 156.938,-55.4469
 L 157.312,-55.4941 L 157.688,-55.4941 L 158.062,-55.4469 L 158.427,-55.3532 L 158.777,-55.2145 L 159.107,-55.033
 L 159.412,-54.8115 L 159.687,-54.5536 L 159.927,-54.2634 L 160.129,-53.9453 L 160.289,-53.6044 L 160.406,-53.2461
 L 160.476,-52.876 L 160.5,-52.5 L 160.476,-52.124 L 160.406,-51.7539 L 160.289,-51.3956 L 160.129,-51.0547
 L 159.927,-50.7366 L 159.687,-50.4464 L 159.412,-50.1885 L 159.107,-49.967 L 158.777,-49.7855 L 158.427,-49.6468
 L 158.062,-49.5531 L 157.688,-49.5059 z
M 82.3116,-49.5059 L 81.9379,-49.5531 L 81.573,-49.6468 L 81.2227,-49.7855 L 80.8925,-49.967 L 80.5877,-50.1885
 L 80.3131,-50.4464 L 80.073,-50.7366 L 79.8711,-51.0547 L 79.7107,-51.3956 L 79.5943,-51.7539 L 79.5237,-52.124
 L 79.5,-52.5 L 79.5237,-52.876 L 79.5943,-53.2461 L 79.7107,-53.6044 L 79.8711,-53.9453 L 80.073,-54.2634
 L 80.3131,-54.5536 L 80.5877,-54.8115 L 80.8925,-55.033 L 81.2227,-55.2145 L 81.573,-55.3532 L 81.9379,-55.4469
 L 82.3116,-55.4941 L 82.6884,-55.4941 L 83.0621,-55.4469 L 83.427,-55.3532 L 83.7773,-55.2145 L 84.1075,-55.033
 L 84.4123,-54.8115 L 84.6869,-54.5536 L 84.927,-54.2634 L 85.1289,-53.9453 L 85.2893,-53.6044 L 85.4057,-53.2461
 L 85.4763,-52.876 L 85.5,-52.5 L 85.4763,-52.124 L 85.4057,-51.7539 L 85.2893,-51.3956 L 85.1289,-51.0547
 L 84.927,-50.7366 L 84.6869,-50.4464 L 84.4123,-50.1885 L 84.1075,-49.967 L 83.7773,-49.7855 L 83.427,-49.6468
 L 83.0621,-49.5531 L 82.6884,-49.5059 z
M 142.312,-49.5059 L 141.938,-49.5531 L 141.573,-49.6468 L 141.223,-49.7855 L 140.893,-49.967 L 140.588,-50.1885
 L 140.313,-50.4464 L 140.073,-50.7366 L 139.871,-51.0547 L 139.711,-51.3956 L 139.594,-51.7539 L 139.524,-52.124
 L 139.5,-52.5 L 139.524,-52.876 L 139.594,-53.2461 L 139.711,-53.6044 L 139.871,-53.9453 L 140.073,-54.2634
 L 140.313,-54.5536 L 140.588,-54.8115 L 140.893,-55.033 L 141.223,-55.2145 L 141.573,-55.3532 L 141.938,-55.4469
 L 142.312,-55.4941 L 142.688,-55.4941 L 143.062,-55.4469 L 143.427,-55.3532 L 143.777,-55.2145 L 144.107,-55.033
 L 144.412,-54.8115 L 144.687,-54.5536 L 144.927,-54.2634 L 145.129,-53.9453 L 145.289,-53.6044 L 145.406,-53.2461
 L 145.476,-52.876 L 145.5,-52.5 L 145.476,-52.124 L 145.406,-51.7539 L 145.289,-51.3956 L 145.129,-51.0547
 L 144.927,-50.7366 L 144.687,-50.4464 L 144.412,-50.1885 L 144.107,-49.967 L 143.777,-49.7855 L 143.427,-49.6468
 L 143.062,-49.5531 L 142.688,-49.5059 z
M 97.3116,-34.5059 L 96.9379,-34.5531 L 96.573,-34.6468 L 96.2227,-34.7855 L 95.8925,-34.967 L 95.5877,-35.1885
 L 95.3131,-35.4464 L 95.073,-35.7366 L 94.8711,-36.0547 L 94.7107,-36.3956 L 94.5943,-36.7539 L 94.5237,-37.124
 L 94.5,-37.5 L 94.5237,-37.876 L 94.5943,-38.2461 L 94.7107,-38.6044 L 94.8711,-38.9453 L 95.073,-39.2634
 L 95.3131,-39.5536 L 95.5877,-39.8115 L 95.8925,-40.033 L 96.2227,-40.2145 L 96.573,-40.3532 L 96.9379,-40.4469
 L 97.3116,-40.4941 L 97.6884,-40.4941 L 98.0621,-40.4469 L 98.427,-40.3532 L 98.7773,-40.2145 L 99.1075,-40.033
 L 99.4123,-39.8115 L 99.6869,-39.5536 L 99.927,-39.2634 L 100.129,-38.9453 L 100.289,-38.6044 L 100.406,-38.2461
 L 100.476,-37.876 L 100.5,-37.5 L 100.476,-37.124 L 100.406,-36.7539 L 100.289,-36.3956 L 100.129,-36.0547
 L 99.927,-35.7366 L 99.6869,-35.4464 L 99.4123,-35.1885 L 99.1075,-34.967 L 98.7773,-34.7855 L 98.427,-34.6468
 L 98.0621,-34.5531 L 97.6884,-34.5059 z
M 7.31161,-34.5059 L 6.93785,-34.5531 L 6.57294,-34.6468 L 6.22266,-34.7855 L 5.89252,-34.967 L 5.58772,-35.1885
 L 5.31308,-35.4464 L 5.07294,-35.7366 L 4.87108,-36.0547 L 4.71066,-36.3956 L 4.59424,-36.7539 L 4.52365,-37.124
 L 4.5,-37.5 L 4.52365,-37.876 L 4.59424,-38.2461 L 4.71066,-38.6044 L 4.87108,-38.9453 L 5.07294,-39.2634
 L 5.31308,-39.5536 L 5.58772,-39.8115 L 5.89252,-40.033 L 6.22266,-40.2145 L 6.57294,-40.3532 L 6.93785,-40.4469
 L 7.31161,-40.4941 L 7.68837,-40.4941 L 8.06213,-40.4469 L 8.42705,-40.3532 L 8.77733,-40.2145 L 9.10747,-40.033
 L 9.41226,-39.8115 L 9.6869,-39.5536 L 9.92705,-39.2634 L 10.1289,-38.9453 L 10.2893,-38.6044 L 10.4057,-38.2461
 L 10.4763,-37.876 L 10.5,-37.5 L 10.4763,-37.124 L 10.4057,-36.7539 L 10.2893,-36.3956 L 10.1289,-36.0547
 L 9.92705,-35.7366 L 9.6869,-35.4464 L 9.41226,-35.1885 L 9.10747,-34.967 L 8.77733,-34.7855 L 8.42705,-34.6468
 L 8.06213,-34.5531 L 7.68837,-34.5059 z
M 22.3116,-34.5059 L 21.9379,-34.5531 L 21.5729,-34.6468 L 21.2227,-34.7855 L 20.8925,-34.967 L 20.5877,-35.1885
 L 20.3131,-35.4464 L 20.0729,-35.7366 L 19.8711,-36.0547 L 19.7107,-36.3956 L 19.5942,-36.7539 L 19.5237,-37.124
 L 19.5,-37.5 L 19.5237,-37.876 L 19.5942,-38.2461 L 19.7107,-38.6044 L 19.8711,-38.9453 L 20.0729,-39.2634
 L 20.3131,-39.5536 L 20.5877,-39.8115 L 20.8925,-40.033 L 21.2227,-40.2145 L 21.5729,-40.3532 L 21.9379,-40.4469
 L 22.3116,-40.4941 L 22.6884,-40.4941 L 23.0621,-40.4469 L 23.427,-40.3532 L 23.7773,-40.2145 L 24.1075,-40.033
 L 24.4123,-39.8115 L 24.6869,-39.5536 L 24.927,-39.2634 L 25.1289,-38.9453 L 25.2893,-38.6044 L 25.4057,-38.2461
 L 25.4763,-37.876 L 25.5,-37.5 L 25.4763,-37.124 L 25.4057,-36.7539 L 25.2893,-36.3956 L 25.1289,-36.0547
 L 24.927,-35.7366 L 24.6869,-35.4464 L 24.4123,-35.1885 L 24.1075,-34.967 L 23.7773,-34.7855 L 23.427,-34.6468
 L 23.0621,-34.5531 L 22.6884,-34.5059 z
M 157.312,-34.5059 L 156.938,-34.5531 L 156.573,-34.6468 L 156.223,-34.7855 L 155.893,-34.967 L 155.588,-35.1885
 L 155.313,-35.4464 L 155.073,-35.7366 L 154.871,-36.0547 L 154.711,-36.3956 L 154.594,-36.7539 L 154.524,-37.124
 L 154.5,-37.5 L 154.524,-37.876 L 154.594,-38.2461 L 154.711,-38.6044 L 154.871,-38.9453 L 155.073,-39.2634
 L 155.313,-39.5536 L 155.588,-39.8115 L 155.893,-40.033 L 156.223,-40.2145 L 156.573,-40.3532 L 156.938,-40.4469
 L 157.312,-40.4941 L 157.688,-40.4941 L 158.062,-40.4469 L 158.427,-40.3532 L 158.777,-40.2145 L 159.107,-40.033
 L 159.412,-39.8115 L 159.687,-39.5536 L 159.927,-39.2634 L 160.129,-38.9453 L 160.289,-38.6044 L 160.406,-38.2461
 L 160.476,-37.876 L 160.5,-37.5 L 160.476,-37.124 L 160.406,-36.7539 L 160.289,-36.3956 L 160.129,-36.0547
 L 159.927,-35.7366 L 159.687,-35.4464 L 159.412,-35.1885 L 159.107,-34.967 L 158.777,-34.7855 L 158.427,-34.6468
 L 158.062,-34.5531 L 157.688,-34.5059 z
M 172.312,-34.5059 L 171.938,-34.5531 L 171.573,-34.6468 L 171.223,-34.7855 L 170.893,-34.967 L 170.588,-35.1885
 L 170.313,-35.4464 L 170.073,-35.7366 L 169.871,-36.0547 L 169.711,-36.3956 L 169.594,-36.7539 L 169.524,-37.124
 L 169.5,-37.5 L 169.524,-37.876 L 169.594,-38.2461 L 169.711,-38.6044 L 169.871,-38.9453 L 170.073,-39.2634
 L 170.313,-39.5536 L 170.588,-39.8115 L 170.893,-40.033 L 171.223,-40.2145 L 171.573,-40.3532 L 171.938,-40.4469
 L 172.312,-40.4941 L 172.688,-40.4941 L 173.062,-40.4469 L 173.427,-40.3532 L 173.777,-40.2145 L 174.107,-40.033
 L 174.412,-39.8115 L 174.687,-39.5536 L 174.927,-39.2634 L 175.129,-38.9453 L 175.289,-38.6044 L 175.406,-38.2461
 L 175.476,-37.876 L 175.5,-37.5 L 175.476,-37.124 L 175.406,-36.7539 L 175.289,-36.3956 L 175.129,-36.0547
 L 174.927,-35.7366 L 174.687,-35.4464 L 174.412,-35.1885 L 174.107,-34.967 L 173.777,-34.7855 L 173.427,-34.6468
 L 173.062,-34.5531 L 172.688,-34.5059 z
M 67.3116,-34.5059 L 66.9379,-34.5531 L 66.573,-34.6468 L 66.2227,-34.7855 L 65.8925,-34.967 L 65.5877,-35.1885
 L 65.3131,-35.4464 L 65.073,-35.7366 L 64.8711,-36.0547 L 64.7107,-36.3956 L 64.5943,-36.7539 L 64.5237,-37.124
 L 64.5,-37.5 L 64.5237,-37.876 L 64.5943,-38.2461 L 64.7107,-38.6044 L 64.8711,-38.9453 L 65.073,-39.2634
 L 65.3131,-39.5536 L 65.5877,-39.8115 L 65.8925,-40.033 L 66.2227,-40.2145 L 66.573,-40.3532 L 66.9379,-40.4469
 L 67.3116,-40.4941 L 67.6884,-40.4941 L 68.0621,-40.4469 L 68.427,-40.3532 L 68.7773,-40.2145 L 69.1075,-40.033
 L 69.4123,-39.8115 L 69.6869,-39.5536 L 69.927,-39.2634 L 70.1289,-38.9453 L 70.2893,-38.6044 L 70.4057,-38.2461
 L 70.4763,-37.876 L 70.5,-37.5 L 70.4763,-37.124 L 70.4057,-36.7539 L 70.2893,-36.3956 L 70.1289,-36.0547
 L 69.927,-35.7366 L 69.6869,-35.4464 L 69.4123,-35.1885 L 69.1075,-34.967 L 68.7773,-34.7855 L 68.427,-34.6468
 L 68.0621,-34.5531 L 67.6884,-34.5059 z
M 142.312,-34.5059 L 141.938,-34.5531 L 141.573,-34.6468 L 141.223,-34.7855 L 140.893,-34.967 L 140.588,-35.1885
 L 140.313,-35.4464 L 140.073,-35.7366 L 139.871,-36.0547 L 139.711,-36.3956 L 139.594,-36.7539 L 139.524,-37.124
 L 139.5,-37.5 L 139.524,-37.876 L 139.594,-38.2461 L 139.711,-38.6044 L 139.871,-38.9453 L 140.073,-39.2634
 L 140.313,-39.5536 L 140.588,-39.8115 L 140.893,-40.033 L 141.223,-40.2145 L 141.573,-40.3532 L 141.938,-40.4469
 L 142.312,-40.4941 L 142.688,-40.4941 L 143.062,-40.4469 L 143.427,-40.3532 L 143.777,-40.2145 L 144.107,-40.033
 L 144.412,-39.8115 L 144.687,-39.5536 L 144.927,-39.2634 L 145.129,-38.9453 L 145.289,-38.6044 L 145.406,-38.2461
 L 145.476,-37.876 L 145.5,-37.5 L 145.476,-37.124 L 145.406,-36.7539 L 145.289,-36.3956 L 145.129,-36.0547
 L 144.927,-35.7366 L 144.687,-35.4464 L 144.412,-35.1885 L 144.107,-34.967 L 143.777,-34.7855 L 143.427,-34.6468
 L 143.062,-34.5531 L 142.688,-34.5059 z
M 82.3116,-34.5059 L 81.9379,-34.5531 L 81.573,-34.6468 L 81.2227,-34.7855 L 80.8925,-34.967 L 80.5877,-35.1885
 L 80.3131,-35.4464 L 80.073,-35.7366 L 79.8711,-36.0547 L 79.7107,-36.3956 L 79.5943,-36.7539 L 79.5237,-37.124
 L 79.5,-37.5 L 79.5237,-37.876 L 79.5943,-38.2461 L 79.7107,-38.6044 L 79.8711,-38.9453 L 80.073,-39.2634
 L 80.3131,-39.5536 L 80.5877,-39.8115 L 80.8925,-40.033 L 81.2227,-40.2145 L 81.573,-40.3532 L 81.9379,-40.4469
 L 82.3116,-40.4941 L 82.6884,-40.4941 L 83.0621,-40.4469 L 83.427,-40.3532 L 83.7773,-40.2145 L 84.1075,-40.033
 L 84.4123,-39.8115 L 84.6869,-39.5536 L 84.927,-39.2634 L 85.1289,-38.9453 L 85.2893,-38.6044 L 85.4057,-38.2461
 L 85.4763,-37.876 L 85.5,-37.5 L 85.4763,-37.124 L 85.4057,-36.7539 L 85.2893,-36.3956 L 85.1289,-36.0547
 L 84.927,-35.7366 L 84.6869,-35.4464 L 84.4123,-35.1885 L 84.1075,-34.967 L 83.7773,-34.7855 L 83.427,-34.6468
 L 83.0621,-34.5531 L 82.6884,-34.5059 z
M 37.3116,-34.5059 L 36.9379,-34.5531 L 36.5729,-34.6468 L 36.2227,-34.7855 L 35.8925,-34.967 L 35.5877,-35.1885
 L 35.3131,-35.4464 L 35.0729,-35.7366 L 34.8711,-36.0547 L 34.7107,-36.3956 L 34.5942,-36.7539 L 34.5237,-37.124
 L 34.5,-37.5 L 34.5237,-37.876 L 34.5942,-38.2461 L 34.7107,-38.6044 L 34.8711,-38.9453 L 35.0729,-39.2634
 L 35.3131,-39.5536 L 35.5877,-39.8115 L 35.8925,-40.033 L 36.2227,-40.2145 L 36.5729,-40.3532 L 36.9379,-40.4469
 L 37.3116,-40.4941 L 37.6884,-40.4941 L 38.0621,-40.4469 L 38.427,-40.3532 L 38.7773,-40.2145 L 39.1075,-40.033
 L 39.4123,-39.8115 L 39.6869,-39.5536 L 39.927,-39.2634 L 40.1289,-38.9453 L 40.2893,-38.6044 L 40.4057,-38.2461
 L 40.4763,-37.876 L 40.5,-37.5 L 40.4763,-37.124 L 40.4057,-36.7539 L 40.2893,-36.3956 L 40.1289,-36.0547
 L 39.927,-35.7366 L 39.6869,-35.4464 L 39.4123,-35.1885 L 39.1075,-34.967 L 38.7773,-34.7855 L 38.427,-34.6468
 L 38.0621,-34.5531 L 37.6884,-34.5059 z
M 52.3116,-34.5059 L 51.9379,-34.5531 L 51.5729,-34.6468 L 51.2227,-34.7855 L 50.8925,-34.967 L 50.5877,-35.1885
 L 50.3131,-35.4464 L 50.0729,-35.7366 L 49.8711,-36.0547 L 49.7107,-36.3956 L 49.5942,-36.7539 L 49.5237,-37.124
 L 49.5,-37.5 L 49.5237,-37.876 L 49.5942,-38.2461 L 49.7107,-38.6044 L 49.8711,-38.9453 L 50.0729,-39.2634
 L 50.3131,-39.5536 L 50.5877,-39.8115 L 50.8925,-40.033 L 51.2227,-40.2145 L 51.5729,-40.3532 L 51.9379,-40.4469
 L 52.3116,-40.4941 L 52.6884,-40.4941 L 53.0621,-40.4469 L 53.427,-40.3532 L 53.7773,-40.2145 L 54.1075,-40.033
 L 54.4123,-39.8115 L 54.6869,-39.5536 L 54.927,-39.2634 L 55.1289,-38.9453 L 55.2893,-38.6044 L 55.4057,-38.2461
 L 55.4763,-37.876 L 55.5,-37.5 L 55.4763,-37.124 L 55.4057,-36.7539 L 55.2893,-36.3956 L 55.1289,-36.0547
 L 54.927,-35.7366 L 54.6869,-35.4464 L 54.4123,-35.1885 L 54.1075,-34.967 L 53.7773,-34.7855 L 53.427,-34.6468
 L 53.0621,-34.5531 L 52.6884,-34.5059 z
M 112.312,-34.5059 L 111.938,-34.5531 L 111.573,-34.6468 L 111.223,-34.7855 L 110.893,-34.967 L 110.588,-35.1885
 L 110.313,-35.4464 L 110.073,-35.7366 L 109.871,-36.0547 L 109.711,-36.3956 L 109.594,-36.7539 L 109.524,-37.124
 L 109.5,-37.5 L 109.524,-37.876 L 109.594,-38.2461 L 109.711,-38.6044 L 109.871,-38.9453 L 110.073,-39.2634
 L 110.313,-39.5536 L 110.588,-39.8115 L 110.893,-40.033 L 111.223,-40.2145 L 111.573,-40.3532 L 111.938,-40.4469
 L 112.312,-40.4941 L 112.688,-40.4941 L 113.062,-40.4469 L 113.427,-40.3532 L 113.777,-40.2145 L 114.107,-40.033
 L 114.412,-39.8115 L 114.687,-39.5536 L 114.927,-39.2634 L 115.129,-38.9453 L 115.289,-38.6044 L 115.406,-38.2461
 L 115.476,-37.876 L 115.5,-37.5 L 115.476,-37.124 L 115.406,-36.7539 L 115.289,-36.3956 L 115.129,-36.0547
 L 114.927,-35.7366 L 114.687,-35.4464 L 114.412,-35.1885 L 114.107,-34.967 L 113.777,-34.7855 L 113.427,-34.6468
 L 113.062,-34.5531 L 112.688,-34.5059 z
M 127.312,-34.5059 L 126.938,-34.5531 L 126.573,-34.6468 L 126.223,-34.7855 L 125.893,-34.967 L 125.588,-35.1885
 L 125.313,-35.4464 L 125.073,-35.7366 L 124.871,-36.0547 L 124.711,-36.3956 L 124.594,-36.7539 L 124.524,-37.124
 L 124.5,-37.5 L 124.524,-37.876 L 124.594,-38.2461 L 124.711,-38.6044 L 124.871,-38.9453 L 125.073,-39.2634
 L 125.313,-39.5536 L 125.588,-39.8115 L 125.893,-40.033 L 126.223,-40.2145 L 126.573,-40.3532 L 126.938,-40.4469
 L 127.312,-40.4941 L 127.688,-40.4941 L 128.062,-40.4469 L 128.427,-40.3532 L 128.777,-40.2145 L 129.107,-40.033
 L 129.412,-39.8115 L 129.687,-39.5536 L 129.927,-39.2634 L 130.129,-38.9453 L 130.289,-38.6044 L 130.406,-38.2461
 L 130.476,-37.876 L 130.5,-37.5 L 130.476,-37.124 L 130.406,-36.7539 L 130.289,-36.3956 L 130.129,-36.0547
 L 129.927,-35.7366 L 129.687,-35.4464 L 129.412,-35.1885 L 129.107,-34.967 L 128.777,-34.7855 L 128.427,-34.6468
 L 128.062,-34.5531 L 127.688,-34.5059 z
M 7.31161,-19.5059 L 6.93785,-19.5531 L 6.57294,-19.6468 L 6.22266,-19.7855 L 5.89252,-19.967 L 5.58772,-20.1884
 L 5.31308,-20.4464 L 5.07294,-20.7366 L 4.87108,-21.0547 L 4.71066,-21.3956 L 4.59424,-21.7539 L 4.52365,-22.124
 L 4.5,-22.5 L 4.52365,-22.876 L 4.59424,-23.2461 L 4.71066,-23.6044 L 4.87108,-23.9453 L 5.07294,-24.2634
 L 5.31308,-24.5536 L 5.58772,-24.8115 L 5.89252,-25.033 L 6.22266,-25.2145 L 6.57294,-25.3532 L 6.93785,-25.4469
 L 7.31161,-25.4941 L 7.68837,-25.4941 L 8.06213,-25.4469 L 8.42705,-25.3532 L 8.77733,-25.2145 L 9.10747,-25.033
 L 9.41226,-24.8115 L 9.6869,-24.5536 L 9.92705,-24.2634 L 10.1289,-23.9453 L 10.2893,-23.6044 L 10.4057,-23.2461
 L 10.4763,-22.876 L 10.5,-22.5 L 10.4763,-22.124 L 10.4057,-21.7539 L 10.2893,-21.3956 L 10.1289,-21.0547
 L 9.92705,-20.7366 L 9.6869,-20.4464 L 9.41226,-20.1884 L 9.10747,-19.967 L 8.77733,-19.7855 L 8.42705,-19.6468
 L 8.06213,-19.5531 L 7.68837,-19.5059 z
M 67.3116,-19.5059 L 66.9379,-19.5531 L 66.573,-19.6468 L 66.2227,-19.7855 L 65.8925,-19.967 L 65.5877,-20.1884
 L 65.3131,-20.4464 L 65.073,-20.7366 L 64.8711,-21.0547 L 64.7107,-21.3956 L 64.5943,-21.7539 L 64.5237,-22.124
 L 64.5,-22.5 L 64.5237,-22.876 L 64.5943,-23.2461 L 64.7107,-23.6044 L 64.8711,-23.9453 L 65.073,-24.2634
 L 65.3131,-24.5536 L 65.5877,-24.8115 L 65.8925,-25.033 L 66.2227,-25.2145 L 66.573,-25.3532 L 66.9379,-25.4469
 L 67.3116,-25.4941 L 67.6884,-25.4941 L 68.0621,-25.4469 L 68.427,-25.3532 L 68.7773,-25.2145 L 69.1075,-25.033
 L 69.4123,-24.8115 L 69.6869,-24.5536 L 69.927,-24.2634 L 70.1289,-23.9453 L 70.2893,-23.6044 L 70.4057,-23.2461
 L 70.4763,-22.876 L 70.5,-22.5 L 70.4763,-22.124 L 70.4057,-21.7539 L 70.2893,-21.3956 L 70.1289,-21.0547
 L 69.927,-20.7366 L 69.6869,-20.4464 L 69.4123,-20.1884 L 69.1075,-19.967 L 68.7773,-19.7855 L 68.427,-19.6468
 L 68.0621,-19.5531 L 67.6884,-19.5059 z
M 82.3116,-19.5059 L 81.9379,-19.5531 L 81.573,-19.6468 L 81.2227,-19.7855 L 80.8925,-19.967 L 80.5877,-20.1884
 L 80.3131,-20.4464 L 80.073,-20.7366 L 79.8711,-21.0547 L 79.7107,-21.3956 L 79.5943,-21.7539 L 79.5237,-22.124
 L 79.5,-22.5 L 79.5237,-22.876 L 79.5943,-23.2461 L 79.7107,-23.6044 L 79.8711,-23.9453 L 80.073,-24.2634
 L 80.3131,-24.5536 L 80.5877,-24.8115 L 80.8925,-25.033 L 81.2227,-25.2145 L 81.573,-25.3532 L 81.9379,-25.4469
 L 82.3116,-25.4941 L 82.6884,-25.4941 L 83.0621,-25.4469 L 83.427,-25.3532 L 83.7773,-25.2145 L 84.1075,-25.033
 L 84.4123,-24.8115 L 84.6869,-24.5536 L 84.927,-24.2634 L 85.1289,-23.9453 L 85.2893,-23.6044 L 85.4057,-23.2461
 L 85.4763,-22.876 L 85.5,-22.5 L 85.4763,-22.124 L 85.4057,-21.7539 L 85.2893,-21.3956 L 85.1289,-21.0547
 L 84.927,-20.7366 L 84.6869,-20.4464 L 84.4123,-20.1884 L 84.1075,-19.967 L 83.7773,-19.7855 L 83.427,-19.6468
 L 83.0621,-19.5531 L 82.6884,-19.5059 z
M 37.3116,-19.5059 L 36.9379,-19.5531 L 36.5729,-19.6468 L 36.2227,-19.7855 L 35.8925,-19.967 L 35.5877,-20.1884
 L 35.3131,-20.4464 L 35.0729,-20.7366 L 34.8711,-21.0547 L 34.7107,-21.3956 L 34.5942,-21.7539 L 34.5237,-22.124
 L 34.5,-22.5 L 34.5237,-22.876 L 34.5942,-23.2461 L 34.7107,-23.6044 L 34.8711,-23.9453 L 35.0729,-24.2634
 L 35.3131,-24.5536 L 35.5877,-24.8115 L 35.8925,-25.033 L 36.2227,-25.2145 L 36.5729,-25.3532 L 36.9379,-25.4469
 L 37.3116,-25.4941 L 37.6884,-25.4941 L 38.0621,-25.4469 L 38.427,-25.3532 L 38.7773,-25.2145 L 39.1075,-25.033
 L 39.4123,-24.8115 L 39.6869,-24.5536 L 39.927,-24.2634 L 40.1289,-23.9453 L 40.2893,-23.6044 L 40.4057,-23.2461
 L 40.4763,-22.876 L 40.5,-22.5 L 40.4763,-22.124 L 40.4057,-21.7539 L 40.2893,-21.3956 L 40.1289,-21.0547
 L 39.927,-20.7366 L 39.6869,-20.4464 L 39.4123,-20.1884 L 39.1075,-19.967 L 38.7773,-19.7855 L 38.427,-19.6468
 L 38.0621,-19.5531 L 37.6884,-19.5059 z
M 142.312,-19.5059 L 141.938,-19.5531 L 141.573,-19.6468 L 141.223,-19.7855 L 140.893,-19.967 L 140.588,-20.1884
 L 140.313,-20.4464 L 140.073,-20.7366 L 139.871,-21.0547 L 139.711,-21.3956 L 139.594,-21.7539 L 139.524,-22.124
 L 139.5,-22.5 L 139.524,-22.876 L 139.594,-23.2461 L 139.711,-23.6044 L 139.871,-23.9453 L 140.073,-24.2634
 L 140.313,-24.5536 L 140.588,-24.8115 L 140.893,-25.033 L 141.223,-25.2145 L 141.573,-25.3532 L 141.938,-25.4469
 L 142.312,-25.4941 L 142.688,-25.4941 L 143.062,-25.4469 L 143.427,-25.3532 L 143.777,-25.2145 L 144.107,-25.033
 L 144.412,-24.8115 L 144.687,-24.5536 L 144.927,-24.2634 L 145.129,-23.9453 L 145.289,-23.6044 L 145.406,-23.2461
 L 145.476,-22.876 L 145.5,-22.5 L 145.476,-22.124 L 145.406,-21.7539 L 145.289,-21.3956 L 145.129,-21.0547
 L 144.927,-20.7366 L 144.687,-20.4464 L 144.412,-20.1884 L 144.107,-19.967 L 143.777,-19.7855 L 143.427,-19.6468
 L 143.062,-19.5531 L 142.688,-19.5059 z
M 157.312,-19.5059 L 156.938,-19.5531 L 156.573,-19.6468 L 156.223,-19.7855 L 155.893,-19.967 L 155.588,-20.1884
 L 155.313,-20.4464 L 155.073,-20.7366 L 154.871,-21.0547 L 154.711,-21.3956 L 154.594,-21.7539 L 154.524,-22.124
 L 154.5,-22.5 L 154.524,-22.876 L 154.594,-23.2461 L 154.711,-23.6044 L 154.871,-23.9453 L 155.073,-24.2634
 L 155.313,-24.5536 L 155.588,-24.8115 L 155.893,-25.033 L 156.223,-25.2145 L 156.573,-25.3532 L 156.938,-25.4469
 L 157.312,-25.4941 L 157.688,-25.4941 L 158.062,-25.4469 L 158.427,-25.3532 L 158.777,-25.2145 L 159.107,-25.033
 L 159.412,-24.8115 L 159.687,-24.5536 L 159.927,-24.2634 L 160.129,-23.9453 L 160.289,-23.6044 L 160.406,-23.2461
 L 160.476,-22.876 L 160.5,-22.5 L 160.476,-22.124 L 160.406,-21.7539 L 160.289,-21.3956 L 160.129,-21.0547
 L 159.927,-20.7366 L 159.687,-20.4464 L 159.412,-20.1884 L 159.107,-19.967 L 158.777,-19.7855 L 158.427,-19.6468
 L 158.062,-19.5531 L 157.688,-19.5059 z
M 172.312,-19.5059 L 171.938,-19.5531 L 171.573,-19.6468 L 171.223,-19.7855 L 170.893,-19.967 L 170.588,-20.1884
 L 170.313,-20.4464 L 170.073,-20.7366 L 169.871,-21.0547 L 169.711,-21.3956 L 169.594,-21.7539 L 169.524,-22.124
 L 169.5,-22.5 L 169.524,-22.876 L 169.594,-23.2461 L 169.711,-23.6044 L 169.871,-23.9453 L 170.073,-24.2634
 L 170.313,-24.5536 L 170.588,-24.8115 L 170.893,-25.033 L 171.223,-25.2145 L 171.573,-25.3532 L 171.938,-25.4469
 L 172.312,-25.4941 L 172.688,-25.4941 L 173.062,-25.4469 L 173.427,-25.3532 L 173.777,-25.2145 L 174.107,-25.033
 L 174.412,-24.8115 L 174.687,-24.5536 L 174.927,-24.2634 L 175.129,-23.9453 L 175.289,-23.6044 L 175.406,-23.2461
 L 175.476,-22.876 L 175.5,-22.5 L 175.476,-22.124 L 175.406,-21.7539 L 175.289,-21.3956 L 175.129,-21.0547
 L 174.927,-20.7366 L 174.687,-20.4464 L 174.412,-20.1884 L 174.107,-19.967 L 173.777,-19.7855 L 173.427,-19.6468
 L 173.062,-19.5531 L 172.688,-19.5059 z
M 112.312,-19.5059 L 111.938,-19.5531 L 111.573,-19.6468 L 111.223,-19.7855 L 110.893,-19.967 L 110.588,-20.1884
 L 110.313,-20.4464 L 110.073,-20.7366 L 109.871,-21.0547 L 109.711,-21.3956 L 109.594,-21.7539 L 109.524,-22.124
 L 109.5,-22.5 L 109.524,-22.876 L 109.594,-23.2461 L 109.711,-23.6044 L 109.871,-23.9453 L 110.073,-24.2634
 L 110.313,-24.5536 L 110.588,-24.8115 L 110.893,-25.033 L 111.223,-25.2145 L 111.573,-25.3532 L 111.938,-25.4469
 L 112.312,-25.4941 L 112.688,-25.4941 L 113.062,-25.4469 L 113.427,-25.3532 L 113.777,-25.2145 L 114.107,-25.033
 L 114.412,-24.8115 L 114.687,-24.5536 L 114.927,-24.2634 L 115.129,-23.9453 L 115.289,-23.6044 L 115.406,-23.2461
 L 115.476,-22.876 L 115.5,-22.5 L 115.476,-22.124 L 115.406,-21.7539 L 115.289,-21.3956 L 115.129,-21.0547
 L 114.927,-20.7366 L 114.687,-20.4464 L 114.412,-20.1884 L 114.107,-19.967 L 113.777,-19.7855 L 113.427,-19.6468
 L 113.062,-19.5531 L 112.688,-19.5059 z
M 97.3116,-19.5059 L 96.9379,-19.5531 L 96.573,-19.6468 L 96.2227,-19.7855 L 95.8925,-19.967 L 95.5877,-20.1884
 L 95.3131,-20.4464 L 95.073,-20.7366 L 94.8711,-21.0547 L 94.7107,-21.3956 L 94.5943,-21.7539 L 94.5237,-22.124
 L 94.5,-22.5 L 94.5237,-22.876 L 94.5943,-23.2461 L 94.7107,-23.6044 L 94.8711,-23.9453 L 95.073,-24.2634
 L 95.3131,-24.5536 L 95.5877,-24.8115 L 95.8925,-25.033 L 96.2227,-25.2145 L 96.573,-25.3532 L 96.9379,-25.4469
 L 97.3116,-25.4941 L 97.6884,-25.4941 L 98.0621,-25.4469 L 98.427,-25.3532 L 98.7773,-25.2145 L 99.1075,-25.033
 L 99.4123,-24.8115 L 99.6869,-24.5536 L 99.927,-24.2634 L 100.129,-23.9453 L 100.289,-23.6044 L 100.406,-23.2461
 L 100.476,-22.876 L 100.5,-22.5 L 100.476,-22.124 L 100.406,-21.7539 L 100.289,-21.3956 L 100.129,-21.0547
 L 99.927,-20.7366 L 99.6869,-20.4464 L 99.4123,-20.1884 L 99.1075,-19.967 L 98.7773,-19.7855 L 98.427,-19.6468
 L 98.0621,-19.5531 L 97.6884,-19.5059 z
M 127.312,-19.5059 L 126.938,-19.5531 L 126.573,-19.6468 L 126.223,-19.7855 L 125.893,-19.967 L 125.588,-20.1884
 L 125.313,-20.4464 L 125.073,-20.7366 L 124.871,-21.0547 L 124.711,-21.3956 L 124.594,-21.7539 L 124.524,-22.124
 L 124.5,-22.5 L 124.524,-22.876 L 124.594,-23.2461 L 124.711,-23.6044 L 124.871,-23.9453 L 125.073,-24.2634
 L 125.313,-24.5536 L 125.588,-24.8115 L 125.893,-25.033 L 126.223,-25.2145 L 126.573,-25.3532 L 126.938,-25.4469
 L 127.312,-25.4941 L 127.688,-25.4941 L 128.062,-25.4469 L 128.427,-25.3532 L 128.777,-25.2145 L 129.107,-25.033
 L 129.412,-24.8115 L 129.687,-24.5536 L 129.927,-24.2634 L 130.129,-23.9453 L 130.289,-23.6044 L 130.406,-23.2461
 L 130.476,-22.876 L 130.5,-22.5 L 130.476,-22.124 L 130.406,-21.7539 L 130.289,-21.3956 L 130.129,-21.0547
 L 129.927,-20.7366 L 129.687,-20.4464 L 129.412,-20.1884 L 129.107,-19.967 L 128.777,-19.7855 L 128.427,-19.6468
 L 128.062,-19.5531 L 127.688,-19.5059 z
M 22.3116,-19.5059 L 21.9379,-19.5531 L 21.5729,-19.6468 L 21.2227,-19.7855 L 20.8925,-19.967 L 20.5877,-20.1884
 L 20.3131,-20.4464 L 20.0729,-20.7366 L 19.8711,-21.0547 L 19.7107,-21.3956 L 19.5942,-21.7539 L 19.5237,-22.124
 L 19.5,-22.5 L 19.5237,-22.876 L 19.5942,-23.2461 L 19.7107,-23.6044 L 19.8711,-23.9453 L 20.0729,-24.2634
 L 20.3131,-24.5536 L 20.5877,-24.8115 L 20.8925,-25.033 L 21.2227,-25.2145 L 21.5729,-25.3532 L 21.9379,-25.4469
 L 22.3116,-25.4941 L 22.6884,-25.4941 L 23.0621,-25.4469 L 23.427,-25.3532 L 23.7773,-25.2145 L 24.1075,-25.033
 L 24.4123,-24.8115 L 24.6869,-24.5536 L 24.927,-24.2634 L 25.1289,-23.9453 L 25.2893,-23.6044 L 25.4057,-23.2461
 L 25.4763,-22.876 L 25.5,-22.5 L 25.4763,-22.124 L 25.4057,-21.7539 L 25.2893,-21.3956 L 25.1289,-21.0547
 L 24.927,-20.7366 L 24.6869,-20.4464 L 24.4123,-20.1884 L 24.1075,-19.967 L 23.7773,-19.7855 L 23.427,-19.6468
 L 23.0621,-19.5531 L 22.6884,-19.5059 z
M 52.3116,-19.5059 L 51.9379,-19.5531 L 51.5729,-19.6468 L 51.2227,-19.7855 L 50.8925,-19.967 L 50.5877,-20.1884
 L 50.3131,-20.4464 L 50.0729,-20.7366 L 49.8711,-21.0547 L 49.7107,-21.3956 L 49.5942,-21.7539 L 49.5237,-22.124
 L 49.5,-22.5 L 49.5237,-22.876 L 49.5942,-23.2461 L 49.7107,-23.6044 L 49.8711,-23.9453 L 50.0729,-24.2634
 L 50.3131,-24.5536 L 50.5877,-24.8115 L 50.8925,-25.033 L 51.2227,-25.2145 L 51.5729,-25.3532 L 51.9379,-25.4469
 L 52.3116,-25.4941 L 52.6884,-25.4941 L 53.0621,-25.4469 L 53.427,-25.3532 L 53.7773,-25.2145 L 54.1075,-25.033
 L 54.4123,-24.8115 L 54.6869,-24.5536 L 54.927,-24.2634 L 55.1289,-23.9453 L 55.2893,-23.6044 L 55.4057,-23.2461
 L 55.4763,-22.876 L 55.5,-22.5 L 55.4763,-22.124 L 55.4057,-21.7539 L 55.2893,-21.3956 L 55.1289,-21.0547
 L 54.927,-20.7366 L 54.6869,-20.4464 L 54.4123,-20.1884 L 54.1075,-19.967 L 53.7773,-19.7855 L 53.427,-19.6468
 L 53.0621,-19.5531 L 52.6884,-19.5059 z
M 112.312,-4.50591 L 111.938,-4.55313 L 111.573,-4.64682 L 111.223,-4.78551 L 110.893,-4.96701 L 110.588,-5.18845
 L 110.313,-5.44635 L 110.073,-5.73663 L 109.871,-6.05473 L 109.711,-6.39561 L 109.594,-6.75392 L 109.524,-7.12399
 L 109.5,-7.5 L 109.524,-7.87599 L 109.594,-8.24606 L 109.711,-8.60437 L 109.871,-8.94525 L 110.073,-9.26335
 L 110.313,-9.55363 L 110.588,-9.81154 L 110.893,-10.033 L 111.223,-10.2145 L 111.573,-10.3532 L 111.938,-10.4469
 L 112.312,-10.4941 L 112.688,-10.4941 L 113.062,-10.4469 L 113.427,-10.3532 L 113.777,-10.2145 L 114.107,-10.033
 L 114.412,-9.81154 L 114.687,-9.55363 L 114.927,-9.26335 L 115.129,-8.94525 L 115.289,-8.60437 L 115.406,-8.24606
 L 115.476,-7.87599 L 115.5,-7.5 L 115.476,-7.12399 L 115.406,-6.75392 L 115.289,-6.39561 L 115.129,-6.05473
 L 114.927,-5.73663 L 114.687,-5.44635 L 114.412,-5.18845 L 114.107,-4.96701 L 113.777,-4.78551 L 113.427,-4.64682
 L 113.062,-4.55313 L 112.688,-4.50591 z
M 52.3116,-4.50591 L 51.9379,-4.55313 L 51.5729,-4.64682 L 51.2227,-4.78551 L 50.8925,-4.96701 L 50.5877,-5.18845
 L 50.3131,-5.44635 L 50.0729,-5.73663 L 49.8711,-6.05473 L 49.7107,-6.39561 L 49.5942,-6.75392 L 49.5237,-7.12399
 L 49.5,-7.5 L 49.5237,-7.87599 L 49.5942,-8.24606 L 49.7107,-8.60437 L 49.8711,-8.94525 L 50.0729,-9.26335
 L 50.3131,-9.55363 L 50.5877,-9.81154 L 50.8925,-10.033 L 51.2227,-10.2145 L 51.5729,-10.3532 L 51.9379,-10.4469
 L 52.3116,-10.4941 L 52.6884,-10.4941 L 53.0621,-10.4469 L 53.427,-10.3532 L 53.7773,-10.2145 L 54.1075,-10.033
 L 54.4123,-9.81154 L 54.6869,-9.55363 L 54.927,-9.26335 L 55.1289,-8.94525 L 55.2893,-8.60437 L 55.4057,-8.24606
 L 55.4763,-7.87599 L 55.5,-7.5 L 55.4763,-7.12399 L 55.4057,-6.75392 L 55.2893,-6.39561 L 55.1289,-6.05473
 L 54.927,-5.73663 L 54.6869,-5.44635 L 54.4123,-5.18845 L 54.1075,-4.96701 L 53.7773,-4.78551 L 53.427,-4.64682
 L 53.0621,-4.55313 L 52.6884,-4.50591 z
M 157.312,-4.50591 L 156.938,-4.55313 L 156.573,-4.64682 L 156.223,-4.78551 L 155.893,-4.96701 L 155.588,-5.18845
 L 155.313,-5.44635 L 155.073,-5.73663 L 154.871,-6.05473 L 154.711,-6.39561 L 154.594,-6.75392 L 154.524,-7.12399
 L 154.5,-7.5 L 154.524,-7.87599 L 154.594,-8.24606 L 154.711,-8.60437 L 154.871,-8.94525 L 155.073,-9.26335
 L 155.313,-9.55363 L 155.588,-9.81154 L 155.893,-10.033 L 156.223,-10.2145 L 156.573,-10.3532 L 156.938,-10.4469
 L 157.312,-10.4941 L 157.688,-10.4941 L 158.062,-10.4469 L 158.427,-10.3532 L 158.777,-10.2145 L 159.107,-10.033
 L 159.412,-9.81154 L 159.687,-9.55363 L 159.927,-9.26335 L 160.129,-8.94525 L 160.289,-8.60437 L 160.406,-8.24606
 L 160.476,-7.87599 L 160.5,-7.5 L 160.476,-7.12399 L 160.406,-6.75392 L 160.289,-6.39561 L 160.129,-6.05473
 L 159.927,-5.73663 L 159.687,-5.44635 L 159.412,-5.18845 L 159.107,-4.96701 L 158.777,-4.78551 L 158.427,-4.64682
 L 158.062,-4.55313 L 157.688,-4.50591 z
M 22.3116,-4.50591 L 21.9379,-4.55313 L 21.5729,-4.64682 L 21.2227,-4.78551 L 20.8925,-4.96701 L 20.5877,-5.18845
 L 20.3131,-5.44635 L 20.0729,-5.73663 L 19.8711,-6.05473 L 19.7107,-6.39561 L 19.5942,-6.75392 L 19.5237,-7.12399
 L 19.5,-7.5 L 19.5237,-7.87599 L 19.5942,-8.24606 L 19.7107,-8.60437 L 19.8711,-8.94525 L 20.0729,-9.26335
 L 20.3131,-9.55363 L 20.5877,-9.81154 L 20.8925,-10.033 L 21.2227,-10.2145 L 21.5729,-10.3532 L 21.9379,-10.4469
 L 22.3116,-10.4941 L 22.6884,-10.4941 L 23.0621,-10.4469 L 23.427,-10.3532 L 23.7773,-10.2145 L 24.1075,-10.033
 L 24.4123,-9.81154 L 24.6869,-9.55363 L 24.927,-9.26335 L 25.1289,-8.94525 L 25.2893,-8.60437 L 25.4057,-8.24606
 L 25.4763,-7.87599 L 25.5,-7.5 L 25.4763,-7.12399 L 25.4057,-6.75392 L 25.2893,-6.39561 L 25.1289,-6.05473
 L 24.927,-5.73663 L 24.6869,-5.44635 L 24.4123,-5.18845 L 24.1075,-4.96701 L 23.7773,-4.78551 L 23.427,-4.64682
 L 23.0621,-4.55313 L 22.6884,-4.50591 z
M 172.312,-4.50591 L 171.938,-4.55313 L 171.573,-4.64682 L 171.223,-4.78551 L 170.893,-4.96701 L 170.588,-5.18845
 L 170.313,-5.44635 L 170.073,-5.73663 L 169.871,-6.05473 L 169.711,-6.39561 L 169.594,-6.75392 L 169.524,-7.12399
 L 169.5,-7.5 L 169.524,-7.87599 L 169.594,-8.24606 L 169.711,-8.60437 L 169.871,-8.94525 L 170.073,-9.26335
 L 170.313,-9.55363 L 170.588,-9.81154 L 170.893,-10.033 L 171.223,-10.2145 L 171.573,-10.3532 L 171.938,-10.4469
 L 172.312,-10.4941 L 172.688,-10.4941 L 173.062,-10.4469 L 173.427,-10.3532 L 173.777,-10.2145 L 174.107,-10.033
 L 174.412,-9.81154 L 174.687,-9.55363 L 174.927,-9.26335 L 175.129,-8.94525 L 175.289,-8.60437 L 175.406,-8.24606
 L 175.476,-7.87599 L 175.5,-7.5 L 175.476,-7.12399 L 175.406,-6.75392 L 175.289,-6.39561 L 175.129,-6.05473
 L 174.927,-5.73663 L 174.687,-5.44635 L 174.412,-5.18845 L 174.107,-4.96701 L 173.777,-4.78551 L 173.427,-4.64682
 L 173.062,-4.55313 L 172.688,-4.50591 z
M 37.3116,-4.50591 L 36.9379,-4.55313 L 36.5729,-4.64682 L 36.2227,-4.78551 L 35.8925,-4.96701 L 35.5877,-5.18845
 L 35.3131,-5.44635 L 35.0729,-5.73663 L 34.8711,-6.05473 L 34.7107,-6.39561 L 34.5942,-6.75392 L 34.5237,-7.12399
 L 34.5,-7.5 L 34.5237,-7.87599 L 34.5942,-8.24606 L 34.7107,-8.60437 L 34.8711,-8.94525 L 35.0729,-9.26335
 L 35.3131,-9.55363 L 35.5877,-9.81154 L 35.8925,-10.033 L 36.2227,-10.2145 L 36.5729,-10.3532 L 36.9379,-10.4469
 L 37.3116,-10.4941 L 37.6884,-10.4941 L 38.0621,-10.4469 L 38.427,-10.3532 L 38.7773,-10.2145 L 39.1075,-10.033
 L 39.4123,-9.81154 L 39.6869,-9.55363 L 39.927,-9.26335 L 40.1289,-8.94525 L 40.2893,-8.60437 L 40.4057,-8.24606
 L 40.4763,-7.87599 L 40.5,-7.5 L 40.4763,-7.12399 L 40.4057,-6.75392 L 40.2893,-6.39561 L 40.1289,-6.05473
 L 39.927,-5.73663 L 39.6869,-5.44635 L 39.4123,-5.18845 L 39.1075,-4.96701 L 38.7773,-4.78551 L 38.427,-4.64682
 L 38.0621,-4.55313 L 37.6884,-4.50591 z
M 142.312,-4.50591 L 141.938,-4.55313 L 141.573,-4.64682 L 141.223,-4.78551 L 140.893,-4.96701 L 140.588,-5.18845
 L 140.313,-5.44635 L 140.073,-5.73663 L 139.871,-6.05473 L 139.711,-6.39561 L 139.594,-6.75392 L 139.524,-7.12399
 L 139.5,-7.5 L 139.524,-7.87599 L 139.594,-8.24606 L 139.711,-8.60437 L 139.871,-8.94525 L 140.073,-9.26335
 L 140.313,-9.55363 L 140.588,-9.81154 L 140.893,-10.033 L 141.223,-10.2145 L 141.573,-10.3532 L 141.938,-10.4469
 L 142.312,-10.4941 L 142.688,-10.4941 L 143.062,-10.4469 L 143.427,-10.3532 L 143.777,-10.2145 L 144.107,-10.033
 L 144.412,-9.81154 L 144.687,-9.55363 L 144.927,-9.26335 L 145.129,-8.94525 L 145.289,-8.60437 L 145.406,-8.24606
 L 145.476,-7.87599 L 145.5,-7.5 L 145.476,-7.12399 L 145.406,-6.75392 L 145.289,-6.39561 L 145.129,-6.05473
 L 144.927,-5.73663 L 144.687,-5.44635 L 144.412,-5.18845 L 144.107,-4.96701 L 143.777,-4.78551 L 143.427,-4.64682
 L 143.062,-4.55313 L 142.688,-4.50591 z
M 7.31161,-4.50591 L 6.93785,-4.55313 L 6.57294,-4.64682 L 6.22266,-4.78551 L 5.89252,-4.96701 L 5.58772,-5.18845
 L 5.31308,-5.44635 L 5.07294,-5.73663 L 4.87108,-6.05473 L 4.71066,-6.39561 L 4.59424,-6.75392 L 4.52365,-7.12399
 L 4.5,-7.5 L 4.52365,-7.87599 L 4.59424,-8.24606 L 4.71066,-8.60437 L 4.87108,-8.94525 L 5.07294,-9.26335
 L 5.31308,-9.55363 L 5.58772,-9.81154 L 5.89252,-10.033 L 6.22266,-10.2145 L 6.57294,-10.3532 L 6.93785,-10.4469
 L 7.31161,-10.4941 L 7.68837,-10.4941 L 8.06213,-10.4469 L 8.42705,-10.3532 L 8.77733,-10.2145 L 9.10747,-10.033
 L 9.41226,-9.81154 L 9.6869,-9.55363 L 9.92705,-9.26335 L 10.1289,-8.94525 L 10.2893,-8.60437 L 10.4057,-8.24606
 L 10.4763,-7.87599 L 10.5,-7.5 L 10.4763,-7.12399 L 10.4057,-6.75392 L 10.2893,-6.39561 L 10.1289,-6.05473
 L 9.92705,-5.73663 L 9.6869,-5.44635 L 9.41226,-5.18845 L 9.10747,-4.96701 L 8.77733,-4.78551 L 8.42705,-4.64682
 L 8.06213,-4.55313 L 7.68837,-4.50591 z
M 67.3116,-4.50591 L 66.9379,-4.55313 L 66.573,-4.64682 L 66.2227,-4.78551 L 65.8925,-4.96701 L 65.5877,-5.18845
 L 65.3131,-5.44635 L 65.073,-5.73663 L 64.8711,-6.05473 L 64.7107,-6.39561 L 64.5943,-6.75392 L 64.5237,-7.12399
 L 64.5,-7.5 L 64.5237,-7.87599 L 64.5943,-8.24606 L 64.7107,-8.60437 L 64.8711,-8.94525 L 65.073,-9.26335
 L 65.3131,-9.55363 L 65.5877,-9.81154 L 65.8925,-10.033 L 66.2227,-10.2145 L 66.573,-10.3532 L 66.9379,-10.4469
 L 67.3116,-10.4941 L 67.6884,-10.4941 L 68.0621,-10.4469 L 68.427,-10.3532 L 68.7773,-10.2145 L 69.1075,-10.033
 L 69.4123,-9.81154 L 69.6869,-9.55363 L 69.927,-9.26335 L 70.1289,-8.94525 L 70.2893,-8.60437 L 70.4057,-8.24606
 L 70.4763,-7.87599 L 70.5,-7.5 L 70.4763,-7.12399 L 70.4057,-6.75392 L 70.2893,-6.39561 L 70.1289,-6.05473
 L 69.927,-5.73663 L 69.6869,-5.44635 L 69.4123,-5.18845 L 69.1075,-4.96701 L 68.7773,-4.78551 L 68.427,-4.64682
 L 68.0621,-4.55313 L 67.6884,-4.50591 z
M 127.312,-4.50591 L 126.938,-4.55313 L 126.573,-4.64682 L 126.223,-4.78551 L 125.893,-4.96701 L 125.588,-5.18845
 L 125.313,-5.44635 L 125.073,-5.73663 L 124.871,-6.05473 L 124.711,-6.39561 L 124.594,-6.75392 L 124.524,-7.12399
 L 124.5,-7.5 L 124.524,-7.87599 L 124.594,-8.24606 L 124.711,-8.60437 L 124.871,-8.94525 L 125.073,-9.26335
 L 125.313,-9.55363 L 125.588,-9.81154 L 125.893,-10.033 L 126.223,-10.2145 L 126.573,-10.3532 L 126.938,-10.4469
 L 127.312,-10.4941 L 127.688,-10.4941 L 128.062,-10.4469 L 128.427,-10.3532 L 128.777,-10.2145 L 129.107,-10.033
 L 129.412,-9.81154 L 129.687,-9.55363 L 129.927,-9.26335 L 130.129,-8.94525 L 130.289,-8.60437 L 130.406,-8.24606
 L 130.476,-7.87599 L 130.5,-7.5 L 130.476,-7.12399 L 130.406,-6.75392 L 130.289,-6.39561 L 130.129,-6.05473
 L 129.927,-5.73663 L 129.687,-5.44635 L 129.412,-5.18845 L 129.107,-4.96701 L 128.777,-4.78551 L 128.427,-4.64682
 L 128.062,-4.55313 L 127.688,-4.50591 z
M 97.3116,-4.50591 L 96.9379,-4.55313 L 96.573,-4.64682 L 96.2227,-4.78551 L 95.8925,-4.96701 L 95.5877,-5.18845
 L 95.3131,-5.44635 L 95.073,-5.73663 L 94.8711,-6.05473 L 94.7107,-6.39561 L 94.5943,-6.75392 L 94.5237,-7.12399
 L 94.5,-7.5 L 94.5237,-7.87599 L 94.5943,-8.24606 L 94.7107,-8.60437 L 94.8711,-8.94525 L 95.073,-9.26335
 L 95.3131,-9.55363 L 95.5877,-9.81154 L 95.8925,-10.033 L 96.2227,-10.2145 L 96.573,-10.3532 L 96.9379,-10.4469
 L 97.3116,-10.4941 L 97.6884,-10.4941 L 98.0621,-10.4469 L 98.427,-10.3532 L 98.7773,-10.2145 L 99.1075,-10.033
 L 99.4123,-9.81154 L 99.6869,-9.55363 L 99.927,-9.26335 L 100.129,-8.94525 L 100.289,-8.60437 L 100.406,-8.24606
 L 100.476,-7.87599 L 100.5,-7.5 L 100.476,-7.12399 L 100.406,-6.75392 L 100.289,-6.39561 L 100.129,-6.05473
 L 99.927,-5.73663 L 99.6869,-5.44635 L 99.4123,-5.18845 L 99.1075,-4.96701 L 98.7773,-4.78551 L 98.427,-4.64682
 L 98.0621,-4.55313 L 97.6884,-4.50591 z
M 82.3116,-4.50591 L 81.9379,-4.55313 L 81.573,-4.64682 L 81.2227,-4.78551 L 80.8925,-4.96701 L 80.5877,-5.18845
 L 80.3131,-5.44635 L 80.073,-5.73663 L 79.8711,-6.05473 L 79.7107,-6.39561 L 79.5943,-6.75392 L 79.5237,-7.12399
 L 79.5,-7.5 L 79.5237,-7.87599 L 79.5943,-8.24606 L 79.7107,-8.60437 L 79.8711,-8.94525 L 80.073,-9.26335
 L 80.3131,-9.55363 L 80.5877,-9.81154 L 80.8925,-10.033 L 81.2227,-10.2145 L 81.573,-10.3532 L 81.9379,-10.4469
 L 82.3116,-10.4941 L 82.6884,-10.4941 L 83.0621,-10.4469 L 83.427,-10.3532 L 83.7773,-10.2145 L 84.1075,-10.033
 L 84.4123,-9.81154 L 84.6869,-9.55363 L 84.927,-9.26335 L 85.1289,-8.94525 L 85.2893,-8.60437 L 85.4057,-8.24606
 L 85.4763,-7.87599 L 85.5,-7.5 L 85.4763,-7.12399 L 85.4057,-6.75392 L 85.2893,-6.39561 L 85.1289,-6.05473
 L 84.927,-5.73663 L 84.6869,-5.44635 L 84.4123,-5.18845 L 84.1075,-4.96701 L 83.7773,-4.78551 L 83.427,-4.64682
 L 83.0621,-4.55313 L 82.6884,-4.50591 z
M 24.1075,-64.967 L 23.7773,-64.7855 L 23.427,-64.6468 L 23.0621,-64.5531 L 22.6884,-64.5059 L 22.3116,-64.5059
 L 21.9379,-64.5531 L 21.5729,-64.6468 L 21.2227,-64.7855 L 20.8925,-64.967 L 20.5877,-65.1885 L 20.3131,-65.4464
 L 20.0729,-65.7366 L 19.8711,-66.0547 L 19.7107,-66.3956 L 19.5942,-66.7539 L 19.5237,-67.124 L 19.5,-67.5
 L 19.5237,-67.876 L 19.5942,-68.2461 L 19.7107,-68.6044 L 19.8711,-68.9453 L 20.0729,-69.2634 L 20.3131,-69.5536
 L 20.5877,-69.8115 L 20.8925,-70.033 L 21.2227,-70.2145 L 21.5729,-70.3532 L 21.9379,-70.4469 L 22.3116,-70.4941
 L 22.6884,-70.4941 L 23.0621,-70.4469 L 23.427,-70.3532 L 23.7773,-70.2145 L 24.1075,-70.033 L 24.4123,-69.8115
 L 24.6869,-69.5536 L 24.927,-69.2634 L 25.1289,-68.9453 L 25.2893,-68.6044 L 25.4057,-68.2461 L 25.4763,-67.876
 L 25.5,-67.5 L 25.4763,-67.124 L 25.4057,-66.7539 L 25.2893,-66.3956 L 25.1289,-66.0547 L 24.927,-65.7366
 L 24.6869,-65.4464 L 24.4123,-65.1885 z
" stroke="black" fill="lightgray" stroke-width="0.5"/>
</svg>
