  0
SECTION
  2
BLOCKS
  0
ENDSEC
  0
SECTION
  2
ENTITIES
  0
LINE
  8
0
 10
1.31166
 20
-6.87601
 11
2.16312
 21
-6.65739
  0
LINE
  8
0
 10
2.16312
 20
-6.65739
 11
2.98045
 21
-6.33379
  0
LINE
  8
0
 10
2.98045
 20
-6.33379
 11
3.75078
 21
-5.91029
  0
LINE
  8
0
 10
3.75078
 20
-5.91029
 11
4.46196
 21
-5.39359
  0
LINE
  8
0
 10
4.46196
 20
-5.39359
 11
5.10277
 21
-4.79182
  0
LINE
  8
0
 10
5.10277
 20
-4.79182
 11
5.66312
 21
-4.11449
  0
LINE
  8
0
 10
5.66312
 20
-4.11449
 11
6.13414
 21
-3.37227
  0
LINE
  8
0
 10
6.13414
 20
-3.37227
 11
6.50842
 21
-2.57686
  0
LINE
  8
0
 10
6.50842
 20
-2.57686
 11
6.78008
 21
-1.74081
  0
LINE
  8
0
 10
6.78008
 20
-1.74081
 11
6.94479
 21
-0.877319
  0
LINE
  8
0
 10
6.94479
 20
-0.877319
 11
7
 21
0
  0
LINE
  8
0
 10
7
 20
0
 11
6.94479
 21
0.877319
  0
LINE
  8
0
 10
6.94479
 20
0.877319
 11
6.78008
 21
1.74081
  0
LINE
  8
0
 10
6.78008
 20
1.74081
 11
6.50842
 21
2.57686
  0
LINE
  8
0
 10
6.50842
 20
2.57686
 11
6.13414
 21
3.37227
  0
LINE
  8
0
 10
6.13414
 20
3.37227
 11
5.66312
 21
4.11449
  0
LINE
  8
0
 10
5.66312
 20
4.11449
 11
5.10277
 21
4.79182
  0
LINE
  8
0
 10
5.10277
 20
4.79182
 11
4.46196
 21
5.39359
  0
LINE
  8
0
 10
4.46196
 20
5.39359
 11
3.75078
 21
5.91029
  0
LINE
  8
0
 10
3.75078
 20
5.91029
 11
2.98045
 21
6.33379
  0
LINE
  8
0
 10
2.98045
 20
6.33379
 11
2.16312
 21
6.65739
  0
LINE
  8
0
 10
2.16312
 20
6.65739
 11
1.31166
 21
6.87601
  0
LINE
  8
0
 10
1.31166
 20
6.87601
 11
0.439529
 21
6.98618
  0
LINE
  8
0
 10
0.439529
 20
6.98618
 11
-0.439529
 21
6.98618
  0
LINE
  8
0
 10
-0.439529
 20
6.98618
 11
-1.31166
 21
6.87601
  0
LINE
  8
0
 10
-1.31166
 20
6.87601
 11
-2.16312
 21
6.65739
  0
LINE
  8
0
 10
-2.16312
 20
6.65739
 11
-2.98045
 21
6.33379
  0
LINE
  8
0
 10
-2.98045
 20
6.33379
 11
-3.75078
 21
5.91029
  0
LINE
  8
0
 10
-3.75078
 20
5.91029
 11
-4.46196
 21
5.39359
  0
LINE
  8
0
 10
-4.46196
 20
5.39359
 11
-5.10277
 21
4.79182
  0
LINE
  8
0
 10
-5.10277
 20
4.79182
 11
-5.66312
 21
4.11449
  0
LINE
  8
0
 10
-5.66312
 20
4.11449
 11
-6.13414
 21
3.37227
  0
LINE
  8
0
 10
-6.13414
 20
3.37227
 11
-6.50842
 21
2.57686
  0
LINE
  8
0
 10
-6.50842
 20
2.57686
 11
-6.78008
 21
1.74081
  0
LINE
  8
0
 10
-6.78008
 20
1.74081
 11
-6.94479
 21
0.877319
  0
LINE
  8
0
 10
-6.94479
 20
0.877319
 11
-7
 21
0
  0
LINE
  8
0
 10
-7
 20
0
 11
-6.94479
 21
-0.877319
  0
LINE
  8
0
 10
-6.94479
 20
-0.877319
 11
-6.78008
 21
-1.74081
  0
LINE
  8
0
 10
-6.78008
 20
-1.74081
 11
-6.50842
 21
-2.57686
  0
LINE
  8
0
 10
-6.50842
 20
-2.57686
 11
-6.13414
 21
-3.37227
  0
LINE
  8
0
 10
-6.13414
 20
-3.37227
 11
-5.66312
 21
-4.11449
  0
LINE
  8
0
 10
-5.66312
 20
-4.11449
 11
-5.10277
 21
-4.79182
  0
LINE
  8
0
 10
-5.10277
 20
-4.79182
 11
-4.46196
 21
-5.39359
  0
LINE
  8
0
 10
-4.46196
 20
-5.39359
 11
-3.75078
 21
-5.91029
  0
LINE
  8
0
 10
-3.75078
 20
-5.91029
 11
-2.98045
 21
-6.33379
  0
LINE
  8
0
 10
-2.98045
 20
-6.33379
 11
-2.16312
 21
-6.65739
  0
LINE
  8
0
 10
-2.16312
 20
-6.65739
 11
-1.31166
 21
-6.87601
  0
LINE
  8
0
 10
-1.31166
 20
-6.87601
 11
-0.439529
 21
-6.98618
  0
LINE
  8
0
 10
-0.439529
 20
-6.98618
 11
0.439529
 21
-6.98618
  0
LINE
  8
0
 10
0.439529
 20
-6.98618
 11
1.31166
 21
-6.87601
  0
LINE
  8
0
 10
-0.18837
 20
-2.99408
 11
-0.562134
 21
-2.94685
  0
LINE
  8
0
 10
-0.562134
 20
-2.94685
 11
-0.927048
 21
-2.85316
  0
LINE
  8
0
 10
-0.927048
 20
-2.85316
 11
-1.27733
 21
-2.71448
  0
LINE
  8
0
 10
-1.27733
 20
-2.71448
 11
-1.60747
 21
-2.53297
  0
LINE
  8
0
 10
-1.60747
 20
-2.53297
 11
-1.91226
 21
-2.31154
  0
LINE
  8
0
 10
-1.91226
 20
-2.31154
 11
-2.1869
 21
-2.05363
  0
LINE
  8
0
 10
-2.1869
 20
-2.05363
 11
-2.42705
 21
-1.76335
  0
LINE
  8
0
 10
-2.42705
 20
-1.76335
 11
-2.62891
 21
-1.44525
  0
LINE
  8
0
 10
-2.62891
 20
-1.44525
 11
-2.78932
 21
-1.10437
  0
LINE
  8
0
 10
-2.78932
 20
-1.10437
 11
-2.90575
 21
-0.746063
  0
LINE
  8
0
 10
-2.90575
 20
-0.746063
 11
-2.97633
 21
-0.375992
  0
LINE
  8
0
 10
-2.97633
 20
-0.375992
 11
-3
 21
0
  0
LINE
  8
0
 10
-3
 20
0
 11
-2.97633
 21
0.375992
  0
LINE
  8
0
 10
-2.97633
 20
0.375992
 11
-2.90575
 21
0.746063
  0
LINE
  8
0
 10
-2.90575
 20
0.746063
 11
-2.78932
 21
1.10437
  0
LINE
  8
0
 10
-2.78932
 20
1.10437
 11
-2.62891
 21
1.44525
  0
LINE
  8
0
 10
-2.62891
 20
1.44525
 11
-2.42705
 21
1.76335
  0
LINE
  8
0
 10
-2.42705
 20
1.76335
 11
-2.1869
 21
2.05363
  0
LINE
  8
0
 10
-2.1869
 20
2.05363
 11
-1.91226
 21
2.31154
  0
LINE
  8
0
 10
-1.91226
 20
2.31154
 11
-1.60747
 21
2.53297
  0
LINE
  8
0
 10
-1.60747
 20
2.53297
 11
-1.27733
 21
2.71448
  0
LINE
  8
0
 10
-1.27733
 20
2.71448
 11
-0.927048
 21
2.85316
  0
LINE
  8
0
 10
-0.927048
 20
2.85316
 11
-0.562134
 21
2.94685
  0
LINE
  8
0
 10
-0.562134
 20
2.94685
 11
-0.18837
 21
2.99408
  0
LINE
  8
0
 10
-0.18837
 20
2.99408
 11
0.18837
 21
2.99408
  0
LINE
  8
0
 10
0.18837
 20
2.99408
 11
0.562134
 21
2.94685
  0
LINE
  8
0
 10
0.562134
 20
2.94685
 11
0.927048
 21
2.85316
  0
LINE
  8
0
 10
0.927048
 20
2.85316
 11
1.27733
 21
2.71448
  0
LINE
  8
0
 10
1.27733
 20
2.71448
 11
1.60747
 21
2.53297
  0
LINE
  8
0
 10
1.60747
 20
2.53297
 11
1.91226
 21
2.31154
  0
LINE
  8
0
 10
1.91226
 20
2.31154
 11
2.1869
 21
2.05363
  0
LINE
  8
0
 10
2.1869
 20
2.05363
 11
2.42705
 21
1.76335
  0
LINE
  8
0
 10
2.42705
 20
1.76335
 11
2.62891
 21
1.44525
  0
LINE
  8
0
 10
2.62891
 20
1.44525
 11
2.78932
 21
1.10437
  0
LINE
  8
0
 10
2.78932
 20
1.10437
 11
2.90575
 21
0.746063
  0
LINE
  8
0
 10
2.90575
 20
0.746063
 11
2.97633
 21
0.375992
  0
LINE
  8
0
 10
2.97633
 20
0.375992
 11
3
 21
0
  0
LINE
  8
0
 10
3
 20
0
 11
2.97633
 21
-0.375992
  0
LINE
  8
0
 10
2.97633
 20
-0.375992
 11
2.90575
 21
-0.746063
  0
LINE
  8
0
 10
2.90575
 20
-0.746063
 11
2.78932
 21
-1.10437
  0
LINE
  8
0
 10
2.78932
 20
-1.10437
 11
2.62891
 21
-1.44525
  0
LINE
  8
0
 10
2.62891
 20
-1.44525
 11
2.42705
 21
-1.76335
  0
LINE
  8
0
 10
2.42705
 20
-1.76335
 11
2.1869
 21
-2.05363
  0
LINE
  8
0
 10
2.1869
 20
-2.05363
 11
1.91226
 21
-2.31154
  0
LINE
  8
0
 10
1.91226
 20
-2.31154
 11
1.60747
 21
-2.53297
  0
LINE
  8
0
 10
1.60747
 20
-2.53297
 11
1.27733
 21
-2.71448
  0
LINE
  8
0
 10
1.27733
 20
-2.71448
 11
0.927048
 21
-2.85316
  0
LINE
  8
0
 10
0.927048
 20
-2.85316
 11
0.562134
 21
-2.94685
  0
LINE
  8
0
 10
0.562134
 20
-2.94685
 11
0.18837
 21
-2.99408
  0
LINE
  8
0
 10
0.18837
 20
-2.99408
 11
-0.18837
 21
-2.99408
  0
ENDSEC
  0
SECTION
  2
OBJECTS
  0
DICTIONARY
  0
ENDSEC
  0
EOF
