<?xml version="1.0" standalone="no"?>
<!DOCTYPE svg PUBLIC "-//W3C//DTD SVG 1.1//EN" "http://www.w3.org/Graphics/SVG/1.1/DTD/svg11.dtd">
<svg width="14mm" height="14mm" viewBox="-7 -7 14 14" xmlns="http://www.w3.org/2000/svg" version="1.1">
<title>OpenSCAD Model</title>
<path d="
M 1.31166,6.87601 L 2.16312,6.65739 L 2.98045,6.33379 L 3.75078,5.91029 L 4.46196,5.39359 L 5.10277,4.79182
 L 5.66312,4.11449 L 6.13414,3.37227 L 6.50842,2.57686 L 6.78008,1.74081 L 6.94479,0.877319 L 7,-0
 L 6.94479,-0.877319 L 6.78008,-1.74081 L 6.50842,-2.57686 L 6.13414,-3.37227 L 5.66312,-4.11449 L 5.10277,-4.79182
 L 4.46196,-5.39359 L 3.75078,-5.91029 L 2.98045,-6.33379 L 2.16312,-6.65739 L 1.31166,-6.87601 L 0.439529,-6.98618
 L -0.439529,-6.98618 L -1.31166,-6.87601 L -2.16312,-6.65739 L -2.98045,-6.33379 L -3.75078,-5.91029 L -4.46196,-5.39359
 L -5.10277,-4.79182 L -5.66312,-4.11449 L -6.13414,-3.37227 L -6.50842,-2.57686 L -6.78008,-1.74081 L -6.94479,-0.877319
 L -7,-0 L -6.94479,0.877319 L -6.78008,1.74081 L -6.50842,2.57686 L -6.13414,3.37227 L -5.66312,4.11449
 L -5.10277,4.79182 L -4.46196,5.39359 L -3.75078,5.91029 L -2.98045,6.33379 L -2.16312,6.65739 L -1.31166,6.87601
 L -0.439529,6.98618 L 0.439529,6.98618 z
M -0.18837,2.99408 L -0.562134,2.94685 L -0.927048,2.85316 L -1.27733,2.71448 L -1.60747,2.53297 L -1.91226,2.31154
 L -2.1869,2.05363 L -2.42705,1.76335 L -2.62891,1.44525 L -2.78932,1.10437 L -2.90575,0.746063 L -2.97633,0.375992
 L -3,-0 L -2.97633,-0.375992 L -2.90575,-0.746063 L -2.78932,-1.10437 L -2.62891,-1.44525 L -2.42705,-1.76335
 L -2.1869,-2.05363 L -1.91226,-2.31154 L -1.60747,-2.53297 L -1.27733,-2.71448 L -0.927048,-2.85316 L -0.562134,-2.94685
 L -0.18837,-2.99408 L 0.18837,-2.99408 L 0.562134,-2.94685 L 0.927048,-2.85316 L 1.27733,-2.71448 L 1.60747,-2.53297
 L 1.91226,-2.31154 L 2.1869,-2.05363 L 2.42705,-1.76335 L 2.62891,-1.44525 L 2.78932,-1.10437 L 2.90575,-0.746063
 L 2.97633,-0.375992 L 3,-0 L 2.97633,0.375992 L 2.90575,0.746063 L 2.78932,1.10437 L 2.62891,1.44525
 L 2.42705,1.76335 L 2.1869,2.05363 L 1.91226,2.31154 L 1.60747,2.53297 L 1.27733,2.71448 L 0.927048,2.85316
 L 0.562134,2.94685 L 0.18837,2.99408 z
" stroke="black" fill="lightgray" stroke-width="0.5"/>
</svg>
