  0
SECTION
  2
BLOCKS
  0
ENDSEC
  0
SECTION
  2
ENTITIES
  0
LINE
  8
0
 10
25.4369
 20
0.588562
 11
26.0451
 21
0.744705
  0
LINE
  8
0
 10
26.0451
 20
0.744705
 11
26.6289
 21
0.975861
  0
LINE
  8
0
 10
26.6289
 20
0.975861
 11
27.1791
 21
1.27835
  0
LINE
  8
0
 10
27.1791
 20
1.27835
 11
27.6871
 21
1.64743
  0
LINE
  8
0
 10
27.6871
 20
1.64743
 11
28.1448
 21
2.07726
  0
LINE
  8
0
 10
28.1448
 20
2.07726
 11
28.5451
 21
2.56107
  0
LINE
  8
0
 10
28.5451
 20
2.56107
 11
28.8815
 21
3.09122
  0
LINE
  8
0
 10
28.8815
 20
3.09122
 11
29.1489
 21
3.65936
  0
LINE
  8
0
 10
29.1489
 20
3.65936
 11
29.3429
 21
4.25655
  0
LINE
  8
0
 10
29.3429
 20
4.25655
 11
29.4606
 21
4.87332
  0
LINE
  8
0
 10
29.4606
 20
4.87332
 11
29.5
 21
5.5
  0
LINE
  8
0
 10
29.5
 20
5.5
 11
29.5
 21
24.5
  0
LINE
  8
0
 10
29.5
 20
24.5
 11
29.4606
 21
25.1267
  0
LINE
  8
0
 10
29.4606
 20
25.1267
 11
29.3429
 21
25.7434
  0
LINE
  8
0
 10
29.3429
 20
25.7434
 11
29.1489
 21
26.3406
  0
LINE
  8
0
 10
29.1489
 20
26.3406
 11
28.8815
 21
26.9088
  0
LINE
  8
0
 10
28.8815
 20
26.9088
 11
28.5451
 21
27.4389
  0
LINE
  8
0
 10
28.5451
 20
27.4389
 11
28.1448
 21
27.9227
  0
LINE
  8
0
 10
28.1448
 20
27.9227
 11
27.6871
 21
28.3526
  0
LINE
  8
0
 10
27.6871
 20
28.3526
 11
27.1791
 21
28.7216
  0
LINE
  8
0
 10
27.1791
 20
28.7216
 11
26.6289
 21
29.0241
  0
LINE
  8
0
 10
26.6289
 20
29.0241
 11
26.0451
 21
29.2553
  0
LINE
  8
0
 10
26.0451
 20
29.2553
 11
25.4369
 21
29.4114
  0
LINE
  8
0
 10
25.4369
 20
29.4114
 11
24.8139
 21
29.4901
  0
LINE
  8
0
 10
24.8139
 20
29.4901
 11
5.18604
 21
29.4901
  0
LINE
  8
0
 10
5.18604
 20
29.4901
 11
4.56308
 21
29.4114
  0
LINE
  8
0
 10
4.56308
 20
29.4114
 11
3.95491
 21
29.2553
  0
LINE
  8
0
 10
3.95491
 20
29.2553
 11
3.37109
 21
29.0241
  0
LINE
  8
0
 10
3.37109
 20
29.0241
 11
2.82086
 21
28.7216
  0
LINE
  8
0
 10
2.82086
 20
28.7216
 11
2.31287
 21
28.3526
  0
LINE
  8
0
 10
2.31287
 20
28.3526
 11
1.85515
 21
27.9227
  0
LINE
  8
0
 10
1.85515
 20
27.9227
 11
1.45491
 21
27.4389
  0
LINE
  8
0
 10
1.45491
 20
27.4389
 11
1.11845
 21
26.9088
  0
LINE
  8
0
 10
1.11845
 20
26.9088
 11
0.851105
 21
26.3406
  0
LINE
  8
0
 10
0.851105
 20
26.3406
 11
0.657074
 21
25.7434
  0
LINE
  8
0
 10
0.657074
 20
25.7434
 11
0.539413
 21
25.1267
  0
LINE
  8
0
 10
0.539413
 20
25.1267
 11
0.5
 21
24.5
  0
LINE
  8
0
 10
0.5
 20
24.5
 11
0.5
 21
5.5
  0
LINE
  8
0
 10
0.5
 20
5.5
 11
0.539413
 21
4.87332
  0
LINE
  8
0
 10
0.539413
 20
4.87332
 11
0.657074
 21
4.25655
  0
LINE
  8
0
 10
0.657074
 20
4.25655
 11
0.851105
 21
3.65936
  0
LINE
  8
0
 10
0.851105
 20
3.65936
 11
1.11845
 21
3.09122
  0
LINE
  8
0
 10
1.11845
 20
3.09122
 11
1.45491
 21
2.56107
  0
LINE
  8
0
 10
1.45491
 20
2.56107
 11
1.85515
 21
2.07726
  0
LINE
  8
0
 10
1.85515
 20
2.07726
 11
2.31287
 21
1.64743
  0
LINE
  8
0
 10
2.31287
 20
1.64743
 11
2.82086
 21
1.27835
  0
LINE
  8
0
 10
2.82086
 20
1.27835
 11
3.37109
 21
0.975861
  0
LINE
  8
0
 10
3.37109
 20
0.975861
 11
3.95491
 21
0.744705
  0
LINE
  8
0
 10
3.95491
 20
0.744705
 11
4.56308
 21
0.588562
  0
LINE
  8
0
 10
4.56308
 20
0.588562
 11
5.18604
 21
0.509857
  0
LINE
  8
0
 10
5.18604
 20
0.509857
 11
24.8139
 21
0.509857
  0
LINE
  8
0
 10
24.8139
 20
0.509857
 11
25.4369
 21
0.588562
  0
LINE
  8
0
 10
7.31161
 20
19.5059
 11
6.93785
 21
19.5531
  0
LINE
  8
0
 10
6.93785
 20
19.5531
 11
6.57294
 21
19.6468
  0
LINE
  8
0
 10
6.57294
 20
19.6468
 11
6.22266
 21
19.7855
  0
LINE
  8
0
 10
6.22266
 20
19.7855
 11
5.89252
 21
19.967
  0
LINE
  8
0
 10
5.89252
 20
19.967
 11
5.58772
 21
20.1884
  0
LINE
  8
0
 10
5.58772
 20
20.1884
 11
5.31308
 21
20.4464
  0
LINE
  8
0
 10
5.31308
 20
20.4464
 11
5.07294
 21
20.7366
  0
LINE
  8
0
 10
5.07294
 20
20.7366
 11
4.87108
 21
21.0547
  0
LINE
  8
0
 10
4.87108
 20
21.0547
 11
4.71066
 21
21.3956
  0
LINE
  8
0
 10
4.71066
 20
21.3956
 11
4.59424
 21
21.7539
  0
LINE
  8
0
 10
4.59424
 20
21.7539
 11
4.52365
 21
22.124
  0
LINE
  8
0
 10
4.52365
 20
22.124
 11
4.5
 21
22.5
  0
LINE
  8
0
 10
4.5
 20
22.5
 11
4.52365
 21
22.876
  0
LINE
  8
0
 10
4.52365
 20
22.876
 11
4.59424
 21
23.2461
  0
LINE
  8
0
 10
4.59424
 20
23.2461
 11
4.71066
 21
23.6044
  0
LINE
  8
0
 10
4.71066
 20
23.6044
 11
4.87108
 21
23.9453
  0
LINE
  8
0
 10
4.87108
 20
23.9453
 11
5.07294
 21
24.2634
  0
LINE
  8
0
 10
5.07294
 20
24.2634
 11
5.31308
 21
24.5536
  0
LINE
  8
0
 10
5.31308
 20
24.5536
 11
5.58772
 21
24.8115
  0
LINE
  8
0
 10
5.58772
 20
24.8115
 11
5.89252
 21
25.033
  0
LINE
  8
0
 10
5.89252
 20
25.033
 11
6.22266
 21
25.2145
  0
LINE
  8
0
 10
6.22266
 20
25.2145
 11
6.57294
 21
25.3532
  0
LINE
  8
0
 10
6.57294
 20
25.3532
 11
6.93785
 21
25.4469
  0
LINE
  8
0
 10
6.93785
 20
25.4469
 11
7.31161
 21
25.4941
  0
LINE
  8
0
 10
7.31161
 20
25.4941
 11
7.68837
 21
25.4941
  0
LINE
  8
0
 10
7.68837
 20
25.4941
 11
8.06213
 21
25.4469
  0
LINE
  8
0
 10
8.06213
 20
25.4469
 11
8.42705
 21
25.3532
  0
LINE
  8
0
 10
8.42705
 20
25.3532
 11
8.77733
 21
25.2145
  0
LINE
  8
0
 10
8.77733
 20
25.2145
 11
9.10747
 21
25.033
  0
LINE
  8
0
 10
9.10747
 20
25.033
 11
9.41226
 21
24.8115
  0
LINE
  8
0
 10
9.41226
 20
24.8115
 11
9.6869
 21
24.5536
  0
LINE
  8
0
 10
9.6869
 20
24.5536
 11
9.92705
 21
24.2634
  0
LINE
  8
0
 10
9.92705
 20
24.2634
 11
10.1289
 21
23.9453
  0
LINE
  8
0
 10
10.1289
 20
23.9453
 11
10.2893
 21
23.6044
  0
LINE
  8
0
 10
10.2893
 20
23.6044
 11
10.4057
 21
23.2461
  0
LINE
  8
0
 10
10.4057
 20
23.2461
 11
10.4763
 21
22.876
  0
LINE
  8
0
 10
10.4763
 20
22.876
 11
10.5
 21
22.5
  0
LINE
  8
0
 10
10.5
 20
22.5
 11
10.4763
 21
22.124
  0
LINE
  8
0
 10
10.4763
 20
22.124
 11
10.4057
 21
21.7539
  0
LINE
  8
0
 10
10.4057
 20
21.7539
 11
10.2893
 21
21.3956
  0
LINE
  8
0
 10
10.2893
 20
21.3956
 11
10.1289
 21
21.0547
  0
LINE
  8
0
 10
10.1289
 20
21.0547
 11
9.92705
 21
20.7366
  0
LINE
  8
0
 10
9.92705
 20
20.7366
 11
9.6869
 21
20.4464
  0
LINE
  8
0
 10
9.6869
 20
20.4464
 11
9.41226
 21
20.1884
  0
LINE
  8
0
 10
9.41226
 20
20.1884
 11
9.10747
 21
19.967
  0
LINE
  8
0
 10
9.10747
 20
19.967
 11
8.77733
 21
19.7855
  0
LINE
  8
0
 10
8.77733
 20
19.7855
 11
8.42705
 21
19.6468
  0
LINE
  8
0
 10
8.42705
 20
19.6468
 11
8.06213
 21
19.5531
  0
LINE
  8
0
 10
8.06213
 20
19.5531
 11
7.68837
 21
19.5059
  0
LINE
  8
0
 10
7.68837
 20
19.5059
 11
7.31161
 21
19.5059
  0
LINE
  8
0
 10
22.3116
 20
19.5059
 11
21.9379
 21
19.5531
  0
LINE
  8
0
 10
21.9379
 20
19.5531
 11
21.5729
 21
19.6468
  0
LINE
  8
0
 10
21.5729
 20
19.6468
 11
21.2227
 21
19.7855
  0
LINE
  8
0
 10
21.2227
 20
19.7855
 11
20.8925
 21
19.967
  0
LINE
  8
0
 10
20.8925
 20
19.967
 11
20.5877
 21
20.1884
  0
LINE
  8
0
 10
20.5877
 20
20.1884
 11
20.3131
 21
20.4464
  0
LINE
  8
0
 10
20.3131
 20
20.4464
 11
20.0729
 21
20.7366
  0
LINE
  8
0
 10
20.0729
 20
20.7366
 11
19.8711
 21
21.0547
  0
LINE
  8
0
 10
19.8711
 20
21.0547
 11
19.7107
 21
21.3956
  0
LINE
  8
0
 10
19.7107
 20
21.3956
 11
19.5942
 21
21.7539
  0
LINE
  8
0
 10
19.5942
 20
21.7539
 11
19.5237
 21
22.124
  0
LINE
  8
0
 10
19.5237
 20
22.124
 11
19.5
 21
22.5
  0
LINE
  8
0
 10
19.5
 20
22.5
 11
19.5237
 21
22.876
  0
LINE
  8
0
 10
19.5237
 20
22.876
 11
19.5942
 21
23.2461
  0
LINE
  8
0
 10
19.5942
 20
23.2461
 11
19.7107
 21
23.6044
  0
LINE
  8
0
 10
19.7107
 20
23.6044
 11
19.8711
 21
23.9453
  0
LINE
  8
0
 10
19.8711
 20
23.9453
 11
20.0729
 21
24.2634
  0
LINE
  8
0
 10
20.0729
 20
24.2634
 11
20.3131
 21
24.5536
  0
LINE
  8
0
 10
20.3131
 20
24.5536
 11
20.5877
 21
24.8115
  0
LINE
  8
0
 10
20.5877
 20
24.8115
 11
20.8925
 21
25.033
  0
LINE
  8
0
 10
20.8925
 20
25.033
 11
21.2227
 21
25.2145
  0
LINE
  8
0
 10
21.2227
 20
25.2145
 11
21.5729
 21
25.3532
  0
LINE
  8
0
 10
21.5729
 20
25.3532
 11
21.9379
 21
25.4469
  0
LINE
  8
0
 10
21.9379
 20
25.4469
 11
22.3116
 21
25.4941
  0
LINE
  8
0
 10
22.3116
 20
25.4941
 11
22.6884
 21
25.4941
  0
LINE
  8
0
 10
22.6884
 20
25.4941
 11
23.0621
 21
25.4469
  0
LINE
  8
0
 10
23.0621
 20
25.4469
 11
23.427
 21
25.3532
  0
LINE
  8
0
 10
23.427
 20
25.3532
 11
23.7773
 21
25.2145
  0
LINE
  8
0
 10
23.7773
 20
25.2145
 11
24.1075
 21
25.033
  0
LINE
  8
0
 10
24.1075
 20
25.033
 11
24.4123
 21
24.8115
  0
LINE
  8
0
 10
24.4123
 20
24.8115
 11
24.6869
 21
24.5536
  0
LINE
  8
0
 10
24.6869
 20
24.5536
 11
24.927
 21
24.2634
  0
LINE
  8
0
 10
24.927
 20
24.2634
 11
25.1289
 21
23.9453
  0
LINE
  8
0
 10
25.1289
 20
23.9453
 11
25.2893
 21
23.6044
  0
LINE
  8
0
 10
25.2893
 20
23.6044
 11
25.4057
 21
23.2461
  0
LINE
  8
0
 10
25.4057
 20
23.2461
 11
25.4763
 21
22.876
  0
LINE
  8
0
 10
25.4763
 20
22.876
 11
25.5
 21
22.5
  0
LINE
  8
0
 10
25.5
 20
22.5
 11
25.4763
 21
22.124
  0
LINE
  8
0
 10
25.4763
 20
22.124
 11
25.4057
 21
21.7539
  0
LINE
  8
0
 10
25.4057
 20
21.7539
 11
25.2893
 21
21.3956
  0
LINE
  8
0
 10
25.2893
 20
21.3956
 11
25.1289
 21
21.0547
  0
LINE
  8
0
 10
25.1289
 20
21.0547
 11
24.927
 21
20.7366
  0
LINE
  8
0
 10
24.927
 20
20.7366
 11
24.6869
 21
20.4464
  0
LINE
  8
0
 10
24.6869
 20
20.4464
 11
24.4123
 21
20.1884
  0
LINE
  8
0
 10
24.4123
 20
20.1884
 11
24.1075
 21
19.967
  0
LINE
  8
0
 10
24.1075
 20
19.967
 11
23.7773
 21
19.7855
  0
LINE
  8
0
 10
23.7773
 20
19.7855
 11
23.427
 21
19.6468
  0
LINE
  8
0
 10
23.427
 20
19.6468
 11
23.0621
 21
19.5531
  0
LINE
  8
0
 10
23.0621
 20
19.5531
 11
22.6884
 21
19.5059
  0
LINE
  8
0
 10
22.6884
 20
19.5059
 11
22.3116
 21
19.5059
  0
LINE
  8
0
 10
7.31161
 20
4.50591
 11
6.93785
 21
4.55313
  0
LINE
  8
0
 10
6.93785
 20
4.55313
 11
6.57294
 21
4.64682
  0
LINE
  8
0
 10
6.57294
 20
4.64682
 11
6.22266
 21
4.78551
  0
LINE
  8
0
 10
6.22266
 20
4.78551
 11
5.89252
 21
4.96701
  0
LINE
  8
0
 10
5.89252
 20
4.96701
 11
5.58772
 21
5.18845
  0
LINE
  8
0
 10
5.58772
 20
5.18845
 11
5.31308
 21
5.44635
  0
LINE
  8
0
 10
5.31308
 20
5.44635
 11
5.07294
 21
5.73663
  0
LINE
  8
0
 10
5.07294
 20
5.73663
 11
4.87108
 21
6.05473
  0
LINE
  8
0
 10
4.87108
 20
6.05473
 11
4.71066
 21
6.39561
  0
LINE
  8
0
 10
4.71066
 20
6.39561
 11
4.59424
 21
6.75392
  0
LINE
  8
0
 10
4.59424
 20
6.75392
 11
4.52365
 21
7.12399
  0
LINE
  8
0
 10
4.52365
 20
7.12399
 11
4.5
 21
7.5
  0
LINE
  8
0
 10
4.5
 20
7.5
 11
4.52365
 21
7.87599
  0
LINE
  8
0
 10
4.52365
 20
7.87599
 11
4.59424
 21
8.24606
  0
LINE
  8
0
 10
4.59424
 20
8.24606
 11
4.71066
 21
8.60437
  0
LINE
  8
0
 10
4.71066
 20
8.60437
 11
4.87108
 21
8.94525
  0
LINE
  8
0
 10
4.87108
 20
8.94525
 11
5.07294
 21
9.26335
  0
LINE
  8
0
 10
5.07294
 20
9.26335
 11
5.31308
 21
9.55363
  0
LINE
  8
0
 10
5.31308
 20
9.55363
 11
5.58772
 21
9.81154
  0
LINE
  8
0
 10
5.58772
 20
9.81154
 11
5.89252
 21
10.033
  0
LINE
  8
0
 10
5.89252
 20
10.033
 11
6.22266
 21
10.2145
  0
LINE
  8
0
 10
6.22266
 20
10.2145
 11
6.57294
 21
10.3532
  0
LINE
  8
0
 10
6.57294
 20
10.3532
 11
6.93785
 21
10.4469
  0
LINE
  8
0
 10
6.93785
 20
10.4469
 11
7.31161
 21
10.4941
  0
LINE
  8
0
 10
7.31161
 20
10.4941
 11
7.68837
 21
10.4941
  0
LINE
  8
0
 10
7.68837
 20
10.4941
 11
8.06213
 21
10.4469
  0
LINE
  8
0
 10
8.06213
 20
10.4469
 11
8.42705
 21
10.3532
  0
LINE
  8
0
 10
8.42705
 20
10.3532
 11
8.77733
 21
10.2145
  0
LINE
  8
0
 10
8.77733
 20
10.2145
 11
9.10747
 21
10.033
  0
LINE
  8
0
 10
9.10747
 20
10.033
 11
9.41226
 21
9.81154
  0
LINE
  8
0
 10
9.41226
 20
9.81154
 11
9.6869
 21
9.55363
  0
LINE
  8
0
 10
9.6869
 20
9.55363
 11
9.92705
 21
9.26335
  0
LINE
  8
0
 10
9.92705
 20
9.26335
 11
10.1289
 21
8.94525
  0
LINE
  8
0
 10
10.1289
 20
8.94525
 11
10.2893
 21
8.60437
  0
LINE
  8
0
 10
10.2893
 20
8.60437
 11
10.4057
 21
8.24606
  0
LINE
  8
0
 10
10.4057
 20
8.24606
 11
10.4763
 21
7.87599
  0
LINE
  8
0
 10
10.4763
 20
7.87599
 11
10.5
 21
7.5
  0
LINE
  8
0
 10
10.5
 20
7.5
 11
10.4763
 21
7.12399
  0
LINE
  8
0
 10
10.4763
 20
7.12399
 11
10.4057
 21
6.75392
  0
LINE
  8
0
 10
10.4057
 20
6.75392
 11
10.2893
 21
6.39561
  0
LINE
  8
0
 10
10.2893
 20
6.39561
 11
10.1289
 21
6.05473
  0
LINE
  8
0
 10
10.1289
 20
6.05473
 11
9.92705
 21
5.73663
  0
LINE
  8
0
 10
9.92705
 20
5.73663
 11
9.6869
 21
5.44635
  0
LINE
  8
0
 10
9.6869
 20
5.44635
 11
9.41226
 21
5.18845
  0
LINE
  8
0
 10
9.41226
 20
5.18845
 11
9.10747
 21
4.96701
  0
LINE
  8
0
 10
9.10747
 20
4.96701
 11
8.77733
 21
4.78551
  0
LINE
  8
0
 10
8.77733
 20
4.78551
 11
8.42705
 21
4.64682
  0
LINE
  8
0
 10
8.42705
 20
4.64682
 11
8.06213
 21
4.55313
  0
LINE
  8
0
 10
8.06213
 20
4.55313
 11
7.68837
 21
4.50591
  0
LINE
  8
0
 10
7.68837
 20
4.50591
 11
7.31161
 21
4.50591
  0
LINE
  8
0
 10
22.3116
 20
4.50591
 11
21.9379
 21
4.55313
  0
LINE
  8
0
 10
21.9379
 20
4.55313
 11
21.5729
 21
4.64682
  0
LINE
  8
0
 10
21.5729
 20
4.64682
 11
21.2227
 21
4.78551
  0
LINE
  8
0
 10
21.2227
 20
4.78551
 11
20.8925
 21
4.96701
  0
LINE
  8
0
 10
20.8925
 20
4.96701
 11
20.5877
 21
5.18845
  0
LINE
  8
0
 10
20.5877
 20
5.18845
 11
20.3131
 21
5.44635
  0
LINE
  8
0
 10
20.3131
 20
5.44635
 11
20.0729
 21
5.73663
  0
LINE
  8
0
 10
20.0729
 20
5.73663
 11
19.8711
 21
6.05473
  0
LINE
  8
0
 10
19.8711
 20
6.05473
 11
19.7107
 21
6.39561
  0
LINE
  8
0
 10
19.7107
 20
6.39561
 11
19.5942
 21
6.75392
  0
LINE
  8
0
 10
19.5942
 20
6.75392
 11
19.5237
 21
7.12399
  0
LINE
  8
0
 10
19.5237
 20
7.12399
 11
19.5
 21
7.5
  0
LINE
  8
0
 10
19.5
 20
7.5
 11
19.5237
 21
7.87599
  0
LINE
  8
0
 10
19.5237
 20
7.87599
 11
19.5942
 21
8.24606
  0
LINE
  8
0
 10
19.5942
 20
8.24606
 11
19.7107
 21
8.60437
  0
LINE
  8
0
 10
19.7107
 20
8.60437
 11
19.8711
 21
8.94525
  0
LINE
  8
0
 10
19.8711
 20
8.94525
 11
20.0729
 21
9.26335
  0
LINE
  8
0
 10
20.0729
 20
9.26335
 11
20.3131
 21
9.55363
  0
LINE
  8
0
 10
20.3131
 20
9.55363
 11
20.5877
 21
9.81154
  0
LINE
  8
0
 10
20.5877
 20
9.81154
 11
20.8925
 21
10.033
  0
LINE
  8
0
 10
20.8925
 20
10.033
 11
21.2227
 21
10.2145
  0
LINE
  8
0
 10
21.2227
 20
10.2145
 11
21.5729
 21
10.3532
  0
LINE
  8
0
 10
21.5729
 20
10.3532
 11
21.9379
 21
10.4469
  0
LINE
  8
0
 10
21.9379
 20
10.4469
 11
22.3116
 21
10.4941
  0
LINE
  8
0
 10
22.3116
 20
10.4941
 11
22.6884
 21
10.4941
  0
LINE
  8
0
 10
22.6884
 20
10.4941
 11
23.0621
 21
10.4469
  0
LINE
  8
0
 10
23.0621
 20
10.4469
 11
23.427
 21
10.3532
  0
LINE
  8
0
 10
23.427
 20
10.3532
 11
23.7773
 21
10.2145
  0
LINE
  8
0
 10
23.7773
 20
10.2145
 11
24.1075
 21
10.033
  0
LINE
  8
0
 10
24.1075
 20
10.033
 11
24.4123
 21
9.81154
  0
LINE
  8
0
 10
24.4123
 20
9.81154
 11
24.6869
 21
9.55363
  0
LINE
  8
0
 10
24.6869
 20
9.55363
 11
24.927
 21
9.26335
  0
LINE
  8
0
 10
24.927
 20
9.26335
 11
25.1289
 21
8.94525
  0
LINE
  8
0
 10
25.1289
 20
8.94525
 11
25.2893
 21
8.60437
  0
LINE
  8
0
 10
25.2893
 20
8.60437
 11
25.4057
 21
8.24606
  0
LINE
  8
0
 10
25.4057
 20
8.24606
 11
25.4763
 21
7.87599
  0
LINE
  8
0
 10
25.4763
 20
7.87599
 11
25.5
 21
7.5
  0
LINE
  8
0
 10
25.5
 20
7.5
 11
25.4763
 21
7.12399
  0
LINE
  8
0
 10
25.4763
 20
7.12399
 11
25.4057
 21
6.75392
  0
LINE
  8
0
 10
25.4057
 20
6.75392
 11
25.2893
 21
6.39561
  0
LINE
  8
0
 10
25.2893
 20
6.39561
 11
25.1289
 21
6.05473
  0
LINE
  8
0
 10
25.1289
 20
6.05473
 11
24.927
 21
5.73663
  0
LINE
  8
0
 10
24.927
 20
5.73663
 11
24.6869
 21
5.44635
  0
LINE
  8
0
 10
24.6869
 20
5.44635
 11
24.4123
 21
5.18845
  0
LINE
  8
0
 10
24.4123
 20
5.18845
 11
24.1075
 21
4.96701
  0
LINE
  8
0
 10
24.1075
 20
4.96701
 11
23.7773
 21
4.78551
  0
LINE
  8
0
 10
23.7773
 20
4.78551
 11
23.427
 21
4.64682
  0
LINE
  8
0
 10
23.427
 20
4.64682
 11
23.0621
 21
4.55313
  0
LINE
  8
0
 10
23.0621
 20
4.55313
 11
22.6884
 21
4.50591
  0
LINE
  8
0
 10
22.6884
 20
4.50591
 11
22.3116
 21
4.50591
  0
ENDSEC
  0
SECTION
  2
OBJECTS
  0
DICTIONARY
  0
ENDSEC
  0
EOF
