  0
SECTION
  2
BLOCKS
  0
ENDSEC
  0
SECTION
  2
ENTITIES
  0
LINE
  8
0
 10
85.4369
 20
0.588562
 11
86.0451
 21
0.744705
  0
LINE
  8
0
 10
86.0451
 20
0.744705
 11
86.6289
 21
0.975861
  0
LINE
  8
0
 10
86.6289
 20
0.975861
 11
87.1791
 21
1.27835
  0
LINE
  8
0
 10
87.1791
 20
1.27835
 11
87.6871
 21
1.64743
  0
LINE
  8
0
 10
87.6871
 20
1.64743
 11
88.1448
 21
2.07726
  0
LINE
  8
0
 10
88.1448
 20
2.07726
 11
88.5451
 21
2.56107
  0
LINE
  8
0
 10
88.5451
 20
2.56107
 11
88.8815
 21
3.09122
  0
LINE
  8
0
 10
88.8815
 20
3.09122
 11
89.1489
 21
3.65936
  0
LINE
  8
0
 10
89.1489
 20
3.65936
 11
89.3429
 21
4.25655
  0
LINE
  8
0
 10
89.3429
 20
4.25655
 11
89.4606
 21
4.87332
  0
LINE
  8
0
 10
89.4606
 20
4.87332
 11
89.5
 21
5.5
  0
LINE
  8
0
 10
89.5
 20
5.5
 11
89.5
 21
24.5
  0
LINE
  8
0
 10
89.5
 20
24.5
 11
89.4606
 21
25.1267
  0
LINE
  8
0
 10
89.4606
 20
25.1267
 11
89.3429
 21
25.7434
  0
LINE
  8
0
 10
89.3429
 20
25.7434
 11
89.1489
 21
26.3406
  0
LINE
  8
0
 10
89.1489
 20
26.3406
 11
88.8815
 21
26.9088
  0
LINE
  8
0
 10
88.8815
 20
26.9088
 11
88.5451
 21
27.4389
  0
LINE
  8
0
 10
88.5451
 20
27.4389
 11
88.1448
 21
27.9227
  0
LINE
  8
0
 10
88.1448
 20
27.9227
 11
87.6871
 21
28.3526
  0
LINE
  8
0
 10
87.6871
 20
28.3526
 11
87.1791
 21
28.7216
  0
LINE
  8
0
 10
87.1791
 20
28.7216
 11
86.6289
 21
29.0241
  0
LINE
  8
0
 10
86.6289
 20
29.0241
 11
86.0451
 21
29.2553
  0
LINE
  8
0
 10
86.0451
 20
29.2553
 11
85.4369
 21
29.4114
  0
LINE
  8
0
 10
85.4369
 20
29.4114
 11
84.8139
 21
29.4901
  0
LINE
  8
0
 10
84.8139
 20
29.4901
 11
5.18604
 21
29.4901
  0
LINE
  8
0
 10
5.18604
 20
29.4901
 11
4.56308
 21
29.4114
  0
LINE
  8
0
 10
4.56308
 20
29.4114
 11
3.95491
 21
29.2553
  0
LINE
  8
0
 10
3.95491
 20
29.2553
 11
3.37109
 21
29.0241
  0
LINE
  8
0
 10
3.37109
 20
29.0241
 11
2.82086
 21
28.7216
  0
LINE
  8
0
 10
2.82086
 20
28.7216
 11
2.31287
 21
28.3526
  0
LINE
  8
0
 10
2.31287
 20
28.3526
 11
1.85515
 21
27.9227
  0
LINE
  8
0
 10
1.85515
 20
27.9227
 11
1.45491
 21
27.4389
  0
LINE
  8
0
 10
1.45491
 20
27.4389
 11
1.11845
 21
26.9088
  0
LINE
  8
0
 10
1.11845
 20
26.9088
 11
0.851105
 21
26.3406
  0
LINE
  8
0
 10
0.851105
 20
26.3406
 11
0.657074
 21
25.7434
  0
LINE
  8
0
 10
0.657074
 20
25.7434
 11
0.539413
 21
25.1267
  0
LINE
  8
0
 10
0.539413
 20
25.1267
 11
0.5
 21
24.5
  0
LINE
  8
0
 10
0.5
 20
24.5
 11
0.5
 21
5.5
  0
LINE
  8
0
 10
0.5
 20
5.5
 11
0.539413
 21
4.87332
  0
LINE
  8
0
 10
0.539413
 20
4.87332
 11
0.657074
 21
4.25655
  0
LINE
  8
0
 10
0.657074
 20
4.25655
 11
0.851105
 21
3.65936
  0
LINE
  8
0
 10
0.851105
 20
3.65936
 11
1.11845
 21
3.09122
  0
LINE
  8
0
 10
1.11845
 20
3.09122
 11
1.45491
 21
2.56107
  0
LINE
  8
0
 10
1.45491
 20
2.56107
 11
1.85515
 21
2.07726
  0
LINE
  8
0
 10
1.85515
 20
2.07726
 11
2.31287
 21
1.64743
  0
LINE
  8
0
 10
2.31287
 20
1.64743
 11
2.82086
 21
1.27835
  0
LINE
  8
0
 10
2.82086
 20
1.27835
 11
3.37109
 21
0.975861
  0
LINE
  8
0
 10
3.37109
 20
0.975861
 11
3.95491
 21
0.744705
  0
LINE
  8
0
 10
3.95491
 20
0.744705
 11
4.56308
 21
0.588562
  0
LINE
  8
0
 10
4.56308
 20
0.588562
 11
5.18604
 21
0.509857
  0
LINE
  8
0
 10
5.18604
 20
0.509857
 11
84.8139
 21
0.509857
  0
LINE
  8
0
 10
84.8139
 20
0.509857
 11
85.4369
 21
0.588562
  0
LINE
  8
0
 10
37.3116
 20
19.5059
 11
36.9379
 21
19.5531
  0
LINE
  8
0
 10
36.9379
 20
19.5531
 11
36.5729
 21
19.6468
  0
LINE
  8
0
 10
36.5729
 20
19.6468
 11
36.2227
 21
19.7855
  0
LINE
  8
0
 10
36.2227
 20
19.7855
 11
35.8925
 21
19.967
  0
LINE
  8
0
 10
35.8925
 20
19.967
 11
35.5877
 21
20.1884
  0
LINE
  8
0
 10
35.5877
 20
20.1884
 11
35.3131
 21
20.4464
  0
LINE
  8
0
 10
35.3131
 20
20.4464
 11
35.0729
 21
20.7366
  0
LINE
  8
0
 10
35.0729
 20
20.7366
 11
34.8711
 21
21.0547
  0
LINE
  8
0
 10
34.8711
 20
21.0547
 11
34.7107
 21
21.3956
  0
LINE
  8
0
 10
34.7107
 20
21.3956
 11
34.5942
 21
21.7539
  0
LINE
  8
0
 10
34.5942
 20
21.7539
 11
34.5237
 21
22.124
  0
LINE
  8
0
 10
34.5237
 20
22.124
 11
34.5
 21
22.5
  0
LINE
  8
0
 10
34.5
 20
22.5
 11
34.5237
 21
22.876
  0
LINE
  8
0
 10
34.5237
 20
22.876
 11
34.5942
 21
23.2461
  0
LINE
  8
0
 10
34.5942
 20
23.2461
 11
34.7107
 21
23.6044
  0
LINE
  8
0
 10
34.7107
 20
23.6044
 11
34.8711
 21
23.9453
  0
LINE
  8
0
 10
34.8711
 20
23.9453
 11
35.0729
 21
24.2634
  0
LINE
  8
0
 10
35.0729
 20
24.2634
 11
35.3131
 21
24.5536
  0
LINE
  8
0
 10
35.3131
 20
24.5536
 11
35.5877
 21
24.8115
  0
LINE
  8
0
 10
35.5877
 20
24.8115
 11
35.8925
 21
25.033
  0
LINE
  8
0
 10
35.8925
 20
25.033
 11
36.2227
 21
25.2145
  0
LINE
  8
0
 10
36.2227
 20
25.2145
 11
36.5729
 21
25.3532
  0
LINE
  8
0
 10
36.5729
 20
25.3532
 11
36.9379
 21
25.4469
  0
LINE
  8
0
 10
36.9379
 20
25.4469
 11
37.3116
 21
25.4941
  0
LINE
  8
0
 10
37.3116
 20
25.4941
 11
37.6884
 21
25.4941
  0
LINE
  8
0
 10
37.6884
 20
25.4941
 11
38.0621
 21
25.4469
  0
LINE
  8
0
 10
38.0621
 20
25.4469
 11
38.427
 21
25.3532
  0
LINE
  8
0
 10
38.427
 20
25.3532
 11
38.7773
 21
25.2145
  0
LINE
  8
0
 10
38.7773
 20
25.2145
 11
39.1075
 21
25.033
  0
LINE
  8
0
 10
39.1075
 20
25.033
 11
39.4123
 21
24.8115
  0
LINE
  8
0
 10
39.4123
 20
24.8115
 11
39.6869
 21
24.5536
  0
LINE
  8
0
 10
39.6869
 20
24.5536
 11
39.927
 21
24.2634
  0
LINE
  8
0
 10
39.927
 20
24.2634
 11
40.1289
 21
23.9453
  0
LINE
  8
0
 10
40.1289
 20
23.9453
 11
40.2893
 21
23.6044
  0
LINE
  8
0
 10
40.2893
 20
23.6044
 11
40.4057
 21
23.2461
  0
LINE
  8
0
 10
40.4057
 20
23.2461
 11
40.4763
 21
22.876
  0
LINE
  8
0
 10
40.4763
 20
22.876
 11
40.5
 21
22.5
  0
LINE
  8
0
 10
40.5
 20
22.5
 11
40.4763
 21
22.124
  0
LINE
  8
0
 10
40.4763
 20
22.124
 11
40.4057
 21
21.7539
  0
LINE
  8
0
 10
40.4057
 20
21.7539
 11
40.2893
 21
21.3956
  0
LINE
  8
0
 10
40.2893
 20
21.3956
 11
40.1289
 21
21.0547
  0
LINE
  8
0
 10
40.1289
 20
21.0547
 11
39.927
 21
20.7366
  0
LINE
  8
0
 10
39.927
 20
20.7366
 11
39.6869
 21
20.4464
  0
LINE
  8
0
 10
39.6869
 20
20.4464
 11
39.4123
 21
20.1884
  0
LINE
  8
0
 10
39.4123
 20
20.1884
 11
39.1075
 21
19.967
  0
LINE
  8
0
 10
39.1075
 20
19.967
 11
38.7773
 21
19.7855
  0
LINE
  8
0
 10
38.7773
 20
19.7855
 11
38.427
 21
19.6468
  0
LINE
  8
0
 10
38.427
 20
19.6468
 11
38.0621
 21
19.5531
  0
LINE
  8
0
 10
38.0621
 20
19.5531
 11
37.6884
 21
19.5059
  0
LINE
  8
0
 10
37.6884
 20
19.5059
 11
37.3116
 21
19.5059
  0
LINE
  8
0
 10
22.3116
 20
19.5059
 11
21.9379
 21
19.5531
  0
LINE
  8
0
 10
21.9379
 20
19.5531
 11
21.5729
 21
19.6468
  0
LINE
  8
0
 10
21.5729
 20
19.6468
 11
21.2227
 21
19.7855
  0
LINE
  8
0
 10
21.2227
 20
19.7855
 11
20.8925
 21
19.967
  0
LINE
  8
0
 10
20.8925
 20
19.967
 11
20.5877
 21
20.1884
  0
LINE
  8
0
 10
20.5877
 20
20.1884
 11
20.3131
 21
20.4464
  0
LINE
  8
0
 10
20.3131
 20
20.4464
 11
20.0729
 21
20.7366
  0
LINE
  8
0
 10
20.0729
 20
20.7366
 11
19.8711
 21
21.0547
  0
LINE
  8
0
 10
19.8711
 20
21.0547
 11
19.7107
 21
21.3956
  0
LINE
  8
0
 10
19.7107
 20
21.3956
 11
19.5942
 21
21.7539
  0
LINE
  8
0
 10
19.5942
 20
21.7539
 11
19.5237
 21
22.124
  0
LINE
  8
0
 10
19.5237
 20
22.124
 11
19.5
 21
22.5
  0
LINE
  8
0
 10
19.5
 20
22.5
 11
19.5237
 21
22.876
  0
LINE
  8
0
 10
19.5237
 20
22.876
 11
19.5942
 21
23.2461
  0
LINE
  8
0
 10
19.5942
 20
23.2461
 11
19.7107
 21
23.6044
  0
LINE
  8
0
 10
19.7107
 20
23.6044
 11
19.8711
 21
23.9453
  0
LINE
  8
0
 10
19.8711
 20
23.9453
 11
20.0729
 21
24.2634
  0
LINE
  8
0
 10
20.0729
 20
24.2634
 11
20.3131
 21
24.5536
  0
LINE
  8
0
 10
20.3131
 20
24.5536
 11
20.5877
 21
24.8115
  0
LINE
  8
0
 10
20.5877
 20
24.8115
 11
20.8925
 21
25.033
  0
LINE
  8
0
 10
20.8925
 20
25.033
 11
21.2227
 21
25.2145
  0
LINE
  8
0
 10
21.2227
 20
25.2145
 11
21.5729
 21
25.3532
  0
LINE
  8
0
 10
21.5729
 20
25.3532
 11
21.9379
 21
25.4469
  0
LINE
  8
0
 10
21.9379
 20
25.4469
 11
22.3116
 21
25.4941
  0
LINE
  8
0
 10
22.3116
 20
25.4941
 11
22.6884
 21
25.4941
  0
LINE
  8
0
 10
22.6884
 20
25.4941
 11
23.0621
 21
25.4469
  0
LINE
  8
0
 10
23.0621
 20
25.4469
 11
23.427
 21
25.3532
  0
LINE
  8
0
 10
23.427
 20
25.3532
 11
23.7773
 21
25.2145
  0
LINE
  8
0
 10
23.7773
 20
25.2145
 11
24.1075
 21
25.033
  0
LINE
  8
0
 10
24.1075
 20
25.033
 11
24.4123
 21
24.8115
  0
LINE
  8
0
 10
24.4123
 20
24.8115
 11
24.6869
 21
24.5536
  0
LINE
  8
0
 10
24.6869
 20
24.5536
 11
24.927
 21
24.2634
  0
LINE
  8
0
 10
24.927
 20
24.2634
 11
25.1289
 21
23.9453
  0
LINE
  8
0
 10
25.1289
 20
23.9453
 11
25.2893
 21
23.6044
  0
LINE
  8
0
 10
25.2893
 20
23.6044
 11
25.4057
 21
23.2461
  0
LINE
  8
0
 10
25.4057
 20
23.2461
 11
25.4763
 21
22.876
  0
LINE
  8
0
 10
25.4763
 20
22.876
 11
25.5
 21
22.5
  0
LINE
  8
0
 10
25.5
 20
22.5
 11
25.4763
 21
22.124
  0
LINE
  8
0
 10
25.4763
 20
22.124
 11
25.4057
 21
21.7539
  0
LINE
  8
0
 10
25.4057
 20
21.7539
 11
25.2893
 21
21.3956
  0
LINE
  8
0
 10
25.2893
 20
21.3956
 11
25.1289
 21
21.0547
  0
LINE
  8
0
 10
25.1289
 20
21.0547
 11
24.927
 21
20.7366
  0
LINE
  8
0
 10
24.927
 20
20.7366
 11
24.6869
 21
20.4464
  0
LINE
  8
0
 10
24.6869
 20
20.4464
 11
24.4123
 21
20.1884
  0
LINE
  8
0
 10
24.4123
 20
20.1884
 11
24.1075
 21
19.967
  0
LINE
  8
0
 10
24.1075
 20
19.967
 11
23.7773
 21
19.7855
  0
LINE
  8
0
 10
23.7773
 20
19.7855
 11
23.427
 21
19.6468
  0
LINE
  8
0
 10
23.427
 20
19.6468
 11
23.0621
 21
19.5531
  0
LINE
  8
0
 10
23.0621
 20
19.5531
 11
22.6884
 21
19.5059
  0
LINE
  8
0
 10
22.6884
 20
19.5059
 11
22.3116
 21
19.5059
  0
LINE
  8
0
 10
82.3116
 20
19.5059
 11
81.9379
 21
19.5531
  0
LINE
  8
0
 10
81.9379
 20
19.5531
 11
81.573
 21
19.6468
  0
LINE
  8
0
 10
81.573
 20
19.6468
 11
81.2227
 21
19.7855
  0
LINE
  8
0
 10
81.2227
 20
19.7855
 11
80.8925
 21
19.967
  0
LINE
  8
0
 10
80.8925
 20
19.967
 11
80.5877
 21
20.1884
  0
LINE
  8
0
 10
80.5877
 20
20.1884
 11
80.3131
 21
20.4464
  0
LINE
  8
0
 10
80.3131
 20
20.4464
 11
80.073
 21
20.7366
  0
LINE
  8
0
 10
80.073
 20
20.7366
 11
79.8711
 21
21.0547
  0
LINE
  8
0
 10
79.8711
 20
21.0547
 11
79.7107
 21
21.3956
  0
LINE
  8
0
 10
79.7107
 20
21.3956
 11
79.5943
 21
21.7539
  0
LINE
  8
0
 10
79.5943
 20
21.7539
 11
79.5237
 21
22.124
  0
LINE
  8
0
 10
79.5237
 20
22.124
 11
79.5
 21
22.5
  0
LINE
  8
0
 10
79.5
 20
22.5
 11
79.5237
 21
22.876
  0
LINE
  8
0
 10
79.5237
 20
22.876
 11
79.5943
 21
23.2461
  0
LINE
  8
0
 10
79.5943
 20
23.2461
 11
79.7107
 21
23.6044
  0
LINE
  8
0
 10
79.7107
 20
23.6044
 11
79.8711
 21
23.9453
  0
LINE
  8
0
 10
79.8711
 20
23.9453
 11
80.073
 21
24.2634
  0
LINE
  8
0
 10
80.073
 20
24.2634
 11
80.3131
 21
24.5536
  0
LINE
  8
0
 10
80.3131
 20
24.5536
 11
80.5877
 21
24.8115
  0
LINE
  8
0
 10
80.5877
 20
24.8115
 11
80.8925
 21
25.033
  0
LINE
  8
0
 10
80.8925
 20
25.033
 11
81.2227
 21
25.2145
  0
LINE
  8
0
 10
81.2227
 20
25.2145
 11
81.573
 21
25.3532
  0
LINE
  8
0
 10
81.573
 20
25.3532
 11
81.9379
 21
25.4469
  0
LINE
  8
0
 10
81.9379
 20
25.4469
 11
82.3116
 21
25.4941
  0
LINE
  8
0
 10
82.3116
 20
25.4941
 11
82.6884
 21
25.4941
  0
LINE
  8
0
 10
82.6884
 20
25.4941
 11
83.0621
 21
25.4469
  0
LINE
  8
0
 10
83.0621
 20
25.4469
 11
83.427
 21
25.3532
  0
LINE
  8
0
 10
83.427
 20
25.3532
 11
83.7773
 21
25.2145
  0
LINE
  8
0
 10
83.7773
 20
25.2145
 11
84.1075
 21
25.033
  0
LINE
  8
0
 10
84.1075
 20
25.033
 11
84.4123
 21
24.8115
  0
LINE
  8
0
 10
84.4123
 20
24.8115
 11
84.6869
 21
24.5536
  0
LINE
  8
0
 10
84.6869
 20
24.5536
 11
84.927
 21
24.2634
  0
LINE
  8
0
 10
84.927
 20
24.2634
 11
85.1289
 21
23.9453
  0
LINE
  8
0
 10
85.1289
 20
23.9453
 11
85.2893
 21
23.6044
  0
LINE
  8
0
 10
85.2893
 20
23.6044
 11
85.4057
 21
23.2461
  0
LINE
  8
0
 10
85.4057
 20
23.2461
 11
85.4763
 21
22.876
  0
LINE
  8
0
 10
85.4763
 20
22.876
 11
85.5
 21
22.5
  0
LINE
  8
0
 10
85.5
 20
22.5
 11
85.4763
 21
22.124
  0
LINE
  8
0
 10
85.4763
 20
22.124
 11
85.4057
 21
21.7539
  0
LINE
  8
0
 10
85.4057
 20
21.7539
 11
85.2893
 21
21.3956
  0
LINE
  8
0
 10
85.2893
 20
21.3956
 11
85.1289
 21
21.0547
  0
LINE
  8
0
 10
85.1289
 20
21.0547
 11
84.927
 21
20.7366
  0
LINE
  8
0
 10
84.927
 20
20.7366
 11
84.6869
 21
20.4464
  0
LINE
  8
0
 10
84.6869
 20
20.4464
 11
84.4123
 21
20.1884
  0
LINE
  8
0
 10
84.4123
 20
20.1884
 11
84.1075
 21
19.967
  0
LINE
  8
0
 10
84.1075
 20
19.967
 11
83.7773
 21
19.7855
  0
LINE
  8
0
 10
83.7773
 20
19.7855
 11
83.427
 21
19.6468
  0
LINE
  8
0
 10
83.427
 20
19.6468
 11
83.0621
 21
19.5531
  0
LINE
  8
0
 10
83.0621
 20
19.5531
 11
82.6884
 21
19.5059
  0
LINE
  8
0
 10
82.6884
 20
19.5059
 11
82.3116
 21
19.5059
  0
LINE
  8
0
 10
7.31161
 20
19.5059
 11
6.93785
 21
19.5531
  0
LINE
  8
0
 10
6.93785
 20
19.5531
 11
6.57294
 21
19.6468
  0
LINE
  8
0
 10
6.57294
 20
19.6468
 11
6.22266
 21
19.7855
  0
LINE
  8
0
 10
6.22266
 20
19.7855
 11
5.89252
 21
19.967
  0
LINE
  8
0
 10
5.89252
 20
19.967
 11
5.58772
 21
20.1884
  0
LINE
  8
0
 10
5.58772
 20
20.1884
 11
5.31308
 21
20.4464
  0
LINE
  8
0
 10
5.31308
 20
20.4464
 11
5.07294
 21
20.7366
  0
LINE
  8
0
 10
5.07294
 20
20.7366
 11
4.87108
 21
21.0547
  0
LINE
  8
0
 10
4.87108
 20
21.0547
 11
4.71066
 21
21.3956
  0
LINE
  8
0
 10
4.71066
 20
21.3956
 11
4.59424
 21
21.7539
  0
LINE
  8
0
 10
4.59424
 20
21.7539
 11
4.52365
 21
22.124
  0
LINE
  8
0
 10
4.52365
 20
22.124
 11
4.5
 21
22.5
  0
LINE
  8
0
 10
4.5
 20
22.5
 11
4.52365
 21
22.876
  0
LINE
  8
0
 10
4.52365
 20
22.876
 11
4.59424
 21
23.2461
  0
LINE
  8
0
 10
4.59424
 20
23.2461
 11
4.71066
 21
23.6044
  0
LINE
  8
0
 10
4.71066
 20
23.6044
 11
4.87108
 21
23.9453
  0
LINE
  8
0
 10
4.87108
 20
23.9453
 11
5.07294
 21
24.2634
  0
LINE
  8
0
 10
5.07294
 20
24.2634
 11
5.31308
 21
24.5536
  0
LINE
  8
0
 10
5.31308
 20
24.5536
 11
5.58772
 21
24.8115
  0
LINE
  8
0
 10
5.58772
 20
24.8115
 11
5.89252
 21
25.033
  0
LINE
  8
0
 10
5.89252
 20
25.033
 11
6.22266
 21
25.2145
  0
LINE
  8
0
 10
6.22266
 20
25.2145
 11
6.57294
 21
25.3532
  0
LINE
  8
0
 10
6.57294
 20
25.3532
 11
6.93785
 21
25.4469
  0
LINE
  8
0
 10
6.93785
 20
25.4469
 11
7.31161
 21
25.4941
  0
LINE
  8
0
 10
7.31161
 20
25.4941
 11
7.68837
 21
25.4941
  0
LINE
  8
0
 10
7.68837
 20
25.4941
 11
8.06213
 21
25.4469
  0
LINE
  8
0
 10
8.06213
 20
25.4469
 11
8.42705
 21
25.3532
  0
LINE
  8
0
 10
8.42705
 20
25.3532
 11
8.77733
 21
25.2145
  0
LINE
  8
0
 10
8.77733
 20
25.2145
 11
9.10747
 21
25.033
  0
LINE
  8
0
 10
9.10747
 20
25.033
 11
9.41226
 21
24.8115
  0
LINE
  8
0
 10
9.41226
 20
24.8115
 11
9.6869
 21
24.5536
  0
LINE
  8
0
 10
9.6869
 20
24.5536
 11
9.92705
 21
24.2634
  0
LINE
  8
0
 10
9.92705
 20
24.2634
 11
10.1289
 21
23.9453
  0
LINE
  8
0
 10
10.1289
 20
23.9453
 11
10.2893
 21
23.6044
  0
LINE
  8
0
 10
10.2893
 20
23.6044
 11
10.4057
 21
23.2461
  0
LINE
  8
0
 10
10.4057
 20
23.2461
 11
10.4763
 21
22.876
  0
LINE
  8
0
 10
10.4763
 20
22.876
 11
10.5
 21
22.5
  0
LINE
  8
0
 10
10.5
 20
22.5
 11
10.4763
 21
22.124
  0
LINE
  8
0
 10
10.4763
 20
22.124
 11
10.4057
 21
21.7539
  0
LINE
  8
0
 10
10.4057
 20
21.7539
 11
10.2893
 21
21.3956
  0
LINE
  8
0
 10
10.2893
 20
21.3956
 11
10.1289
 21
21.0547
  0
LINE
  8
0
 10
10.1289
 20
21.0547
 11
9.92705
 21
20.7366
  0
LINE
  8
0
 10
9.92705
 20
20.7366
 11
9.6869
 21
20.4464
  0
LINE
  8
0
 10
9.6869
 20
20.4464
 11
9.41226
 21
20.1884
  0
LINE
  8
0
 10
9.41226
 20
20.1884
 11
9.10747
 21
19.967
  0
LINE
  8
0
 10
9.10747
 20
19.967
 11
8.77733
 21
19.7855
  0
LINE
  8
0
 10
8.77733
 20
19.7855
 11
8.42705
 21
19.6468
  0
LINE
  8
0
 10
8.42705
 20
19.6468
 11
8.06213
 21
19.5531
  0
LINE
  8
0
 10
8.06213
 20
19.5531
 11
7.68837
 21
19.5059
  0
LINE
  8
0
 10
7.68837
 20
19.5059
 11
7.31161
 21
19.5059
  0
LINE
  8
0
 10
52.3116
 20
19.5059
 11
51.9379
 21
19.5531
  0
LINE
  8
0
 10
51.9379
 20
19.5531
 11
51.5729
 21
19.6468
  0
LINE
  8
0
 10
51.5729
 20
19.6468
 11
51.2227
 21
19.7855
  0
LINE
  8
0
 10
51.2227
 20
19.7855
 11
50.8925
 21
19.967
  0
LINE
  8
0
 10
50.8925
 20
19.967
 11
50.5877
 21
20.1884
  0
LINE
  8
0
 10
50.5877
 20
20.1884
 11
50.3131
 21
20.4464
  0
LINE
  8
0
 10
50.3131
 20
20.4464
 11
50.0729
 21
20.7366
  0
LINE
  8
0
 10
50.0729
 20
20.7366
 11
49.8711
 21
21.0547
  0
LINE
  8
0
 10
49.8711
 20
21.0547
 11
49.7107
 21
21.3956
  0
LINE
  8
0
 10
49.7107
 20
21.3956
 11
49.5942
 21
21.7539
  0
LINE
  8
0
 10
49.5942
 20
21.7539
 11
49.5237
 21
22.124
  0
LINE
  8
0
 10
49.5237
 20
22.124
 11
49.5
 21
22.5
  0
LINE
  8
0
 10
49.5
 20
22.5
 11
49.5237
 21
22.876
  0
LINE
  8
0
 10
49.5237
 20
22.876
 11
49.5942
 21
23.2461
  0
LINE
  8
0
 10
49.5942
 20
23.2461
 11
49.7107
 21
23.6044
  0
LINE
  8
0
 10
49.7107
 20
23.6044
 11
49.8711
 21
23.9453
  0
LINE
  8
0
 10
49.8711
 20
23.9453
 11
50.0729
 21
24.2634
  0
LINE
  8
0
 10
50.0729
 20
24.2634
 11
50.3131
 21
24.5536
  0
LINE
  8
0
 10
50.3131
 20
24.5536
 11
50.5877
 21
24.8115
  0
LINE
  8
0
 10
50.5877
 20
24.8115
 11
50.8925
 21
25.033
  0
LINE
  8
0
 10
50.8925
 20
25.033
 11
51.2227
 21
25.2145
  0
LINE
  8
0
 10
51.2227
 20
25.2145
 11
51.5729
 21
25.3532
  0
LINE
  8
0
 10
51.5729
 20
25.3532
 11
51.9379
 21
25.4469
  0
LINE
  8
0
 10
51.9379
 20
25.4469
 11
52.3116
 21
25.4941
  0
LINE
  8
0
 10
52.3116
 20
25.4941
 11
52.6884
 21
25.4941
  0
LINE
  8
0
 10
52.6884
 20
25.4941
 11
53.0621
 21
25.4469
  0
LINE
  8
0
 10
53.0621
 20
25.4469
 11
53.427
 21
25.3532
  0
LINE
  8
0
 10
53.427
 20
25.3532
 11
53.7773
 21
25.2145
  0
LINE
  8
0
 10
53.7773
 20
25.2145
 11
54.1075
 21
25.033
  0
LINE
  8
0
 10
54.1075
 20
25.033
 11
54.4123
 21
24.8115
  0
LINE
  8
0
 10
54.4123
 20
24.8115
 11
54.6869
 21
24.5536
  0
LINE
  8
0
 10
54.6869
 20
24.5536
 11
54.927
 21
24.2634
  0
LINE
  8
0
 10
54.927
 20
24.2634
 11
55.1289
 21
23.9453
  0
LINE
  8
0
 10
55.1289
 20
23.9453
 11
55.2893
 21
23.6044
  0
LINE
  8
0
 10
55.2893
 20
23.6044
 11
55.4057
 21
23.2461
  0
LINE
  8
0
 10
55.4057
 20
23.2461
 11
55.4763
 21
22.876
  0
LINE
  8
0
 10
55.4763
 20
22.876
 11
55.5
 21
22.5
  0
LINE
  8
0
 10
55.5
 20
22.5
 11
55.4763
 21
22.124
  0
LINE
  8
0
 10
55.4763
 20
22.124
 11
55.4057
 21
21.7539
  0
LINE
  8
0
 10
55.4057
 20
21.7539
 11
55.2893
 21
21.3956
  0
LINE
  8
0
 10
55.2893
 20
21.3956
 11
55.1289
 21
21.0547
  0
LINE
  8
0
 10
55.1289
 20
21.0547
 11
54.927
 21
20.7366
  0
LINE
  8
0
 10
54.927
 20
20.7366
 11
54.6869
 21
20.4464
  0
LINE
  8
0
 10
54.6869
 20
20.4464
 11
54.4123
 21
20.1884
  0
LINE
  8
0
 10
54.4123
 20
20.1884
 11
54.1075
 21
19.967
  0
LINE
  8
0
 10
54.1075
 20
19.967
 11
53.7773
 21
19.7855
  0
LINE
  8
0
 10
53.7773
 20
19.7855
 11
53.427
 21
19.6468
  0
LINE
  8
0
 10
53.427
 20
19.6468
 11
53.0621
 21
19.5531
  0
LINE
  8
0
 10
53.0621
 20
19.5531
 11
52.6884
 21
19.5059
  0
LINE
  8
0
 10
52.6884
 20
19.5059
 11
52.3116
 21
19.5059
  0
LINE
  8
0
 10
67.3116
 20
19.5059
 11
66.9379
 21
19.5531
  0
LINE
  8
0
 10
66.9379
 20
19.5531
 11
66.573
 21
19.6468
  0
LINE
  8
0
 10
66.573
 20
19.6468
 11
66.2227
 21
19.7855
  0
LINE
  8
0
 10
66.2227
 20
19.7855
 11
65.8925
 21
19.967
  0
LINE
  8
0
 10
65.8925
 20
19.967
 11
65.5877
 21
20.1884
  0
LINE
  8
0
 10
65.5877
 20
20.1884
 11
65.3131
 21
20.4464
  0
LINE
  8
0
 10
65.3131
 20
20.4464
 11
65.073
 21
20.7366
  0
LINE
  8
0
 10
65.073
 20
20.7366
 11
64.8711
 21
21.0547
  0
LINE
  8
0
 10
64.8711
 20
21.0547
 11
64.7107
 21
21.3956
  0
LINE
  8
0
 10
64.7107
 20
21.3956
 11
64.5943
 21
21.7539
  0
LINE
  8
0
 10
64.5943
 20
21.7539
 11
64.5237
 21
22.124
  0
LINE
  8
0
 10
64.5237
 20
22.124
 11
64.5
 21
22.5
  0
LINE
  8
0
 10
64.5
 20
22.5
 11
64.5237
 21
22.876
  0
LINE
  8
0
 10
64.5237
 20
22.876
 11
64.5943
 21
23.2461
  0
LINE
  8
0
 10
64.5943
 20
23.2461
 11
64.7107
 21
23.6044
  0
LINE
  8
0
 10
64.7107
 20
23.6044
 11
64.8711
 21
23.9453
  0
LINE
  8
0
 10
64.8711
 20
23.9453
 11
65.073
 21
24.2634
  0
LINE
  8
0
 10
65.073
 20
24.2634
 11
65.3131
 21
24.5536
  0
LINE
  8
0
 10
65.3131
 20
24.5536
 11
65.5877
 21
24.8115
  0
LINE
  8
0
 10
65.5877
 20
24.8115
 11
65.8925
 21
25.033
  0
LINE
  8
0
 10
65.8925
 20
25.033
 11
66.2227
 21
25.2145
  0
LINE
  8
0
 10
66.2227
 20
25.2145
 11
66.573
 21
25.3532
  0
LINE
  8
0
 10
66.573
 20
25.3532
 11
66.9379
 21
25.4469
  0
LINE
  8
0
 10
66.9379
 20
25.4469
 11
67.3116
 21
25.4941
  0
LINE
  8
0
 10
67.3116
 20
25.4941
 11
67.6884
 21
25.4941
  0
LINE
  8
0
 10
67.6884
 20
25.4941
 11
68.0621
 21
25.4469
  0
LINE
  8
0
 10
68.0621
 20
25.4469
 11
68.427
 21
25.3532
  0
LINE
  8
0
 10
68.427
 20
25.3532
 11
68.7773
 21
25.2145
  0
LINE
  8
0
 10
68.7773
 20
25.2145
 11
69.1075
 21
25.033
  0
LINE
  8
0
 10
69.1075
 20
25.033
 11
69.4123
 21
24.8115
  0
LINE
  8
0
 10
69.4123
 20
24.8115
 11
69.6869
 21
24.5536
  0
LINE
  8
0
 10
69.6869
 20
24.5536
 11
69.927
 21
24.2634
  0
LINE
  8
0
 10
69.927
 20
24.2634
 11
70.1289
 21
23.9453
  0
LINE
  8
0
 10
70.1289
 20
23.9453
 11
70.2893
 21
23.6044
  0
LINE
  8
0
 10
70.2893
 20
23.6044
 11
70.4057
 21
23.2461
  0
LINE
  8
0
 10
70.4057
 20
23.2461
 11
70.4763
 21
22.876
  0
LINE
  8
0
 10
70.4763
 20
22.876
 11
70.5
 21
22.5
  0
LINE
  8
0
 10
70.5
 20
22.5
 11
70.4763
 21
22.124
  0
LINE
  8
0
 10
70.4763
 20
22.124
 11
70.4057
 21
21.7539
  0
LINE
  8
0
 10
70.4057
 20
21.7539
 11
70.2893
 21
21.3956
  0
LINE
  8
0
 10
70.2893
 20
21.3956
 11
70.1289
 21
21.0547
  0
LINE
  8
0
 10
70.1289
 20
21.0547
 11
69.927
 21
20.7366
  0
LINE
  8
0
 10
69.927
 20
20.7366
 11
69.6869
 21
20.4464
  0
LINE
  8
0
 10
69.6869
 20
20.4464
 11
69.4123
 21
20.1884
  0
LINE
  8
0
 10
69.4123
 20
20.1884
 11
69.1075
 21
19.967
  0
LINE
  8
0
 10
69.1075
 20
19.967
 11
68.7773
 21
19.7855
  0
LINE
  8
0
 10
68.7773
 20
19.7855
 11
68.427
 21
19.6468
  0
LINE
  8
0
 10
68.427
 20
19.6468
 11
68.0621
 21
19.5531
  0
LINE
  8
0
 10
68.0621
 20
19.5531
 11
67.6884
 21
19.5059
  0
LINE
  8
0
 10
67.6884
 20
19.5059
 11
67.3116
 21
19.5059
  0
LINE
  8
0
 10
67.3116
 20
4.50591
 11
66.9379
 21
4.55313
  0
LINE
  8
0
 10
66.9379
 20
4.55313
 11
66.573
 21
4.64682
  0
LINE
  8
0
 10
66.573
 20
4.64682
 11
66.2227
 21
4.78551
  0
LINE
  8
0
 10
66.2227
 20
4.78551
 11
65.8925
 21
4.96701
  0
LINE
  8
0
 10
65.8925
 20
4.96701
 11
65.5877
 21
5.18845
  0
LINE
  8
0
 10
65.5877
 20
5.18845
 11
65.3131
 21
5.44635
  0
LINE
  8
0
 10
65.3131
 20
5.44635
 11
65.073
 21
5.73663
  0
LINE
  8
0
 10
65.073
 20
5.73663
 11
64.8711
 21
6.05473
  0
LINE
  8
0
 10
64.8711
 20
6.05473
 11
64.7107
 21
6.39561
  0
LINE
  8
0
 10
64.7107
 20
6.39561
 11
64.5943
 21
6.75392
  0
LINE
  8
0
 10
64.5943
 20
6.75392
 11
64.5237
 21
7.12399
  0
LINE
  8
0
 10
64.5237
 20
7.12399
 11
64.5
 21
7.5
  0
LINE
  8
0
 10
64.5
 20
7.5
 11
64.5237
 21
7.87599
  0
LINE
  8
0
 10
64.5237
 20
7.87599
 11
64.5943
 21
8.24606
  0
LINE
  8
0
 10
64.5943
 20
8.24606
 11
64.7107
 21
8.60437
  0
LINE
  8
0
 10
64.7107
 20
8.60437
 11
64.8711
 21
8.94525
  0
LINE
  8
0
 10
64.8711
 20
8.94525
 11
65.073
 21
9.26335
  0
LINE
  8
0
 10
65.073
 20
9.26335
 11
65.3131
 21
9.55363
  0
LINE
  8
0
 10
65.3131
 20
9.55363
 11
65.5877
 21
9.81154
  0
LINE
  8
0
 10
65.5877
 20
9.81154
 11
65.8925
 21
10.033
  0
LINE
  8
0
 10
65.8925
 20
10.033
 11
66.2227
 21
10.2145
  0
LINE
  8
0
 10
66.2227
 20
10.2145
 11
66.573
 21
10.3532
  0
LINE
  8
0
 10
66.573
 20
10.3532
 11
66.9379
 21
10.4469
  0
LINE
  8
0
 10
66.9379
 20
10.4469
 11
67.3116
 21
10.4941
  0
LINE
  8
0
 10
67.3116
 20
10.4941
 11
67.6884
 21
10.4941
  0
LINE
  8
0
 10
67.6884
 20
10.4941
 11
68.0621
 21
10.4469
  0
LINE
  8
0
 10
68.0621
 20
10.4469
 11
68.427
 21
10.3532
  0
LINE
  8
0
 10
68.427
 20
10.3532
 11
68.7773
 21
10.2145
  0
LINE
  8
0
 10
68.7773
 20
10.2145
 11
69.1075
 21
10.033
  0
LINE
  8
0
 10
69.1075
 20
10.033
 11
69.4123
 21
9.81154
  0
LINE
  8
0
 10
69.4123
 20
9.81154
 11
69.6869
 21
9.55363
  0
LINE
  8
0
 10
69.6869
 20
9.55363
 11
69.927
 21
9.26335
  0
LINE
  8
0
 10
69.927
 20
9.26335
 11
70.1289
 21
8.94525
  0
LINE
  8
0
 10
70.1289
 20
8.94525
 11
70.2893
 21
8.60437
  0
LINE
  8
0
 10
70.2893
 20
8.60437
 11
70.4057
 21
8.24606
  0
LINE
  8
0
 10
70.4057
 20
8.24606
 11
70.4763
 21
7.87599
  0
LINE
  8
0
 10
70.4763
 20
7.87599
 11
70.5
 21
7.5
  0
LINE
  8
0
 10
70.5
 20
7.5
 11
70.4763
 21
7.12399
  0
LINE
  8
0
 10
70.4763
 20
7.12399
 11
70.4057
 21
6.75392
  0
LINE
  8
0
 10
70.4057
 20
6.75392
 11
70.2893
 21
6.39561
  0
LINE
  8
0
 10
70.2893
 20
6.39561
 11
70.1289
 21
6.05473
  0
LINE
  8
0
 10
70.1289
 20
6.05473
 11
69.927
 21
5.73663
  0
LINE
  8
0
 10
69.927
 20
5.73663
 11
69.6869
 21
5.44635
  0
LINE
  8
0
 10
69.6869
 20
5.44635
 11
69.4123
 21
5.18845
  0
LINE
  8
0
 10
69.4123
 20
5.18845
 11
69.1075
 21
4.96701
  0
LINE
  8
0
 10
69.1075
 20
4.96701
 11
68.7773
 21
4.78551
  0
LINE
  8
0
 10
68.7773
 20
4.78551
 11
68.427
 21
4.64682
  0
LINE
  8
0
 10
68.427
 20
4.64682
 11
68.0621
 21
4.55313
  0
LINE
  8
0
 10
68.0621
 20
4.55313
 11
67.6884
 21
4.50591
  0
LINE
  8
0
 10
67.6884
 20
4.50591
 11
67.3116
 21
4.50591
  0
LINE
  8
0
 10
52.3116
 20
4.50591
 11
51.9379
 21
4.55313
  0
LINE
  8
0
 10
51.9379
 20
4.55313
 11
51.5729
 21
4.64682
  0
LINE
  8
0
 10
51.5729
 20
4.64682
 11
51.2227
 21
4.78551
  0
LINE
  8
0
 10
51.2227
 20
4.78551
 11
50.8925
 21
4.96701
  0
LINE
  8
0
 10
50.8925
 20
4.96701
 11
50.5877
 21
5.18845
  0
LINE
  8
0
 10
50.5877
 20
5.18845
 11
50.3131
 21
5.44635
  0
LINE
  8
0
 10
50.3131
 20
5.44635
 11
50.0729
 21
5.73663
  0
LINE
  8
0
 10
50.0729
 20
5.73663
 11
49.8711
 21
6.05473
  0
LINE
  8
0
 10
49.8711
 20
6.05473
 11
49.7107
 21
6.39561
  0
LINE
  8
0
 10
49.7107
 20
6.39561
 11
49.5942
 21
6.75392
  0
LINE
  8
0
 10
49.5942
 20
6.75392
 11
49.5237
 21
7.12399
  0
LINE
  8
0
 10
49.5237
 20
7.12399
 11
49.5
 21
7.5
  0
LINE
  8
0
 10
49.5
 20
7.5
 11
49.5237
 21
7.87599
  0
LINE
  8
0
 10
49.5237
 20
7.87599
 11
49.5942
 21
8.24606
  0
LINE
  8
0
 10
49.5942
 20
8.24606
 11
49.7107
 21
8.60437
  0
LINE
  8
0
 10
49.7107
 20
8.60437
 11
49.8711
 21
8.94525
  0
LINE
  8
0
 10
49.8711
 20
8.94525
 11
50.0729
 21
9.26335
  0
LINE
  8
0
 10
50.0729
 20
9.26335
 11
50.3131
 21
9.55363
  0
LINE
  8
0
 10
50.3131
 20
9.55363
 11
50.5877
 21
9.81154
  0
LINE
  8
0
 10
50.5877
 20
9.81154
 11
50.8925
 21
10.033
  0
LINE
  8
0
 10
50.8925
 20
10.033
 11
51.2227
 21
10.2145
  0
LINE
  8
0
 10
51.2227
 20
10.2145
 11
51.5729
 21
10.3532
  0
LINE
  8
0
 10
51.5729
 20
10.3532
 11
51.9379
 21
10.4469
  0
LINE
  8
0
 10
51.9379
 20
10.4469
 11
52.3116
 21
10.4941
  0
LINE
  8
0
 10
52.3116
 20
10.4941
 11
52.6884
 21
10.4941
  0
LINE
  8
0
 10
52.6884
 20
10.4941
 11
53.0621
 21
10.4469
  0
LINE
  8
0
 10
53.0621
 20
10.4469
 11
53.427
 21
10.3532
  0
LINE
  8
0
 10
53.427
 20
10.3532
 11
53.7773
 21
10.2145
  0
LINE
  8
0
 10
53.7773
 20
10.2145
 11
54.1075
 21
10.033
  0
LINE
  8
0
 10
54.1075
 20
10.033
 11
54.4123
 21
9.81154
  0
LINE
  8
0
 10
54.4123
 20
9.81154
 11
54.6869
 21
9.55363
  0
LINE
  8
0
 10
54.6869
 20
9.55363
 11
54.927
 21
9.26335
  0
LINE
  8
0
 10
54.927
 20
9.26335
 11
55.1289
 21
8.94525
  0
LINE
  8
0
 10
55.1289
 20
8.94525
 11
55.2893
 21
8.60437
  0
LINE
  8
0
 10
55.2893
 20
8.60437
 11
55.4057
 21
8.24606
  0
LINE
  8
0
 10
55.4057
 20
8.24606
 11
55.4763
 21
7.87599
  0
LINE
  8
0
 10
55.4763
 20
7.87599
 11
55.5
 21
7.5
  0
LINE
  8
0
 10
55.5
 20
7.5
 11
55.4763
 21
7.12399
  0
LINE
  8
0
 10
55.4763
 20
7.12399
 11
55.4057
 21
6.75392
  0
LINE
  8
0
 10
55.4057
 20
6.75392
 11
55.2893
 21
6.39561
  0
LINE
  8
0
 10
55.2893
 20
6.39561
 11
55.1289
 21
6.05473
  0
LINE
  8
0
 10
55.1289
 20
6.05473
 11
54.927
 21
5.73663
  0
LINE
  8
0
 10
54.927
 20
5.73663
 11
54.6869
 21
5.44635
  0
LINE
  8
0
 10
54.6869
 20
5.44635
 11
54.4123
 21
5.18845
  0
LINE
  8
0
 10
54.4123
 20
5.18845
 11
54.1075
 21
4.96701
  0
LINE
  8
0
 10
54.1075
 20
4.96701
 11
53.7773
 21
4.78551
  0
LINE
  8
0
 10
53.7773
 20
4.78551
 11
53.427
 21
4.64682
  0
LINE
  8
0
 10
53.427
 20
4.64682
 11
53.0621
 21
4.55313
  0
LINE
  8
0
 10
53.0621
 20
4.55313
 11
52.6884
 21
4.50591
  0
LINE
  8
0
 10
52.6884
 20
4.50591
 11
52.3116
 21
4.50591
  0
LINE
  8
0
 10
82.3116
 20
4.50591
 11
81.9379
 21
4.55313
  0
LINE
  8
0
 10
81.9379
 20
4.55313
 11
81.573
 21
4.64682
  0
LINE
  8
0
 10
81.573
 20
4.64682
 11
81.2227
 21
4.78551
  0
LINE
  8
0
 10
81.2227
 20
4.78551
 11
80.8925
 21
4.96701
  0
LINE
  8
0
 10
80.8925
 20
4.96701
 11
80.5877
 21
5.18845
  0
LINE
  8
0
 10
80.5877
 20
5.18845
 11
80.3131
 21
5.44635
  0
LINE
  8
0
 10
80.3131
 20
5.44635
 11
80.073
 21
5.73663
  0
LINE
  8
0
 10
80.073
 20
5.73663
 11
79.8711
 21
6.05473
  0
LINE
  8
0
 10
79.8711
 20
6.05473
 11
79.7107
 21
6.39561
  0
LINE
  8
0
 10
79.7107
 20
6.39561
 11
79.5943
 21
6.75392
  0
LINE
  8
0
 10
79.5943
 20
6.75392
 11
79.5237
 21
7.12399
  0
LINE
  8
0
 10
79.5237
 20
7.12399
 11
79.5
 21
7.5
  0
LINE
  8
0
 10
79.5
 20
7.5
 11
79.5237
 21
7.87599
  0
LINE
  8
0
 10
79.5237
 20
7.87599
 11
79.5943
 21
8.24606
  0
LINE
  8
0
 10
79.5943
 20
8.24606
 11
79.7107
 21
8.60437
  0
LINE
  8
0
 10
79.7107
 20
8.60437
 11
79.8711
 21
8.94525
  0
LINE
  8
0
 10
79.8711
 20
8.94525
 11
80.073
 21
9.26335
  0
LINE
  8
0
 10
80.073
 20
9.26335
 11
80.3131
 21
9.55363
  0
LINE
  8
0
 10
80.3131
 20
9.55363
 11
80.5877
 21
9.81154
  0
LINE
  8
0
 10
80.5877
 20
9.81154
 11
80.8925
 21
10.033
  0
LINE
  8
0
 10
80.8925
 20
10.033
 11
81.2227
 21
10.2145
  0
LINE
  8
0
 10
81.2227
 20
10.2145
 11
81.573
 21
10.3532
  0
LINE
  8
0
 10
81.573
 20
10.3532
 11
81.9379
 21
10.4469
  0
LINE
  8
0
 10
81.9379
 20
10.4469
 11
82.3116
 21
10.4941
  0
LINE
  8
0
 10
82.3116
 20
10.4941
 11
82.6884
 21
10.4941
  0
LINE
  8
0
 10
82.6884
 20
10.4941
 11
83.0621
 21
10.4469
  0
LINE
  8
0
 10
83.0621
 20
10.4469
 11
83.427
 21
10.3532
  0
LINE
  8
0
 10
83.427
 20
10.3532
 11
83.7773
 21
10.2145
  0
LINE
  8
0
 10
83.7773
 20
10.2145
 11
84.1075
 21
10.033
  0
LINE
  8
0
 10
84.1075
 20
10.033
 11
84.4123
 21
9.81154
  0
LINE
  8
0
 10
84.4123
 20
9.81154
 11
84.6869
 21
9.55363
  0
LINE
  8
0
 10
84.6869
 20
9.55363
 11
84.927
 21
9.26335
  0
LINE
  8
0
 10
84.927
 20
9.26335
 11
85.1289
 21
8.94525
  0
LINE
  8
0
 10
85.1289
 20
8.94525
 11
85.2893
 21
8.60437
  0
LINE
  8
0
 10
85.2893
 20
8.60437
 11
85.4057
 21
8.24606
  0
LINE
  8
0
 10
85.4057
 20
8.24606
 11
85.4763
 21
7.87599
  0
LINE
  8
0
 10
85.4763
 20
7.87599
 11
85.5
 21
7.5
  0
LINE
  8
0
 10
85.5
 20
7.5
 11
85.4763
 21
7.12399
  0
LINE
  8
0
 10
85.4763
 20
7.12399
 11
85.4057
 21
6.75392
  0
LINE
  8
0
 10
85.4057
 20
6.75392
 11
85.2893
 21
6.39561
  0
LINE
  8
0
 10
85.2893
 20
6.39561
 11
85.1289
 21
6.05473
  0
LINE
  8
0
 10
85.1289
 20
6.05473
 11
84.927
 21
5.73663
  0
LINE
  8
0
 10
84.927
 20
5.73663
 11
84.6869
 21
5.44635
  0
LINE
  8
0
 10
84.6869
 20
5.44635
 11
84.4123
 21
5.18845
  0
LINE
  8
0
 10
84.4123
 20
5.18845
 11
84.1075
 21
4.96701
  0
LINE
  8
0
 10
84.1075
 20
4.96701
 11
83.7773
 21
4.78551
  0
LINE
  8
0
 10
83.7773
 20
4.78551
 11
83.427
 21
4.64682
  0
LINE
  8
0
 10
83.427
 20
4.64682
 11
83.0621
 21
4.55313
  0
LINE
  8
0
 10
83.0621
 20
4.55313
 11
82.6884
 21
4.50591
  0
LINE
  8
0
 10
82.6884
 20
4.50591
 11
82.3116
 21
4.50591
  0
LINE
  8
0
 10
37.3116
 20
4.50591
 11
36.9379
 21
4.55313
  0
LINE
  8
0
 10
36.9379
 20
4.55313
 11
36.5729
 21
4.64682
  0
LINE
  8
0
 10
36.5729
 20
4.64682
 11
36.2227
 21
4.78551
  0
LINE
  8
0
 10
36.2227
 20
4.78551
 11
35.8925
 21
4.96701
  0
LINE
  8
0
 10
35.8925
 20
4.96701
 11
35.5877
 21
5.18845
  0
LINE
  8
0
 10
35.5877
 20
5.18845
 11
35.3131
 21
5.44635
  0
LINE
  8
0
 10
35.3131
 20
5.44635
 11
35.0729
 21
5.73663
  0
LINE
  8
0
 10
35.0729
 20
5.73663
 11
34.8711
 21
6.05473
  0
LINE
  8
0
 10
34.8711
 20
6.05473
 11
34.7107
 21
6.39561
  0
LINE
  8
0
 10
34.7107
 20
6.39561
 11
34.5942
 21
6.75392
  0
LINE
  8
0
 10
34.5942
 20
6.75392
 11
34.5237
 21
7.12399
  0
LINE
  8
0
 10
34.5237
 20
7.12399
 11
34.5
 21
7.5
  0
LINE
  8
0
 10
34.5
 20
7.5
 11
34.5237
 21
7.87599
  0
LINE
  8
0
 10
34.5237
 20
7.87599
 11
34.5942
 21
8.24606
  0
LINE
  8
0
 10
34.5942
 20
8.24606
 11
34.7107
 21
8.60437
  0
LINE
  8
0
 10
34.7107
 20
8.60437
 11
34.8711
 21
8.94525
  0
LINE
  8
0
 10
34.8711
 20
8.94525
 11
35.0729
 21
9.26335
  0
LINE
  8
0
 10
35.0729
 20
9.26335
 11
35.3131
 21
9.55363
  0
LINE
  8
0
 10
35.3131
 20
9.55363
 11
35.5877
 21
9.81154
  0
LINE
  8
0
 10
35.5877
 20
9.81154
 11
35.8925
 21
10.033
  0
LINE
  8
0
 10
35.8925
 20
10.033
 11
36.2227
 21
10.2145
  0
LINE
  8
0
 10
36.2227
 20
10.2145
 11
36.5729
 21
10.3532
  0
LINE
  8
0
 10
36.5729
 20
10.3532
 11
36.9379
 21
10.4469
  0
LINE
  8
0
 10
36.9379
 20
10.4469
 11
37.3116
 21
10.4941
  0
LINE
  8
0
 10
37.3116
 20
10.4941
 11
37.6884
 21
10.4941
  0
LINE
  8
0
 10
37.6884
 20
10.4941
 11
38.0621
 21
10.4469
  0
LINE
  8
0
 10
38.0621
 20
10.4469
 11
38.427
 21
10.3532
  0
LINE
  8
0
 10
38.427
 20
10.3532
 11
38.7773
 21
10.2145
  0
LINE
  8
0
 10
38.7773
 20
10.2145
 11
39.1075
 21
10.033
  0
LINE
  8
0
 10
39.1075
 20
10.033
 11
39.4123
 21
9.81154
  0
LINE
  8
0
 10
39.4123
 20
9.81154
 11
39.6869
 21
9.55363
  0
LINE
  8
0
 10
39.6869
 20
9.55363
 11
39.927
 21
9.26335
  0
LINE
  8
0
 10
39.927
 20
9.26335
 11
40.1289
 21
8.94525
  0
LINE
  8
0
 10
40.1289
 20
8.94525
 11
40.2893
 21
8.60437
  0
LINE
  8
0
 10
40.2893
 20
8.60437
 11
40.4057
 21
8.24606
  0
LINE
  8
0
 10
40.4057
 20
8.24606
 11
40.4763
 21
7.87599
  0
LINE
  8
0
 10
40.4763
 20
7.87599
 11
40.5
 21
7.5
  0
LINE
  8
0
 10
40.5
 20
7.5
 11
40.4763
 21
7.12399
  0
LINE
  8
0
 10
40.4763
 20
7.12399
 11
40.4057
 21
6.75392
  0
LINE
  8
0
 10
40.4057
 20
6.75392
 11
40.2893
 21
6.39561
  0
LINE
  8
0
 10
40.2893
 20
6.39561
 11
40.1289
 21
6.05473
  0
LINE
  8
0
 10
40.1289
 20
6.05473
 11
39.927
 21
5.73663
  0
LINE
  8
0
 10
39.927
 20
5.73663
 11
39.6869
 21
5.44635
  0
LINE
  8
0
 10
39.6869
 20
5.44635
 11
39.4123
 21
5.18845
  0
LINE
  8
0
 10
39.4123
 20
5.18845
 11
39.1075
 21
4.96701
  0
LINE
  8
0
 10
39.1075
 20
4.96701
 11
38.7773
 21
4.78551
  0
LINE
  8
0
 10
38.7773
 20
4.78551
 11
38.427
 21
4.64682
  0
LINE
  8
0
 10
38.427
 20
4.64682
 11
38.0621
 21
4.55313
  0
LINE
  8
0
 10
38.0621
 20
4.55313
 11
37.6884
 21
4.50591
  0
LINE
  8
0
 10
37.6884
 20
4.50591
 11
37.3116
 21
4.50591
  0
LINE
  8
0
 10
22.3116
 20
4.50591
 11
21.9379
 21
4.55313
  0
LINE
  8
0
 10
21.9379
 20
4.55313
 11
21.5729
 21
4.64682
  0
LINE
  8
0
 10
21.5729
 20
4.64682
 11
21.2227
 21
4.78551
  0
LINE
  8
0
 10
21.2227
 20
4.78551
 11
20.8925
 21
4.96701
  0
LINE
  8
0
 10
20.8925
 20
4.96701
 11
20.5877
 21
5.18845
  0
LINE
  8
0
 10
20.5877
 20
5.18845
 11
20.3131
 21
5.44635
  0
LINE
  8
0
 10
20.3131
 20
5.44635
 11
20.0729
 21
5.73663
  0
LINE
  8
0
 10
20.0729
 20
5.73663
 11
19.8711
 21
6.05473
  0
LINE
  8
0
 10
19.8711
 20
6.05473
 11
19.7107
 21
6.39561
  0
LINE
  8
0
 10
19.7107
 20
6.39561
 11
19.5942
 21
6.75392
  0
LINE
  8
0
 10
19.5942
 20
6.75392
 11
19.5237
 21
7.12399
  0
LINE
  8
0
 10
19.5237
 20
7.12399
 11
19.5
 21
7.5
  0
LINE
  8
0
 10
19.5
 20
7.5
 11
19.5237
 21
7.87599
  0
LINE
  8
0
 10
19.5237
 20
7.87599
 11
19.5942
 21
8.24606
  0
LINE
  8
0
 10
19.5942
 20
8.24606
 11
19.7107
 21
8.60437
  0
LINE
  8
0
 10
19.7107
 20
8.60437
 11
19.8711
 21
8.94525
  0
LINE
  8
0
 10
19.8711
 20
8.94525
 11
20.0729
 21
9.26335
  0
LINE
  8
0
 10
20.0729
 20
9.26335
 11
20.3131
 21
9.55363
  0
LINE
  8
0
 10
20.3131
 20
9.55363
 11
20.5877
 21
9.81154
  0
LINE
  8
0
 10
20.5877
 20
9.81154
 11
20.8925
 21
10.033
  0
LINE
  8
0
 10
20.8925
 20
10.033
 11
21.2227
 21
10.2145
  0
LINE
  8
0
 10
21.2227
 20
10.2145
 11
21.5729
 21
10.3532
  0
LINE
  8
0
 10
21.5729
 20
10.3532
 11
21.9379
 21
10.4469
  0
LINE
  8
0
 10
21.9379
 20
10.4469
 11
22.3116
 21
10.4941
  0
LINE
  8
0
 10
22.3116
 20
10.4941
 11
22.6884
 21
10.4941
  0
LINE
  8
0
 10
22.6884
 20
10.4941
 11
23.0621
 21
10.4469
  0
LINE
  8
0
 10
23.0621
 20
10.4469
 11
23.427
 21
10.3532
  0
LINE
  8
0
 10
23.427
 20
10.3532
 11
23.7773
 21
10.2145
  0
LINE
  8
0
 10
23.7773
 20
10.2145
 11
24.1075
 21
10.033
  0
LINE
  8
0
 10
24.1075
 20
10.033
 11
24.4123
 21
9.81154
  0
LINE
  8
0
 10
24.4123
 20
9.81154
 11
24.6869
 21
9.55363
  0
LINE
  8
0
 10
24.6869
 20
9.55363
 11
24.927
 21
9.26335
  0
LINE
  8
0
 10
24.927
 20
9.26335
 11
25.1289
 21
8.94525
  0
LINE
  8
0
 10
25.1289
 20
8.94525
 11
25.2893
 21
8.60437
  0
LINE
  8
0
 10
25.2893
 20
8.60437
 11
25.4057
 21
8.24606
  0
LINE
  8
0
 10
25.4057
 20
8.24606
 11
25.4763
 21
7.87599
  0
LINE
  8
0
 10
25.4763
 20
7.87599
 11
25.5
 21
7.5
  0
LINE
  8
0
 10
25.5
 20
7.5
 11
25.4763
 21
7.12399
  0
LINE
  8
0
 10
25.4763
 20
7.12399
 11
25.4057
 21
6.75392
  0
LINE
  8
0
 10
25.4057
 20
6.75392
 11
25.2893
 21
6.39561
  0
LINE
  8
0
 10
25.2893
 20
6.39561
 11
25.1289
 21
6.05473
  0
LINE
  8
0
 10
25.1289
 20
6.05473
 11
24.927
 21
5.73663
  0
LINE
  8
0
 10
24.927
 20
5.73663
 11
24.6869
 21
5.44635
  0
LINE
  8
0
 10
24.6869
 20
5.44635
 11
24.4123
 21
5.18845
  0
LINE
  8
0
 10
24.4123
 20
5.18845
 11
24.1075
 21
4.96701
  0
LINE
  8
0
 10
24.1075
 20
4.96701
 11
23.7773
 21
4.78551
  0
LINE
  8
0
 10
23.7773
 20
4.78551
 11
23.427
 21
4.64682
  0
LINE
  8
0
 10
23.427
 20
4.64682
 11
23.0621
 21
4.55313
  0
LINE
  8
0
 10
23.0621
 20
4.55313
 11
22.6884
 21
4.50591
  0
LINE
  8
0
 10
22.6884
 20
4.50591
 11
22.3116
 21
4.50591
  0
LINE
  8
0
 10
7.31161
 20
4.50591
 11
6.93785
 21
4.55313
  0
LINE
  8
0
 10
6.93785
 20
4.55313
 11
6.57294
 21
4.64682
  0
LINE
  8
0
 10
6.57294
 20
4.64682
 11
6.22266
 21
4.78551
  0
LINE
  8
0
 10
6.22266
 20
4.78551
 11
5.89252
 21
4.96701
  0
LINE
  8
0
 10
5.89252
 20
4.96701
 11
5.58772
 21
5.18845
  0
LINE
  8
0
 10
5.58772
 20
5.18845
 11
5.31308
 21
5.44635
  0
LINE
  8
0
 10
5.31308
 20
5.44635
 11
5.07294
 21
5.73663
  0
LINE
  8
0
 10
5.07294
 20
5.73663
 11
4.87108
 21
6.05473
  0
LINE
  8
0
 10
4.87108
 20
6.05473
 11
4.71066
 21
6.39561
  0
LINE
  8
0
 10
4.71066
 20
6.39561
 11
4.59424
 21
6.75392
  0
LINE
  8
0
 10
4.59424
 20
6.75392
 11
4.52365
 21
7.12399
  0
LINE
  8
0
 10
4.52365
 20
7.12399
 11
4.5
 21
7.5
  0
LINE
  8
0
 10
4.5
 20
7.5
 11
4.52365
 21
7.87599
  0
LINE
  8
0
 10
4.52365
 20
7.87599
 11
4.59424
 21
8.24606
  0
LINE
  8
0
 10
4.59424
 20
8.24606
 11
4.71066
 21
8.60437
  0
LINE
  8
0
 10
4.71066
 20
8.60437
 11
4.87108
 21
8.94525
  0
LINE
  8
0
 10
4.87108
 20
8.94525
 11
5.07294
 21
9.26335
  0
LINE
  8
0
 10
5.07294
 20
9.26335
 11
5.31308
 21
9.55363
  0
LINE
  8
0
 10
5.31308
 20
9.55363
 11
5.58772
 21
9.81154
  0
LINE
  8
0
 10
5.58772
 20
9.81154
 11
5.89252
 21
10.033
  0
LINE
  8
0
 10
5.89252
 20
10.033
 11
6.22266
 21
10.2145
  0
LINE
  8
0
 10
6.22266
 20
10.2145
 11
6.57294
 21
10.3532
  0
LINE
  8
0
 10
6.57294
 20
10.3532
 11
6.93785
 21
10.4469
  0
LINE
  8
0
 10
6.93785
 20
10.4469
 11
7.31161
 21
10.4941
  0
LINE
  8
0
 10
7.31161
 20
10.4941
 11
7.68837
 21
10.4941
  0
LINE
  8
0
 10
7.68837
 20
10.4941
 11
8.06213
 21
10.4469
  0
LINE
  8
0
 10
8.06213
 20
10.4469
 11
8.42705
 21
10.3532
  0
LINE
  8
0
 10
8.42705
 20
10.3532
 11
8.77733
 21
10.2145
  0
LINE
  8
0
 10
8.77733
 20
10.2145
 11
9.10747
 21
10.033
  0
LINE
  8
0
 10
9.10747
 20
10.033
 11
9.41226
 21
9.81154
  0
LINE
  8
0
 10
9.41226
 20
9.81154
 11
9.6869
 21
9.55363
  0
LINE
  8
0
 10
9.6869
 20
9.55363
 11
9.92705
 21
9.26335
  0
LINE
  8
0
 10
9.92705
 20
9.26335
 11
10.1289
 21
8.94525
  0
LINE
  8
0
 10
10.1289
 20
8.94525
 11
10.2893
 21
8.60437
  0
LINE
  8
0
 10
10.2893
 20
8.60437
 11
10.4057
 21
8.24606
  0
LINE
  8
0
 10
10.4057
 20
8.24606
 11
10.4763
 21
7.87599
  0
LINE
  8
0
 10
10.4763
 20
7.87599
 11
10.5
 21
7.5
  0
LINE
  8
0
 10
10.5
 20
7.5
 11
10.4763
 21
7.12399
  0
LINE
  8
0
 10
10.4763
 20
7.12399
 11
10.4057
 21
6.75392
  0
LINE
  8
0
 10
10.4057
 20
6.75392
 11
10.2893
 21
6.39561
  0
LINE
  8
0
 10
10.2893
 20
6.39561
 11
10.1289
 21
6.05473
  0
LINE
  8
0
 10
10.1289
 20
6.05473
 11
9.92705
 21
5.73663
  0
LINE
  8
0
 10
9.92705
 20
5.73663
 11
9.6869
 21
5.44635
  0
LINE
  8
0
 10
9.6869
 20
5.44635
 11
9.41226
 21
5.18845
  0
LINE
  8
0
 10
9.41226
 20
5.18845
 11
9.10747
 21
4.96701
  0
LINE
  8
0
 10
9.10747
 20
4.96701
 11
8.77733
 21
4.78551
  0
LINE
  8
0
 10
8.77733
 20
4.78551
 11
8.42705
 21
4.64682
  0
LINE
  8
0
 10
8.42705
 20
4.64682
 11
8.06213
 21
4.55313
  0
LINE
  8
0
 10
8.06213
 20
4.55313
 11
7.68837
 21
4.50591
  0
LINE
  8
0
 10
7.68837
 20
4.50591
 11
7.31161
 21
4.50591
  0
ENDSEC
  0
SECTION
  2
OBJECTS
  0
DICTIONARY
  0
ENDSEC
  0
EOF
