<?xml version="1.0" standalone="no"?>
<!DOCTYPE svg PUBLIC "-//W3C//DTD SVG 1.1//EN" "http://www.w3.org/Graphics/SVG/1.1/DTD/svg11.dtd">
<svg width="165mm" height="15mm" viewBox="0 -15 165 15" xmlns="http://www.w3.org/2000/svg" version="1.1">
<title>OpenSCAD Model</title>
<path d="
M 160.437,-0.588562 L 161.045,-0.744705 L 161.629,-0.975861 L 162.179,-1.27835 L 162.687,-1.64743 L 163.145,-2.07726
 L 163.545,-2.56107 L 163.882,-3.09122 L 164.149,-3.65936 L 164.343,-4.25655 L 164.461,-4.87332 L 164.5,-5.5
 L 164.5,-9.5 L 164.461,-10.1267 L 164.343,-10.7434 L 164.149,-11.3406 L 163.882,-11.9088 L 163.545,-12.4389
 L 163.145,-12.9227 L 162.687,-13.3526 L 162.179,-13.7216 L 161.629,-14.0241 L 161.045,-14.2553 L 160.437,-14.4114
 L 159.814,-14.4901 L 5.18604,-14.4901 L 4.56308,-14.4114 L 3.95491,-14.2553 L 3.37109,-14.0241 L 2.82086,-13.7216
 L 2.31287,-13.3526 L 1.85515,-12.9227 L 1.45491,-12.4389 L 1.11845,-11.9088 L 0.851105,-11.3406 L 0.657074,-10.7434
 L 0.539413,-10.1267 L 0.5,-9.5 L 0.5,-5.5 L 0.539413,-4.87332 L 0.657074,-4.25655 L 0.851105,-3.65936
 L 1.11845,-3.09122 L 1.45491,-2.56107 L 1.85515,-2.07726 L 2.31287,-1.64743 L 2.82086,-1.27835 L 3.37109,-0.975861
 L 3.95491,-0.744705 L 4.56308,-0.588562 L 5.18604,-0.509857 L 159.814,-0.509857 z
M 142.312,-4.50591 L 141.938,-4.55313 L 141.573,-4.64682 L 141.223,-4.78551 L 140.893,-4.96701 L 140.588,-5.18845
 L 140.313,-5.44635 L 140.073,-5.73663 L 139.871,-6.05473 L 139.711,-6.39561 L 139.594,-6.75392 L 139.524,-7.12399
 L 139.5,-7.5 L 139.524,-7.87599 L 139.594,-8.24606 L 139.711,-8.60437 L 139.871,-8.94525 L 140.073,-9.26335
 L 140.313,-9.55363 L 140.588,-9.81154 L 140.893,-10.033 L 141.223,-10.2145 L 141.573,-10.3532 L 141.938,-10.4469
 L 142.312,-10.4941 L 142.688,-10.4941 L 143.062,-10.4469 L 143.427,-10.3532 L 143.777,-10.2145 L 144.107,-10.033
 L 144.412,-9.81154 L 144.687,-9.55363 L 144.927,-9.26335 L 145.129,-8.94525 L 145.289,-8.60437 L 145.406,-8.24606
 L 145.476,-7.87599 L 145.5,-7.5 L 145.476,-7.12399 L 145.406,-6.75392 L 145.289,-6.39561 L 145.129,-6.05473
 L 144.927,-5.73663 L 144.687,-5.44635 L 144.412,-5.18845 L 144.107,-4.96701 L 143.777,-4.78551 L 143.427,-4.64682
 L 143.062,-4.55313 L 142.688,-4.50591 z
M 82.3116,-4.50591 L 81.9379,-4.55313 L 81.573,-4.64682 L 81.2227,-4.78551 L 80.8925,-4.96701 L 80.5877,-5.18845
 L 80.3131,-5.44635 L 80.073,-5.73663 L 79.8711,-6.05473 L 79.7107,-6.39561 L 79.5943,-6.75392 L 79.5237,-7.12399
 L 79.5,-7.5 L 79.5237,-7.87599 L 79.5943,-8.24606 L 79.7107,-8.60437 L 79.8711,-8.94525 L 80.073,-9.26335
 L 80.3131,-9.55363 L 80.5877,-9.81154 L 80.8925,-10.033 L 81.2227,-10.2145 L 81.573,-10.3532 L 81.9379,-10.4469
 L 82.3116,-10.4941 L 82.6884,-10.4941 L 83.0621,-10.4469 L 83.427,-10.3532 L 83.7773,-10.2145 L 84.1075,-10.033
 L 84.4123,-9.81154 L 84.6869,-9.55363 L 84.927,-9.26335 L 85.1289,-8.94525 L 85.2893,-8.60437 L 85.4057,-8.24606
 L 85.4763,-7.87599 L 85.5,-7.5 L 85.4763,-7.12399 L 85.4057,-6.75392 L 85.2893,-6.39561 L 85.1289,-6.05473
 L 84.927,-5.73663 L 84.6869,-5.44635 L 84.4123,-5.18845 L 84.1075,-4.96701 L 83.7773,-4.78551 L 83.427,-4.64682
 L 83.0621,-4.55313 L 82.6884,-4.50591 z
M 7.31161,-4.50591 L 6.93785,-4.55313 L 6.57294,-4.64682 L 6.22266,-4.78551 L 5.89252,-4.96701 L 5.58772,-5.18845
 L 5.31308,-5.44635 L 5.07294,-5.73663 L 4.87108,-6.05473 L 4.71066,-6.39561 L 4.59424,-6.75392 L 4.52365,-7.12399
 L 4.5,-7.5 L 4.52365,-7.87599 L 4.59424,-8.24606 L 4.71066,-8.60437 L 4.87108,-8.94525 L 5.07294,-9.26335
 L 5.31308,-9.55363 L 5.58772,-9.81154 L 5.89252,-10.033 L 6.22266,-10.2145 L 6.57294,-10.3532 L 6.93785,-10.4469
 L 7.31161,-10.4941 L 7.68837,-10.4941 L 8.06213,-10.4469 L 8.42705,-10.3532 L 8.77733,-10.2145 L 9.10747,-10.033
 L 9.41226,-9.81154 L 9.6869,-9.55363 L 9.92705,-9.26335 L 10.1289,-8.94525 L 10.2893,-8.60437 L 10.4057,-8.24606
 L 10.4763,-7.87599 L 10.5,-7.5 L 10.4763,-7.12399 L 10.4057,-6.75392 L 10.2893,-6.39561 L 10.1289,-6.05473
 L 9.92705,-5.73663 L 9.6869,-5.44635 L 9.41226,-5.18845 L 9.10747,-4.96701 L 8.77733,-4.78551 L 8.42705,-4.64682
 L 8.06213,-4.55313 L 7.68837,-4.50591 z
M 112.312,-4.50591 L 111.938,-4.55313 L 111.573,-4.64682 L 111.223,-4.78551 L 110.893,-4.96701 L 110.588,-5.18845
 L 110.313,-5.44635 L 110.073,-5.73663 L 109.871,-6.05473 L 109.711,-6.39561 L 109.594,-6.75392 L 109.524,-7.12399
 L 109.5,-7.5 L 109.524,-7.87599 L 109.594,-8.24606 L 109.711,-8.60437 L 109.871,-8.94525 L 110.073,-9.26335
 L 110.313,-9.55363 L 110.588,-9.81154 L 110.893,-10.033 L 111.223,-10.2145 L 111.573,-10.3532 L 111.938,-10.4469
 L 112.312,-10.4941 L 112.688,-10.4941 L 113.062,-10.4469 L 113.427,-10.3532 L 113.777,-10.2145 L 114.107,-10.033
 L 114.412,-9.81154 L 114.687,-9.55363 L 114.927,-9.26335 L 115.129,-8.94525 L 115.289,-8.60437 L 115.406,-8.24606
 L 115.476,-7.87599 L 115.5,-7.5 L 115.476,-7.12399 L 115.406,-6.75392 L 115.289,-6.39561 L 115.129,-6.05473
 L 114.927,-5.73663 L 114.687,-5.44635 L 114.412,-5.18845 L 114.107,-4.96701 L 113.777,-4.78551 L 113.427,-4.64682
 L 113.062,-4.55313 L 112.688,-4.50591 z
M 97.3116,-4.50591 L 96.9379,-4.55313 L 96.573,-4.64682 L 96.2227,-4.78551 L 95.8925,-4.96701 L 95.5877,-5.18845
 L 95.3131,-5.44635 L 95.073,-5.73663 L 94.8711,-6.05473 L 94.7107,-6.39561 L 94.5943,-6.75392 L 94.5237,-7.12399
 L 94.5,-7.5 L 94.5237,-7.87599 L 94.5943,-8.24606 L 94.7107,-8.60437 L 94.8711,-8.94525 L 95.073,-9.26335
 L 95.3131,-9.55363 L 95.5877,-9.81154 L 95.8925,-10.033 L 96.2227,-10.2145 L 96.573,-10.3532 L 96.9379,-10.4469
 L 97.3116,-10.4941 L 97.6884,-10.4941 L 98.0621,-10.4469 L 98.427,-10.3532 L 98.7773,-10.2145 L 99.1075,-10.033
 L 99.4123,-9.81154 L 99.6869,-9.55363 L 99.927,-9.26335 L 100.129,-8.94525 L 100.289,-8.60437 L 100.406,-8.24606
 L 100.476,-7.87599 L 100.5,-7.5 L 100.476,-7.12399 L 100.406,-6.75392 L 100.289,-6.39561 L 100.129,-6.05473
 L 99.927,-5.73663 L 99.6869,-5.44635 L 99.4123,-5.18845 L 99.1075,-4.96701 L 98.7773,-4.78551 L 98.427,-4.64682
 L 98.0621,-4.55313 L 97.6884,-4.50591 z
M 127.312,-4.50591 L 126.938,-4.55313 L 126.573,-4.64682 L 126.223,-4.78551 L 125.893,-4.96701 L 125.588,-5.18845
 L 125.313,-5.44635 L 125.073,-5.73663 L 124.871,-6.05473 L 124.711,-6.39561 L 124.594,-6.75392 L 124.524,-7.12399
 L 124.5,-7.5 L 124.524,-7.87599 L 124.594,-8.24606 L 124.711,-8.60437 L 124.871,-8.94525 L 125.073,-9.26335
 L 125.313,-9.55363 L 125.588,-9.81154 L 125.893,-10.033 L 126.223,-10.2145 L 126.573,-10.3532 L 126.938,-10.4469
 L 127.312,-10.4941 L 127.688,-10.4941 L 128.062,-10.4469 L 128.427,-10.3532 L 128.777,-10.2145 L 129.107,-10.033
 L 129.412,-9.81154 L 129.687,-9.55363 L 129.927,-9.26335 L 130.129,-8.94525 L 130.289,-8.60437 L 130.406,-8.24606
 L 130.476,-7.87599 L 130.5,-7.5 L 130.476,-7.12399 L 130.406,-6.75392 L 130.289,-6.39561 L 130.129,-6.05473
 L 129.927,-5.73663 L 129.687,-5.44635 L 129.412,-5.18845 L 129.107,-4.96701 L 128.777,-4.78551 L 128.427,-4.64682
 L 128.062,-4.55313 L 127.688,-4.50591 z
M 157.312,-4.50591 L 156.938,-4.55313 L 156.573,-4.64682 L 156.223,-4.78551 L 155.893,-4.96701 L 155.588,-5.18845
 L 155.313,-5.44635 L 155.073,-5.73663 L 154.871,-6.05473 L 154.711,-6.39561 L 154.594,-6.75392 L 154.524,-7.12399
 L 154.5,-7.5 L 154.524,-7.87599 L 154.594,-8.24606 L 154.711,-8.60437 L 154.871,-8.94525 L 155.073,-9.26335
 L 155.313,-9.55363 L 155.588,-9.81154 L 155.893,-10.033 L 156.223,-10.2145 L 156.573,-10.3532 L 156.938,-10.4469
 L 157.312,-10.4941 L 157.688,-10.4941 L 158.062,-10.4469 L 158.427,-10.3532 L 158.777,-10.2145 L 159.107,-10.033
 L 159.412,-9.81154 L 159.687,-9.55363 L 159.927,-9.26335 L 160.129,-8.94525 L 160.289,-8.60437 L 160.406,-8.24606
 L 160.476,-7.87599 L 160.5,-7.5 L 160.476,-7.12399 L 160.406,-6.75392 L 160.289,-6.39561 L 160.129,-6.05473
 L 159.927,-5.73663 L 159.687,-5.44635 L 159.412,-5.18845 L 159.107,-4.96701 L 158.777,-4.78551 L 158.427,-4.64682
 L 158.062,-4.55313 L 157.688,-4.50591 z
M 67.3116,-4.50591 L 66.9379,-4.55313 L 66.573,-4.64682 L 66.2227,-4.78551 L 65.8925,-4.96701 L 65.5877,-5.18845
 L 65.3131,-5.44635 L 65.073,-5.73663 L 64.8711,-6.05473 L 64.7107,-6.39561 L 64.5943,-6.75392 L 64.5237,-7.12399
 L 64.5,-7.5 L 64.5237,-7.87599 L 64.5943,-8.24606 L 64.7107,-8.60437 L 64.8711,-8.94525 L 65.073,-9.26335
 L 65.3131,-9.55363 L 65.5877,-9.81154 L 65.8925,-10.033 L 66.2227,-10.2145 L 66.573,-10.3532 L 66.9379,-10.4469
 L 67.3116,-10.4941 L 67.6884,-10.4941 L 68.0621,-10.4469 L 68.427,-10.3532 L 68.7773,-10.2145 L 69.1075,-10.033
 L 69.4123,-9.81154 L 69.6869,-9.55363 L 69.927,-9.26335 L 70.1289,-8.94525 L 70.2893,-8.60437 L 70.4057,-8.24606
 L 70.4763,-7.87599 L 70.5,-7.5 L 70.4763,-7.12399 L 70.4057,-6.75392 L 70.2893,-6.39561 L 70.1289,-6.05473
 L 69.927,-5.73663 L 69.6869,-5.44635 L 69.4123,-5.18845 L 69.1075,-4.96701 L 68.7773,-4.78551 L 68.427,-4.64682
 L 68.0621,-4.55313 L 67.6884,-4.50591 z
M 37.3116,-4.50591 L 36.9379,-4.55313 L 36.5729,-4.64682 L 36.2227,-4.78551 L 35.8925,-4.96701 L 35.5877,-5.18845
 L 35.3131,-5.44635 L 35.0729,-5.73663 L 34.8711,-6.05473 L 34.7107,-6.39561 L 34.5942,-6.75392 L 34.5237,-7.12399
 L 34.5,-7.5 L 34.5237,-7.87599 L 34.5942,-8.24606 L 34.7107,-8.60437 L 34.8711,-8.94525 L 35.0729,-9.26335
 L 35.3131,-9.55363 L 35.5877,-9.81154 L 35.8925,-10.033 L 36.2227,-10.2145 L 36.5729,-10.3532 L 36.9379,-10.4469
 L 37.3116,-10.4941 L 37.6884,-10.4941 L 38.0621,-10.4469 L 38.427,-10.3532 L 38.7773,-10.2145 L 39.1075,-10.033
 L 39.4123,-9.81154 L 39.6869,-9.55363 L 39.927,-9.26335 L 40.1289,-8.94525 L 40.2893,-8.60437 L 40.4057,-8.24606
 L 40.4763,-7.87599 L 40.5,-7.5 L 40.4763,-7.12399 L 40.4057,-6.75392 L 40.2893,-6.39561 L 40.1289,-6.05473
 L 39.927,-5.73663 L 39.6869,-5.44635 L 39.4123,-5.18845 L 39.1075,-4.96701 L 38.7773,-4.78551 L 38.427,-4.64682
 L 38.0621,-4.55313 L 37.6884,-4.50591 z
M 52.3116,-4.50591 L 51.9379,-4.55313 L 51.5729,-4.64682 L 51.2227,-4.78551 L 50.8925,-4.96701 L 50.5877,-5.18845
 L 50.3131,-5.44635 L 50.0729,-5.73663 L 49.8711,-6.05473 L 49.7107,-6.39561 L 49.5942,-6.75392 L 49.5237,-7.12399
 L 49.5,-7.5 L 49.5237,-7.87599 L 49.5942,-8.24606 L 49.7107,-8.60437 L 49.8711,-8.94525 L 50.0729,-9.26335
 L 50.3131,-9.55363 L 50.5877,-9.81154 L 50.8925,-10.033 L 51.2227,-10.2145 L 51.5729,-10.3532 L 51.9379,-10.4469
 L 52.3116,-10.4941 L 52.6884,-10.4941 L 53.0621,-10.4469 L 53.427,-10.3532 L 53.7773,-10.2145 L 54.1075,-10.033
 L 54.4123,-9.81154 L 54.6869,-9.55363 L 54.927,-9.26335 L 55.1289,-8.94525 L 55.2893,-8.60437 L 55.4057,-8.24606
 L 55.4763,-7.87599 L 55.5,-7.5 L 55.4763,-7.12399 L 55.4057,-6.75392 L 55.2893,-6.39561 L 55.1289,-6.05473
 L 54.927,-5.73663 L 54.6869,-5.44635 L 54.4123,-5.18845 L 54.1075,-4.96701 L 53.7773,-4.78551 L 53.427,-4.64682
 L 53.0621,-4.55313 L 52.6884,-4.50591 z
M 22.3116,-4.50591 L 21.9379,-4.55313 L 21.5729,-4.64682 L 21.2227,-4.78551 L 20.8925,-4.96701 L 20.5877,-5.18845
 L 20.3131,-5.44635 L 20.0729,-5.73663 L 19.8711,-6.05473 L 19.7107,-6.39561 L 19.5942,-6.75392 L 19.5237,-7.12399
 L 19.5,-7.5 L 19.5237,-7.87599 L 19.5942,-8.24606 L 19.7107,-8.60437 L 19.8711,-8.94525 L 20.0729,-9.26335
 L 20.3131,-9.55363 L 20.5877,-9.81154 L 20.8925,-10.033 L 21.2227,-10.2145 L 21.5729,-10.3532 L 21.9379,-10.4469
 L 22.3116,-10.4941 L 22.6884,-10.4941 L 23.0621,-10.4469 L 23.427,-10.3532 L 23.7773,-10.2145 L 24.1075,-10.033
 L 24.4123,-9.81154 L 24.6869,-9.55363 L 24.927,-9.26335 L 25.1289,-8.94525 L 25.2893,-8.60437 L 25.4057,-8.24606
 L 25.4763,-7.87599 L 25.5,-7.5 L 25.4763,-7.12399 L 25.4057,-6.75392 L 25.2893,-6.39561 L 25.1289,-6.05473
 L 24.927,-5.73663 L 24.6869,-5.44635 L 24.4123,-5.18845 L 24.1075,-4.96701 L 23.7773,-4.78551 L 23.427,-4.64682
 L 23.0621,-4.55313 L 22.6884,-4.50591 z
" stroke="black" fill="lightgray" stroke-width="0.5"/>
</svg>
