<?xml version="1.0" standalone="no"?>
<!DOCTYPE svg PUBLIC "-//W3C//DTD SVG 1.1//EN" "http://www.w3.org/Graphics/SVG/1.1/DTD/svg11.dtd">
<svg width="45mm" height="45mm" viewBox="0 -45 45 45" xmlns="http://www.w3.org/2000/svg" version="1.1">
<title>OpenSCAD Model</title>
<path d="
M 40.4369,-0.588562 L 41.0451,-0.744705 L 41.6289,-0.975861 L 42.1791,-1.27835 L 42.6871,-1.64743 L 43.1448,-2.07726
 L 43.5451,-2.56107 L 43.8815,-3.09122 L 44.1489,-3.65936 L 44.3429,-4.25655 L 44.4606,-4.87332 L 44.5,-5.5
 L 44.5,-39.5 L 44.4606,-40.1267 L 44.3429,-40.7434 L 44.1489,-41.3406 L 43.8815,-41.9088 L 43.5451,-42.4389
 L 43.1448,-42.9227 L 42.6871,-43.3526 L 42.1791,-43.7216 L 41.6289,-44.0241 L 41.0451,-44.2553 L 40.4369,-44.4114
 L 39.8139,-44.4901 L 5.18604,-44.4901 L 4.56308,-44.4114 L 3.95491,-44.2553 L 3.37109,-44.0241 L 2.82086,-43.7216
 L 2.31287,-43.3526 L 1.85515,-42.9227 L 1.45491,-42.4389 L 1.11845,-41.9088 L 0.851105,-41.3406 L 0.657074,-40.7434
 L 0.539413,-40.1267 L 0.5,-39.5 L 0.5,-5.5 L 0.539413,-4.87332 L 0.657074,-4.25655 L 0.851105,-3.65936
 L 1.11845,-3.09122 L 1.45491,-2.56107 L 1.85515,-2.07726 L 2.31287,-1.64743 L 2.82086,-1.27835 L 3.37109,-0.975861
 L 3.95491,-0.744705 L 4.56308,-0.588562 L 5.18604,-0.509857 L 39.8139,-0.509857 z
M 7.31161,-34.5059 L 6.93785,-34.5531 L 6.57294,-34.6468 L 6.22266,-34.7855 L 5.89252,-34.967 L 5.58772,-35.1885
 L 5.31308,-35.4464 L 5.07294,-35.7366 L 4.87108,-36.0547 L 4.71066,-36.3956 L 4.59424,-36.7539 L 4.52365,-37.124
 L 4.5,-37.5 L 4.52365,-37.876 L 4.59424,-38.2461 L 4.71066,-38.6044 L 4.87108,-38.9453 L 5.07294,-39.2634
 L 5.31308,-39.5536 L 5.58772,-39.8115 L 5.89252,-40.033 L 6.22266,-40.2145 L 6.57294,-40.3532 L 6.93785,-40.4469
 L 7.31161,-40.4941 L 7.68837,-40.4941 L 8.06213,-40.4469 L 8.42705,-40.3532 L 8.77733,-40.2145 L 9.10747,-40.033
 L 9.41226,-39.8115 L 9.6869,-39.5536 L 9.92705,-39.2634 L 10.1289,-38.9453 L 10.2893,-38.6044 L 10.4057,-38.2461
 L 10.4763,-37.876 L 10.5,-37.5 L 10.4763,-37.124 L 10.4057,-36.7539 L 10.2893,-36.3956 L 10.1289,-36.0547
 L 9.92705,-35.7366 L 9.6869,-35.4464 L 9.41226,-35.1885 L 9.10747,-34.967 L 8.77733,-34.7855 L 8.42705,-34.6468
 L 8.06213,-34.5531 L 7.68837,-34.5059 z
M 22.3116,-34.5059 L 21.9379,-34.5531 L 21.5729,-34.6468 L 21.2227,-34.7855 L 20.8925,-34.967 L 20.5877,-35.1885
 L 20.3131,-35.4464 L 20.0729,-35.7366 L 19.8711,-36.0547 L 19.7107,-36.3956 L 19.5942,-36.7539 L 19.5237,-37.124
 L 19.5,-37.5 L 19.5237,-37.876 L 19.5942,-38.2461 L 19.7107,-38.6044 L 19.8711,-38.9453 L 20.0729,-39.2634
 L 20.3131,-39.5536 L 20.5877,-39.8115 L 20.8925,-40.033 L 21.2227,-40.2145 L 21.5729,-40.3532 L 21.9379,-40.4469
 L 22.3116,-40.4941 L 22.6884,-40.4941 L 23.0621,-40.4469 L 23.427,-40.3532 L 23.7773,-40.2145 L 24.1075,-40.033
 L 24.4123,-39.8115 L 24.6869,-39.5536 L 24.927,-39.2634 L 25.1289,-38.9453 L 25.2893,-38.6044 L 25.4057,-38.2461
 L 25.4763,-37.876 L 25.5,-37.5 L 25.4763,-37.124 L 25.4057,-36.7539 L 25.2893,-36.3956 L 25.1289,-36.0547
 L 24.927,-35.7366 L 24.6869,-35.4464 L 24.4123,-35.1885 L 24.1075,-34.967 L 23.7773,-34.7855 L 23.427,-34.6468
 L 23.0621,-34.5531 L 22.6884,-34.5059 z
M 37.3116,-34.5059 L 36.9379,-34.5531 L 36.5729,-34.6468 L 36.2227,-34.7855 L 35.8925,-34.967 L 35.5877,-35.1885
 L 35.3131,-35.4464 L 35.0729,-35.7366 L 34.8711,-36.0547 L 34.7107,-36.3956 L 34.5942,-36.7539 L 34.5237,-37.124
 L 34.5,-37.5 L 34.5237,-37.876 L 34.5942,-38.2461 L 34.7107,-38.6044 L 34.8711,-38.9453 L 35.0729,-39.2634
 L 35.3131,-39.5536 L 35.5877,-39.8115 L 35.8925,-40.033 L 36.2227,-40.2145 L 36.5729,-40.3532 L 36.9379,-40.4469
 L 37.3116,-40.4941 L 37.6884,-40.4941 L 38.0621,-40.4469 L 38.427,-40.3532 L 38.7773,-40.2145 L 39.1075,-40.033
 L 39.4123,-39.8115 L 39.6869,-39.5536 L 39.927,-39.2634 L 40.1289,-38.9453 L 40.2893,-38.6044 L 40.4057,-38.2461
 L 40.4763,-37.876 L 40.5,-37.5 L 40.4763,-37.124 L 40.4057,-36.7539 L 40.2893,-36.3956 L 40.1289,-36.0547
 L 39.927,-35.7366 L 39.6869,-35.4464 L 39.4123,-35.1885 L 39.1075,-34.967 L 38.7773,-34.7855 L 38.427,-34.6468
 L 38.0621,-34.5531 L 37.6884,-34.5059 z
M 37.3116,-19.5059 L 36.9379,-19.5531 L 36.5729,-19.6468 L 36.2227,-19.7855 L 35.8925,-19.967 L 35.5877,-20.1884
 L 35.3131,-20.4464 L 35.0729,-20.7366 L 34.8711,-21.0547 L 34.7107,-21.3956 L 34.5942,-21.7539 L 34.5237,-22.124
 L 34.5,-22.5 L 34.5237,-22.876 L 34.5942,-23.2461 L 34.7107,-23.6044 L 34.8711,-23.9453 L 35.0729,-24.2634
 L 35.3131,-24.5536 L 35.5877,-24.8115 L 35.8925,-25.033 L 36.2227,-25.2145 L 36.5729,-25.3532 L 36.9379,-25.4469
 L 37.3116,-25.4941 L 37.6884,-25.4941 L 38.0621,-25.4469 L 38.427,-25.3532 L 38.7773,-25.2145 L 39.1075,-25.033
 L 39.4123,-24.8115 L 39.6869,-24.5536 L 39.927,-24.2634 L 40.1289,-23.9453 L 40.2893,-23.6044 L 40.4057,-23.2461
 L 40.4763,-22.876 L 40.5,-22.5 L 40.4763,-22.124 L 40.4057,-21.7539 L 40.2893,-21.3956 L 40.1289,-21.0547
 L 39.927,-20.7366 L 39.6869,-20.4464 L 39.4123,-20.1884 L 39.1075,-19.967 L 38.7773,-19.7855 L 38.427,-19.6468
 L 38.0621,-19.5531 L 37.6884,-19.5059 z
M 7.31161,-19.5059 L 6.93785,-19.5531 L 6.57294,-19.6468 L 6.22266,-19.7855 L 5.89252,-19.967 L 5.58772,-20.1884
 L 5.31308,-20.4464 L 5.07294,-20.7366 L 4.87108,-21.0547 L 4.71066,-21.3956 L 4.59424,-21.7539 L 4.52365,-22.124
 L 4.5,-22.5 L 4.52365,-22.876 L 4.59424,-23.2461 L 4.71066,-23.6044 L 4.87108,-23.9453 L 5.07294,-24.2634
 L 5.31308,-24.5536 L 5.58772,-24.8115 L 5.89252,-25.033 L 6.22266,-25.2145 L 6.57294,-25.3532 L 6.93785,-25.4469
 L 7.31161,-25.4941 L 7.68837,-25.4941 L 8.06213,-25.4469 L 8.42705,-25.3532 L 8.77733,-25.2145 L 9.10747,-25.033
 L 9.41226,-24.8115 L 9.6869,-24.5536 L 9.92705,-24.2634 L 10.1289,-23.9453 L 10.2893,-23.6044 L 10.4057,-23.2461
 L 10.4763,-22.876 L 10.5,-22.5 L 10.4763,-22.124 L 10.4057,-21.7539 L 10.2893,-21.3956 L 10.1289,-21.0547
 L 9.92705,-20.7366 L 9.6869,-20.4464 L 9.41226,-20.1884 L 9.10747,-19.967 L 8.77733,-19.7855 L 8.42705,-19.6468
 L 8.06213,-19.5531 L 7.68837,-19.5059 z
M 22.3116,-19.5059 L 21.9379,-19.5531 L 21.5729,-19.6468 L 21.2227,-19.7855 L 20.8925,-19.967 L 20.5877,-20.1884
 L 20.3131,-20.4464 L 20.0729,-20.7366 L 19.8711,-21.0547 L 19.7107,-21.3956 L 19.5942,-21.7539 L 19.5237,-22.124
 L 19.5,-22.5 L 19.5237,-22.876 L 19.5942,-23.2461 L 19.7107,-23.6044 L 19.8711,-23.9453 L 20.0729,-24.2634
 L 20.3131,-24.5536 L 20.5877,-24.8115 L 20.8925,-25.033 L 21.2227,-25.2145 L 21.5729,-25.3532 L 21.9379,-25.4469
 L 22.3116,-25.4941 L 22.6884,-25.4941 L 23.0621,-25.4469 L 23.427,-25.3532 L 23.7773,-25.2145 L 24.1075,-25.033
 L 24.4123,-24.8115 L 24.6869,-24.5536 L 24.927,-24.2634 L 25.1289,-23.9453 L 25.2893,-23.6044 L 25.4057,-23.2461
 L 25.4763,-22.876 L 25.5,-22.5 L 25.4763,-22.124 L 25.4057,-21.7539 L 25.2893,-21.3956 L 25.1289,-21.0547
 L 24.927,-20.7366 L 24.6869,-20.4464 L 24.4123,-20.1884 L 24.1075,-19.967 L 23.7773,-19.7855 L 23.427,-19.6468
 L 23.0621,-19.5531 L 22.6884,-19.5059 z
M 37.3116,-4.50591 L 36.9379,-4.55313 L 36.5729,-4.64682 L 36.2227,-4.78551 L 35.8925,-4.96701 L 35.5877,-5.18845
 L 35.3131,-5.44635 L 35.0729,-5.73663 L 34.8711,-6.05473 L 34.7107,-6.39561 L 34.5942,-6.75392 L 34.5237,-7.12399
 L 34.5,-7.5 L 34.5237,-7.87599 L 34.5942,-8.24606 L 34.7107,-8.60437 L 34.8711,-8.94525 L 35.0729,-9.26335
 L 35.3131,-9.55363 L 35.5877,-9.81154 L 35.8925,-10.033 L 36.2227,-10.2145 L 36.5729,-10.3532 L 36.9379,-10.4469
 L 37.3116,-10.4941 L 37.6884,-10.4941 L 38.0621,-10.4469 L 38.427,-10.3532 L 38.7773,-10.2145 L 39.1075,-10.033
 L 39.4123,-9.81154 L 39.6869,-9.55363 L 39.927,-9.26335 L 40.1289,-8.94525 L 40.2893,-8.60437 L 40.4057,-8.24606
 L 40.4763,-7.87599 L 40.5,-7.5 L 40.4763,-7.12399 L 40.4057,-6.75392 L 40.2893,-6.39561 L 40.1289,-6.05473
 L 39.927,-5.73663 L 39.6869,-5.44635 L 39.4123,-5.18845 L 39.1075,-4.96701 L 38.7773,-4.78551 L 38.427,-4.64682
 L 38.0621,-4.55313 L 37.6884,-4.50591 z
M 22.3116,-4.50591 L 21.9379,-4.55313 L 21.5729,-4.64682 L 21.2227,-4.78551 L 20.8925,-4.96701 L 20.5877,-5.18845
 L 20.3131,-5.44635 L 20.0729,-5.73663 L 19.8711,-6.05473 L 19.7107,-6.39561 L 19.5942,-6.75392 L 19.5237,-7.12399
 L 19.5,-7.5 L 19.5237,-7.87599 L 19.5942,-8.24606 L 19.7107,-8.60437 L 19.8711,-8.94525 L 20.0729,-9.26335
 L 20.3131,-9.55363 L 20.5877,-9.81154 L 20.8925,-10.033 L 21.2227,-10.2145 L 21.5729,-10.3532 L 21.9379,-10.4469
 L 22.3116,-10.4941 L 22.6884,-10.4941 L 23.0621,-10.4469 L 23.427,-10.3532 L 23.7773,-10.2145 L 24.1075,-10.033
 L 24.4123,-9.81154 L 24.6869,-9.55363 L 24.927,-9.26335 L 25.1289,-8.94525 L 25.2893,-8.60437 L 25.4057,-8.24606
 L 25.4763,-7.87599 L 25.5,-7.5 L 25.4763,-7.12399 L 25.4057,-6.75392 L 25.2893,-6.39561 L 25.1289,-6.05473
 L 24.927,-5.73663 L 24.6869,-5.44635 L 24.4123,-5.18845 L 24.1075,-4.96701 L 23.7773,-4.78551 L 23.427,-4.64682
 L 23.0621,-4.55313 L 22.6884,-4.50591 z
M 7.31161,-4.50591 L 6.93785,-4.55313 L 6.57294,-4.64682 L 6.22266,-4.78551 L 5.89252,-4.96701 L 5.58772,-5.18845
 L 5.31308,-5.44635 L 5.07294,-5.73663 L 4.87108,-6.05473 L 4.71066,-6.39561 L 4.59424,-6.75392 L 4.52365,-7.12399
 L 4.5,-7.5 L 4.52365,-7.87599 L 4.59424,-8.24606 L 4.71066,-8.60437 L 4.87108,-8.94525 L 5.07294,-9.26335
 L 5.31308,-9.55363 L 5.58772,-9.81154 L 5.89252,-10.033 L 6.22266,-10.2145 L 6.57294,-10.3532 L 6.93785,-10.4469
 L 7.31161,-10.4941 L 7.68837,-10.4941 L 8.06213,-10.4469 L 8.42705,-10.3532 L 8.77733,-10.2145 L 9.10747,-10.033
 L 9.41226,-9.81154 L 9.6869,-9.55363 L 9.92705,-9.26335 L 10.1289,-8.94525 L 10.2893,-8.60437 L 10.4057,-8.24606
 L 10.4763,-7.87599 L 10.5,-7.5 L 10.4763,-7.12399 L 10.4057,-6.75392 L 10.2893,-6.39561 L 10.1289,-6.05473
 L 9.92705,-5.73663 L 9.6869,-5.44635 L 9.41226,-5.18845 L 9.10747,-4.96701 L 8.77733,-4.78551 L 8.42705,-4.64682
 L 8.06213,-4.55313 L 7.68837,-4.50591 z
" stroke="black" fill="lightgray" stroke-width="0.5"/>
</svg>
