solid OpenSCAD_Model
  facet normal -0.998031 -0.0627245 0
    outer loop
      vertex 10.75 7.5 0
      vertex 10.7244 7.90733 3
      vertex 10.7244 7.90733 0
    endloop
  endfacet
  facet normal -0.998031 -0.0627245 0
    outer loop
      vertex 10.7244 7.90733 3
      vertex 10.75 7.5 0
      vertex 10.75 7.5 3
    endloop
  endfacet
  facet normal 0.125446 -0.9921 0
    outer loop
      vertex 6.89101 10.6924 0
      vertex 7.29593 10.7436 3
      vertex 6.89101 10.6924 3
    endloop
  endfacet
  facet normal 0.125446 -0.9921 0
    outer loop
      vertex 7.29593 10.7436 3
      vertex 6.89101 10.6924 0
      vertex 7.29593 10.7436 0
    endloop
  endfacet
  facet normal -0.125349 0.992113 0
    outer loop
      vertex 8.10899 4.30757 0
      vertex 7.70407 4.25641 3
      vertex 8.10899 4.30757 3
    endloop
  endfacet
  facet normal -0.125349 0.992113 0
    outer loop
      vertex 7.70407 4.25641 3
      vertex 8.10899 4.30757 0
      vertex 7.70407 4.25641 0
    endloop
  endfacet
  facet normal -0.58779 -0.809014 0
    outer loop
      vertex 9.24144 10.2441 0
      vertex 9.57163 10.0042 3
      vertex 9.24144 10.2441 3
    endloop
  endfacet
  facet normal -0.58779 -0.809014 -0
    outer loop
      vertex 9.57163 10.0042 3
      vertex 9.24144 10.2441 0
      vertex 9.57163 10.0042 0
    endloop
  endfacet
  facet normal 0.770514 -0.637423 0
    outer loop
      vertex 4.87069 9.4103 3
      vertex 5.13085 9.72478 0
      vertex 5.13085 9.72478 3
    endloop
  endfacet
  facet normal 0.770514 -0.637423 0
    outer loop
      vertex 5.13085 9.72478 0
      vertex 4.87069 9.4103 3
      vertex 4.87069 9.4103 0
    endloop
  endfacet
  facet normal 0.481706 -0.876333 0
    outer loop
      vertex 5.75856 10.2441 0
      vertex 6.11622 10.4407 3
      vertex 5.75856 10.2441 3
    endloop
  endfacet
  facet normal 0.481706 -0.876333 0
    outer loop
      vertex 6.11622 10.4407 3
      vertex 5.75856 10.2441 0
      vertex 6.11622 10.4407 0
    endloop
  endfacet
  facet normal -0.844317 -0.535845 0
    outer loop
      vertex 10.348 9.0657 0
      vertex 10.1293 9.4103 3
      vertex 10.1293 9.4103 0
    endloop
  endfacet
  facet normal -0.844317 -0.535845 0
    outer loop
      vertex 10.1293 9.4103 3
      vertex 10.348 9.0657 0
      vertex 10.348 9.0657 3
    endloop
  endfacet
  facet normal -0.248694 -0.968582 0
    outer loop
      vertex 8.10899 10.6924 0
      vertex 8.5043 10.5909 3
      vertex 8.10899 10.6924 3
    endloop
  endfacet
  facet normal -0.248694 -0.968582 -0
    outer loop
      vertex 8.5043 10.5909 3
      vertex 8.10899 10.6924 0
      vertex 8.5043 10.5909 0
    endloop
  endfacet
  facet normal -0.125446 -0.9921 0
    outer loop
      vertex 7.70407 10.7436 0
      vertex 8.10899 10.6924 3
      vertex 7.70407 10.7436 3
    endloop
  endfacet
  facet normal -0.125446 -0.9921 -0
    outer loop
      vertex 8.10899 10.6924 3
      vertex 7.70407 10.7436 0
      vertex 8.10899 10.6924 0
    endloop
  endfacet
  facet normal -0.481706 -0.876333 0
    outer loop
      vertex 8.88378 10.4407 0
      vertex 9.24144 10.2441 3
      vertex 8.88378 10.4407 3
    endloop
  endfacet
  facet normal -0.481706 -0.876333 -0
    outer loop
      vertex 9.24144 10.2441 3
      vertex 8.88378 10.4407 0
      vertex 9.24144 10.2441 0
    endloop
  endfacet
  facet normal 0.95105 -0.309037 0
    outer loop
      vertex 4.3521 8.30824 3
      vertex 4.47823 8.6964 0
      vertex 4.47823 8.6964 3
    endloop
  endfacet
  facet normal 0.95105 -0.309037 0
    outer loop
      vertex 4.47823 8.6964 0
      vertex 4.3521 8.30824 3
      vertex 4.3521 8.30824 0
    endloop
  endfacet
  facet normal 0.58779 -0.809014 0
    outer loop
      vertex 5.42837 10.0042 0
      vertex 5.75856 10.2441 3
      vertex 5.42837 10.0042 3
    endloop
  endfacet
  facet normal 0.58779 -0.809014 0
    outer loop
      vertex 5.75856 10.2441 3
      vertex 5.42837 10.0042 0
      vertex 5.75856 10.2441 0
    endloop
  endfacet
  facet normal 0.368034 -0.929812 0
    outer loop
      vertex 6.11622 10.4407 0
      vertex 6.49569 10.5909 3
      vertex 6.11622 10.4407 3
    endloop
  endfacet
  facet normal 0.368034 -0.929812 0
    outer loop
      vertex 6.49569 10.5909 3
      vertex 6.11622 10.4407 0
      vertex 6.49569 10.5909 0
    endloop
  endfacet
  facet normal 0.684547 0.728968 -0
    outer loop
      vertex 5.42837 4.99583 0
      vertex 5.13085 5.27522 3
      vertex 5.42837 4.99583 3
    endloop
  endfacet
  facet normal 0.684547 0.728968 0
    outer loop
      vertex 5.13085 5.27522 3
      vertex 5.42837 4.99583 0
      vertex 5.13085 5.27522 0
    endloop
  endfacet
  facet normal -0.248694 0.968582 0
    outer loop
      vertex 8.5043 4.40907 0
      vertex 8.10899 4.30757 3
      vertex 8.5043 4.40907 3
    endloop
  endfacet
  facet normal -0.248694 0.968582 0
    outer loop
      vertex 8.10899 4.30757 3
      vertex 8.5043 4.40907 0
      vertex 8.10899 4.30757 0
    endloop
  endfacet
  facet normal -0.481744 0.876312 0
    outer loop
      vertex 9.24144 4.75593 0
      vertex 8.88378 4.55931 3
      vertex 9.24144 4.75593 3
    endloop
  endfacet
  facet normal -0.481744 0.876312 0
    outer loop
      vertex 8.88378 4.55931 3
      vertex 9.24144 4.75593 0
      vertex 8.88378 4.55931 0
    endloop
  endfacet
  facet normal -0.951072 -0.308971 0
    outer loop
      vertex 10.6479 8.30824 0
      vertex 10.5218 8.6964 3
      vertex 10.5218 8.6964 0
    endloop
  endfacet
  facet normal -0.951072 -0.308971 0
    outer loop
      vertex 10.5218 8.6964 3
      vertex 10.6479 8.30824 0
      vertex 10.6479 8.30824 3
    endloop
  endfacet
  facet normal -0.982277 -0.187434 0
    outer loop
      vertex 10.7244 7.90733 0
      vertex 10.6479 8.30824 3
      vertex 10.6479 8.30824 0
    endloop
  endfacet
  facet normal -0.982277 -0.187434 0
    outer loop
      vertex 10.6479 8.30824 3
      vertex 10.7244 7.90733 0
      vertex 10.7244 7.90733 3
    endloop
  endfacet
  facet normal -0.904808 -0.425821 0
    outer loop
      vertex 10.5218 8.6964 0
      vertex 10.348 9.0657 3
      vertex 10.348 9.0657 0
    endloop
  endfacet
  facet normal -0.904808 -0.425821 0
    outer loop
      vertex 10.348 9.0657 3
      vertex 10.5218 8.6964 0
      vertex 10.5218 8.6964 3
    endloop
  endfacet
  facet normal -0.684586 -0.728932 0
    outer loop
      vertex 9.57163 10.0042 0
      vertex 9.86915 9.72478 3
      vertex 9.57163 10.0042 3
    endloop
  endfacet
  facet normal -0.684586 -0.728932 -0
    outer loop
      vertex 9.86915 9.72478 3
      vertex 9.57163 10.0042 0
      vertex 9.86915 9.72478 0
    endloop
  endfacet
  facet normal -0.770526 -0.637409 0
    outer loop
      vertex 10.1293 9.4103 0
      vertex 9.86915 9.72478 3
      vertex 9.86915 9.72478 0
    endloop
  endfacet
  facet normal -0.770526 -0.637409 0
    outer loop
      vertex 9.86915 9.72478 3
      vertex 10.1293 9.4103 0
      vertex 10.1293 9.4103 3
    endloop
  endfacet
  facet normal 0 -1 0
    outer loop
      vertex 7.29593 10.7436 0
      vertex 7.70407 10.7436 3
      vertex 7.29593 10.7436 3
    endloop
  endfacet
  facet normal 0 -1 -0
    outer loop
      vertex 7.70407 10.7436 3
      vertex 7.29593 10.7436 0
      vertex 7.70407 10.7436 0
    endloop
  endfacet
  facet normal -0.368026 -0.929816 0
    outer loop
      vertex 8.5043 10.5909 0
      vertex 8.88378 10.4407 3
      vertex 8.5043 10.5909 3
    endloop
  endfacet
  facet normal -0.368026 -0.929816 -0
    outer loop
      vertex 8.88378 10.4407 3
      vertex 8.5043 10.5909 0
      vertex 8.88378 10.4407 0
    endloop
  endfacet
  facet normal 0.904836 -0.42576 0
    outer loop
      vertex 4.47823 8.6964 3
      vertex 4.652 9.0657 0
      vertex 4.652 9.0657 3
    endloop
  endfacet
  facet normal 0.904836 -0.42576 0
    outer loop
      vertex 4.652 9.0657 0
      vertex 4.47823 8.6964 3
      vertex 4.47823 8.6964 0
    endloop
  endfacet
  facet normal 0.844328 -0.535827 0
    outer loop
      vertex 4.652 9.0657 3
      vertex 4.87069 9.4103 0
      vertex 4.87069 9.4103 3
    endloop
  endfacet
  facet normal 0.844328 -0.535827 0
    outer loop
      vertex 4.87069 9.4103 0
      vertex 4.652 9.0657 3
      vertex 4.652 9.0657 0
    endloop
  endfacet
  facet normal 0.982291 -0.187363 0
    outer loop
      vertex 4.27563 7.90733 3
      vertex 4.3521 8.30824 0
      vertex 4.3521 8.30824 3
    endloop
  endfacet
  facet normal 0.982291 -0.187363 0
    outer loop
      vertex 4.3521 8.30824 0
      vertex 4.27563 7.90733 3
      vertex 4.27563 7.90733 0
    endloop
  endfacet
  facet normal 0.998026 -0.0627978 0
    outer loop
      vertex 4.25 7.5 3
      vertex 4.27563 7.90733 0
      vertex 4.27563 7.90733 3
    endloop
  endfacet
  facet normal 0.998026 -0.0627978 0
    outer loop
      vertex 4.27563 7.90733 0
      vertex 4.25 7.5 3
      vertex 4.25 7.5 0
    endloop
  endfacet
  facet normal 0.998026 0.0627978 0
    outer loop
      vertex 4.27563 7.09267 3
      vertex 4.25 7.5 0
      vertex 4.25 7.5 3
    endloop
  endfacet
  facet normal 0.998026 0.0627978 0
    outer loop
      vertex 4.25 7.5 0
      vertex 4.27563 7.09267 3
      vertex 4.27563 7.09267 0
    endloop
  endfacet
  facet normal 0.684586 -0.728932 0
    outer loop
      vertex 5.13085 9.72478 0
      vertex 5.42837 10.0042 3
      vertex 5.13085 9.72478 3
    endloop
  endfacet
  facet normal 0.684586 -0.728932 0
    outer loop
      vertex 5.42837 10.0042 3
      vertex 5.13085 9.72478 0
      vertex 5.42837 10.0042 0
    endloop
  endfacet
  facet normal 0.248688 -0.968584 0
    outer loop
      vertex 6.49569 10.5909 0
      vertex 6.89101 10.6924 3
      vertex 6.49569 10.5909 3
    endloop
  endfacet
  facet normal 0.248688 -0.968584 0
    outer loop
      vertex 6.89101 10.6924 3
      vertex 6.49569 10.5909 0
      vertex 6.89101 10.6924 0
    endloop
  endfacet
  facet normal -0.998031 0.0627245 0
    outer loop
      vertex 10.7244 7.09267 0
      vertex 10.75 7.5 3
      vertex 10.75 7.5 0
    endloop
  endfacet
  facet normal -0.998031 0.0627245 0
    outer loop
      vertex 10.75 7.5 3
      vertex 10.7244 7.09267 0
      vertex 10.7244 7.09267 3
    endloop
  endfacet
  facet normal -0.951074 0.308964 0
    outer loop
      vertex 10.5218 6.30359 0
      vertex 10.6479 6.69176 3
      vertex 10.6479 6.69176 0
    endloop
  endfacet
  facet normal -0.951074 0.308964 0
    outer loop
      vertex 10.6479 6.69176 3
      vertex 10.5218 6.30359 0
      vertex 10.5218 6.30359 3
    endloop
  endfacet
  facet normal -0.982277 0.187434 0
    outer loop
      vertex 10.6479 6.69176 0
      vertex 10.7244 7.09267 3
      vertex 10.7244 7.09267 0
    endloop
  endfacet
  facet normal -0.982277 0.187434 0
    outer loop
      vertex 10.7244 7.09267 3
      vertex 10.6479 6.69176 0
      vertex 10.6479 6.69176 3
    endloop
  endfacet
  facet normal -0.58779 0.809014 0
    outer loop
      vertex 9.57163 4.99583 0
      vertex 9.24144 4.75593 3
      vertex 9.57163 4.99583 3
    endloop
  endfacet
  facet normal -0.58779 0.809014 0
    outer loop
      vertex 9.24144 4.75593 3
      vertex 9.57163 4.99583 0
      vertex 9.24144 4.75593 0
    endloop
  endfacet
  facet normal 0.58779 0.809014 -0
    outer loop
      vertex 5.75856 4.75593 0
      vertex 5.42837 4.99583 3
      vertex 5.75856 4.75593 3
    endloop
  endfacet
  facet normal 0.58779 0.809014 0
    outer loop
      vertex 5.42837 4.99583 3
      vertex 5.75856 4.75593 0
      vertex 5.42837 4.99583 0
    endloop
  endfacet
  facet normal 0.770514 0.637423 0
    outer loop
      vertex 5.13085 5.27522 3
      vertex 4.87069 5.5897 0
      vertex 4.87069 5.5897 3
    endloop
  endfacet
  facet normal 0.770514 0.637423 0
    outer loop
      vertex 4.87069 5.5897 0
      vertex 5.13085 5.27522 3
      vertex 5.13085 5.27522 0
    endloop
  endfacet
  facet normal 0.904831 0.42577 0
    outer loop
      vertex 4.652 5.9343 3
      vertex 4.47823 6.30359 0
      vertex 4.47823 6.30359 3
    endloop
  endfacet
  facet normal 0.904831 0.42577 0
    outer loop
      vertex 4.47823 6.30359 0
      vertex 4.652 5.9343 3
      vertex 4.652 5.9343 0
    endloop
  endfacet
  facet normal -0.684547 0.728968 0
    outer loop
      vertex 9.86915 5.27522 0
      vertex 9.57163 4.99583 3
      vertex 9.86915 5.27522 3
    endloop
  endfacet
  facet normal -0.684547 0.728968 0
    outer loop
      vertex 9.57163 4.99583 3
      vertex 9.86915 5.27522 0
      vertex 9.57163 4.99583 0
    endloop
  endfacet
  facet normal -0.36811 0.929782 0
    outer loop
      vertex 8.88378 4.55931 0
      vertex 8.5043 4.40907 3
      vertex 8.88378 4.55931 3
    endloop
  endfacet
  facet normal -0.36811 0.929782 0
    outer loop
      vertex 8.5043 4.40907 3
      vertex 8.88378 4.55931 0
      vertex 8.5043 4.40907 0
    endloop
  endfacet
  facet normal -0.904803 0.42583 0
    outer loop
      vertex 10.348 5.9343 0
      vertex 10.5218 6.30359 3
      vertex 10.5218 6.30359 0
    endloop
  endfacet
  facet normal -0.904803 0.42583 0
    outer loop
      vertex 10.5218 6.30359 3
      vertex 10.348 5.9343 0
      vertex 10.348 5.9343 3
    endloop
  endfacet
  facet normal -0.844317 0.535845 0
    outer loop
      vertex 10.1293 5.5897 0
      vertex 10.348 5.9343 3
      vertex 10.348 5.9343 0
    endloop
  endfacet
  facet normal -0.844317 0.535845 0
    outer loop
      vertex 10.348 5.9343 3
      vertex 10.1293 5.5897 0
      vertex 10.1293 5.5897 3
    endloop
  endfacet
  facet normal 0 1 -0
    outer loop
      vertex 7.70407 4.25641 0
      vertex 7.29593 4.25641 3
      vertex 7.70407 4.25641 3
    endloop
  endfacet
  facet normal 0 1 0
    outer loop
      vertex 7.29593 4.25641 3
      vertex 7.70407 4.25641 0
      vertex 7.29593 4.25641 0
    endloop
  endfacet
  facet normal 0.368119 0.929779 -0
    outer loop
      vertex 6.49569 4.40907 0
      vertex 6.11622 4.55931 3
      vertex 6.49569 4.40907 3
    endloop
  endfacet
  facet normal 0.368119 0.929779 0
    outer loop
      vertex 6.11622 4.55931 3
      vertex 6.49569 4.40907 0
      vertex 6.11622 4.55931 0
    endloop
  endfacet
  facet normal 0.481744 0.876312 -0
    outer loop
      vertex 6.11622 4.55931 0
      vertex 5.75856 4.75593 3
      vertex 6.11622 4.55931 3
    endloop
  endfacet
  facet normal 0.481744 0.876312 0
    outer loop
      vertex 5.75856 4.75593 3
      vertex 6.11622 4.55931 0
      vertex 5.75856 4.75593 0
    endloop
  endfacet
  facet normal 0.125349 0.992113 -0
    outer loop
      vertex 7.29593 4.25641 0
      vertex 6.89101 4.30757 3
      vertex 7.29593 4.25641 3
    endloop
  endfacet
  facet normal 0.125349 0.992113 0
    outer loop
      vertex 6.89101 4.30757 3
      vertex 7.29593 4.25641 0
      vertex 6.89101 4.30757 0
    endloop
  endfacet
  facet normal 0.844328 0.535827 0
    outer loop
      vertex 4.87069 5.5897 3
      vertex 4.652 5.9343 0
      vertex 4.652 5.9343 3
    endloop
  endfacet
  facet normal 0.844328 0.535827 0
    outer loop
      vertex 4.652 5.9343 0
      vertex 4.87069 5.5897 3
      vertex 4.87069 5.5897 0
    endloop
  endfacet
  facet normal 0.951052 0.30903 0
    outer loop
      vertex 4.47823 6.30359 3
      vertex 4.3521 6.69176 0
      vertex 4.3521 6.69176 3
    endloop
  endfacet
  facet normal 0.951052 0.30903 0
    outer loop
      vertex 4.3521 6.69176 0
      vertex 4.47823 6.30359 3
      vertex 4.47823 6.30359 0
    endloop
  endfacet
  facet normal 0.982291 0.187363 0
    outer loop
      vertex 4.3521 6.69176 3
      vertex 4.27563 7.09267 0
      vertex 4.27563 7.09267 3
    endloop
  endfacet
  facet normal 0.982291 0.187363 0
    outer loop
      vertex 4.27563 7.09267 0
      vertex 4.3521 6.69176 3
      vertex 4.3521 6.69176 0
    endloop
  endfacet
  facet normal -0.770526 0.637409 0
    outer loop
      vertex 9.86915 5.27522 0
      vertex 10.1293 5.5897 3
      vertex 10.1293 5.5897 0
    endloop
  endfacet
  facet normal -0.770526 0.637409 0
    outer loop
      vertex 10.1293 5.5897 3
      vertex 9.86915 5.27522 0
      vertex 9.86915 5.27522 3
    endloop
  endfacet
  facet normal 0.248688 0.968584 -0
    outer loop
      vertex 6.89101 4.30757 0
      vertex 6.49569 4.40907 3
      vertex 6.89101 4.30757 3
    endloop
  endfacet
  facet normal 0.248688 0.968584 0
    outer loop
      vertex 6.49569 4.40907 3
      vertex 6.89101 4.30757 0
      vertex 6.49569 4.40907 0
    endloop
  endfacet
  facet normal -0.998031 -0.0627245 0
    outer loop
      vertex 25.75 7.5 0
      vertex 25.7244 7.90733 3
      vertex 25.7244 7.90733 0
    endloop
  endfacet
  facet normal -0.998031 -0.0627245 0
    outer loop
      vertex 25.7244 7.90733 3
      vertex 25.75 7.5 0
      vertex 25.75 7.5 3
    endloop
  endfacet
  facet normal 0.125452 -0.9921 0
    outer loop
      vertex 21.891 10.6924 0
      vertex 22.2959 10.7436 3
      vertex 21.891 10.6924 3
    endloop
  endfacet
  facet normal 0.125452 -0.9921 0
    outer loop
      vertex 22.2959 10.7436 3
      vertex 21.891 10.6924 0
      vertex 22.2959 10.7436 0
    endloop
  endfacet
  facet normal -0.125356 0.992112 0
    outer loop
      vertex 23.109 4.30757 0
      vertex 22.7041 4.25641 3
      vertex 23.109 4.30757 3
    endloop
  endfacet
  facet normal -0.125356 0.992112 0
    outer loop
      vertex 22.7041 4.25641 3
      vertex 23.109 4.30757 0
      vertex 22.7041 4.25641 0
    endloop
  endfacet
  facet normal -0.587778 -0.809022 0
    outer loop
      vertex 24.2414 10.2441 0
      vertex 24.5716 10.0042 3
      vertex 24.2414 10.2441 3
    endloop
  endfacet
  facet normal -0.587778 -0.809022 -0
    outer loop
      vertex 24.5716 10.0042 3
      vertex 24.2414 10.2441 0
      vertex 24.5716 10.0042 0
    endloop
  endfacet
  facet normal 0.770466 -0.637481 0
    outer loop
      vertex 19.8707 9.4103 3
      vertex 20.1309 9.72478 0
      vertex 20.1309 9.72478 3
    endloop
  endfacet
  facet normal 0.770466 -0.637481 0
    outer loop
      vertex 20.1309 9.72478 0
      vertex 19.8707 9.4103 3
      vertex 19.8707 9.4103 0
    endloop
  endfacet
  facet normal 0.481768 -0.876299 0
    outer loop
      vertex 20.7586 10.2441 0
      vertex 21.1162 10.4407 3
      vertex 20.7586 10.2441 3
    endloop
  endfacet
  facet normal 0.481768 -0.876299 0
    outer loop
      vertex 21.1162 10.4407 3
      vertex 20.7586 10.2441 0
      vertex 21.1162 10.4407 0
    endloop
  endfacet
  facet normal -0.844317 -0.535845 0
    outer loop
      vertex 25.348 9.0657 0
      vertex 25.1293 9.4103 3
      vertex 25.1293 9.4103 0
    endloop
  endfacet
  facet normal -0.844317 -0.535845 0
    outer loop
      vertex 25.1293 9.4103 3
      vertex 25.348 9.0657 0
      vertex 25.348 9.0657 3
    endloop
  endfacet
  facet normal -0.2487 -0.968581 0
    outer loop
      vertex 23.109 10.6924 0
      vertex 23.5043 10.5909 3
      vertex 23.109 10.6924 3
    endloop
  endfacet
  facet normal -0.2487 -0.968581 -0
    outer loop
      vertex 23.5043 10.5909 3
      vertex 23.109 10.6924 0
      vertex 23.5043 10.5909 0
    endloop
  endfacet
  facet normal -0.125452 -0.9921 0
    outer loop
      vertex 22.7041 10.7436 0
      vertex 23.109 10.6924 3
      vertex 22.7041 10.7436 3
    endloop
  endfacet
  facet normal -0.125452 -0.9921 -0
    outer loop
      vertex 23.109 10.6924 3
      vertex 22.7041 10.7436 0
      vertex 23.109 10.6924 0
    endloop
  endfacet
  facet normal -0.481768 -0.876299 0
    outer loop
      vertex 23.8838 10.4407 0
      vertex 24.2414 10.2441 3
      vertex 23.8838 10.4407 3
    endloop
  endfacet
  facet normal -0.481768 -0.876299 -0
    outer loop
      vertex 24.2414 10.2441 3
      vertex 23.8838 10.4407 0
      vertex 24.2414 10.2441 0
    endloop
  endfacet
  facet normal 0.951072 -0.308971 0
    outer loop
      vertex 19.3521 8.30824 3
      vertex 19.4782 8.6964 0
      vertex 19.4782 8.6964 3
    endloop
  endfacet
  facet normal 0.951072 -0.308971 0
    outer loop
      vertex 19.4782 8.6964 0
      vertex 19.3521 8.30824 3
      vertex 19.3521 8.30824 0
    endloop
  endfacet
  facet normal 0.904808 -0.425821 0
    outer loop
      vertex 19.4782 8.6964 3
      vertex 19.652 9.0657 0
      vertex 19.652 9.0657 3
    endloop
  endfacet
  facet normal 0.904808 -0.425821 0
    outer loop
      vertex 19.652 9.0657 0
      vertex 19.4782 8.6964 3
      vertex 19.4782 8.6964 0
    endloop
  endfacet
  facet normal 0.587778 -0.809022 0
    outer loop
      vertex 20.4284 10.0042 0
      vertex 20.7586 10.2441 3
      vertex 20.4284 10.0042 3
    endloop
  endfacet
  facet normal 0.587778 -0.809022 0
    outer loop
      vertex 20.7586 10.2441 3
      vertex 20.4284 10.0042 0
      vertex 20.7586 10.2441 0
    endloop
  endfacet
  facet normal 0.368009 -0.929822 0
    outer loop
      vertex 21.1162 10.4407 0
      vertex 21.4957 10.5909 3
      vertex 21.1162 10.4407 3
    endloop
  endfacet
  facet normal 0.368009 -0.929822 0
    outer loop
      vertex 21.4957 10.5909 3
      vertex 21.1162 10.4407 0
      vertex 21.4957 10.5909 0
    endloop
  endfacet
  facet normal -0.2487 0.968581 0
    outer loop
      vertex 23.5043 4.40907 0
      vertex 23.109 4.30757 3
      vertex 23.5043 4.40907 3
    endloop
  endfacet
  facet normal -0.2487 0.968581 0
    outer loop
      vertex 23.109 4.30757 3
      vertex 23.5043 4.40907 0
      vertex 23.109 4.30757 0
    endloop
  endfacet
  facet normal -0.951072 -0.308971 0
    outer loop
      vertex 25.6479 8.30824 0
      vertex 25.5218 8.6964 3
      vertex 25.5218 8.6964 0
    endloop
  endfacet
  facet normal -0.951072 -0.308971 0
    outer loop
      vertex 25.5218 8.6964 3
      vertex 25.6479 8.30824 0
      vertex 25.6479 8.30824 3
    endloop
  endfacet
  facet normal -0.982277 -0.187434 0
    outer loop
      vertex 25.7244 7.90733 0
      vertex 25.6479 8.30824 3
      vertex 25.6479 8.30824 0
    endloop
  endfacet
  facet normal -0.982277 -0.187434 0
    outer loop
      vertex 25.6479 8.30824 3
      vertex 25.7244 7.90733 0
      vertex 25.7244 7.90733 3
    endloop
  endfacet
  facet normal -0.904808 -0.425821 0
    outer loop
      vertex 25.5218 8.6964 0
      vertex 25.348 9.0657 3
      vertex 25.348 9.0657 0
    endloop
  endfacet
  facet normal -0.904808 -0.425821 0
    outer loop
      vertex 25.348 9.0657 3
      vertex 25.5218 8.6964 0
      vertex 25.5218 8.6964 3
    endloop
  endfacet
  facet normal -0.684611 -0.728909 0
    outer loop
      vertex 24.5716 10.0042 0
      vertex 24.8691 9.72478 3
      vertex 24.5716 10.0042 3
    endloop
  endfacet
  facet normal -0.684611 -0.728909 -0
    outer loop
      vertex 24.8691 9.72478 3
      vertex 24.5716 10.0042 0
      vertex 24.8691 9.72478 0
    endloop
  endfacet
  facet normal -0.770466 -0.637481 0
    outer loop
      vertex 25.1293 9.4103 0
      vertex 24.8691 9.72478 3
      vertex 24.8691 9.72478 0
    endloop
  endfacet
  facet normal -0.770466 -0.637481 0
    outer loop
      vertex 24.8691 9.72478 3
      vertex 25.1293 9.4103 0
      vertex 25.1293 9.4103 3
    endloop
  endfacet
  facet normal 0 -1 0
    outer loop
      vertex 22.2959 10.7436 0
      vertex 22.7041 10.7436 3
      vertex 22.2959 10.7436 3
    endloop
  endfacet
  facet normal 0 -1 -0
    outer loop
      vertex 22.7041 10.7436 3
      vertex 22.2959 10.7436 0
      vertex 22.7041 10.7436 0
    endloop
  endfacet
  facet normal -0.368009 -0.929822 0
    outer loop
      vertex 23.5043 10.5909 0
      vertex 23.8838 10.4407 3
      vertex 23.5043 10.5909 3
    endloop
  endfacet
  facet normal -0.368009 -0.929822 -0
    outer loop
      vertex 23.8838 10.4407 3
      vertex 23.5043 10.5909 0
      vertex 23.8838 10.4407 0
    endloop
  endfacet
  facet normal 0.844317 -0.535845 0
    outer loop
      vertex 19.652 9.0657 3
      vertex 19.8707 9.4103 0
      vertex 19.8707 9.4103 3
    endloop
  endfacet
  facet normal 0.844317 -0.535845 0
    outer loop
      vertex 19.8707 9.4103 0
      vertex 19.652 9.0657 3
      vertex 19.652 9.0657 0
    endloop
  endfacet
  facet normal 0.998031 -0.0627245 0
    outer loop
      vertex 19.25 7.5 3
      vertex 19.2756 7.90733 0
      vertex 19.2756 7.90733 3
    endloop
  endfacet
  facet normal 0.998031 -0.0627245 0
    outer loop
      vertex 19.2756 7.90733 0
      vertex 19.25 7.5 3
      vertex 19.25 7.5 0
    endloop
  endfacet
  facet normal 0.998031 0.0627245 0
    outer loop
      vertex 19.2756 7.09267 3
      vertex 19.25 7.5 0
      vertex 19.25 7.5 3
    endloop
  endfacet
  facet normal 0.998031 0.0627245 0
    outer loop
      vertex 19.25 7.5 0
      vertex 19.2756 7.09267 3
      vertex 19.2756 7.09267 0
    endloop
  endfacet
  facet normal 0.2487 -0.968581 0
    outer loop
      vertex 21.4957 10.5909 0
      vertex 21.891 10.6924 3
      vertex 21.4957 10.5909 3
    endloop
  endfacet
  facet normal 0.2487 -0.968581 0
    outer loop
      vertex 21.891 10.6924 3
      vertex 21.4957 10.5909 0
      vertex 21.891 10.6924 0
    endloop
  endfacet
  facet normal -0.998031 0.0627245 0
    outer loop
      vertex 25.7244 7.09267 0
      vertex 25.75 7.5 3
      vertex 25.75 7.5 0
    endloop
  endfacet
  facet normal -0.998031 0.0627245 0
    outer loop
      vertex 25.75 7.5 3
      vertex 25.7244 7.09267 0
      vertex 25.7244 7.09267 3
    endloop
  endfacet
  facet normal -0.951074 0.308964 0
    outer loop
      vertex 25.5218 6.30359 0
      vertex 25.6479 6.69176 3
      vertex 25.6479 6.69176 0
    endloop
  endfacet
  facet normal -0.951074 0.308964 0
    outer loop
      vertex 25.6479 6.69176 3
      vertex 25.5218 6.30359 0
      vertex 25.5218 6.30359 3
    endloop
  endfacet
  facet normal -0.982277 0.187434 0
    outer loop
      vertex 25.6479 6.69176 0
      vertex 25.7244 7.09267 3
      vertex 25.7244 7.09267 0
    endloop
  endfacet
  facet normal -0.982277 0.187434 0
    outer loop
      vertex 25.7244 7.09267 3
      vertex 25.6479 6.69176 0
      vertex 25.6479 6.69176 3
    endloop
  endfacet
  facet normal 0.844317 0.535845 0
    outer loop
      vertex 19.8707 5.5897 3
      vertex 19.652 5.9343 0
      vertex 19.652 5.9343 3
    endloop
  endfacet
  facet normal 0.844317 0.535845 0
    outer loop
      vertex 19.652 5.9343 0
      vertex 19.8707 5.5897 3
      vertex 19.8707 5.5897 0
    endloop
  endfacet
  facet normal -0.587778 0.809022 0
    outer loop
      vertex 24.5716 4.99583 0
      vertex 24.2414 4.75593 3
      vertex 24.5716 4.99583 3
    endloop
  endfacet
  facet normal -0.587778 0.809022 0
    outer loop
      vertex 24.2414 4.75593 3
      vertex 24.5716 4.99583 0
      vertex 24.2414 4.75593 0
    endloop
  endfacet
  facet normal -0.481806 0.876278 0
    outer loop
      vertex 24.2414 4.75593 0
      vertex 23.8838 4.55931 3
      vertex 24.2414 4.75593 3
    endloop
  endfacet
  facet normal -0.481806 0.876278 0
    outer loop
      vertex 23.8838 4.55931 3
      vertex 24.2414 4.75593 0
      vertex 23.8838 4.55931 0
    endloop
  endfacet
  facet normal 0.982277 -0.187434 0
    outer loop
      vertex 19.2756 7.90733 3
      vertex 19.3521 8.30824 0
      vertex 19.3521 8.30824 3
    endloop
  endfacet
  facet normal 0.982277 -0.187434 0
    outer loop
      vertex 19.3521 8.30824 0
      vertex 19.2756 7.90733 3
      vertex 19.2756 7.90733 0
    endloop
  endfacet
  facet normal 0.684611 -0.728909 0
    outer loop
      vertex 20.1309 9.72478 0
      vertex 20.4284 10.0042 3
      vertex 20.1309 9.72478 3
    endloop
  endfacet
  facet normal 0.684611 -0.728909 0
    outer loop
      vertex 20.4284 10.0042 3
      vertex 20.1309 9.72478 0
      vertex 20.4284 10.0042 0
    endloop
  endfacet
  facet normal 0.587778 0.809022 -0
    outer loop
      vertex 20.7586 4.75593 0
      vertex 20.4284 4.99583 3
      vertex 20.7586 4.75593 3
    endloop
  endfacet
  facet normal 0.587778 0.809022 0
    outer loop
      vertex 20.4284 4.99583 3
      vertex 20.7586 4.75593 0
      vertex 20.4284 4.99583 0
    endloop
  endfacet
  facet normal 0.904803 0.42583 0
    outer loop
      vertex 19.652 5.9343 3
      vertex 19.4782 6.30359 0
      vertex 19.4782 6.30359 3
    endloop
  endfacet
  facet normal 0.904803 0.42583 0
    outer loop
      vertex 19.4782 6.30359 0
      vertex 19.652 5.9343 3
      vertex 19.652 5.9343 0
    endloop
  endfacet
  facet normal -0.684572 0.728946 0
    outer loop
      vertex 24.8691 5.27522 0
      vertex 24.5716 4.99583 3
      vertex 24.8691 5.27522 3
    endloop
  endfacet
  facet normal -0.684572 0.728946 0
    outer loop
      vertex 24.5716 4.99583 3
      vertex 24.8691 5.27522 0
      vertex 24.5716 4.99583 0
    endloop
  endfacet
  facet normal -0.368093 0.929789 0
    outer loop
      vertex 23.8838 4.55931 0
      vertex 23.5043 4.40907 3
      vertex 23.8838 4.55931 3
    endloop
  endfacet
  facet normal -0.368093 0.929789 0
    outer loop
      vertex 23.5043 4.40907 3
      vertex 23.8838 4.55931 0
      vertex 23.5043 4.40907 0
    endloop
  endfacet
  facet normal -0.904803 0.42583 0
    outer loop
      vertex 25.348 5.9343 0
      vertex 25.5218 6.30359 3
      vertex 25.5218 6.30359 0
    endloop
  endfacet
  facet normal -0.904803 0.42583 0
    outer loop
      vertex 25.5218 6.30359 3
      vertex 25.348 5.9343 0
      vertex 25.348 5.9343 3
    endloop
  endfacet
  facet normal -0.844317 0.535845 0
    outer loop
      vertex 25.1293 5.5897 0
      vertex 25.348 5.9343 3
      vertex 25.348 5.9343 0
    endloop
  endfacet
  facet normal -0.844317 0.535845 0
    outer loop
      vertex 25.348 5.9343 3
      vertex 25.1293 5.5897 0
      vertex 25.1293 5.5897 3
    endloop
  endfacet
  facet normal 0 1 -0
    outer loop
      vertex 22.7041 4.25641 0
      vertex 22.2959 4.25641 3
      vertex 22.7041 4.25641 3
    endloop
  endfacet
  facet normal 0 1 0
    outer loop
      vertex 22.2959 4.25641 3
      vertex 22.7041 4.25641 0
      vertex 22.2959 4.25641 0
    endloop
  endfacet
  facet normal 0.368093 0.929789 -0
    outer loop
      vertex 21.4957 4.40907 0
      vertex 21.1162 4.55931 3
      vertex 21.4957 4.40907 3
    endloop
  endfacet
  facet normal 0.368093 0.929789 0
    outer loop
      vertex 21.1162 4.55931 3
      vertex 21.4957 4.40907 0
      vertex 21.1162 4.55931 0
    endloop
  endfacet
  facet normal 0.481806 0.876278 -0
    outer loop
      vertex 21.1162 4.55931 0
      vertex 20.7586 4.75593 3
      vertex 21.1162 4.55931 3
    endloop
  endfacet
  facet normal 0.481806 0.876278 0
    outer loop
      vertex 20.7586 4.75593 3
      vertex 21.1162 4.55931 0
      vertex 20.7586 4.75593 0
    endloop
  endfacet
  facet normal 0.125356 0.992112 -0
    outer loop
      vertex 22.2959 4.25641 0
      vertex 21.891 4.30757 3
      vertex 22.2959 4.25641 3
    endloop
  endfacet
  facet normal 0.125356 0.992112 0
    outer loop
      vertex 21.891 4.30757 3
      vertex 22.2959 4.25641 0
      vertex 21.891 4.30757 0
    endloop
  endfacet
  facet normal 0.684572 0.728946 -0
    outer loop
      vertex 20.4284 4.99583 0
      vertex 20.1309 5.27522 3
      vertex 20.4284 4.99583 3
    endloop
  endfacet
  facet normal 0.684572 0.728946 0
    outer loop
      vertex 20.1309 5.27522 3
      vertex 20.4284 4.99583 0
      vertex 20.1309 5.27522 0
    endloop
  endfacet
  facet normal 0.770466 0.637481 0
    outer loop
      vertex 20.1309 5.27522 3
      vertex 19.8707 5.5897 0
      vertex 19.8707 5.5897 3
    endloop
  endfacet
  facet normal 0.770466 0.637481 0
    outer loop
      vertex 19.8707 5.5897 0
      vertex 20.1309 5.27522 3
      vertex 20.1309 5.27522 0
    endloop
  endfacet
  facet normal 0.951074 0.308964 0
    outer loop
      vertex 19.4782 6.30359 3
      vertex 19.3521 6.69176 0
      vertex 19.3521 6.69176 3
    endloop
  endfacet
  facet normal 0.951074 0.308964 0
    outer loop
      vertex 19.3521 6.69176 0
      vertex 19.4782 6.30359 3
      vertex 19.4782 6.30359 0
    endloop
  endfacet
  facet normal 0.982277 0.187434 0
    outer loop
      vertex 19.3521 6.69176 3
      vertex 19.2756 7.09267 0
      vertex 19.2756 7.09267 3
    endloop
  endfacet
  facet normal 0.982277 0.187434 0
    outer loop
      vertex 19.2756 7.09267 0
      vertex 19.3521 6.69176 3
      vertex 19.3521 6.69176 0
    endloop
  endfacet
  facet normal -0.770466 0.637481 0
    outer loop
      vertex 24.8691 5.27522 0
      vertex 25.1293 5.5897 3
      vertex 25.1293 5.5897 0
    endloop
  endfacet
  facet normal -0.770466 0.637481 0
    outer loop
      vertex 25.1293 5.5897 3
      vertex 24.8691 5.27522 0
      vertex 24.8691 5.27522 3
    endloop
  endfacet
  facet normal 0.2487 0.968581 -0
    outer loop
      vertex 21.891 4.30757 0
      vertex 21.4957 4.40907 3
      vertex 21.891 4.30757 3
    endloop
  endfacet
  facet normal 0.2487 0.968581 0
    outer loop
      vertex 21.4957 4.40907 3
      vertex 21.891 4.30757 0
      vertex 21.4957 4.40907 0
    endloop
  endfacet
  facet normal -1 0 0
    outer loop
      vertex 0.5 5.5 0
      vertex 0.5 9.5 3
      vertex 0.5 9.5 0
    endloop
  endfacet
  facet normal -1 -0 0
    outer loop
      vertex 0.5 9.5 3
      vertex 0.5 5.5 0
      vertex 0.5 5.5 3
    endloop
  endfacet
  facet normal -0.684549 -0.728967 0
    outer loop
      vertex 1.85516 2.07726 0
      vertex 2.31288 1.64743 3
      vertex 1.85516 2.07726 3
    endloop
  endfacet
  facet normal -0.684549 -0.728967 -0
    outer loop
      vertex 2.31288 1.64743 3
      vertex 1.85516 2.07726 0
      vertex 2.31288 1.64743 0
    endloop
  endfacet
  facet normal 0 0 1
    outer loop
      vertex 25.5218 8.6964 3
      vertex 29.5 9.5 3
      vertex 29.4606 10.1267 3
    endloop
  endfacet
  facet normal 0 0 1
    outer loop
      vertex 29.5 9.5 3
      vertex 25.75 7.5 3
      vertex 29.5 5.5 3
    endloop
  endfacet
  facet normal 0 0 1
    outer loop
      vertex 25.348 9.0657 3
      vertex 29.4606 10.1267 3
      vertex 29.3429 10.7434 3
    endloop
  endfacet
  facet normal -0 0 1
    outer loop
      vertex 25.7244 7.09267 3
      vertex 29.5 5.5 3
      vertex 25.75 7.5 3
    endloop
  endfacet
  facet normal 0 0 1
    outer loop
      vertex 25.348 9.0657 3
      vertex 29.3429 10.7434 3
      vertex 29.1489 11.3406 3
    endloop
  endfacet
  facet normal -0 0 1
    outer loop
      vertex 25.6479 6.69176 3
      vertex 29.5 5.5 3
      vertex 25.7244 7.09267 3
    endloop
  endfacet
  facet normal 0 0 1
    outer loop
      vertex 25.1293 9.4103 3
      vertex 29.1489 11.3406 3
      vertex 28.8815 11.9088 3
    endloop
  endfacet
  facet normal -0 0 1
    outer loop
      vertex 25.5218 6.30359 3
      vertex 29.5 5.5 3
      vertex 25.6479 6.69176 3
    endloop
  endfacet
  facet normal 0 0 1
    outer loop
      vertex 25.1293 9.4103 3
      vertex 28.8815 11.9088 3
      vertex 28.5451 12.4389 3
    endloop
  endfacet
  facet normal 0 0 1
    outer loop
      vertex 29.5 5.5 3
      vertex 25.5218 6.30359 3
      vertex 29.4606 4.87333 3
    endloop
  endfacet
  facet normal 0 0 1
    outer loop
      vertex 24.8691 9.72478 3
      vertex 28.5451 12.4389 3
      vertex 28.1448 12.9227 3
    endloop
  endfacet
  facet normal -0 0 1
    outer loop
      vertex 25.348 5.9343 3
      vertex 29.4606 4.87333 3
      vertex 25.5218 6.30359 3
    endloop
  endfacet
  facet normal 0 0 1
    outer loop
      vertex 24.8691 9.72478 3
      vertex 28.1448 12.9227 3
      vertex 27.6871 13.3526 3
    endloop
  endfacet
  facet normal 0 0 1
    outer loop
      vertex 29.4606 4.87333 3
      vertex 25.348 5.9343 3
      vertex 29.3429 4.25655 3
    endloop
  endfacet
  facet normal 0 0 1
    outer loop
      vertex 24.5716 10.0042 3
      vertex 27.6871 13.3526 3
      vertex 27.1791 13.7216 3
    endloop
  endfacet
  facet normal 0 0 1
    outer loop
      vertex 29.3429 4.25655 3
      vertex 25.348 5.9343 3
      vertex 29.1489 3.65938 3
    endloop
  endfacet
  facet normal 0 0 1
    outer loop
      vertex 24.5716 10.0042 3
      vertex 27.1791 13.7216 3
      vertex 26.6289 14.0241 3
    endloop
  endfacet
  facet normal -0 0 1
    outer loop
      vertex 25.1293 5.5897 3
      vertex 29.1489 3.65938 3
      vertex 25.348 5.9343 3
    endloop
  endfacet
  facet normal 0 0 1
    outer loop
      vertex 24.2414 10.2441 3
      vertex 26.6289 14.0241 3
      vertex 26.0451 14.2553 3
    endloop
  endfacet
  facet normal 0 0 1
    outer loop
      vertex 29.1489 3.65938 3
      vertex 25.1293 5.5897 3
      vertex 28.8815 3.09123 3
    endloop
  endfacet
  facet normal 0 0 1
    outer loop
      vertex 28.8815 3.09123 3
      vertex 25.1293 5.5897 3
      vertex 28.5451 2.56107 3
    endloop
  endfacet
  facet normal 0 0 1
    outer loop
      vertex 29.5 9.5 3
      vertex 25.7244 7.90733 3
      vertex 25.75 7.5 3
    endloop
  endfacet
  facet normal 0 0 1
    outer loop
      vertex 29.5 9.5 3
      vertex 25.6479 8.30824 3
      vertex 25.7244 7.90733 3
    endloop
  endfacet
  facet normal 0 0 1
    outer loop
      vertex 29.5 9.5 3
      vertex 25.5218 8.6964 3
      vertex 25.6479 8.30824 3
    endloop
  endfacet
  facet normal 0 0 1
    outer loop
      vertex 24.2414 10.2441 3
      vertex 26.0451 14.2553 3
      vertex 25.4369 14.4114 3
    endloop
  endfacet
  facet normal 0 0 1
    outer loop
      vertex 29.4606 10.1267 3
      vertex 25.348 9.0657 3
      vertex 25.5218 8.6964 3
    endloop
  endfacet
  facet normal 0 0 1
    outer loop
      vertex 29.1489 11.3406 3
      vertex 25.1293 9.4103 3
      vertex 25.348 9.0657 3
    endloop
  endfacet
  facet normal 0 0 1
    outer loop
      vertex 28.5451 12.4389 3
      vertex 24.8691 9.72478 3
      vertex 25.1293 9.4103 3
    endloop
  endfacet
  facet normal 0 0 1
    outer loop
      vertex 23.8838 10.4407 3
      vertex 25.4369 14.4114 3
      vertex 24.814 14.4901 3
    endloop
  endfacet
  facet normal 0 0 1
    outer loop
      vertex 27.6871 13.3526 3
      vertex 24.5716 10.0042 3
      vertex 24.8691 9.72478 3
    endloop
  endfacet
  facet normal 0 0 1
    outer loop
      vertex 26.6289 14.0241 3
      vertex 24.2414 10.2441 3
      vertex 24.5716 10.0042 3
    endloop
  endfacet
  facet normal 0 0 1
    outer loop
      vertex 25.4369 14.4114 3
      vertex 23.8838 10.4407 3
      vertex 24.2414 10.2441 3
    endloop
  endfacet
  facet normal 0 0 1
    outer loop
      vertex 24.814 14.4901 3
      vertex 23.5043 10.5909 3
      vertex 23.8838 10.4407 3
    endloop
  endfacet
  facet normal 0 0 1
    outer loop
      vertex 24.814 14.4901 3
      vertex 23.109 10.6924 3
      vertex 23.5043 10.5909 3
    endloop
  endfacet
  facet normal 0 0 1
    outer loop
      vertex 24.814 14.4901 3
      vertex 22.7041 10.7436 3
      vertex 23.109 10.6924 3
    endloop
  endfacet
  facet normal 0 0 1
    outer loop
      vertex 24.814 14.4901 3
      vertex 22.2959 10.7436 3
      vertex 22.7041 10.7436 3
    endloop
  endfacet
  facet normal 0 0 1
    outer loop
      vertex 24.814 14.4901 3
      vertex 21.891 10.6924 3
      vertex 22.2959 10.7436 3
    endloop
  endfacet
  facet normal 0 0 1
    outer loop
      vertex 24.814 14.4901 3
      vertex 21.4957 10.5909 3
      vertex 21.891 10.6924 3
    endloop
  endfacet
  facet normal 0 0 1
    outer loop
      vertex 24.814 14.4901 3
      vertex 21.1162 10.4407 3
      vertex 21.4957 10.5909 3
    endloop
  endfacet
  facet normal 0 0 1
    outer loop
      vertex 24.814 14.4901 3
      vertex 20.7586 10.2441 3
      vertex 21.1162 10.4407 3
    endloop
  endfacet
  facet normal 0 0 1
    outer loop
      vertex 9.24144 10.2441 3
      vertex 20.7586 10.2441 3
      vertex 24.814 14.4901 3
    endloop
  endfacet
  facet normal 0 0 1
    outer loop
      vertex 20.7586 10.2441 3
      vertex 9.24144 10.2441 3
      vertex 20.4284 10.0042 3
    endloop
  endfacet
  facet normal 0 0 1
    outer loop
      vertex 19.2756 7.90733 3
      vertex 10.75 7.5 3
      vertex 19.25 7.5 3
    endloop
  endfacet
  facet normal 0 0 1
    outer loop
      vertex 10.7244 7.90733 3
      vertex 19.2756 7.90733 3
      vertex 19.3521 8.30824 3
    endloop
  endfacet
  facet normal 0 0 1
    outer loop
      vertex 10.6479 8.30824 3
      vertex 19.3521 8.30824 3
      vertex 19.4782 8.6964 3
    endloop
  endfacet
  facet normal 0 0 1
    outer loop
      vertex 10.5218 8.6964 3
      vertex 19.4782 8.6964 3
      vertex 19.652 9.0657 3
    endloop
  endfacet
  facet normal 0 0 1
    outer loop
      vertex 10.348 9.0657 3
      vertex 19.652 9.0657 3
      vertex 19.8707 9.4103 3
    endloop
  endfacet
  facet normal 0 0 1
    outer loop
      vertex 10.1293 9.4103 3
      vertex 19.8707 9.4103 3
      vertex 20.1309 9.72478 3
    endloop
  endfacet
  facet normal 0 -0 1
    outer loop
      vertex 9.57163 10.0042 3
      vertex 20.4284 10.0042 3
      vertex 9.24144 10.2441 3
    endloop
  endfacet
  facet normal 0 0 1
    outer loop
      vertex 19.2756 7.90733 3
      vertex 10.7244 7.90733 3
      vertex 10.75 7.5 3
    endloop
  endfacet
  facet normal 0 0 1
    outer loop
      vertex 19.3521 8.30824 3
      vertex 10.6479 8.30824 3
      vertex 10.7244 7.90733 3
    endloop
  endfacet
  facet normal 0 0 1
    outer loop
      vertex 19.4782 8.6964 3
      vertex 10.5218 8.6964 3
      vertex 10.6479 8.30824 3
    endloop
  endfacet
  facet normal 0 0 1
    outer loop
      vertex 19.652 9.0657 3
      vertex 10.348 9.0657 3
      vertex 10.5218 8.6964 3
    endloop
  endfacet
  facet normal 0 0 1
    outer loop
      vertex 19.8707 9.4103 3
      vertex 10.1293 9.4103 3
      vertex 10.348 9.0657 3
    endloop
  endfacet
  facet normal 0 0 1
    outer loop
      vertex 20.1309 9.72478 3
      vertex 9.86915 9.72478 3
      vertex 10.1293 9.4103 3
    endloop
  endfacet
  facet normal 0 0 1
    outer loop
      vertex 20.1309 9.72478 3
      vertex 9.57163 10.0042 3
      vertex 9.86915 9.72478 3
    endloop
  endfacet
  facet normal 0 0 1
    outer loop
      vertex 20.4284 10.0042 3
      vertex 9.57163 10.0042 3
      vertex 20.1309 9.72478 3
    endloop
  endfacet
  facet normal -0 0 1
    outer loop
      vertex 5.18605 14.4901 3
      vertex 9.24144 10.2441 3
      vertex 24.814 14.4901 3
    endloop
  endfacet
  facet normal 0 0 1
    outer loop
      vertex 9.24144 10.2441 3
      vertex 5.18605 14.4901 3
      vertex 8.88378 10.4407 3
    endloop
  endfacet
  facet normal 0 0 1
    outer loop
      vertex 8.88378 10.4407 3
      vertex 5.18605 14.4901 3
      vertex 8.5043 10.5909 3
    endloop
  endfacet
  facet normal 0 0 1
    outer loop
      vertex 8.5043 10.5909 3
      vertex 5.18605 14.4901 3
      vertex 8.10899 10.6924 3
    endloop
  endfacet
  facet normal 0 0 1
    outer loop
      vertex 8.10899 10.6924 3
      vertex 5.18605 14.4901 3
      vertex 7.70407 10.7436 3
    endloop
  endfacet
  facet normal 0 0 1
    outer loop
      vertex 7.70407 10.7436 3
      vertex 5.18605 14.4901 3
      vertex 7.29593 10.7436 3
    endloop
  endfacet
  facet normal 0 0 1
    outer loop
      vertex 7.29593 10.7436 3
      vertex 5.18605 14.4901 3
      vertex 6.89101 10.6924 3
    endloop
  endfacet
  facet normal 0 0 1
    outer loop
      vertex 5.18605 14.4901 3
      vertex 6.49569 10.5909 3
      vertex 6.89101 10.6924 3
    endloop
  endfacet
  facet normal 0 0 1
    outer loop
      vertex 5.18605 14.4901 3
      vertex 6.11622 10.4407 3
      vertex 6.49569 10.5909 3
    endloop
  endfacet
  facet normal -0 0 1
    outer loop
      vertex 4.56309 14.4114 3
      vertex 6.11622 10.4407 3
      vertex 5.18605 14.4901 3
    endloop
  endfacet
  facet normal 0 0 1
    outer loop
      vertex 6.11622 10.4407 3
      vertex 4.56309 14.4114 3
      vertex 5.75856 10.2441 3
    endloop
  endfacet
  facet normal -0 0 1
    outer loop
      vertex 3.95491 14.2553 3
      vertex 5.75856 10.2441 3
      vertex 4.56309 14.4114 3
    endloop
  endfacet
  facet normal -0 0 1
    outer loop
      vertex 3.3711 14.0241 3
      vertex 5.75856 10.2441 3
      vertex 3.95491 14.2553 3
    endloop
  endfacet
  facet normal 0 0 1
    outer loop
      vertex 5.75856 10.2441 3
      vertex 3.3711 14.0241 3
      vertex 5.42837 10.0042 3
    endloop
  endfacet
  facet normal -0 0 1
    outer loop
      vertex 2.82087 13.7216 3
      vertex 5.42837 10.0042 3
      vertex 3.3711 14.0241 3
    endloop
  endfacet
  facet normal -0 0 1
    outer loop
      vertex 2.31288 13.3526 3
      vertex 5.42837 10.0042 3
      vertex 2.82087 13.7216 3
    endloop
  endfacet
  facet normal 0 0 1
    outer loop
      vertex 5.42837 10.0042 3
      vertex 2.31288 13.3526 3
      vertex 5.13085 9.72478 3
    endloop
  endfacet
  facet normal -0 0 1
    outer loop
      vertex 1.85516 12.9227 3
      vertex 5.13085 9.72478 3
      vertex 2.31288 13.3526 3
    endloop
  endfacet
  facet normal -0 0 1
    outer loop
      vertex 1.45491 12.4389 3
      vertex 5.13085 9.72478 3
      vertex 1.85516 12.9227 3
    endloop
  endfacet
  facet normal 0 0 1
    outer loop
      vertex 5.13085 9.72478 3
      vertex 1.45491 12.4389 3
      vertex 4.87069 9.4103 3
    endloop
  endfacet
  facet normal -0 0 1
    outer loop
      vertex 24.8691 5.27522 3
      vertex 28.5451 2.56107 3
      vertex 25.1293 5.5897 3
    endloop
  endfacet
  facet normal 0 0 1
    outer loop
      vertex 28.5451 2.56107 3
      vertex 24.8691 5.27522 3
      vertex 28.1448 2.07726 3
    endloop
  endfacet
  facet normal 0 0 1
    outer loop
      vertex 28.1448 2.07726 3
      vertex 24.8691 5.27522 3
      vertex 27.6871 1.64743 3
    endloop
  endfacet
  facet normal -0 0 1
    outer loop
      vertex 24.5716 4.99583 3
      vertex 27.6871 1.64743 3
      vertex 24.8691 5.27522 3
    endloop
  endfacet
  facet normal 0 0 1
    outer loop
      vertex 27.6871 1.64743 3
      vertex 24.5716 4.99583 3
      vertex 27.1791 1.27836 3
    endloop
  endfacet
  facet normal 0 0 1
    outer loop
      vertex 27.1791 1.27836 3
      vertex 24.5716 4.99583 3
      vertex 26.6289 0.975864 3
    endloop
  endfacet
  facet normal -0 0 1
    outer loop
      vertex 24.2414 4.75593 3
      vertex 26.6289 0.975864 3
      vertex 24.5716 4.99583 3
    endloop
  endfacet
  facet normal 0 0 1
    outer loop
      vertex 26.6289 0.975864 3
      vertex 24.2414 4.75593 3
      vertex 26.0451 0.744717 3
    endloop
  endfacet
  facet normal 0 0 1
    outer loop
      vertex 26.0451 0.744717 3
      vertex 24.2414 4.75593 3
      vertex 25.4369 0.588563 3
    endloop
  endfacet
  facet normal -0 0 1
    outer loop
      vertex 23.8838 4.55931 3
      vertex 25.4369 0.588563 3
      vertex 24.2414 4.75593 3
    endloop
  endfacet
  facet normal 0 0 1
    outer loop
      vertex 25.4369 0.588563 3
      vertex 23.8838 4.55931 3
      vertex 24.814 0.509866 3
    endloop
  endfacet
  facet normal -0 0 1
    outer loop
      vertex 23.5043 4.40907 3
      vertex 24.814 0.509866 3
      vertex 23.8838 4.55931 3
    endloop
  endfacet
  facet normal -0 0 1
    outer loop
      vertex 23.109 4.30757 3
      vertex 24.814 0.509866 3
      vertex 23.5043 4.40907 3
    endloop
  endfacet
  facet normal -0 0 1
    outer loop
      vertex 22.7041 4.25641 3
      vertex 24.814 0.509866 3
      vertex 23.109 4.30757 3
    endloop
  endfacet
  facet normal -0 0 1
    outer loop
      vertex 22.2959 4.25641 3
      vertex 24.814 0.509866 3
      vertex 22.7041 4.25641 3
    endloop
  endfacet
  facet normal 0 0 1
    outer loop
      vertex 21.891 4.30757 3
      vertex 24.814 0.509866 3
      vertex 22.2959 4.25641 3
    endloop
  endfacet
  facet normal 0 0 1
    outer loop
      vertex 21.4957 4.40907 3
      vertex 24.814 0.509866 3
      vertex 21.891 4.30757 3
    endloop
  endfacet
  facet normal 0 0 1
    outer loop
      vertex 21.1162 4.55931 3
      vertex 24.814 0.509866 3
      vertex 21.4957 4.40907 3
    endloop
  endfacet
  facet normal 0 0 1
    outer loop
      vertex 20.7586 4.75593 3
      vertex 24.814 0.509866 3
      vertex 21.1162 4.55931 3
    endloop
  endfacet
  facet normal 0 0 1
    outer loop
      vertex 9.24144 4.75593 3
      vertex 20.7586 4.75593 3
      vertex 20.4284 4.99583 3
    endloop
  endfacet
  facet normal 0 0 1
    outer loop
      vertex 9.57163 4.99583 3
      vertex 20.4284 4.99583 3
      vertex 20.1309 5.27522 3
    endloop
  endfacet
  facet normal -0 0 1
    outer loop
      vertex 10.75 7.5 3
      vertex 19.2756 7.09267 3
      vertex 19.25 7.5 3
    endloop
  endfacet
  facet normal 0 0 1
    outer loop
      vertex 10.7244 7.09267 3
      vertex 19.2756 7.09267 3
      vertex 10.75 7.5 3
    endloop
  endfacet
  facet normal 0 0 1
    outer loop
      vertex 19.2756 7.09267 3
      vertex 10.7244 7.09267 3
      vertex 19.3521 6.69176 3
    endloop
  endfacet
  facet normal 0 0 1
    outer loop
      vertex 10.6479 6.69176 3
      vertex 19.3521 6.69176 3
      vertex 10.7244 7.09267 3
    endloop
  endfacet
  facet normal 0 0 1
    outer loop
      vertex 19.3521 6.69176 3
      vertex 10.6479 6.69176 3
      vertex 19.4782 6.30359 3
    endloop
  endfacet
  facet normal 0 0 1
    outer loop
      vertex 10.5218 6.30359 3
      vertex 19.4782 6.30359 3
      vertex 10.6479 6.69176 3
    endloop
  endfacet
  facet normal 0 0 1
    outer loop
      vertex 19.4782 6.30359 3
      vertex 10.5218 6.30359 3
      vertex 19.652 5.9343 3
    endloop
  endfacet
  facet normal 0 0 1
    outer loop
      vertex 10.348 5.9343 3
      vertex 19.652 5.9343 3
      vertex 10.5218 6.30359 3
    endloop
  endfacet
  facet normal 0 0 1
    outer loop
      vertex 19.652 5.9343 3
      vertex 10.348 5.9343 3
      vertex 19.8707 5.5897 3
    endloop
  endfacet
  facet normal 0 0 1
    outer loop
      vertex 10.1293 5.5897 3
      vertex 19.8707 5.5897 3
      vertex 10.348 5.9343 3
    endloop
  endfacet
  facet normal 0 0 1
    outer loop
      vertex 19.8707 5.5897 3
      vertex 10.1293 5.5897 3
      vertex 20.1309 5.27522 3
    endloop
  endfacet
  facet normal 0 0 1
    outer loop
      vertex 9.86915 5.27522 3
      vertex 20.1309 5.27522 3
      vertex 10.1293 5.5897 3
    endloop
  endfacet
  facet normal 0 0 1
    outer loop
      vertex 9.57163 4.99583 3
      vertex 20.1309 5.27522 3
      vertex 9.86915 5.27522 3
    endloop
  endfacet
  facet normal 0 0 1
    outer loop
      vertex 20.4284 4.99583 3
      vertex 9.57163 4.99583 3
      vertex 9.24144 4.75593 3
    endloop
  endfacet
  facet normal 0 0 1
    outer loop
      vertex 20.7586 4.75593 3
      vertex 9.24144 4.75593 3
      vertex 24.814 0.509866 3
    endloop
  endfacet
  facet normal 0 0 1
    outer loop
      vertex 5.18605 0.509866 3
      vertex 9.24144 4.75593 3
      vertex 8.88378 4.55931 3
    endloop
  endfacet
  facet normal 0 0 1
    outer loop
      vertex 5.18605 0.509866 3
      vertex 8.88378 4.55931 3
      vertex 8.5043 4.40907 3
    endloop
  endfacet
  facet normal 0 0 1
    outer loop
      vertex 5.18605 0.509866 3
      vertex 8.5043 4.40907 3
      vertex 8.10899 4.30757 3
    endloop
  endfacet
  facet normal 0 0 1
    outer loop
      vertex 5.18605 0.509866 3
      vertex 8.10899 4.30757 3
      vertex 7.70407 4.25641 3
    endloop
  endfacet
  facet normal 0 0 1
    outer loop
      vertex 5.18605 0.509866 3
      vertex 7.70407 4.25641 3
      vertex 7.29593 4.25641 3
    endloop
  endfacet
  facet normal 0 0 1
    outer loop
      vertex 5.18605 0.509866 3
      vertex 7.29593 4.25641 3
      vertex 6.89101 4.30757 3
    endloop
  endfacet
  facet normal 0 0 1
    outer loop
      vertex 9.24144 4.75593 3
      vertex 5.18605 0.509866 3
      vertex 24.814 0.509866 3
    endloop
  endfacet
  facet normal 0 0 1
    outer loop
      vertex 6.49569 4.40907 3
      vertex 5.18605 0.509866 3
      vertex 6.89101 4.30757 3
    endloop
  endfacet
  facet normal 0 0 1
    outer loop
      vertex 6.11622 4.55931 3
      vertex 5.18605 0.509866 3
      vertex 6.49569 4.40907 3
    endloop
  endfacet
  facet normal 0 0 1
    outer loop
      vertex 4.56309 0.588563 3
      vertex 6.11622 4.55931 3
      vertex 5.75856 4.75593 3
    endloop
  endfacet
  facet normal 0 0 1
    outer loop
      vertex 3.3711 0.975864 3
      vertex 5.75856 4.75593 3
      vertex 5.42837 4.99583 3
    endloop
  endfacet
  facet normal 0 0 1
    outer loop
      vertex 2.31288 1.64743 3
      vertex 5.42837 4.99583 3
      vertex 5.13085 5.27522 3
    endloop
  endfacet
  facet normal 0 0 1
    outer loop
      vertex 1.45491 2.56107 3
      vertex 5.13085 5.27522 3
      vertex 4.87069 5.5897 3
    endloop
  endfacet
  facet normal 0 0 1
    outer loop
      vertex 0.851117 3.65938 3
      vertex 4.87069 5.5897 3
      vertex 4.652 5.9343 3
    endloop
  endfacet
  facet normal 0 0 1
    outer loop
      vertex 6.11622 4.55931 3
      vertex 4.56309 0.588563 3
      vertex 5.18605 0.509866 3
    endloop
  endfacet
  facet normal 0 0 1
    outer loop
      vertex 0.539426 4.87333 3
      vertex 4.652 5.9343 3
      vertex 4.47823 6.30359 3
    endloop
  endfacet
  facet normal 0 0 1
    outer loop
      vertex 0.5 5.5 3
      vertex 4.47823 6.30359 3
      vertex 4.3521 6.69176 3
    endloop
  endfacet
  facet normal 0 0 1
    outer loop
      vertex 0.5 5.5 3
      vertex 4.3521 6.69176 3
      vertex 4.27563 7.09267 3
    endloop
  endfacet
  facet normal 0 0 1
    outer loop
      vertex 0.5 5.5 3
      vertex 4.27563 7.09267 3
      vertex 4.25 7.5 3
    endloop
  endfacet
  facet normal 0 0 1
    outer loop
      vertex 5.75856 4.75593 3
      vertex 3.95491 0.744717 3
      vertex 4.56309 0.588563 3
    endloop
  endfacet
  facet normal -0 0 1
    outer loop
      vertex 1.11847 11.9088 3
      vertex 4.87069 9.4103 3
      vertex 1.45491 12.4389 3
    endloop
  endfacet
  facet normal -0 0 1
    outer loop
      vertex 0.851117 11.3406 3
      vertex 4.87069 9.4103 3
      vertex 1.11847 11.9088 3
    endloop
  endfacet
  facet normal 0 0 1
    outer loop
      vertex 0.5 5.5 3
      vertex 4.25 7.5 3
      vertex 0.5 9.5 3
    endloop
  endfacet
  facet normal 0 0 1
    outer loop
      vertex 4.87069 9.4103 3
      vertex 0.851117 11.3406 3
      vertex 4.652 9.0657 3
    endloop
  endfacet
  facet normal 0 0 1
    outer loop
      vertex 4.47823 6.30359 3
      vertex 0.5 5.5 3
      vertex 0.539426 4.87333 3
    endloop
  endfacet
  facet normal -0 0 1
    outer loop
      vertex 0.657084 10.7434 3
      vertex 4.652 9.0657 3
      vertex 0.851117 11.3406 3
    endloop
  endfacet
  facet normal 0 0 1
    outer loop
      vertex 5.75856 4.75593 3
      vertex 3.3711 0.975864 3
      vertex 3.95491 0.744717 3
    endloop
  endfacet
  facet normal -0 0 1
    outer loop
      vertex 0.539426 10.1267 3
      vertex 4.652 9.0657 3
      vertex 0.657084 10.7434 3
    endloop
  endfacet
  facet normal 0 0 1
    outer loop
      vertex 5.42837 4.99583 3
      vertex 2.82087 1.27836 3
      vertex 3.3711 0.975864 3
    endloop
  endfacet
  facet normal 0 0 1
    outer loop
      vertex 4.652 9.0657 3
      vertex 0.539426 10.1267 3
      vertex 4.47823 8.6964 3
    endloop
  endfacet
  facet normal 0 0 1
    outer loop
      vertex 5.42837 4.99583 3
      vertex 2.31288 1.64743 3
      vertex 2.82087 1.27836 3
    endloop
  endfacet
  facet normal -0 0 1
    outer loop
      vertex 0.5 9.5 3
      vertex 4.47823 8.6964 3
      vertex 0.539426 10.1267 3
    endloop
  endfacet
  facet normal 0 0 1
    outer loop
      vertex 5.13085 5.27522 3
      vertex 1.85516 2.07726 3
      vertex 2.31288 1.64743 3
    endloop
  endfacet
  facet normal 0 0 1
    outer loop
      vertex 4.47823 8.6964 3
      vertex 0.5 9.5 3
      vertex 4.3521 8.30824 3
    endloop
  endfacet
  facet normal 0 0 1
    outer loop
      vertex 5.13085 5.27522 3
      vertex 1.45491 2.56107 3
      vertex 1.85516 2.07726 3
    endloop
  endfacet
  facet normal 0 0 1
    outer loop
      vertex 4.3521 8.30824 3
      vertex 0.5 9.5 3
      vertex 4.27563 7.90733 3
    endloop
  endfacet
  facet normal 0 0 1
    outer loop
      vertex 4.87069 5.5897 3
      vertex 1.11847 3.09123 3
      vertex 1.45491 2.56107 3
    endloop
  endfacet
  facet normal 0 0 1
    outer loop
      vertex 4.27563 7.90733 3
      vertex 0.5 9.5 3
      vertex 4.25 7.5 3
    endloop
  endfacet
  facet normal 0 0 1
    outer loop
      vertex 4.87069 5.5897 3
      vertex 0.851117 3.65938 3
      vertex 1.11847 3.09123 3
    endloop
  endfacet
  facet normal 0 0 1
    outer loop
      vertex 4.652 5.9343 3
      vertex 0.657084 4.25655 3
      vertex 0.851117 3.65938 3
    endloop
  endfacet
  facet normal 0 0 1
    outer loop
      vertex 4.652 5.9343 3
      vertex 0.539426 4.87333 3
      vertex 0.657084 4.25655 3
    endloop
  endfacet
  facet normal 0 1 -0
    outer loop
      vertex 24.814 14.4901 0
      vertex 5.18605 14.4901 3
      vertex 24.814 14.4901 3
    endloop
  endfacet
  facet normal 0 1 0
    outer loop
      vertex 5.18605 14.4901 3
      vertex 24.814 14.4901 0
      vertex 5.18605 14.4901 0
    endloop
  endfacet
  facet normal 0 -1 0
    outer loop
      vertex 5.18605 0.509866 0
      vertex 24.814 0.509866 3
      vertex 5.18605 0.509866 3
    endloop
  endfacet
  facet normal 0 -1 -0
    outer loop
      vertex 24.814 0.509866 3
      vertex 5.18605 0.509866 0
      vertex 24.814 0.509866 0
    endloop
  endfacet
  facet normal 0.844364 -0.53577 0
    outer loop
      vertex 28.5451 2.56107 3
      vertex 28.8815 3.09123 0
      vertex 28.8815 3.09123 3
    endloop
  endfacet
  facet normal 0.844364 -0.53577 0
    outer loop
      vertex 28.8815 3.09123 0
      vertex 28.5451 2.56107 3
      vertex 28.5451 2.56107 0
    endloop
  endfacet
  facet normal 1 -0 0
    outer loop
      vertex 29.5 5.5 3
      vertex 29.5 9.5 0
      vertex 29.5 9.5 3
    endloop
  endfacet
  facet normal 1 0 0
    outer loop
      vertex 29.5 9.5 0
      vertex 29.5 5.5 3
      vertex 29.5 5.5 0
    endloop
  endfacet
  facet normal 0.125348 0.992113 -0
    outer loop
      vertex 25.4369 14.4114 0
      vertex 24.814 14.4901 3
      vertex 25.4369 14.4114 3
    endloop
  endfacet
  facet normal 0.125348 0.992113 0
    outer loop
      vertex 24.814 14.4901 3
      vertex 25.4369 14.4114 0
      vertex 24.814 14.4901 0
    endloop
  endfacet
  facet normal 0.770462 0.637486 0
    outer loop
      vertex 28.5451 12.4389 3
      vertex 28.1448 12.9227 0
      vertex 28.1448 12.9227 3
    endloop
  endfacet
  facet normal 0.770462 0.637486 0
    outer loop
      vertex 28.1448 12.9227 0
      vertex 28.5451 12.4389 3
      vertex 28.5451 12.4389 0
    endloop
  endfacet
  facet normal -0.125336 0.992114 0
    outer loop
      vertex 5.18605 14.4901 0
      vertex 4.56309 14.4114 3
      vertex 5.18605 14.4901 3
    endloop
  endfacet
  facet normal -0.125336 0.992114 0
    outer loop
      vertex 4.56309 14.4114 3
      vertex 5.18605 14.4901 0
      vertex 4.56309 14.4114 0
    endloop
  endfacet
  facet normal -0.481764 0.876301 0
    outer loop
      vertex 3.3711 14.0241 0
      vertex 2.82087 13.7216 3
      vertex 3.3711 14.0241 3
    endloop
  endfacet
  facet normal -0.481764 0.876301 0
    outer loop
      vertex 2.82087 13.7216 3
      vertex 3.3711 14.0241 0
      vertex 2.82087 13.7216 0
    endloop
  endfacet
  facet normal -0.770501 0.637439 0
    outer loop
      vertex 1.45491 12.4389 0
      vertex 1.85516 12.9227 3
      vertex 1.85516 12.9227 0
    endloop
  endfacet
  facet normal -0.770501 0.637439 0
    outer loop
      vertex 1.85516 12.9227 3
      vertex 1.45491 12.4389 0
      vertex 1.45491 12.4389 3
    endloop
  endfacet
  facet normal -0.951061 0.309004 0
    outer loop
      vertex 0.657084 10.7434 0
      vertex 0.851117 11.3406 3
      vertex 0.851117 11.3406 0
    endloop
  endfacet
  facet normal -0.951061 0.309004 0
    outer loop
      vertex 0.851117 11.3406 3
      vertex 0.657084 10.7434 0
      vertex 0.657084 10.7434 3
    endloop
  endfacet
  facet normal -0.770507 -0.637431 0
    outer loop
      vertex 1.85516 2.07726 0
      vertex 1.45491 2.56107 3
      vertex 1.45491 2.56107 0
    endloop
  endfacet
  facet normal -0.770507 -0.637431 0
    outer loop
      vertex 1.45491 2.56107 3
      vertex 1.85516 2.07726 0
      vertex 1.85516 2.07726 3
    endloop
  endfacet
  facet normal -0.998027 -0.0627894 0
    outer loop
      vertex 0.539426 4.87333 0
      vertex 0.5 5.5 3
      vertex 0.5 5.5 0
    endloop
  endfacet
  facet normal -0.998027 -0.0627894 0
    outer loop
      vertex 0.5 5.5 3
      vertex 0.539426 4.87333 0
      vertex 0.539426 4.87333 3
    endloop
  endfacet
  facet normal 0 0 -1
    outer loop
      vertex 25.5218 6.30359 0
      vertex 29.5 5.5 0
      vertex 29.4606 4.87333 0
    endloop
  endfacet
  facet normal 0 0 -1
    outer loop
      vertex 29.5 5.5 0
      vertex 25.75 7.5 0
      vertex 29.5 9.5 0
    endloop
  endfacet
  facet normal 0 0 -1
    outer loop
      vertex 25.348 5.9343 0
      vertex 29.4606 4.87333 0
      vertex 29.3429 4.25655 0
    endloop
  endfacet
  facet normal 0 0 -1
    outer loop
      vertex 25.7244 7.90733 0
      vertex 29.5 9.5 0
      vertex 25.75 7.5 0
    endloop
  endfacet
  facet normal 0 0 -1
    outer loop
      vertex 25.348 5.9343 0
      vertex 29.3429 4.25655 0
      vertex 29.1489 3.65938 0
    endloop
  endfacet
  facet normal 0 0 -1
    outer loop
      vertex 25.6479 8.30824 0
      vertex 29.5 9.5 0
      vertex 25.7244 7.90733 0
    endloop
  endfacet
  facet normal 0 0 -1
    outer loop
      vertex 25.1293 5.5897 0
      vertex 29.1489 3.65938 0
      vertex 28.8815 3.09123 0
    endloop
  endfacet
  facet normal 0 0 -1
    outer loop
      vertex 25.5218 8.6964 0
      vertex 29.5 9.5 0
      vertex 25.6479 8.30824 0
    endloop
  endfacet
  facet normal 0 0 -1
    outer loop
      vertex 25.1293 5.5897 0
      vertex 28.8815 3.09123 0
      vertex 28.5451 2.56107 0
    endloop
  endfacet
  facet normal -0 0 -1
    outer loop
      vertex 29.5 9.5 0
      vertex 25.5218 8.6964 0
      vertex 29.4606 10.1267 0
    endloop
  endfacet
  facet normal 0 0 -1
    outer loop
      vertex 24.8691 5.27522 0
      vertex 28.5451 2.56107 0
      vertex 28.1448 2.07726 0
    endloop
  endfacet
  facet normal 0 0 -1
    outer loop
      vertex 25.348 9.0657 0
      vertex 29.4606 10.1267 0
      vertex 25.5218 8.6964 0
    endloop
  endfacet
  facet normal 0 0 -1
    outer loop
      vertex 24.8691 5.27522 0
      vertex 28.1448 2.07726 0
      vertex 27.6871 1.64743 0
    endloop
  endfacet
  facet normal -0 0 -1
    outer loop
      vertex 29.4606 10.1267 0
      vertex 25.348 9.0657 0
      vertex 29.3429 10.7434 0
    endloop
  endfacet
  facet normal 0 0 -1
    outer loop
      vertex 24.5716 4.99583 0
      vertex 27.6871 1.64743 0
      vertex 27.1791 1.27836 0
    endloop
  endfacet
  facet normal -0 0 -1
    outer loop
      vertex 29.3429 10.7434 0
      vertex 25.348 9.0657 0
      vertex 29.1489 11.3406 0
    endloop
  endfacet
  facet normal 0 0 -1
    outer loop
      vertex 24.5716 4.99583 0
      vertex 27.1791 1.27836 0
      vertex 26.6289 0.975864 0
    endloop
  endfacet
  facet normal 0 0 -1
    outer loop
      vertex 25.1293 9.4103 0
      vertex 29.1489 11.3406 0
      vertex 25.348 9.0657 0
    endloop
  endfacet
  facet normal 0 0 -1
    outer loop
      vertex 24.2414 4.75593 0
      vertex 26.6289 0.975864 0
      vertex 26.0451 0.744717 0
    endloop
  endfacet
  facet normal -0 0 -1
    outer loop
      vertex 29.1489 11.3406 0
      vertex 25.1293 9.4103 0
      vertex 28.8815 11.9088 0
    endloop
  endfacet
  facet normal -0 0 -1
    outer loop
      vertex 28.8815 11.9088 0
      vertex 25.1293 9.4103 0
      vertex 28.5451 12.4389 0
    endloop
  endfacet
  facet normal 0 0 -1
    outer loop
      vertex 29.5 5.5 0
      vertex 25.7244 7.09267 0
      vertex 25.75 7.5 0
    endloop
  endfacet
  facet normal 0 0 -1
    outer loop
      vertex 29.5 5.5 0
      vertex 25.6479 6.69176 0
      vertex 25.7244 7.09267 0
    endloop
  endfacet
  facet normal 0 0 -1
    outer loop
      vertex 29.5 5.5 0
      vertex 25.5218 6.30359 0
      vertex 25.6479 6.69176 0
    endloop
  endfacet
  facet normal 0 0 -1
    outer loop
      vertex 24.2414 4.75593 0
      vertex 26.0451 0.744717 0
      vertex 25.4369 0.588563 0
    endloop
  endfacet
  facet normal 0 0 -1
    outer loop
      vertex 29.4606 4.87333 0
      vertex 25.348 5.9343 0
      vertex 25.5218 6.30359 0
    endloop
  endfacet
  facet normal 0 0 -1
    outer loop
      vertex 29.1489 3.65938 0
      vertex 25.1293 5.5897 0
      vertex 25.348 5.9343 0
    endloop
  endfacet
  facet normal 0 0 -1
    outer loop
      vertex 28.5451 2.56107 0
      vertex 24.8691 5.27522 0
      vertex 25.1293 5.5897 0
    endloop
  endfacet
  facet normal 0 0 -1
    outer loop
      vertex 23.8838 4.55931 0
      vertex 25.4369 0.588563 0
      vertex 24.814 0.509866 0
    endloop
  endfacet
  facet normal 0 0 -1
    outer loop
      vertex 27.6871 1.64743 0
      vertex 24.5716 4.99583 0
      vertex 24.8691 5.27522 0
    endloop
  endfacet
  facet normal 0 0 -1
    outer loop
      vertex 26.6289 0.975864 0
      vertex 24.2414 4.75593 0
      vertex 24.5716 4.99583 0
    endloop
  endfacet
  facet normal 0 0 -1
    outer loop
      vertex 25.4369 0.588563 0
      vertex 23.8838 4.55931 0
      vertex 24.2414 4.75593 0
    endloop
  endfacet
  facet normal 0 0 -1
    outer loop
      vertex 24.814 0.509866 0
      vertex 23.5043 4.40907 0
      vertex 23.8838 4.55931 0
    endloop
  endfacet
  facet normal 0 0 -1
    outer loop
      vertex 24.814 0.509866 0
      vertex 23.109 4.30757 0
      vertex 23.5043 4.40907 0
    endloop
  endfacet
  facet normal 0 0 -1
    outer loop
      vertex 24.814 0.509866 0
      vertex 22.7041 4.25641 0
      vertex 23.109 4.30757 0
    endloop
  endfacet
  facet normal 0 0 -1
    outer loop
      vertex 24.814 0.509866 0
      vertex 22.2959 4.25641 0
      vertex 22.7041 4.25641 0
    endloop
  endfacet
  facet normal 0 0 -1
    outer loop
      vertex 24.814 0.509866 0
      vertex 21.891 4.30757 0
      vertex 22.2959 4.25641 0
    endloop
  endfacet
  facet normal 0 0 -1
    outer loop
      vertex 24.814 0.509866 0
      vertex 21.4957 4.40907 0
      vertex 21.891 4.30757 0
    endloop
  endfacet
  facet normal 0 0 -1
    outer loop
      vertex 24.814 0.509866 0
      vertex 21.1162 4.55931 0
      vertex 21.4957 4.40907 0
    endloop
  endfacet
  facet normal 0 0 -1
    outer loop
      vertex 24.814 0.509866 0
      vertex 20.7586 4.75593 0
      vertex 21.1162 4.55931 0
    endloop
  endfacet
  facet normal 0 0 -1
    outer loop
      vertex 9.24144 4.75593 0
      vertex 20.7586 4.75593 0
      vertex 24.814 0.509866 0
    endloop
  endfacet
  facet normal 0 0 -1
    outer loop
      vertex 20.7586 4.75593 0
      vertex 9.24144 4.75593 0
      vertex 20.4284 4.99583 0
    endloop
  endfacet
  facet normal 0 0 -1
    outer loop
      vertex 19.2756 7.09267 0
      vertex 10.75 7.5 0
      vertex 19.25 7.5 0
    endloop
  endfacet
  facet normal 0 0 -1
    outer loop
      vertex 10.7244 7.09267 0
      vertex 19.2756 7.09267 0
      vertex 19.3521 6.69176 0
    endloop
  endfacet
  facet normal 0 0 -1
    outer loop
      vertex 10.6479 6.69176 0
      vertex 19.3521 6.69176 0
      vertex 19.4782 6.30359 0
    endloop
  endfacet
  facet normal 0 0 -1
    outer loop
      vertex 10.5218 6.30359 0
      vertex 19.4782 6.30359 0
      vertex 19.652 5.9343 0
    endloop
  endfacet
  facet normal 0 0 -1
    outer loop
      vertex 10.348 5.9343 0
      vertex 19.652 5.9343 0
      vertex 19.8707 5.5897 0
    endloop
  endfacet
  facet normal 0 0 -1
    outer loop
      vertex 10.1293 5.5897 0
      vertex 19.8707 5.5897 0
      vertex 20.1309 5.27522 0
    endloop
  endfacet
  facet normal 0 -0 -1
    outer loop
      vertex 9.57163 4.99583 0
      vertex 20.4284 4.99583 0
      vertex 9.24144 4.75593 0
    endloop
  endfacet
  facet normal 0 0 -1
    outer loop
      vertex 19.2756 7.09267 0
      vertex 10.7244 7.09267 0
      vertex 10.75 7.5 0
    endloop
  endfacet
  facet normal 0 0 -1
    outer loop
      vertex 19.3521 6.69176 0
      vertex 10.6479 6.69176 0
      vertex 10.7244 7.09267 0
    endloop
  endfacet
  facet normal 0 0 -1
    outer loop
      vertex 19.4782 6.30359 0
      vertex 10.5218 6.30359 0
      vertex 10.6479 6.69176 0
    endloop
  endfacet
  facet normal 0 0 -1
    outer loop
      vertex 19.652 5.9343 0
      vertex 10.348 5.9343 0
      vertex 10.5218 6.30359 0
    endloop
  endfacet
  facet normal 0 0 -1
    outer loop
      vertex 19.8707 5.5897 0
      vertex 10.1293 5.5897 0
      vertex 10.348 5.9343 0
    endloop
  endfacet
  facet normal 0 0 -1
    outer loop
      vertex 20.1309 5.27522 0
      vertex 9.86915 5.27522 0
      vertex 10.1293 5.5897 0
    endloop
  endfacet
  facet normal -0 0 -1
    outer loop
      vertex 20.1309 5.27522 0
      vertex 9.57163 4.99583 0
      vertex 9.86915 5.27522 0
    endloop
  endfacet
  facet normal 0 0 -1
    outer loop
      vertex 20.4284 4.99583 0
      vertex 9.57163 4.99583 0
      vertex 20.1309 5.27522 0
    endloop
  endfacet
  facet normal 0 0 -1
    outer loop
      vertex 5.18605 0.509866 0
      vertex 9.24144 4.75593 0
      vertex 24.814 0.509866 0
    endloop
  endfacet
  facet normal 0 0 -1
    outer loop
      vertex 9.24144 4.75593 0
      vertex 5.18605 0.509866 0
      vertex 8.88378 4.55931 0
    endloop
  endfacet
  facet normal 0 0 -1
    outer loop
      vertex 8.88378 4.55931 0
      vertex 5.18605 0.509866 0
      vertex 8.5043 4.40907 0
    endloop
  endfacet
  facet normal 0 0 -1
    outer loop
      vertex 8.5043 4.40907 0
      vertex 5.18605 0.509866 0
      vertex 8.10899 4.30757 0
    endloop
  endfacet
  facet normal 0 0 -1
    outer loop
      vertex 8.10899 4.30757 0
      vertex 5.18605 0.509866 0
      vertex 7.70407 4.25641 0
    endloop
  endfacet
  facet normal -0 0 -1
    outer loop
      vertex 7.70407 4.25641 0
      vertex 5.18605 0.509866 0
      vertex 7.29593 4.25641 0
    endloop
  endfacet
  facet normal -0 0 -1
    outer loop
      vertex 7.29593 4.25641 0
      vertex 5.18605 0.509866 0
      vertex 6.89101 4.30757 0
    endloop
  endfacet
  facet normal 0 0 -1
    outer loop
      vertex 5.18605 0.509866 0
      vertex 6.49569 4.40907 0
      vertex 6.89101 4.30757 0
    endloop
  endfacet
  facet normal 0 0 -1
    outer loop
      vertex 5.18605 0.509866 0
      vertex 6.11622 4.55931 0
      vertex 6.49569 4.40907 0
    endloop
  endfacet
  facet normal 0 0 -1
    outer loop
      vertex 4.56309 0.588563 0
      vertex 6.11622 4.55931 0
      vertex 5.18605 0.509866 0
    endloop
  endfacet
  facet normal -0 0 -1
    outer loop
      vertex 6.11622 4.55931 0
      vertex 4.56309 0.588563 0
      vertex 5.75856 4.75593 0
    endloop
  endfacet
  facet normal 0 0 -1
    outer loop
      vertex 3.95491 0.744717 0
      vertex 5.75856 4.75593 0
      vertex 4.56309 0.588563 0
    endloop
  endfacet
  facet normal 0 0 -1
    outer loop
      vertex 3.3711 0.975864 0
      vertex 5.75856 4.75593 0
      vertex 3.95491 0.744717 0
    endloop
  endfacet
  facet normal -0 0 -1
    outer loop
      vertex 5.75856 4.75593 0
      vertex 3.3711 0.975864 0
      vertex 5.42837 4.99583 0
    endloop
  endfacet
  facet normal 0 0 -1
    outer loop
      vertex 2.82087 1.27836 0
      vertex 5.42837 4.99583 0
      vertex 3.3711 0.975864 0
    endloop
  endfacet
  facet normal 0 0 -1
    outer loop
      vertex 2.31288 1.64743 0
      vertex 5.42837 4.99583 0
      vertex 2.82087 1.27836 0
    endloop
  endfacet
  facet normal -0 0 -1
    outer loop
      vertex 5.42837 4.99583 0
      vertex 2.31288 1.64743 0
      vertex 5.13085 5.27522 0
    endloop
  endfacet
  facet normal 0 0 -1
    outer loop
      vertex 1.85516 2.07726 0
      vertex 5.13085 5.27522 0
      vertex 2.31288 1.64743 0
    endloop
  endfacet
  facet normal 0 0 -1
    outer loop
      vertex 1.45491 2.56107 0
      vertex 5.13085 5.27522 0
      vertex 1.85516 2.07726 0
    endloop
  endfacet
  facet normal -0 0 -1
    outer loop
      vertex 5.13085 5.27522 0
      vertex 1.45491 2.56107 0
      vertex 4.87069 5.5897 0
    endloop
  endfacet
  facet normal 0 0 -1
    outer loop
      vertex 24.8691 9.72478 0
      vertex 28.5451 12.4389 0
      vertex 25.1293 9.4103 0
    endloop
  endfacet
  facet normal -0 0 -1
    outer loop
      vertex 28.5451 12.4389 0
      vertex 24.8691 9.72478 0
      vertex 28.1448 12.9227 0
    endloop
  endfacet
  facet normal -0 0 -1
    outer loop
      vertex 28.1448 12.9227 0
      vertex 24.8691 9.72478 0
      vertex 27.6871 13.3526 0
    endloop
  endfacet
  facet normal 0 0 -1
    outer loop
      vertex 24.5716 10.0042 0
      vertex 27.6871 13.3526 0
      vertex 24.8691 9.72478 0
    endloop
  endfacet
  facet normal -0 0 -1
    outer loop
      vertex 27.6871 13.3526 0
      vertex 24.5716 10.0042 0
      vertex 27.1791 13.7216 0
    endloop
  endfacet
  facet normal -0 0 -1
    outer loop
      vertex 27.1791 13.7216 0
      vertex 24.5716 10.0042 0
      vertex 26.6289 14.0241 0
    endloop
  endfacet
  facet normal 0 0 -1
    outer loop
      vertex 24.2414 10.2441 0
      vertex 26.6289 14.0241 0
      vertex 24.5716 10.0042 0
    endloop
  endfacet
  facet normal -0 0 -1
    outer loop
      vertex 26.6289 14.0241 0
      vertex 24.2414 10.2441 0
      vertex 26.0451 14.2553 0
    endloop
  endfacet
  facet normal -0 0 -1
    outer loop
      vertex 26.0451 14.2553 0
      vertex 24.2414 10.2441 0
      vertex 25.4369 14.4114 0
    endloop
  endfacet
  facet normal 0 0 -1
    outer loop
      vertex 23.8838 10.4407 0
      vertex 25.4369 14.4114 0
      vertex 24.2414 10.2441 0
    endloop
  endfacet
  facet normal -0 0 -1
    outer loop
      vertex 25.4369 14.4114 0
      vertex 23.8838 10.4407 0
      vertex 24.814 14.4901 0
    endloop
  endfacet
  facet normal 0 0 -1
    outer loop
      vertex 23.5043 10.5909 0
      vertex 24.814 14.4901 0
      vertex 23.8838 10.4407 0
    endloop
  endfacet
  facet normal 0 0 -1
    outer loop
      vertex 23.109 10.6924 0
      vertex 24.814 14.4901 0
      vertex 23.5043 10.5909 0
    endloop
  endfacet
  facet normal 0 0 -1
    outer loop
      vertex 22.7041 10.7436 0
      vertex 24.814 14.4901 0
      vertex 23.109 10.6924 0
    endloop
  endfacet
  facet normal 0 0 -1
    outer loop
      vertex 22.2959 10.7436 0
      vertex 24.814 14.4901 0
      vertex 22.7041 10.7436 0
    endloop
  endfacet
  facet normal 0 0 -1
    outer loop
      vertex 21.891 10.6924 0
      vertex 24.814 14.4901 0
      vertex 22.2959 10.7436 0
    endloop
  endfacet
  facet normal 0 0 -1
    outer loop
      vertex 21.4957 10.5909 0
      vertex 24.814 14.4901 0
      vertex 21.891 10.6924 0
    endloop
  endfacet
  facet normal 0 0 -1
    outer loop
      vertex 21.1162 10.4407 0
      vertex 24.814 14.4901 0
      vertex 21.4957 10.5909 0
    endloop
  endfacet
  facet normal 0 0 -1
    outer loop
      vertex 20.7586 10.2441 0
      vertex 24.814 14.4901 0
      vertex 21.1162 10.4407 0
    endloop
  endfacet
  facet normal 0 0 -1
    outer loop
      vertex 9.24144 10.2441 0
      vertex 20.7586 10.2441 0
      vertex 20.4284 10.0042 0
    endloop
  endfacet
  facet normal 0 0 -1
    outer loop
      vertex 9.57163 10.0042 0
      vertex 20.4284 10.0042 0
      vertex 20.1309 9.72478 0
    endloop
  endfacet
  facet normal 0 0 -1
    outer loop
      vertex 10.75 7.5 0
      vertex 19.2756 7.90733 0
      vertex 19.25 7.5 0
    endloop
  endfacet
  facet normal 0 0 -1
    outer loop
      vertex 10.7244 7.90733 0
      vertex 19.2756 7.90733 0
      vertex 10.75 7.5 0
    endloop
  endfacet
  facet normal 0 0 -1
    outer loop
      vertex 19.2756 7.90733 0
      vertex 10.7244 7.90733 0
      vertex 19.3521 8.30824 0
    endloop
  endfacet
  facet normal 0 0 -1
    outer loop
      vertex 10.6479 8.30824 0
      vertex 19.3521 8.30824 0
      vertex 10.7244 7.90733 0
    endloop
  endfacet
  facet normal 0 0 -1
    outer loop
      vertex 19.3521 8.30824 0
      vertex 10.6479 8.30824 0
      vertex 19.4782 8.6964 0
    endloop
  endfacet
  facet normal 0 0 -1
    outer loop
      vertex 10.5218 8.6964 0
      vertex 19.4782 8.6964 0
      vertex 10.6479 8.30824 0
    endloop
  endfacet
  facet normal 0 0 -1
    outer loop
      vertex 19.4782 8.6964 0
      vertex 10.5218 8.6964 0
      vertex 19.652 9.0657 0
    endloop
  endfacet
  facet normal 0 0 -1
    outer loop
      vertex 10.348 9.0657 0
      vertex 19.652 9.0657 0
      vertex 10.5218 8.6964 0
    endloop
  endfacet
  facet normal 0 0 -1
    outer loop
      vertex 19.652 9.0657 0
      vertex 10.348 9.0657 0
      vertex 19.8707 9.4103 0
    endloop
  endfacet
  facet normal 0 0 -1
    outer loop
      vertex 10.1293 9.4103 0
      vertex 19.8707 9.4103 0
      vertex 10.348 9.0657 0
    endloop
  endfacet
  facet normal 0 0 -1
    outer loop
      vertex 19.8707 9.4103 0
      vertex 10.1293 9.4103 0
      vertex 20.1309 9.72478 0
    endloop
  endfacet
  facet normal 0 0 -1
    outer loop
      vertex 9.86915 9.72478 0
      vertex 20.1309 9.72478 0
      vertex 10.1293 9.4103 0
    endloop
  endfacet
  facet normal 0 0 -1
    outer loop
      vertex 9.57163 10.0042 0
      vertex 20.1309 9.72478 0
      vertex 9.86915 9.72478 0
    endloop
  endfacet
  facet normal 0 0 -1
    outer loop
      vertex 20.4284 10.0042 0
      vertex 9.57163 10.0042 0
      vertex 9.24144 10.2441 0
    endloop
  endfacet
  facet normal 0 0 -1
    outer loop
      vertex 20.7586 10.2441 0
      vertex 9.24144 10.2441 0
      vertex 24.814 14.4901 0
    endloop
  endfacet
  facet normal 0 0 -1
    outer loop
      vertex 5.18605 14.4901 0
      vertex 9.24144 10.2441 0
      vertex 8.88378 10.4407 0
    endloop
  endfacet
  facet normal 0 0 -1
    outer loop
      vertex 5.18605 14.4901 0
      vertex 8.88378 10.4407 0
      vertex 8.5043 10.5909 0
    endloop
  endfacet
  facet normal 0 0 -1
    outer loop
      vertex 5.18605 14.4901 0
      vertex 8.5043 10.5909 0
      vertex 8.10899 10.6924 0
    endloop
  endfacet
  facet normal 0 0 -1
    outer loop
      vertex 5.18605 14.4901 0
      vertex 8.10899 10.6924 0
      vertex 7.70407 10.7436 0
    endloop
  endfacet
  facet normal 0 0 -1
    outer loop
      vertex 5.18605 14.4901 0
      vertex 7.70407 10.7436 0
      vertex 7.29593 10.7436 0
    endloop
  endfacet
  facet normal 0 0 -1
    outer loop
      vertex 5.18605 14.4901 0
      vertex 7.29593 10.7436 0
      vertex 6.89101 10.6924 0
    endloop
  endfacet
  facet normal 0 0 -1
    outer loop
      vertex 9.24144 10.2441 0
      vertex 5.18605 14.4901 0
      vertex 24.814 14.4901 0
    endloop
  endfacet
  facet normal 0 0 -1
    outer loop
      vertex 6.49569 10.5909 0
      vertex 5.18605 14.4901 0
      vertex 6.89101 10.6924 0
    endloop
  endfacet
  facet normal 0 0 -1
    outer loop
      vertex 6.11622 10.4407 0
      vertex 5.18605 14.4901 0
      vertex 6.49569 10.5909 0
    endloop
  endfacet
  facet normal 0 0 -1
    outer loop
      vertex 4.56309 14.4114 0
      vertex 6.11622 10.4407 0
      vertex 5.75856 10.2441 0
    endloop
  endfacet
  facet normal 0 0 -1
    outer loop
      vertex 3.3711 14.0241 0
      vertex 5.75856 10.2441 0
      vertex 5.42837 10.0042 0
    endloop
  endfacet
  facet normal 0 0 -1
    outer loop
      vertex 2.31288 13.3526 0
      vertex 5.42837 10.0042 0
      vertex 5.13085 9.72478 0
    endloop
  endfacet
  facet normal 0 0 -1
    outer loop
      vertex 1.45491 12.4389 0
      vertex 5.13085 9.72478 0
      vertex 4.87069 9.4103 0
    endloop
  endfacet
  facet normal 0 0 -1
    outer loop
      vertex 0.851117 11.3406 0
      vertex 4.87069 9.4103 0
      vertex 4.652 9.0657 0
    endloop
  endfacet
  facet normal 0 0 -1
    outer loop
      vertex 6.11622 10.4407 0
      vertex 4.56309 14.4114 0
      vertex 5.18605 14.4901 0
    endloop
  endfacet
  facet normal 0 0 -1
    outer loop
      vertex 0.539426 10.1267 0
      vertex 4.652 9.0657 0
      vertex 4.47823 8.6964 0
    endloop
  endfacet
  facet normal 0 0 -1
    outer loop
      vertex 0.5 9.5 0
      vertex 4.47823 8.6964 0
      vertex 4.3521 8.30824 0
    endloop
  endfacet
  facet normal 0 0 -1
    outer loop
      vertex 0.5 9.5 0
      vertex 4.3521 8.30824 0
      vertex 4.27563 7.90733 0
    endloop
  endfacet
  facet normal 0 0 -1
    outer loop
      vertex 0.5 9.5 0
      vertex 4.27563 7.90733 0
      vertex 4.25 7.5 0
    endloop
  endfacet
  facet normal 0 0 -1
    outer loop
      vertex 5.75856 10.2441 0
      vertex 3.95491 14.2553 0
      vertex 4.56309 14.4114 0
    endloop
  endfacet
  facet normal 0 0 -1
    outer loop
      vertex 1.11847 3.09123 0
      vertex 4.87069 5.5897 0
      vertex 1.45491 2.56107 0
    endloop
  endfacet
  facet normal 0 0 -1
    outer loop
      vertex 0.851117 3.65938 0
      vertex 4.87069 5.5897 0
      vertex 1.11847 3.09123 0
    endloop
  endfacet
  facet normal 0 0 -1
    outer loop
      vertex 0.5 9.5 0
      vertex 4.25 7.5 0
      vertex 0.5 5.5 0
    endloop
  endfacet
  facet normal -0 0 -1
    outer loop
      vertex 4.87069 5.5897 0
      vertex 0.851117 3.65938 0
      vertex 4.652 5.9343 0
    endloop
  endfacet
  facet normal 0 0 -1
    outer loop
      vertex 4.47823 8.6964 0
      vertex 0.5 9.5 0
      vertex 0.539426 10.1267 0
    endloop
  endfacet
  facet normal 0 0 -1
    outer loop
      vertex 0.657084 4.25655 0
      vertex 4.652 5.9343 0
      vertex 0.851117 3.65938 0
    endloop
  endfacet
  facet normal 0 0 -1
    outer loop
      vertex 5.75856 10.2441 0
      vertex 3.3711 14.0241 0
      vertex 3.95491 14.2553 0
    endloop
  endfacet
  facet normal 0 0 -1
    outer loop
      vertex 0.539426 4.87333 0
      vertex 4.652 5.9343 0
      vertex 0.657084 4.25655 0
    endloop
  endfacet
  facet normal 0 0 -1
    outer loop
      vertex 5.42837 10.0042 0
      vertex 2.82087 13.7216 0
      vertex 3.3711 14.0241 0
    endloop
  endfacet
  facet normal -0 0 -1
    outer loop
      vertex 4.652 5.9343 0
      vertex 0.539426 4.87333 0
      vertex 4.47823 6.30359 0
    endloop
  endfacet
  facet normal 0 0 -1
    outer loop
      vertex 5.42837 10.0042 0
      vertex 2.31288 13.3526 0
      vertex 2.82087 13.7216 0
    endloop
  endfacet
  facet normal 0 0 -1
    outer loop
      vertex 0.5 5.5 0
      vertex 4.47823 6.30359 0
      vertex 0.539426 4.87333 0
    endloop
  endfacet
  facet normal 0 0 -1
    outer loop
      vertex 5.13085 9.72478 0
      vertex 1.85516 12.9227 0
      vertex 2.31288 13.3526 0
    endloop
  endfacet
  facet normal -0 0 -1
    outer loop
      vertex 4.47823 6.30359 0
      vertex 0.5 5.5 0
      vertex 4.3521 6.69176 0
    endloop
  endfacet
  facet normal 0 0 -1
    outer loop
      vertex 5.13085 9.72478 0
      vertex 1.45491 12.4389 0
      vertex 1.85516 12.9227 0
    endloop
  endfacet
  facet normal -0 0 -1
    outer loop
      vertex 4.3521 6.69176 0
      vertex 0.5 5.5 0
      vertex 4.27563 7.09267 0
    endloop
  endfacet
  facet normal 0 0 -1
    outer loop
      vertex 4.87069 9.4103 0
      vertex 1.11847 11.9088 0
      vertex 1.45491 12.4389 0
    endloop
  endfacet
  facet normal -0 0 -1
    outer loop
      vertex 4.27563 7.09267 0
      vertex 0.5 5.5 0
      vertex 4.25 7.5 0
    endloop
  endfacet
  facet normal 0 0 -1
    outer loop
      vertex 4.87069 9.4103 0
      vertex 0.851117 11.3406 0
      vertex 1.11847 11.9088 0
    endloop
  endfacet
  facet normal 0 0 -1
    outer loop
      vertex 4.652 9.0657 0
      vertex 0.657084 10.7434 0
      vertex 0.851117 11.3406 0
    endloop
  endfacet
  facet normal 0 0 -1
    outer loop
      vertex 4.652 9.0657 0
      vertex 0.539426 10.1267 0
      vertex 0.657084 10.7434 0
    endloop
  endfacet
  facet normal -0.368125 -0.929776 0
    outer loop
      vertex 3.3711 0.975864 0
      vertex 3.95491 0.744717 3
      vertex 3.3711 0.975864 3
    endloop
  endfacet
  facet normal -0.368125 -0.929776 -0
    outer loop
      vertex 3.95491 0.744717 3
      vertex 3.3711 0.975864 0
      vertex 3.95491 0.744717 0
    endloop
  endfacet
  facet normal 0.125343 -0.992113 0
    outer loop
      vertex 24.814 0.509866 0
      vertex 25.4369 0.588563 3
      vertex 24.814 0.509866 3
    endloop
  endfacet
  facet normal 0.125343 -0.992113 0
    outer loop
      vertex 25.4369 0.588563 3
      vertex 24.814 0.509866 0
      vertex 25.4369 0.588563 0
    endloop
  endfacet
  facet normal 0.951072 -0.30897 0
    outer loop
      vertex 29.1489 3.65938 3
      vertex 29.3429 4.25655 0
      vertex 29.3429 4.25655 3
    endloop
  endfacet
  facet normal 0.951072 -0.30897 0
    outer loop
      vertex 29.3429 4.25655 0
      vertex 29.1489 3.65938 3
      vertex 29.1489 3.65938 0
    endloop
  endfacet
  facet normal -0.248609 0.968604 0
    outer loop
      vertex 4.56309 14.4114 0
      vertex 3.95491 14.2553 3
      vertex 4.56309 14.4114 3
    endloop
  endfacet
  facet normal -0.248609 0.968604 0
    outer loop
      vertex 3.95491 14.2553 3
      vertex 4.56309 14.4114 0
      vertex 3.95491 14.2553 0
    endloop
  endfacet
  facet normal -0.844308 0.535859 0
    outer loop
      vertex 1.11847 11.9088 0
      vertex 1.45491 12.4389 3
      vertex 1.45491 12.4389 0
    endloop
  endfacet
  facet normal -0.844308 0.535859 0
    outer loop
      vertex 1.45491 12.4389 3
      vertex 1.11847 11.9088 0
      vertex 1.11847 11.9088 3
    endloop
  endfacet
  facet normal -0.684608 0.728911 0
    outer loop
      vertex 2.31288 13.3526 0
      vertex 1.85516 12.9227 3
      vertex 2.31288 13.3526 3
    endloop
  endfacet
  facet normal -0.684608 0.728911 0
    outer loop
      vertex 1.85516 12.9227 3
      vertex 2.31288 13.3526 0
      vertex 1.85516 12.9227 0
    endloop
  endfacet
  facet normal -0.587706 0.809075 0
    outer loop
      vertex 2.82087 13.7216 0
      vertex 2.31288 13.3526 3
      vertex 2.82087 13.7216 3
    endloop
  endfacet
  facet normal -0.587706 0.809075 0
    outer loop
      vertex 2.31288 13.3526 3
      vertex 2.82087 13.7216 0
      vertex 2.31288 13.3526 0
    endloop
  endfacet
  facet normal -0.368198 0.929747 0
    outer loop
      vertex 3.95491 14.2553 0
      vertex 3.3711 14.0241 3
      vertex 3.95491 14.2553 3
    endloop
  endfacet
  facet normal -0.368198 0.929747 0
    outer loop
      vertex 3.3711 14.0241 3
      vertex 3.95491 14.2553 0
      vertex 3.3711 14.0241 0
    endloop
  endfacet
  facet normal -0.998027 0.0627864 0
    outer loop
      vertex 0.5 9.5 0
      vertex 0.539426 10.1267 3
      vertex 0.539426 10.1267 0
    endloop
  endfacet
  facet normal -0.998027 0.0627864 0
    outer loop
      vertex 0.539426 10.1267 3
      vertex 0.5 9.5 0
      vertex 0.5 9.5 3
    endloop
  endfacet
  facet normal -0.982283 0.187406 0
    outer loop
      vertex 0.539426 10.1267 0
      vertex 0.657084 10.7434 3
      vertex 0.657084 10.7434 0
    endloop
  endfacet
  facet normal -0.982283 0.187406 0
    outer loop
      vertex 0.657084 10.7434 3
      vertex 0.539426 10.1267 0
      vertex 0.539426 10.1267 3
    endloop
  endfacet
  facet normal -0.90484 0.425751 0
    outer loop
      vertex 0.851117 11.3406 0
      vertex 1.11847 11.9088 3
      vertex 1.11847 11.9088 0
    endloop
  endfacet
  facet normal -0.90484 0.425751 0
    outer loop
      vertex 1.11847 11.9088 3
      vertex 0.851117 11.3406 0
      vertex 0.851117 11.3406 3
    endloop
  endfacet
  facet normal -0.24869 -0.968583 0
    outer loop
      vertex 3.95491 0.744717 0
      vertex 4.56309 0.588563 3
      vertex 3.95491 0.744717 3
    endloop
  endfacet
  facet normal -0.24869 -0.968583 -0
    outer loop
      vertex 4.56309 0.588563 3
      vertex 3.95491 0.744717 0
      vertex 4.56309 0.588563 0
    endloop
  endfacet
  facet normal -0.125331 -0.992115 0
    outer loop
      vertex 4.56309 0.588563 0
      vertex 5.18605 0.509866 3
      vertex 4.56309 0.588563 3
    endloop
  endfacet
  facet normal -0.125331 -0.992115 -0
    outer loop
      vertex 5.18605 0.509866 3
      vertex 4.56309 0.588563 0
      vertex 5.18605 0.509866 0
    endloop
  endfacet
  facet normal 0.904797 -0.425843 0
    outer loop
      vertex 28.8815 3.09123 3
      vertex 29.1489 3.65938 0
      vertex 29.1489 3.65938 3
    endloop
  endfacet
  facet normal 0.904797 -0.425843 0
    outer loop
      vertex 29.1489 3.65938 0
      vertex 28.8815 3.09123 3
      vertex 28.8815 3.09123 0
    endloop
  endfacet
  facet normal 0.684565 -0.728952 0
    outer loop
      vertex 27.6871 1.64743 0
      vertex 28.1448 2.07726 3
      vertex 27.6871 1.64743 3
    endloop
  endfacet
  facet normal 0.684565 -0.728952 0
    outer loop
      vertex 28.1448 2.07726 3
      vertex 27.6871 1.64743 0
      vertex 28.1448 2.07726 0
    endloop
  endfacet
  facet normal 0.481779 -0.876293 0
    outer loop
      vertex 26.6289 0.975864 0
      vertex 27.1791 1.27836 3
      vertex 26.6289 0.975864 3
    endloop
  endfacet
  facet normal 0.481779 -0.876293 0
    outer loop
      vertex 27.1791 1.27836 3
      vertex 26.6289 0.975864 0
      vertex 27.1791 1.27836 0
    endloop
  endfacet
  facet normal 0.248682 -0.968585 0
    outer loop
      vertex 25.4369 0.588563 0
      vertex 26.0451 0.744717 3
      vertex 25.4369 0.588563 3
    endloop
  endfacet
  facet normal 0.248682 -0.968585 0
    outer loop
      vertex 26.0451 0.744717 3
      vertex 25.4369 0.588563 0
      vertex 26.0451 0.744717 0
    endloop
  endfacet
  facet normal 0.982275 -0.187447 0
    outer loop
      vertex 29.3429 4.25655 3
      vertex 29.4606 4.87333 0
      vertex 29.4606 4.87333 3
    endloop
  endfacet
  facet normal 0.982275 -0.187447 0
    outer loop
      vertex 29.4606 4.87333 0
      vertex 29.3429 4.25655 3
      vertex 29.3429 4.25655 0
    endloop
  endfacet
  facet normal 0.951076 0.308956 0
    outer loop
      vertex 29.3429 10.7434 3
      vertex 29.1489 11.3406 0
      vertex 29.1489 11.3406 3
    endloop
  endfacet
  facet normal 0.951076 0.308956 0
    outer loop
      vertex 29.1489 11.3406 0
      vertex 29.3429 10.7434 3
      vertex 29.3429 10.7434 0
    endloop
  endfacet
  facet normal 0.368203 0.929745 -0
    outer loop
      vertex 26.6289 14.0241 0
      vertex 26.0451 14.2553 3
      vertex 26.6289 14.0241 3
    endloop
  endfacet
  facet normal 0.368203 0.929745 0
    outer loop
      vertex 26.0451 14.2553 3
      vertex 26.6289 14.0241 0
      vertex 26.0451 14.2553 0
    endloop
  endfacet
  facet normal -0.982287 -0.187383 0
    outer loop
      vertex 0.657084 4.25655 0
      vertex 0.539426 4.87333 3
      vertex 0.539426 4.87333 0
    endloop
  endfacet
  facet normal -0.982287 -0.187383 0
    outer loop
      vertex 0.539426 4.87333 3
      vertex 0.657084 4.25655 0
      vertex 0.657084 4.25655 3
    endloop
  endfacet
  facet normal -0.951056 -0.309018 0
    outer loop
      vertex 0.851117 3.65938 0
      vertex 0.657084 4.25655 3
      vertex 0.657084 4.25655 0
    endloop
  endfacet
  facet normal -0.951056 -0.309018 0
    outer loop
      vertex 0.657084 4.25655 3
      vertex 0.851117 3.65938 0
      vertex 0.851117 3.65938 3
    endloop
  endfacet
  facet normal -0.904826 -0.425782 0
    outer loop
      vertex 1.11847 3.09123 0
      vertex 0.851117 3.65938 3
      vertex 0.851117 3.65938 0
    endloop
  endfacet
  facet normal -0.904826 -0.425782 0
    outer loop
      vertex 0.851117 3.65938 3
      vertex 1.11847 3.09123 0
      vertex 1.11847 3.09123 3
    endloop
  endfacet
  facet normal 0.770468 -0.637478 0
    outer loop
      vertex 28.1448 2.07726 3
      vertex 28.5451 2.56107 0
      vertex 28.5451 2.56107 3
    endloop
  endfacet
  facet normal 0.770468 -0.637478 0
    outer loop
      vertex 28.5451 2.56107 0
      vertex 28.1448 2.07726 3
      vertex 28.1448 2.07726 0
    endloop
  endfacet
  facet normal 0.36813 -0.929774 0
    outer loop
      vertex 26.0451 0.744717 0
      vertex 26.6289 0.975864 3
      vertex 26.0451 0.744717 3
    endloop
  endfacet
  facet normal 0.36813 -0.929774 0
    outer loop
      vertex 26.6289 0.975864 3
      vertex 26.0451 0.744717 0
      vertex 26.6289 0.975864 0
    endloop
  endfacet
  facet normal 0.587771 -0.809027 0
    outer loop
      vertex 27.1791 1.27836 0
      vertex 27.6871 1.64743 3
      vertex 27.1791 1.27836 3
    endloop
  endfacet
  facet normal 0.587771 -0.809027 0
    outer loop
      vertex 27.6871 1.64743 3
      vertex 27.1791 1.27836 0
      vertex 27.6871 1.64743 0
    endloop
  endfacet
  facet normal 0.998029 -0.0627481 0
    outer loop
      vertex 29.4606 4.87333 3
      vertex 29.5 5.5 0
      vertex 29.5 5.5 3
    endloop
  endfacet
  facet normal 0.998029 -0.0627481 0
    outer loop
      vertex 29.5 5.5 0
      vertex 29.4606 4.87333 3
      vertex 29.4606 4.87333 0
    endloop
  endfacet
  facet normal 0.99803 0.0627451 0
    outer loop
      vertex 29.5 9.5 3
      vertex 29.4606 10.1267 0
      vertex 29.4606 10.1267 3
    endloop
  endfacet
  facet normal 0.99803 0.0627451 0
    outer loop
      vertex 29.4606 10.1267 0
      vertex 29.5 9.5 3
      vertex 29.5 9.5 0
    endloop
  endfacet
  facet normal 0.248601 0.968606 -0
    outer loop
      vertex 26.0451 14.2553 0
      vertex 25.4369 14.4114 3
      vertex 26.0451 14.2553 3
    endloop
  endfacet
  facet normal 0.248601 0.968606 0
    outer loop
      vertex 25.4369 14.4114 3
      vertex 26.0451 14.2553 0
      vertex 25.4369 14.4114 0
    endloop
  endfacet
  facet normal -0.481759 -0.876304 0
    outer loop
      vertex 2.82087 1.27836 0
      vertex 3.3711 0.975864 3
      vertex 2.82087 1.27836 3
    endloop
  endfacet
  facet normal -0.481759 -0.876304 -0
    outer loop
      vertex 3.3711 0.975864 3
      vertex 2.82087 1.27836 0
      vertex 3.3711 0.975864 0
    endloop
  endfacet
  facet normal -0.587779 -0.809022 0
    outer loop
      vertex 2.31288 1.64743 0
      vertex 2.82087 1.27836 3
      vertex 2.31288 1.64743 3
    endloop
  endfacet
  facet normal -0.587779 -0.809022 -0
    outer loop
      vertex 2.82087 1.27836 3
      vertex 2.31288 1.64743 0
      vertex 2.82087 1.27836 0
    endloop
  endfacet
  facet normal -0.844335 -0.535816 0
    outer loop
      vertex 1.45491 2.56107 0
      vertex 1.11847 3.09123 3
      vertex 1.11847 3.09123 0
    endloop
  endfacet
  facet normal -0.844335 -0.535816 0
    outer loop
      vertex 1.11847 3.09123 3
      vertex 1.45491 2.56107 0
      vertex 1.45491 2.56107 3
    endloop
  endfacet
  facet normal 0.684624 0.728896 -0
    outer loop
      vertex 28.1448 12.9227 0
      vertex 27.6871 13.3526 3
      vertex 28.1448 12.9227 3
    endloop
  endfacet
  facet normal 0.684624 0.728896 0
    outer loop
      vertex 27.6871 13.3526 3
      vertex 28.1448 12.9227 0
      vertex 27.6871 13.3526 0
    endloop
  endfacet
  facet normal 0.481784 0.87629 -0
    outer loop
      vertex 27.1791 13.7216 0
      vertex 26.6289 14.0241 3
      vertex 27.1791 13.7216 3
    endloop
  endfacet
  facet normal 0.481784 0.87629 0
    outer loop
      vertex 26.6289 14.0241 3
      vertex 27.1791 13.7216 0
      vertex 26.6289 14.0241 0
    endloop
  endfacet
  facet normal 0.98227 0.187471 0
    outer loop
      vertex 29.4606 10.1267 3
      vertex 29.3429 10.7434 0
      vertex 29.3429 10.7434 3
    endloop
  endfacet
  facet normal 0.98227 0.187471 0
    outer loop
      vertex 29.3429 10.7434 0
      vertex 29.4606 10.1267 3
      vertex 29.4606 10.1267 0
    endloop
  endfacet
  facet normal 0.587698 0.80908 -0
    outer loop
      vertex 27.6871 13.3526 0
      vertex 27.1791 13.7216 3
      vertex 27.6871 13.3526 3
    endloop
  endfacet
  facet normal 0.587698 0.80908 0
    outer loop
      vertex 27.1791 13.7216 3
      vertex 27.6871 13.3526 0
      vertex 27.1791 13.7216 0
    endloop
  endfacet
  facet normal 0.844336 0.535814 0
    outer loop
      vertex 28.8815 11.9088 3
      vertex 28.5451 12.4389 0
      vertex 28.5451 12.4389 3
    endloop
  endfacet
  facet normal 0.844336 0.535814 0
    outer loop
      vertex 28.5451 12.4389 0
      vertex 28.8815 11.9088 3
      vertex 28.8815 11.9088 0
    endloop
  endfacet
  facet normal 0.904811 0.425812 0
    outer loop
      vertex 29.1489 11.3406 3
      vertex 28.8815 11.9088 0
      vertex 28.8815 11.9088 3
    endloop
  endfacet
  facet normal 0.904811 0.425812 0
    outer loop
      vertex 28.8815 11.9088 0
      vertex 29.1489 11.3406 3
      vertex 29.1489 11.3406 0
    endloop
  endfacet
endsolid OpenSCAD_Model
