<?xml version="1.0" standalone="no"?>
<!DOCTYPE svg PUBLIC "-//W3C//DTD SVG 1.1//EN" "http://www.w3.org/Graphics/SVG/1.1/DTD/svg11.dtd">
<svg width="375mm" height="15mm" viewBox="0 -15 375 15" xmlns="http://www.w3.org/2000/svg" version="1.1">
<title>OpenSCAD Model</title>
<path d="
M 370.437,-0.588562 L 371.045,-0.744705 L 371.629,-0.975861 L 372.179,-1.27835 L 372.687,-1.64743 L 373.145,-2.07726
 L 373.545,-2.56107 L 373.882,-3.09122 L 374.149,-3.65936 L 374.343,-4.25655 L 374.461,-4.87332 L 374.5,-5.5
 L 374.5,-9.5 L 374.461,-10.1267 L 374.343,-10.7434 L 374.149,-11.3406 L 373.882,-11.9088 L 373.545,-12.4389
 L 373.145,-12.9227 L 372.687,-13.3526 L 372.179,-13.7216 L 371.629,-14.0241 L 371.045,-14.2553 L 370.437,-14.4114
 L 369.814,-14.4901 L 5.18604,-14.4901 L 4.56308,-14.4114 L 3.95491,-14.2553 L 3.37109,-14.0241 L 2.82086,-13.7216
 L 2.31287,-13.3526 L 1.85515,-12.9227 L 1.45491,-12.4389 L 1.11845,-11.9088 L 0.851105,-11.3406 L 0.657074,-10.7434
 L 0.539413,-10.1267 L 0.5,-9.5 L 0.5,-5.5 L 0.539413,-4.87332 L 0.657074,-4.25655 L 0.851105,-3.65936
 L 1.11845,-3.09122 L 1.45491,-2.56107 L 1.85515,-2.07726 L 2.31287,-1.64743 L 2.82086,-1.27835 L 3.37109,-0.975861
 L 3.95491,-0.744705 L 4.56308,-0.588562 L 5.18604,-0.509857 L 369.814,-0.509857 z
M 67.3116,-4.50591 L 66.9379,-4.55313 L 66.573,-4.64682 L 66.2227,-4.78551 L 65.8925,-4.96701 L 65.5877,-5.18845
 L 65.3131,-5.44635 L 65.073,-5.73663 L 64.8711,-6.05473 L 64.7107,-6.39561 L 64.5943,-6.75392 L 64.5237,-7.12399
 L 64.5,-7.5 L 64.5237,-7.87599 L 64.5943,-8.24606 L 64.7107,-8.60437 L 64.8711,-8.94525 L 65.073,-9.26335
 L 65.3131,-9.55363 L 65.5877,-9.81154 L 65.8925,-10.033 L 66.2227,-10.2145 L 66.573,-10.3532 L 66.9379,-10.4469
 L 67.3116,-10.4941 L 67.6884,-10.4941 L 68.0621,-10.4469 L 68.427,-10.3532 L 68.7773,-10.2145 L 69.1075,-10.033
 L 69.4123,-9.81154 L 69.6869,-9.55363 L 69.927,-9.26335 L 70.1289,-8.94525 L 70.2893,-8.60437 L 70.4057,-8.24606
 L 70.4763,-7.87599 L 70.5,-7.5 L 70.4763,-7.12399 L 70.4057,-6.75392 L 70.2893,-6.39561 L 70.1289,-6.05473
 L 69.927,-5.73663 L 69.6869,-5.44635 L 69.4123,-5.18845 L 69.1075,-4.96701 L 68.7773,-4.78551 L 68.427,-4.64682
 L 68.0621,-4.55313 L 67.6884,-4.50591 z
M 157.312,-4.50591 L 156.938,-4.55313 L 156.573,-4.64682 L 156.223,-4.78551 L 155.893,-4.96701 L 155.588,-5.18845
 L 155.313,-5.44635 L 155.073,-5.73663 L 154.871,-6.05473 L 154.711,-6.39561 L 154.594,-6.75392 L 154.524,-7.12399
 L 154.5,-7.5 L 154.524,-7.87599 L 154.594,-8.24606 L 154.711,-8.60437 L 154.871,-8.94525 L 155.073,-9.26335
 L 155.313,-9.55363 L 155.588,-9.81154 L 155.893,-10.033 L 156.223,-10.2145 L 156.573,-10.3532 L 156.938,-10.4469
 L 157.312,-10.4941 L 157.688,-10.4941 L 158.062,-10.4469 L 158.427,-10.3532 L 158.777,-10.2145 L 159.107,-10.033
 L 159.412,-9.81154 L 159.687,-9.55363 L 159.927,-9.26335 L 160.129,-8.94525 L 160.289,-8.60437 L 160.406,-8.24606
 L 160.476,-7.87599 L 160.5,-7.5 L 160.476,-7.12399 L 160.406,-6.75392 L 160.289,-6.39561 L 160.129,-6.05473
 L 159.927,-5.73663 L 159.687,-5.44635 L 159.412,-5.18845 L 159.107,-4.96701 L 158.777,-4.78551 L 158.427,-4.64682
 L 158.062,-4.55313 L 157.688,-4.50591 z
M 7.31161,-4.50591 L 6.93785,-4.55313 L 6.57294,-4.64682 L 6.22266,-4.78551 L 5.89252,-4.96701 L 5.58772,-5.18845
 L 5.31308,-5.44635 L 5.07294,-5.73663 L 4.87108,-6.05473 L 4.71066,-6.39561 L 4.59424,-6.75392 L 4.52365,-7.12399
 L 4.5,-7.5 L 4.52365,-7.87599 L 4.59424,-8.24606 L 4.71066,-8.60437 L 4.87108,-8.94525 L 5.07294,-9.26335
 L 5.31308,-9.55363 L 5.58772,-9.81154 L 5.89252,-10.033 L 6.22266,-10.2145 L 6.57294,-10.3532 L 6.93785,-10.4469
 L 7.31161,-10.4941 L 7.68837,-10.4941 L 8.06213,-10.4469 L 8.42705,-10.3532 L 8.77733,-10.2145 L 9.10747,-10.033
 L 9.41226,-9.81154 L 9.6869,-9.55363 L 9.92705,-9.26335 L 10.1289,-8.94525 L 10.2893,-8.60437 L 10.4057,-8.24606
 L 10.4763,-7.87599 L 10.5,-7.5 L 10.4763,-7.12399 L 10.4057,-6.75392 L 10.2893,-6.39561 L 10.1289,-6.05473
 L 9.92705,-5.73663 L 9.6869,-5.44635 L 9.41226,-5.18845 L 9.10747,-4.96701 L 8.77733,-4.78551 L 8.42705,-4.64682
 L 8.06213,-4.55313 L 7.68837,-4.50591 z
M 172.312,-4.50591 L 171.938,-4.55313 L 171.573,-4.64682 L 171.223,-4.78551 L 170.893,-4.96701 L 170.588,-5.18845
 L 170.313,-5.44635 L 170.073,-5.73663 L 169.871,-6.05473 L 169.711,-6.39561 L 169.594,-6.75392 L 169.524,-7.12399
 L 169.5,-7.5 L 169.524,-7.87599 L 169.594,-8.24606 L 169.711,-8.60437 L 169.871,-8.94525 L 170.073,-9.26335
 L 170.313,-9.55363 L 170.588,-9.81154 L 170.893,-10.033 L 171.223,-10.2145 L 171.573,-10.3532 L 171.938,-10.4469
 L 172.312,-10.4941 L 172.688,-10.4941 L 173.062,-10.4469 L 173.427,-10.3532 L 173.777,-10.2145 L 174.107,-10.033
 L 174.412,-9.81154 L 174.687,-9.55363 L 174.927,-9.26335 L 175.129,-8.94525 L 175.289,-8.60437 L 175.406,-8.24606
 L 175.476,-7.87599 L 175.5,-7.5 L 175.476,-7.12399 L 175.406,-6.75392 L 175.289,-6.39561 L 175.129,-6.05473
 L 174.927,-5.73663 L 174.687,-5.44635 L 174.412,-5.18845 L 174.107,-4.96701 L 173.777,-4.78551 L 173.427,-4.64682
 L 173.062,-4.55313 L 172.688,-4.50591 z
M 52.3116,-4.50591 L 51.9379,-4.55313 L 51.5729,-4.64682 L 51.2227,-4.78551 L 50.8925,-4.96701 L 50.5877,-5.18845
 L 50.3131,-5.44635 L 50.0729,-5.73663 L 49.8711,-6.05473 L 49.7107,-6.39561 L 49.5942,-6.75392 L 49.5237,-7.12399
 L 49.5,-7.5 L 49.5237,-7.87599 L 49.5942,-8.24606 L 49.7107,-8.60437 L 49.8711,-8.94525 L 50.0729,-9.26335
 L 50.3131,-9.55363 L 50.5877,-9.81154 L 50.8925,-10.033 L 51.2227,-10.2145 L 51.5729,-10.3532 L 51.9379,-10.4469
 L 52.3116,-10.4941 L 52.6884,-10.4941 L 53.0621,-10.4469 L 53.427,-10.3532 L 53.7773,-10.2145 L 54.1075,-10.033
 L 54.4123,-9.81154 L 54.6869,-9.55363 L 54.927,-9.26335 L 55.1289,-8.94525 L 55.2893,-8.60437 L 55.4057,-8.24606
 L 55.4763,-7.87599 L 55.5,-7.5 L 55.4763,-7.12399 L 55.4057,-6.75392 L 55.2893,-6.39561 L 55.1289,-6.05473
 L 54.927,-5.73663 L 54.6869,-5.44635 L 54.4123,-5.18845 L 54.1075,-4.96701 L 53.7773,-4.78551 L 53.427,-4.64682
 L 53.0621,-4.55313 L 52.6884,-4.50591 z
M 127.312,-4.50591 L 126.938,-4.55313 L 126.573,-4.64682 L 126.223,-4.78551 L 125.893,-4.96701 L 125.588,-5.18845
 L 125.313,-5.44635 L 125.073,-5.73663 L 124.871,-6.05473 L 124.711,-6.39561 L 124.594,-6.75392 L 124.524,-7.12399
 L 124.5,-7.5 L 124.524,-7.87599 L 124.594,-8.24606 L 124.711,-8.60437 L 124.871,-8.94525 L 125.073,-9.26335
 L 125.313,-9.55363 L 125.588,-9.81154 L 125.893,-10.033 L 126.223,-10.2145 L 126.573,-10.3532 L 126.938,-10.4469
 L 127.312,-10.4941 L 127.688,-10.4941 L 128.062,-10.4469 L 128.427,-10.3532 L 128.777,-10.2145 L 129.107,-10.033
 L 129.412,-9.81154 L 129.687,-9.55363 L 129.927,-9.26335 L 130.129,-8.94525 L 130.289,-8.60437 L 130.406,-8.24606
 L 130.476,-7.87599 L 130.5,-7.5 L 130.476,-7.12399 L 130.406,-6.75392 L 130.289,-6.39561 L 130.129,-6.05473
 L 129.927,-5.73663 L 129.687,-5.44635 L 129.412,-5.18845 L 129.107,-4.96701 L 128.777,-4.78551 L 128.427,-4.64682
 L 128.062,-4.55313 L 127.688,-4.50591 z
M 37.3116,-4.50591 L 36.9379,-4.55313 L 36.5729,-4.64682 L 36.2227,-4.78551 L 35.8925,-4.96701 L 35.5877,-5.18845
 L 35.3131,-5.44635 L 35.0729,-5.73663 L 34.8711,-6.05473 L 34.7107,-6.39561 L 34.5942,-6.75392 L 34.5237,-7.12399
 L 34.5,-7.5 L 34.5237,-7.87599 L 34.5942,-8.24606 L 34.7107,-8.60437 L 34.8711,-8.94525 L 35.0729,-9.26335
 L 35.3131,-9.55363 L 35.5877,-9.81154 L 35.8925,-10.033 L 36.2227,-10.2145 L 36.5729,-10.3532 L 36.9379,-10.4469
 L 37.3116,-10.4941 L 37.6884,-10.4941 L 38.0621,-10.4469 L 38.427,-10.3532 L 38.7773,-10.2145 L 39.1075,-10.033
 L 39.4123,-9.81154 L 39.6869,-9.55363 L 39.927,-9.26335 L 40.1289,-8.94525 L 40.2893,-8.60437 L 40.4057,-8.24606
 L 40.4763,-7.87599 L 40.5,-7.5 L 40.4763,-7.12399 L 40.4057,-6.75392 L 40.2893,-6.39561 L 40.1289,-6.05473
 L 39.927,-5.73663 L 39.6869,-5.44635 L 39.4123,-5.18845 L 39.1075,-4.96701 L 38.7773,-4.78551 L 38.427,-4.64682
 L 38.0621,-4.55313 L 37.6884,-4.50591 z
M 112.312,-4.50591 L 111.938,-4.55313 L 111.573,-4.64682 L 111.223,-4.78551 L 110.893,-4.96701 L 110.588,-5.18845
 L 110.313,-5.44635 L 110.073,-5.73663 L 109.871,-6.05473 L 109.711,-6.39561 L 109.594,-6.75392 L 109.524,-7.12399
 L 109.5,-7.5 L 109.524,-7.87599 L 109.594,-8.24606 L 109.711,-8.60437 L 109.871,-8.94525 L 110.073,-9.26335
 L 110.313,-9.55363 L 110.588,-9.81154 L 110.893,-10.033 L 111.223,-10.2145 L 111.573,-10.3532 L 111.938,-10.4469
 L 112.312,-10.4941 L 112.688,-10.4941 L 113.062,-10.4469 L 113.427,-10.3532 L 113.777,-10.2145 L 114.107,-10.033
 L 114.412,-9.81154 L 114.687,-9.55363 L 114.927,-9.26335 L 115.129,-8.94525 L 115.289,-8.60437 L 115.406,-8.24606
 L 115.476,-7.87599 L 115.5,-7.5 L 115.476,-7.12399 L 115.406,-6.75392 L 115.289,-6.39561 L 115.129,-6.05473
 L 114.927,-5.73663 L 114.687,-5.44635 L 114.412,-5.18845 L 114.107,-4.96701 L 113.777,-4.78551 L 113.427,-4.64682
 L 113.062,-4.55313 L 112.688,-4.50591 z
M 142.312,-4.50591 L 141.938,-4.55313 L 141.573,-4.64682 L 141.223,-4.78551 L 140.893,-4.96701 L 140.588,-5.18845
 L 140.313,-5.44635 L 140.073,-5.73663 L 139.871,-6.05473 L 139.711,-6.39561 L 139.594,-6.75392 L 139.524,-7.12399
 L 139.5,-7.5 L 139.524,-7.87599 L 139.594,-8.24606 L 139.711,-8.60437 L 139.871,-8.94525 L 140.073,-9.26335
 L 140.313,-9.55363 L 140.588,-9.81154 L 140.893,-10.033 L 141.223,-10.2145 L 141.573,-10.3532 L 141.938,-10.4469
 L 142.312,-10.4941 L 142.688,-10.4941 L 143.062,-10.4469 L 143.427,-10.3532 L 143.777,-10.2145 L 144.107,-10.033
 L 144.412,-9.81154 L 144.687,-9.55363 L 144.927,-9.26335 L 145.129,-8.94525 L 145.289,-8.60437 L 145.406,-8.24606
 L 145.476,-7.87599 L 145.5,-7.5 L 145.476,-7.12399 L 145.406,-6.75392 L 145.289,-6.39561 L 145.129,-6.05473
 L 144.927,-5.73663 L 144.687,-5.44635 L 144.412,-5.18845 L 144.107,-4.96701 L 143.777,-4.78551 L 143.427,-4.64682
 L 143.062,-4.55313 L 142.688,-4.50591 z
M 97.3116,-4.50591 L 96.9379,-4.55313 L 96.573,-4.64682 L 96.2227,-4.78551 L 95.8925,-4.96701 L 95.5877,-5.18845
 L 95.3131,-5.44635 L 95.073,-5.73663 L 94.8711,-6.05473 L 94.7107,-6.39561 L 94.5943,-6.75392 L 94.5237,-7.12399
 L 94.5,-7.5 L 94.5237,-7.87599 L 94.5943,-8.24606 L 94.7107,-8.60437 L 94.8711,-8.94525 L 95.073,-9.26335
 L 95.3131,-9.55363 L 95.5877,-9.81154 L 95.8925,-10.033 L 96.2227,-10.2145 L 96.573,-10.3532 L 96.9379,-10.4469
 L 97.3116,-10.4941 L 97.6884,-10.4941 L 98.0621,-10.4469 L 98.427,-10.3532 L 98.7773,-10.2145 L 99.1075,-10.033
 L 99.4123,-9.81154 L 99.6869,-9.55363 L 99.927,-9.26335 L 100.129,-8.94525 L 100.289,-8.60437 L 100.406,-8.24606
 L 100.476,-7.87599 L 100.5,-7.5 L 100.476,-7.12399 L 100.406,-6.75392 L 100.289,-6.39561 L 100.129,-6.05473
 L 99.927,-5.73663 L 99.6869,-5.44635 L 99.4123,-5.18845 L 99.1075,-4.96701 L 98.7773,-4.78551 L 98.427,-4.64682
 L 98.0621,-4.55313 L 97.6884,-4.50591 z
M 22.3116,-4.50591 L 21.9379,-4.55313 L 21.5729,-4.64682 L 21.2227,-4.78551 L 20.8925,-4.96701 L 20.5877,-5.18845
 L 20.3131,-5.44635 L 20.0729,-5.73663 L 19.8711,-6.05473 L 19.7107,-6.39561 L 19.5942,-6.75392 L 19.5237,-7.12399
 L 19.5,-7.5 L 19.5237,-7.87599 L 19.5942,-8.24606 L 19.7107,-8.60437 L 19.8711,-8.94525 L 20.0729,-9.26335
 L 20.3131,-9.55363 L 20.5877,-9.81154 L 20.8925,-10.033 L 21.2227,-10.2145 L 21.5729,-10.3532 L 21.9379,-10.4469
 L 22.3116,-10.4941 L 22.6884,-10.4941 L 23.0621,-10.4469 L 23.427,-10.3532 L 23.7773,-10.2145 L 24.1075,-10.033
 L 24.4123,-9.81154 L 24.6869,-9.55363 L 24.927,-9.26335 L 25.1289,-8.94525 L 25.2893,-8.60437 L 25.4057,-8.24606
 L 25.4763,-7.87599 L 25.5,-7.5 L 25.4763,-7.12399 L 25.4057,-6.75392 L 25.2893,-6.39561 L 25.1289,-6.05473
 L 24.927,-5.73663 L 24.6869,-5.44635 L 24.4123,-5.18845 L 24.1075,-4.96701 L 23.7773,-4.78551 L 23.427,-4.64682
 L 23.0621,-4.55313 L 22.6884,-4.50591 z
M 367.312,-4.50591 L 366.938,-4.55313 L 366.573,-4.64682 L 366.223,-4.78551 L 365.893,-4.96701 L 365.588,-5.18845
 L 365.313,-5.44635 L 365.073,-5.73663 L 364.871,-6.05473 L 364.711,-6.39561 L 364.594,-6.75392 L 364.524,-7.12399
 L 364.5,-7.5 L 364.524,-7.87599 L 364.594,-8.24606 L 364.711,-8.60437 L 364.871,-8.94525 L 365.073,-9.26335
 L 365.313,-9.55363 L 365.588,-9.81154 L 365.893,-10.033 L 366.223,-10.2145 L 366.573,-10.3532 L 366.938,-10.4469
 L 367.312,-10.4941 L 367.688,-10.4941 L 368.062,-10.4469 L 368.427,-10.3532 L 368.777,-10.2145 L 369.107,-10.033
 L 369.412,-9.81154 L 369.687,-9.55363 L 369.927,-9.26335 L 370.129,-8.94525 L 370.289,-8.60437 L 370.406,-8.24606
 L 370.476,-7.87599 L 370.5,-7.5 L 370.476,-7.12399 L 370.406,-6.75392 L 370.289,-6.39561 L 370.129,-6.05473
 L 369.927,-5.73663 L 369.687,-5.44635 L 369.412,-5.18845 L 369.107,-4.96701 L 368.777,-4.78551 L 368.427,-4.64682
 L 368.062,-4.55313 L 367.688,-4.50591 z
M 352.312,-4.50591 L 351.938,-4.55313 L 351.573,-4.64682 L 351.223,-4.78551 L 350.893,-4.96701 L 350.588,-5.18845
 L 350.313,-5.44635 L 350.073,-5.73663 L 349.871,-6.05473 L 349.711,-6.39561 L 349.594,-6.75392 L 349.524,-7.12399
 L 349.5,-7.5 L 349.524,-7.87599 L 349.594,-8.24606 L 349.711,-8.60437 L 349.871,-8.94525 L 350.073,-9.26335
 L 350.313,-9.55363 L 350.588,-9.81154 L 350.893,-10.033 L 351.223,-10.2145 L 351.573,-10.3532 L 351.938,-10.4469
 L 352.312,-10.4941 L 352.688,-10.4941 L 353.062,-10.4469 L 353.427,-10.3532 L 353.777,-10.2145 L 354.107,-10.033
 L 354.412,-9.81154 L 354.687,-9.55363 L 354.927,-9.26335 L 355.129,-8.94525 L 355.289,-8.60437 L 355.406,-8.24606
 L 355.476,-7.87599 L 355.5,-7.5 L 355.476,-7.12399 L 355.406,-6.75392 L 355.289,-6.39561 L 355.129,-6.05473
 L 354.927,-5.73663 L 354.687,-5.44635 L 354.412,-5.18845 L 354.107,-4.96701 L 353.777,-4.78551 L 353.427,-4.64682
 L 353.062,-4.55313 L 352.688,-4.50591 z
M 82.3116,-4.50591 L 81.9379,-4.55313 L 81.573,-4.64682 L 81.2227,-4.78551 L 80.8925,-4.96701 L 80.5877,-5.18845
 L 80.3131,-5.44635 L 80.073,-5.73663 L 79.8711,-6.05473 L 79.7107,-6.39561 L 79.5943,-6.75392 L 79.5237,-7.12399
 L 79.5,-7.5 L 79.5237,-7.87599 L 79.5943,-8.24606 L 79.7107,-8.60437 L 79.8711,-8.94525 L 80.073,-9.26335
 L 80.3131,-9.55363 L 80.5877,-9.81154 L 80.8925,-10.033 L 81.2227,-10.2145 L 81.573,-10.3532 L 81.9379,-10.4469
 L 82.3116,-10.4941 L 82.6884,-10.4941 L 83.0621,-10.4469 L 83.427,-10.3532 L 83.7773,-10.2145 L 84.1075,-10.033
 L 84.4123,-9.81154 L 84.6869,-9.55363 L 84.927,-9.26335 L 85.1289,-8.94525 L 85.2893,-8.60437 L 85.4057,-8.24606
 L 85.4763,-7.87599 L 85.5,-7.5 L 85.4763,-7.12399 L 85.4057,-6.75392 L 85.2893,-6.39561 L 85.1289,-6.05473
 L 84.927,-5.73663 L 84.6869,-5.44635 L 84.4123,-5.18845 L 84.1075,-4.96701 L 83.7773,-4.78551 L 83.427,-4.64682
 L 83.0621,-4.55313 L 82.6884,-4.50591 z
M 202.312,-4.50591 L 201.938,-4.55313 L 201.573,-4.64682 L 201.223,-4.78551 L 200.893,-4.96701 L 200.588,-5.18845
 L 200.313,-5.44635 L 200.073,-5.73663 L 199.871,-6.05473 L 199.711,-6.39561 L 199.594,-6.75392 L 199.524,-7.12399
 L 199.5,-7.5 L 199.524,-7.87599 L 199.594,-8.24606 L 199.711,-8.60437 L 199.871,-8.94525 L 200.073,-9.26335
 L 200.313,-9.55363 L 200.588,-9.81154 L 200.893,-10.033 L 201.223,-10.2145 L 201.573,-10.3532 L 201.938,-10.4469
 L 202.312,-10.4941 L 202.688,-10.4941 L 203.062,-10.4469 L 203.427,-10.3532 L 203.777,-10.2145 L 204.107,-10.033
 L 204.412,-9.81154 L 204.687,-9.55363 L 204.927,-9.26335 L 205.129,-8.94525 L 205.289,-8.60437 L 205.406,-8.24606
 L 205.476,-7.87599 L 205.5,-7.5 L 205.476,-7.12399 L 205.406,-6.75392 L 205.289,-6.39561 L 205.129,-6.05473
 L 204.927,-5.73663 L 204.687,-5.44635 L 204.412,-5.18845 L 204.107,-4.96701 L 203.777,-4.78551 L 203.427,-4.64682
 L 203.062,-4.55313 L 202.688,-4.50591 z
M 322.312,-4.50591 L 321.938,-4.55313 L 321.573,-4.64682 L 321.223,-4.78551 L 320.893,-4.96701 L 320.588,-5.18845
 L 320.313,-5.44635 L 320.073,-5.73663 L 319.871,-6.05473 L 319.711,-6.39561 L 319.594,-6.75392 L 319.524,-7.12399
 L 319.5,-7.5 L 319.524,-7.87599 L 319.594,-8.24606 L 319.711,-8.60437 L 319.871,-8.94525 L 320.073,-9.26335
 L 320.313,-9.55363 L 320.588,-9.81154 L 320.893,-10.033 L 321.223,-10.2145 L 321.573,-10.3532 L 321.938,-10.4469
 L 322.312,-10.4941 L 322.688,-10.4941 L 323.062,-10.4469 L 323.427,-10.3532 L 323.777,-10.2145 L 324.107,-10.033
 L 324.412,-9.81154 L 324.687,-9.55363 L 324.927,-9.26335 L 325.129,-8.94525 L 325.289,-8.60437 L 325.406,-8.24606
 L 325.476,-7.87599 L 325.5,-7.5 L 325.476,-7.12399 L 325.406,-6.75392 L 325.289,-6.39561 L 325.129,-6.05473
 L 324.927,-5.73663 L 324.687,-5.44635 L 324.412,-5.18845 L 324.107,-4.96701 L 323.777,-4.78551 L 323.427,-4.64682
 L 323.062,-4.55313 L 322.688,-4.50591 z
M 292.312,-4.50591 L 291.938,-4.55313 L 291.573,-4.64682 L 291.223,-4.78551 L 290.893,-4.96701 L 290.588,-5.18845
 L 290.313,-5.44635 L 290.073,-5.73663 L 289.871,-6.05473 L 289.711,-6.39561 L 289.594,-6.75392 L 289.524,-7.12399
 L 289.5,-7.5 L 289.524,-7.87599 L 289.594,-8.24606 L 289.711,-8.60437 L 289.871,-8.94525 L 290.073,-9.26335
 L 290.313,-9.55363 L 290.588,-9.81154 L 290.893,-10.033 L 291.223,-10.2145 L 291.573,-10.3532 L 291.938,-10.4469
 L 292.312,-10.4941 L 292.688,-10.4941 L 293.062,-10.4469 L 293.427,-10.3532 L 293.777,-10.2145 L 294.107,-10.033
 L 294.412,-9.81154 L 294.687,-9.55363 L 294.927,-9.26335 L 295.129,-8.94525 L 295.289,-8.60437 L 295.406,-8.24606
 L 295.476,-7.87599 L 295.5,-7.5 L 295.476,-7.12399 L 295.406,-6.75392 L 295.289,-6.39561 L 295.129,-6.05473
 L 294.927,-5.73663 L 294.687,-5.44635 L 294.412,-5.18845 L 294.107,-4.96701 L 293.777,-4.78551 L 293.427,-4.64682
 L 293.062,-4.55313 L 292.688,-4.50591 z
M 217.312,-4.50591 L 216.938,-4.55313 L 216.573,-4.64682 L 216.223,-4.78551 L 215.893,-4.96701 L 215.588,-5.18845
 L 215.313,-5.44635 L 215.073,-5.73663 L 214.871,-6.05473 L 214.711,-6.39561 L 214.594,-6.75392 L 214.524,-7.12399
 L 214.5,-7.5 L 214.524,-7.87599 L 214.594,-8.24606 L 214.711,-8.60437 L 214.871,-8.94525 L 215.073,-9.26335
 L 215.313,-9.55363 L 215.588,-9.81154 L 215.893,-10.033 L 216.223,-10.2145 L 216.573,-10.3532 L 216.938,-10.4469
 L 217.312,-10.4941 L 217.688,-10.4941 L 218.062,-10.4469 L 218.427,-10.3532 L 218.777,-10.2145 L 219.107,-10.033
 L 219.412,-9.81154 L 219.687,-9.55363 L 219.927,-9.26335 L 220.129,-8.94525 L 220.289,-8.60437 L 220.406,-8.24606
 L 220.476,-7.87599 L 220.5,-7.5 L 220.476,-7.12399 L 220.406,-6.75392 L 220.289,-6.39561 L 220.129,-6.05473
 L 219.927,-5.73663 L 219.687,-5.44635 L 219.412,-5.18845 L 219.107,-4.96701 L 218.777,-4.78551 L 218.427,-4.64682
 L 218.062,-4.55313 L 217.688,-4.50591 z
M 307.312,-4.50591 L 306.938,-4.55313 L 306.573,-4.64682 L 306.223,-4.78551 L 305.893,-4.96701 L 305.588,-5.18845
 L 305.313,-5.44635 L 305.073,-5.73663 L 304.871,-6.05473 L 304.711,-6.39561 L 304.594,-6.75392 L 304.524,-7.12399
 L 304.5,-7.5 L 304.524,-7.87599 L 304.594,-8.24606 L 304.711,-8.60437 L 304.871,-8.94525 L 305.073,-9.26335
 L 305.313,-9.55363 L 305.588,-9.81154 L 305.893,-10.033 L 306.223,-10.2145 L 306.573,-10.3532 L 306.938,-10.4469
 L 307.312,-10.4941 L 307.688,-10.4941 L 308.062,-10.4469 L 308.427,-10.3532 L 308.777,-10.2145 L 309.107,-10.033
 L 309.412,-9.81154 L 309.687,-9.55363 L 309.927,-9.26335 L 310.129,-8.94525 L 310.289,-8.60437 L 310.406,-8.24606
 L 310.476,-7.87599 L 310.5,-7.5 L 310.476,-7.12399 L 310.406,-6.75392 L 310.289,-6.39561 L 310.129,-6.05473
 L 309.927,-5.73663 L 309.687,-5.44635 L 309.412,-5.18845 L 309.107,-4.96701 L 308.777,-4.78551 L 308.427,-4.64682
 L 308.062,-4.55313 L 307.688,-4.50591 z
M 262.312,-4.50591 L 261.938,-4.55313 L 261.573,-4.64682 L 261.223,-4.78551 L 260.893,-4.96701 L 260.588,-5.18845
 L 260.313,-5.44635 L 260.073,-5.73663 L 259.871,-6.05473 L 259.711,-6.39561 L 259.594,-6.75392 L 259.524,-7.12399
 L 259.5,-7.5 L 259.524,-7.87599 L 259.594,-8.24606 L 259.711,-8.60437 L 259.871,-8.94525 L 260.073,-9.26335
 L 260.313,-9.55363 L 260.588,-9.81154 L 260.893,-10.033 L 261.223,-10.2145 L 261.573,-10.3532 L 261.938,-10.4469
 L 262.312,-10.4941 L 262.688,-10.4941 L 263.062,-10.4469 L 263.427,-10.3532 L 263.777,-10.2145 L 264.107,-10.033
 L 264.412,-9.81154 L 264.687,-9.55363 L 264.927,-9.26335 L 265.129,-8.94525 L 265.289,-8.60437 L 265.406,-8.24606
 L 265.476,-7.87599 L 265.5,-7.5 L 265.476,-7.12399 L 265.406,-6.75392 L 265.289,-6.39561 L 265.129,-6.05473
 L 264.927,-5.73663 L 264.687,-5.44635 L 264.412,-5.18845 L 264.107,-4.96701 L 263.777,-4.78551 L 263.427,-4.64682
 L 263.062,-4.55313 L 262.688,-4.50591 z
M 187.312,-4.50591 L 186.938,-4.55313 L 186.573,-4.64682 L 186.223,-4.78551 L 185.893,-4.96701 L 185.588,-5.18845
 L 185.313,-5.44635 L 185.073,-5.73663 L 184.871,-6.05473 L 184.711,-6.39561 L 184.594,-6.75392 L 184.524,-7.12399
 L 184.5,-7.5 L 184.524,-7.87599 L 184.594,-8.24606 L 184.711,-8.60437 L 184.871,-8.94525 L 185.073,-9.26335
 L 185.313,-9.55363 L 185.588,-9.81154 L 185.893,-10.033 L 186.223,-10.2145 L 186.573,-10.3532 L 186.938,-10.4469
 L 187.312,-10.4941 L 187.688,-10.4941 L 188.062,-10.4469 L 188.427,-10.3532 L 188.777,-10.2145 L 189.107,-10.033
 L 189.412,-9.81154 L 189.687,-9.55363 L 189.927,-9.26335 L 190.129,-8.94525 L 190.289,-8.60437 L 190.406,-8.24606
 L 190.476,-7.87599 L 190.5,-7.5 L 190.476,-7.12399 L 190.406,-6.75392 L 190.289,-6.39561 L 190.129,-6.05473
 L 189.927,-5.73663 L 189.687,-5.44635 L 189.412,-5.18845 L 189.107,-4.96701 L 188.777,-4.78551 L 188.427,-4.64682
 L 188.062,-4.55313 L 187.688,-4.50591 z
M 337.312,-4.50591 L 336.938,-4.55313 L 336.573,-4.64682 L 336.223,-4.78551 L 335.893,-4.96701 L 335.588,-5.18845
 L 335.313,-5.44635 L 335.073,-5.73663 L 334.871,-6.05473 L 334.711,-6.39561 L 334.594,-6.75392 L 334.524,-7.12399
 L 334.5,-7.5 L 334.524,-7.87599 L 334.594,-8.24606 L 334.711,-8.60437 L 334.871,-8.94525 L 335.073,-9.26335
 L 335.313,-9.55363 L 335.588,-9.81154 L 335.893,-10.033 L 336.223,-10.2145 L 336.573,-10.3532 L 336.938,-10.4469
 L 337.312,-10.4941 L 337.688,-10.4941 L 338.062,-10.4469 L 338.427,-10.3532 L 338.777,-10.2145 L 339.107,-10.033
 L 339.412,-9.81154 L 339.687,-9.55363 L 339.927,-9.26335 L 340.129,-8.94525 L 340.289,-8.60437 L 340.406,-8.24606
 L 340.476,-7.87599 L 340.5,-7.5 L 340.476,-7.12399 L 340.406,-6.75392 L 340.289,-6.39561 L 340.129,-6.05473
 L 339.927,-5.73663 L 339.687,-5.44635 L 339.412,-5.18845 L 339.107,-4.96701 L 338.777,-4.78551 L 338.427,-4.64682
 L 338.062,-4.55313 L 337.688,-4.50591 z
M 247.312,-4.50591 L 246.938,-4.55313 L 246.573,-4.64682 L 246.223,-4.78551 L 245.893,-4.96701 L 245.588,-5.18845
 L 245.313,-5.44635 L 245.073,-5.73663 L 244.871,-6.05473 L 244.711,-6.39561 L 244.594,-6.75392 L 244.524,-7.12399
 L 244.5,-7.5 L 244.524,-7.87599 L 244.594,-8.24606 L 244.711,-8.60437 L 244.871,-8.94525 L 245.073,-9.26335
 L 245.313,-9.55363 L 245.588,-9.81154 L 245.893,-10.033 L 246.223,-10.2145 L 246.573,-10.3532 L 246.938,-10.4469
 L 247.312,-10.4941 L 247.688,-10.4941 L 248.062,-10.4469 L 248.427,-10.3532 L 248.777,-10.2145 L 249.107,-10.033
 L 249.412,-9.81154 L 249.687,-9.55363 L 249.927,-9.26335 L 250.129,-8.94525 L 250.289,-8.60437 L 250.406,-8.24606
 L 250.476,-7.87599 L 250.5,-7.5 L 250.476,-7.12399 L 250.406,-6.75392 L 250.289,-6.39561 L 250.129,-6.05473
 L 249.927,-5.73663 L 249.687,-5.44635 L 249.412,-5.18845 L 249.107,-4.96701 L 248.777,-4.78551 L 248.427,-4.64682
 L 248.062,-4.55313 L 247.688,-4.50591 z
M 232.312,-4.50591 L 231.938,-4.55313 L 231.573,-4.64682 L 231.223,-4.78551 L 230.893,-4.96701 L 230.588,-5.18845
 L 230.313,-5.44635 L 230.073,-5.73663 L 229.871,-6.05473 L 229.711,-6.39561 L 229.594,-6.75392 L 229.524,-7.12399
 L 229.5,-7.5 L 229.524,-7.87599 L 229.594,-8.24606 L 229.711,-8.60437 L 229.871,-8.94525 L 230.073,-9.26335
 L 230.313,-9.55363 L 230.588,-9.81154 L 230.893,-10.033 L 231.223,-10.2145 L 231.573,-10.3532 L 231.938,-10.4469
 L 232.312,-10.4941 L 232.688,-10.4941 L 233.062,-10.4469 L 233.427,-10.3532 L 233.777,-10.2145 L 234.107,-10.033
 L 234.412,-9.81154 L 234.687,-9.55363 L 234.927,-9.26335 L 235.129,-8.94525 L 235.289,-8.60437 L 235.406,-8.24606
 L 235.476,-7.87599 L 235.5,-7.5 L 235.476,-7.12399 L 235.406,-6.75392 L 235.289,-6.39561 L 235.129,-6.05473
 L 234.927,-5.73663 L 234.687,-5.44635 L 234.412,-5.18845 L 234.107,-4.96701 L 233.777,-4.78551 L 233.427,-4.64682
 L 233.062,-4.55313 L 232.688,-4.50591 z
M 277.312,-4.50591 L 276.938,-4.55313 L 276.573,-4.64682 L 276.223,-4.78551 L 275.893,-4.96701 L 275.588,-5.18845
 L 275.313,-5.44635 L 275.073,-5.73663 L 274.871,-6.05473 L 274.711,-6.39561 L 274.594,-6.75392 L 274.524,-7.12399
 L 274.5,-7.5 L 274.524,-7.87599 L 274.594,-8.24606 L 274.711,-8.60437 L 274.871,-8.94525 L 275.073,-9.26335
 L 275.313,-9.55363 L 275.588,-9.81154 L 275.893,-10.033 L 276.223,-10.2145 L 276.573,-10.3532 L 276.938,-10.4469
 L 277.312,-10.4941 L 277.688,-10.4941 L 278.062,-10.4469 L 278.427,-10.3532 L 278.777,-10.2145 L 279.107,-10.033
 L 279.412,-9.81154 L 279.687,-9.55363 L 279.927,-9.26335 L 280.129,-8.94525 L 280.289,-8.60437 L 280.406,-8.24606
 L 280.476,-7.87599 L 280.5,-7.5 L 280.476,-7.12399 L 280.406,-6.75392 L 280.289,-6.39561 L 280.129,-6.05473
 L 279.927,-5.73663 L 279.687,-5.44635 L 279.412,-5.18845 L 279.107,-4.96701 L 278.777,-4.78551 L 278.427,-4.64682
 L 278.062,-4.55313 L 277.688,-4.50591 z
" stroke="black" fill="lightgray" stroke-width="0.5"/>
</svg>
