<?xml version="1.0" standalone="no"?>
<!DOCTYPE svg PUBLIC "-//W3C//DTD SVG 1.1//EN" "http://www.w3.org/Graphics/SVG/1.1/DTD/svg11.dtd">
<svg width="15mm" height="15mm" viewBox="0 -15 15 15" xmlns="http://www.w3.org/2000/svg" version="1.1">
<title>OpenSCAD Model</title>
<path d="
M 10.4369,-0.588562 L 11.0451,-0.744705 L 11.6289,-0.975861 L 12.1791,-1.27835 L 12.6871,-1.64743 L 13.1448,-2.07726
 L 13.5451,-2.56107 L 13.8815,-3.09122 L 14.1489,-3.65936 L 14.3429,-4.25655 L 14.4606,-4.87332 L 14.5,-5.5
 L 14.5,-9.5 L 14.4606,-10.1267 L 14.3429,-10.7434 L 14.1489,-11.3406 L 13.8815,-11.9088 L 13.5451,-12.4389
 L 13.1448,-12.9227 L 12.6871,-13.3526 L 12.1791,-13.7216 L 11.6289,-14.0241 L 11.0451,-14.2553 L 10.4369,-14.4114
 L 9.81395,-14.4901 L 5.18604,-14.4901 L 4.56308,-14.4114 L 3.95491,-14.2553 L 3.37109,-14.0241 L 2.82086,-13.7216
 L 2.31287,-13.3526 L 1.85515,-12.9227 L 1.45491,-12.4389 L 1.11845,-11.9088 L 0.851105,-11.3406 L 0.657074,-10.7434
 L 0.539413,-10.1267 L 0.5,-9.5 L 0.5,-5.5 L 0.539413,-4.87332 L 0.657074,-4.25655 L 0.851105,-3.65936
 L 1.11845,-3.09122 L 1.45491,-2.56107 L 1.85515,-2.07726 L 2.31287,-1.64743 L 2.82086,-1.27835 L 3.37109,-0.975861
 L 3.95491,-0.744705 L 4.56308,-0.588562 L 5.18604,-0.509857 L 9.81395,-0.509857 z
M 7.31161,-4.50591 L 6.93785,-4.55313 L 6.57294,-4.64682 L 6.22266,-4.78551 L 5.89252,-4.96701 L 5.58772,-5.18845
 L 5.31308,-5.44635 L 5.07294,-5.73663 L 4.87108,-6.05473 L 4.71066,-6.39561 L 4.59424,-6.75392 L 4.52365,-7.12399
 L 4.5,-7.5 L 4.52365,-7.87599 L 4.59424,-8.24606 L 4.71066,-8.60437 L 4.87108,-8.94525 L 5.07294,-9.26335
 L 5.31308,-9.55363 L 5.58772,-9.81154 L 5.89252,-10.033 L 6.22266,-10.2145 L 6.57294,-10.3532 L 6.93785,-10.4469
 L 7.31161,-10.4941 L 7.68837,-10.4941 L 8.06213,-10.4469 L 8.42705,-10.3532 L 8.77733,-10.2145 L 9.10747,-10.033
 L 9.41226,-9.81154 L 9.6869,-9.55363 L 9.92705,-9.26335 L 10.1289,-8.94525 L 10.2893,-8.60437 L 10.4057,-8.24606
 L 10.4763,-7.87599 L 10.5,-7.5 L 10.4763,-7.12399 L 10.4057,-6.75392 L 10.2893,-6.39561 L 10.1289,-6.05473
 L 9.92705,-5.73663 L 9.6869,-5.44635 L 9.41226,-5.18845 L 9.10747,-4.96701 L 8.77733,-4.78551 L 8.42705,-4.64682
 L 8.06213,-4.55313 L 7.68837,-4.50591 z
" stroke="black" fill="lightgray" stroke-width="0.5"/>
</svg>
