  0
SECTION
  2
BLOCKS
  0
ENDSEC
  0
SECTION
  2
ENTITIES
  0
LINE
  8
0
 10
100.437
 20
0.588562
 11
101.045
 21
0.744705
  0
LINE
  8
0
 10
101.045
 20
0.744705
 11
101.629
 21
0.975861
  0
LINE
  8
0
 10
101.629
 20
0.975861
 11
102.179
 21
1.27835
  0
LINE
  8
0
 10
102.179
 20
1.27835
 11
102.687
 21
1.64743
  0
LINE
  8
0
 10
102.687
 20
1.64743
 11
103.145
 21
2.07726
  0
LINE
  8
0
 10
103.145
 20
2.07726
 11
103.545
 21
2.56107
  0
LINE
  8
0
 10
103.545
 20
2.56107
 11
103.882
 21
3.09122
  0
LINE
  8
0
 10
103.882
 20
3.09122
 11
104.149
 21
3.65936
  0
LINE
  8
0
 10
104.149
 20
3.65936
 11
104.343
 21
4.25655
  0
LINE
  8
0
 10
104.343
 20
4.25655
 11
104.461
 21
4.87332
  0
LINE
  8
0
 10
104.461
 20
4.87332
 11
104.5
 21
5.5
  0
LINE
  8
0
 10
104.5
 20
5.5
 11
104.5
 21
9.5
  0
LINE
  8
0
 10
104.5
 20
9.5
 11
104.461
 21
10.1267
  0
LINE
  8
0
 10
104.461
 20
10.1267
 11
104.343
 21
10.7434
  0
LINE
  8
0
 10
104.343
 20
10.7434
 11
104.149
 21
11.3406
  0
LINE
  8
0
 10
104.149
 20
11.3406
 11
103.882
 21
11.9088
  0
LINE
  8
0
 10
103.882
 20
11.9088
 11
103.545
 21
12.4389
  0
LINE
  8
0
 10
103.545
 20
12.4389
 11
103.145
 21
12.9227
  0
LINE
  8
0
 10
103.145
 20
12.9227
 11
102.687
 21
13.3526
  0
LINE
  8
0
 10
102.687
 20
13.3526
 11
102.179
 21
13.7216
  0
LINE
  8
0
 10
102.179
 20
13.7216
 11
101.629
 21
14.0241
  0
LINE
  8
0
 10
101.629
 20
14.0241
 11
101.045
 21
14.2553
  0
LINE
  8
0
 10
101.045
 20
14.2553
 11
100.437
 21
14.4114
  0
LINE
  8
0
 10
100.437
 20
14.4114
 11
99.8139
 21
14.4901
  0
LINE
  8
0
 10
99.8139
 20
14.4901
 11
5.18604
 21
14.4901
  0
LINE
  8
0
 10
5.18604
 20
14.4901
 11
4.56308
 21
14.4114
  0
LINE
  8
0
 10
4.56308
 20
14.4114
 11
3.95491
 21
14.2553
  0
LINE
  8
0
 10
3.95491
 20
14.2553
 11
3.37109
 21
14.0241
  0
LINE
  8
0
 10
3.37109
 20
14.0241
 11
2.82086
 21
13.7216
  0
LINE
  8
0
 10
2.82086
 20
13.7216
 11
2.31287
 21
13.3526
  0
LINE
  8
0
 10
2.31287
 20
13.3526
 11
1.85515
 21
12.9227
  0
LINE
  8
0
 10
1.85515
 20
12.9227
 11
1.45491
 21
12.4389
  0
LINE
  8
0
 10
1.45491
 20
12.4389
 11
1.11845
 21
11.9088
  0
LINE
  8
0
 10
1.11845
 20
11.9088
 11
0.851105
 21
11.3406
  0
LINE
  8
0
 10
0.851105
 20
11.3406
 11
0.657074
 21
10.7434
  0
LINE
  8
0
 10
0.657074
 20
10.7434
 11
0.539413
 21
10.1267
  0
LINE
  8
0
 10
0.539413
 20
10.1267
 11
0.5
 21
9.5
  0
LINE
  8
0
 10
0.5
 20
9.5
 11
0.5
 21
5.5
  0
LINE
  8
0
 10
0.5
 20
5.5
 11
0.539413
 21
4.87332
  0
LINE
  8
0
 10
0.539413
 20
4.87332
 11
0.657074
 21
4.25655
  0
LINE
  8
0
 10
0.657074
 20
4.25655
 11
0.851105
 21
3.65936
  0
LINE
  8
0
 10
0.851105
 20
3.65936
 11
1.11845
 21
3.09122
  0
LINE
  8
0
 10
1.11845
 20
3.09122
 11
1.45491
 21
2.56107
  0
LINE
  8
0
 10
1.45491
 20
2.56107
 11
1.85515
 21
2.07726
  0
LINE
  8
0
 10
1.85515
 20
2.07726
 11
2.31287
 21
1.64743
  0
LINE
  8
0
 10
2.31287
 20
1.64743
 11
2.82086
 21
1.27835
  0
LINE
  8
0
 10
2.82086
 20
1.27835
 11
3.37109
 21
0.975861
  0
LINE
  8
0
 10
3.37109
 20
0.975861
 11
3.95491
 21
0.744705
  0
LINE
  8
0
 10
3.95491
 20
0.744705
 11
4.56308
 21
0.588562
  0
LINE
  8
0
 10
4.56308
 20
0.588562
 11
5.18604
 21
0.509857
  0
LINE
  8
0
 10
5.18604
 20
0.509857
 11
99.8139
 21
0.509857
  0
LINE
  8
0
 10
99.8139
 20
0.509857
 11
100.437
 21
0.588562
  0
LINE
  8
0
 10
82.3116
 20
4.50591
 11
81.9379
 21
4.55313
  0
LINE
  8
0
 10
81.9379
 20
4.55313
 11
81.573
 21
4.64682
  0
LINE
  8
0
 10
81.573
 20
4.64682
 11
81.2227
 21
4.78551
  0
LINE
  8
0
 10
81.2227
 20
4.78551
 11
80.8925
 21
4.96701
  0
LINE
  8
0
 10
80.8925
 20
4.96701
 11
80.5877
 21
5.18845
  0
LINE
  8
0
 10
80.5877
 20
5.18845
 11
80.3131
 21
5.44635
  0
LINE
  8
0
 10
80.3131
 20
5.44635
 11
80.073
 21
5.73663
  0
LINE
  8
0
 10
80.073
 20
5.73663
 11
79.8711
 21
6.05473
  0
LINE
  8
0
 10
79.8711
 20
6.05473
 11
79.7107
 21
6.39561
  0
LINE
  8
0
 10
79.7107
 20
6.39561
 11
79.5943
 21
6.75392
  0
LINE
  8
0
 10
79.5943
 20
6.75392
 11
79.5237
 21
7.12399
  0
LINE
  8
0
 10
79.5237
 20
7.12399
 11
79.5
 21
7.5
  0
LINE
  8
0
 10
79.5
 20
7.5
 11
79.5237
 21
7.87599
  0
LINE
  8
0
 10
79.5237
 20
7.87599
 11
79.5943
 21
8.24606
  0
LINE
  8
0
 10
79.5943
 20
8.24606
 11
79.7107
 21
8.60437
  0
LINE
  8
0
 10
79.7107
 20
8.60437
 11
79.8711
 21
8.94525
  0
LINE
  8
0
 10
79.8711
 20
8.94525
 11
80.073
 21
9.26335
  0
LINE
  8
0
 10
80.073
 20
9.26335
 11
80.3131
 21
9.55363
  0
LINE
  8
0
 10
80.3131
 20
9.55363
 11
80.5877
 21
9.81154
  0
LINE
  8
0
 10
80.5877
 20
9.81154
 11
80.8925
 21
10.033
  0
LINE
  8
0
 10
80.8925
 20
10.033
 11
81.2227
 21
10.2145
  0
LINE
  8
0
 10
81.2227
 20
10.2145
 11
81.573
 21
10.3532
  0
LINE
  8
0
 10
81.573
 20
10.3532
 11
81.9379
 21
10.4469
  0
LINE
  8
0
 10
81.9379
 20
10.4469
 11
82.3116
 21
10.4941
  0
LINE
  8
0
 10
82.3116
 20
10.4941
 11
82.6884
 21
10.4941
  0
LINE
  8
0
 10
82.6884
 20
10.4941
 11
83.0621
 21
10.4469
  0
LINE
  8
0
 10
83.0621
 20
10.4469
 11
83.427
 21
10.3532
  0
LINE
  8
0
 10
83.427
 20
10.3532
 11
83.7773
 21
10.2145
  0
LINE
  8
0
 10
83.7773
 20
10.2145
 11
84.1075
 21
10.033
  0
LINE
  8
0
 10
84.1075
 20
10.033
 11
84.4123
 21
9.81154
  0
LINE
  8
0
 10
84.4123
 20
9.81154
 11
84.6869
 21
9.55363
  0
LINE
  8
0
 10
84.6869
 20
9.55363
 11
84.927
 21
9.26335
  0
LINE
  8
0
 10
84.927
 20
9.26335
 11
85.1289
 21
8.94525
  0
LINE
  8
0
 10
85.1289
 20
8.94525
 11
85.2893
 21
8.60437
  0
LINE
  8
0
 10
85.2893
 20
8.60437
 11
85.4057
 21
8.24606
  0
LINE
  8
0
 10
85.4057
 20
8.24606
 11
85.4763
 21
7.87599
  0
LINE
  8
0
 10
85.4763
 20
7.87599
 11
85.5
 21
7.5
  0
LINE
  8
0
 10
85.5
 20
7.5
 11
85.4763
 21
7.12399
  0
LINE
  8
0
 10
85.4763
 20
7.12399
 11
85.4057
 21
6.75392
  0
LINE
  8
0
 10
85.4057
 20
6.75392
 11
85.2893
 21
6.39561
  0
LINE
  8
0
 10
85.2893
 20
6.39561
 11
85.1289
 21
6.05473
  0
LINE
  8
0
 10
85.1289
 20
6.05473
 11
84.927
 21
5.73663
  0
LINE
  8
0
 10
84.927
 20
5.73663
 11
84.6869
 21
5.44635
  0
LINE
  8
0
 10
84.6869
 20
5.44635
 11
84.4123
 21
5.18845
  0
LINE
  8
0
 10
84.4123
 20
5.18845
 11
84.1075
 21
4.96701
  0
LINE
  8
0
 10
84.1075
 20
4.96701
 11
83.7773
 21
4.78551
  0
LINE
  8
0
 10
83.7773
 20
4.78551
 11
83.427
 21
4.64682
  0
LINE
  8
0
 10
83.427
 20
4.64682
 11
83.0621
 21
4.55313
  0
LINE
  8
0
 10
83.0621
 20
4.55313
 11
82.6884
 21
4.50591
  0
LINE
  8
0
 10
82.6884
 20
4.50591
 11
82.3116
 21
4.50591
  0
LINE
  8
0
 10
7.31161
 20
4.50591
 11
6.93785
 21
4.55313
  0
LINE
  8
0
 10
6.93785
 20
4.55313
 11
6.57294
 21
4.64682
  0
LINE
  8
0
 10
6.57294
 20
4.64682
 11
6.22266
 21
4.78551
  0
LINE
  8
0
 10
6.22266
 20
4.78551
 11
5.89252
 21
4.96701
  0
LINE
  8
0
 10
5.89252
 20
4.96701
 11
5.58772
 21
5.18845
  0
LINE
  8
0
 10
5.58772
 20
5.18845
 11
5.31308
 21
5.44635
  0
LINE
  8
0
 10
5.31308
 20
5.44635
 11
5.07294
 21
5.73663
  0
LINE
  8
0
 10
5.07294
 20
5.73663
 11
4.87108
 21
6.05473
  0
LINE
  8
0
 10
4.87108
 20
6.05473
 11
4.71066
 21
6.39561
  0
LINE
  8
0
 10
4.71066
 20
6.39561
 11
4.59424
 21
6.75392
  0
LINE
  8
0
 10
4.59424
 20
6.75392
 11
4.52365
 21
7.12399
  0
LINE
  8
0
 10
4.52365
 20
7.12399
 11
4.5
 21
7.5
  0
LINE
  8
0
 10
4.5
 20
7.5
 11
4.52365
 21
7.87599
  0
LINE
  8
0
 10
4.52365
 20
7.87599
 11
4.59424
 21
8.24606
  0
LINE
  8
0
 10
4.59424
 20
8.24606
 11
4.71066
 21
8.60437
  0
LINE
  8
0
 10
4.71066
 20
8.60437
 11
4.87108
 21
8.94525
  0
LINE
  8
0
 10
4.87108
 20
8.94525
 11
5.07294
 21
9.26335
  0
LINE
  8
0
 10
5.07294
 20
9.26335
 11
5.31308
 21
9.55363
  0
LINE
  8
0
 10
5.31308
 20
9.55363
 11
5.58772
 21
9.81154
  0
LINE
  8
0
 10
5.58772
 20
9.81154
 11
5.89252
 21
10.033
  0
LINE
  8
0
 10
5.89252
 20
10.033
 11
6.22266
 21
10.2145
  0
LINE
  8
0
 10
6.22266
 20
10.2145
 11
6.57294
 21
10.3532
  0
LINE
  8
0
 10
6.57294
 20
10.3532
 11
6.93785
 21
10.4469
  0
LINE
  8
0
 10
6.93785
 20
10.4469
 11
7.31161
 21
10.4941
  0
LINE
  8
0
 10
7.31161
 20
10.4941
 11
7.68837
 21
10.4941
  0
LINE
  8
0
 10
7.68837
 20
10.4941
 11
8.06213
 21
10.4469
  0
LINE
  8
0
 10
8.06213
 20
10.4469
 11
8.42705
 21
10.3532
  0
LINE
  8
0
 10
8.42705
 20
10.3532
 11
8.77733
 21
10.2145
  0
LINE
  8
0
 10
8.77733
 20
10.2145
 11
9.10747
 21
10.033
  0
LINE
  8
0
 10
9.10747
 20
10.033
 11
9.41226
 21
9.81154
  0
LINE
  8
0
 10
9.41226
 20
9.81154
 11
9.6869
 21
9.55363
  0
LINE
  8
0
 10
9.6869
 20
9.55363
 11
9.92705
 21
9.26335
  0
LINE
  8
0
 10
9.92705
 20
9.26335
 11
10.1289
 21
8.94525
  0
LINE
  8
0
 10
10.1289
 20
8.94525
 11
10.2893
 21
8.60437
  0
LINE
  8
0
 10
10.2893
 20
8.60437
 11
10.4057
 21
8.24606
  0
LINE
  8
0
 10
10.4057
 20
8.24606
 11
10.4763
 21
7.87599
  0
LINE
  8
0
 10
10.4763
 20
7.87599
 11
10.5
 21
7.5
  0
LINE
  8
0
 10
10.5
 20
7.5
 11
10.4763
 21
7.12399
  0
LINE
  8
0
 10
10.4763
 20
7.12399
 11
10.4057
 21
6.75392
  0
LINE
  8
0
 10
10.4057
 20
6.75392
 11
10.2893
 21
6.39561
  0
LINE
  8
0
 10
10.2893
 20
6.39561
 11
10.1289
 21
6.05473
  0
LINE
  8
0
 10
10.1289
 20
6.05473
 11
9.92705
 21
5.73663
  0
LINE
  8
0
 10
9.92705
 20
5.73663
 11
9.6869
 21
5.44635
  0
LINE
  8
0
 10
9.6869
 20
5.44635
 11
9.41226
 21
5.18845
  0
LINE
  8
0
 10
9.41226
 20
5.18845
 11
9.10747
 21
4.96701
  0
LINE
  8
0
 10
9.10747
 20
4.96701
 11
8.77733
 21
4.78551
  0
LINE
  8
0
 10
8.77733
 20
4.78551
 11
8.42705
 21
4.64682
  0
LINE
  8
0
 10
8.42705
 20
4.64682
 11
8.06213
 21
4.55313
  0
LINE
  8
0
 10
8.06213
 20
4.55313
 11
7.68837
 21
4.50591
  0
LINE
  8
0
 10
7.68837
 20
4.50591
 11
7.31161
 21
4.50591
  0
LINE
  8
0
 10
22.3116
 20
4.50591
 11
21.9379
 21
4.55313
  0
LINE
  8
0
 10
21.9379
 20
4.55313
 11
21.5729
 21
4.64682
  0
LINE
  8
0
 10
21.5729
 20
4.64682
 11
21.2227
 21
4.78551
  0
LINE
  8
0
 10
21.2227
 20
4.78551
 11
20.8925
 21
4.96701
  0
LINE
  8
0
 10
20.8925
 20
4.96701
 11
20.5877
 21
5.18845
  0
LINE
  8
0
 10
20.5877
 20
5.18845
 11
20.3131
 21
5.44635
  0
LINE
  8
0
 10
20.3131
 20
5.44635
 11
20.0729
 21
5.73663
  0
LINE
  8
0
 10
20.0729
 20
5.73663
 11
19.8711
 21
6.05473
  0
LINE
  8
0
 10
19.8711
 20
6.05473
 11
19.7107
 21
6.39561
  0
LINE
  8
0
 10
19.7107
 20
6.39561
 11
19.5942
 21
6.75392
  0
LINE
  8
0
 10
19.5942
 20
6.75392
 11
19.5237
 21
7.12399
  0
LINE
  8
0
 10
19.5237
 20
7.12399
 11
19.5
 21
7.5
  0
LINE
  8
0
 10
19.5
 20
7.5
 11
19.5237
 21
7.87599
  0
LINE
  8
0
 10
19.5237
 20
7.87599
 11
19.5942
 21
8.24606
  0
LINE
  8
0
 10
19.5942
 20
8.24606
 11
19.7107
 21
8.60437
  0
LINE
  8
0
 10
19.7107
 20
8.60437
 11
19.8711
 21
8.94525
  0
LINE
  8
0
 10
19.8711
 20
8.94525
 11
20.0729
 21
9.26335
  0
LINE
  8
0
 10
20.0729
 20
9.26335
 11
20.3131
 21
9.55363
  0
LINE
  8
0
 10
20.3131
 20
9.55363
 11
20.5877
 21
9.81154
  0
LINE
  8
0
 10
20.5877
 20
9.81154
 11
20.8925
 21
10.033
  0
LINE
  8
0
 10
20.8925
 20
10.033
 11
21.2227
 21
10.2145
  0
LINE
  8
0
 10
21.2227
 20
10.2145
 11
21.5729
 21
10.3532
  0
LINE
  8
0
 10
21.5729
 20
10.3532
 11
21.9379
 21
10.4469
  0
LINE
  8
0
 10
21.9379
 20
10.4469
 11
22.3116
 21
10.4941
  0
LINE
  8
0
 10
22.3116
 20
10.4941
 11
22.6884
 21
10.4941
  0
LINE
  8
0
 10
22.6884
 20
10.4941
 11
23.0621
 21
10.4469
  0
LINE
  8
0
 10
23.0621
 20
10.4469
 11
23.427
 21
10.3532
  0
LINE
  8
0
 10
23.427
 20
10.3532
 11
23.7773
 21
10.2145
  0
LINE
  8
0
 10
23.7773
 20
10.2145
 11
24.1075
 21
10.033
  0
LINE
  8
0
 10
24.1075
 20
10.033
 11
24.4123
 21
9.81154
  0
LINE
  8
0
 10
24.4123
 20
9.81154
 11
24.6869
 21
9.55363
  0
LINE
  8
0
 10
24.6869
 20
9.55363
 11
24.927
 21
9.26335
  0
LINE
  8
0
 10
24.927
 20
9.26335
 11
25.1289
 21
8.94525
  0
LINE
  8
0
 10
25.1289
 20
8.94525
 11
25.2893
 21
8.60437
  0
LINE
  8
0
 10
25.2893
 20
8.60437
 11
25.4057
 21
8.24606
  0
LINE
  8
0
 10
25.4057
 20
8.24606
 11
25.4763
 21
7.87599
  0
LINE
  8
0
 10
25.4763
 20
7.87599
 11
25.5
 21
7.5
  0
LINE
  8
0
 10
25.5
 20
7.5
 11
25.4763
 21
7.12399
  0
LINE
  8
0
 10
25.4763
 20
7.12399
 11
25.4057
 21
6.75392
  0
LINE
  8
0
 10
25.4057
 20
6.75392
 11
25.2893
 21
6.39561
  0
LINE
  8
0
 10
25.2893
 20
6.39561
 11
25.1289
 21
6.05473
  0
LINE
  8
0
 10
25.1289
 20
6.05473
 11
24.927
 21
5.73663
  0
LINE
  8
0
 10
24.927
 20
5.73663
 11
24.6869
 21
5.44635
  0
LINE
  8
0
 10
24.6869
 20
5.44635
 11
24.4123
 21
5.18845
  0
LINE
  8
0
 10
24.4123
 20
5.18845
 11
24.1075
 21
4.96701
  0
LINE
  8
0
 10
24.1075
 20
4.96701
 11
23.7773
 21
4.78551
  0
LINE
  8
0
 10
23.7773
 20
4.78551
 11
23.427
 21
4.64682
  0
LINE
  8
0
 10
23.427
 20
4.64682
 11
23.0621
 21
4.55313
  0
LINE
  8
0
 10
23.0621
 20
4.55313
 11
22.6884
 21
4.50591
  0
LINE
  8
0
 10
22.6884
 20
4.50591
 11
22.3116
 21
4.50591
  0
LINE
  8
0
 10
97.3116
 20
4.50591
 11
96.9379
 21
4.55313
  0
LINE
  8
0
 10
96.9379
 20
4.55313
 11
96.573
 21
4.64682
  0
LINE
  8
0
 10
96.573
 20
4.64682
 11
96.2227
 21
4.78551
  0
LINE
  8
0
 10
96.2227
 20
4.78551
 11
95.8925
 21
4.96701
  0
LINE
  8
0
 10
95.8925
 20
4.96701
 11
95.5877
 21
5.18845
  0
LINE
  8
0
 10
95.5877
 20
5.18845
 11
95.3131
 21
5.44635
  0
LINE
  8
0
 10
95.3131
 20
5.44635
 11
95.073
 21
5.73663
  0
LINE
  8
0
 10
95.073
 20
5.73663
 11
94.8711
 21
6.05473
  0
LINE
  8
0
 10
94.8711
 20
6.05473
 11
94.7107
 21
6.39561
  0
LINE
  8
0
 10
94.7107
 20
6.39561
 11
94.5943
 21
6.75392
  0
LINE
  8
0
 10
94.5943
 20
6.75392
 11
94.5237
 21
7.12399
  0
LINE
  8
0
 10
94.5237
 20
7.12399
 11
94.5
 21
7.5
  0
LINE
  8
0
 10
94.5
 20
7.5
 11
94.5237
 21
7.87599
  0
LINE
  8
0
 10
94.5237
 20
7.87599
 11
94.5943
 21
8.24606
  0
LINE
  8
0
 10
94.5943
 20
8.24606
 11
94.7107
 21
8.60437
  0
LINE
  8
0
 10
94.7107
 20
8.60437
 11
94.8711
 21
8.94525
  0
LINE
  8
0
 10
94.8711
 20
8.94525
 11
95.073
 21
9.26335
  0
LINE
  8
0
 10
95.073
 20
9.26335
 11
95.3131
 21
9.55363
  0
LINE
  8
0
 10
95.3131
 20
9.55363
 11
95.5877
 21
9.81154
  0
LINE
  8
0
 10
95.5877
 20
9.81154
 11
95.8925
 21
10.033
  0
LINE
  8
0
 10
95.8925
 20
10.033
 11
96.2227
 21
10.2145
  0
LINE
  8
0
 10
96.2227
 20
10.2145
 11
96.573
 21
10.3532
  0
LINE
  8
0
 10
96.573
 20
10.3532
 11
96.9379
 21
10.4469
  0
LINE
  8
0
 10
96.9379
 20
10.4469
 11
97.3116
 21
10.4941
  0
LINE
  8
0
 10
97.3116
 20
10.4941
 11
97.6884
 21
10.4941
  0
LINE
  8
0
 10
97.6884
 20
10.4941
 11
98.0621
 21
10.4469
  0
LINE
  8
0
 10
98.0621
 20
10.4469
 11
98.427
 21
10.3532
  0
LINE
  8
0
 10
98.427
 20
10.3532
 11
98.7773
 21
10.2145
  0
LINE
  8
0
 10
98.7773
 20
10.2145
 11
99.1075
 21
10.033
  0
LINE
  8
0
 10
99.1075
 20
10.033
 11
99.4123
 21
9.81154
  0
LINE
  8
0
 10
99.4123
 20
9.81154
 11
99.6869
 21
9.55363
  0
LINE
  8
0
 10
99.6869
 20
9.55363
 11
99.927
 21
9.26335
  0
LINE
  8
0
 10
99.927
 20
9.26335
 11
100.129
 21
8.94525
  0
LINE
  8
0
 10
100.129
 20
8.94525
 11
100.289
 21
8.60437
  0
LINE
  8
0
 10
100.289
 20
8.60437
 11
100.406
 21
8.24606
  0
LINE
  8
0
 10
100.406
 20
8.24606
 11
100.476
 21
7.87599
  0
LINE
  8
0
 10
100.476
 20
7.87599
 11
100.5
 21
7.5
  0
LINE
  8
0
 10
100.5
 20
7.5
 11
100.476
 21
7.12399
  0
LINE
  8
0
 10
100.476
 20
7.12399
 11
100.406
 21
6.75392
  0
LINE
  8
0
 10
100.406
 20
6.75392
 11
100.289
 21
6.39561
  0
LINE
  8
0
 10
100.289
 20
6.39561
 11
100.129
 21
6.05473
  0
LINE
  8
0
 10
100.129
 20
6.05473
 11
99.927
 21
5.73663
  0
LINE
  8
0
 10
99.927
 20
5.73663
 11
99.6869
 21
5.44635
  0
LINE
  8
0
 10
99.6869
 20
5.44635
 11
99.4123
 21
5.18845
  0
LINE
  8
0
 10
99.4123
 20
5.18845
 11
99.1075
 21
4.96701
  0
LINE
  8
0
 10
99.1075
 20
4.96701
 11
98.7773
 21
4.78551
  0
LINE
  8
0
 10
98.7773
 20
4.78551
 11
98.427
 21
4.64682
  0
LINE
  8
0
 10
98.427
 20
4.64682
 11
98.0621
 21
4.55313
  0
LINE
  8
0
 10
98.0621
 20
4.55313
 11
97.6884
 21
4.50591
  0
LINE
  8
0
 10
97.6884
 20
4.50591
 11
97.3116
 21
4.50591
  0
LINE
  8
0
 10
52.3116
 20
4.50591
 11
51.9379
 21
4.55313
  0
LINE
  8
0
 10
51.9379
 20
4.55313
 11
51.5729
 21
4.64682
  0
LINE
  8
0
 10
51.5729
 20
4.64682
 11
51.2227
 21
4.78551
  0
LINE
  8
0
 10
51.2227
 20
4.78551
 11
50.8925
 21
4.96701
  0
LINE
  8
0
 10
50.8925
 20
4.96701
 11
50.5877
 21
5.18845
  0
LINE
  8
0
 10
50.5877
 20
5.18845
 11
50.3131
 21
5.44635
  0
LINE
  8
0
 10
50.3131
 20
5.44635
 11
50.0729
 21
5.73663
  0
LINE
  8
0
 10
50.0729
 20
5.73663
 11
49.8711
 21
6.05473
  0
LINE
  8
0
 10
49.8711
 20
6.05473
 11
49.7107
 21
6.39561
  0
LINE
  8
0
 10
49.7107
 20
6.39561
 11
49.5942
 21
6.75392
  0
LINE
  8
0
 10
49.5942
 20
6.75392
 11
49.5237
 21
7.12399
  0
LINE
  8
0
 10
49.5237
 20
7.12399
 11
49.5
 21
7.5
  0
LINE
  8
0
 10
49.5
 20
7.5
 11
49.5237
 21
7.87599
  0
LINE
  8
0
 10
49.5237
 20
7.87599
 11
49.5942
 21
8.24606
  0
LINE
  8
0
 10
49.5942
 20
8.24606
 11
49.7107
 21
8.60437
  0
LINE
  8
0
 10
49.7107
 20
8.60437
 11
49.8711
 21
8.94525
  0
LINE
  8
0
 10
49.8711
 20
8.94525
 11
50.0729
 21
9.26335
  0
LINE
  8
0
 10
50.0729
 20
9.26335
 11
50.3131
 21
9.55363
  0
LINE
  8
0
 10
50.3131
 20
9.55363
 11
50.5877
 21
9.81154
  0
LINE
  8
0
 10
50.5877
 20
9.81154
 11
50.8925
 21
10.033
  0
LINE
  8
0
 10
50.8925
 20
10.033
 11
51.2227
 21
10.2145
  0
LINE
  8
0
 10
51.2227
 20
10.2145
 11
51.5729
 21
10.3532
  0
LINE
  8
0
 10
51.5729
 20
10.3532
 11
51.9379
 21
10.4469
  0
LINE
  8
0
 10
51.9379
 20
10.4469
 11
52.3116
 21
10.4941
  0
LINE
  8
0
 10
52.3116
 20
10.4941
 11
52.6884
 21
10.4941
  0
LINE
  8
0
 10
52.6884
 20
10.4941
 11
53.0621
 21
10.4469
  0
LINE
  8
0
 10
53.0621
 20
10.4469
 11
53.427
 21
10.3532
  0
LINE
  8
0
 10
53.427
 20
10.3532
 11
53.7773
 21
10.2145
  0
LINE
  8
0
 10
53.7773
 20
10.2145
 11
54.1075
 21
10.033
  0
LINE
  8
0
 10
54.1075
 20
10.033
 11
54.4123
 21
9.81154
  0
LINE
  8
0
 10
54.4123
 20
9.81154
 11
54.6869
 21
9.55363
  0
LINE
  8
0
 10
54.6869
 20
9.55363
 11
54.927
 21
9.26335
  0
LINE
  8
0
 10
54.927
 20
9.26335
 11
55.1289
 21
8.94525
  0
LINE
  8
0
 10
55.1289
 20
8.94525
 11
55.2893
 21
8.60437
  0
LINE
  8
0
 10
55.2893
 20
8.60437
 11
55.4057
 21
8.24606
  0
LINE
  8
0
 10
55.4057
 20
8.24606
 11
55.4763
 21
7.87599
  0
LINE
  8
0
 10
55.4763
 20
7.87599
 11
55.5
 21
7.5
  0
LINE
  8
0
 10
55.5
 20
7.5
 11
55.4763
 21
7.12399
  0
LINE
  8
0
 10
55.4763
 20
7.12399
 11
55.4057
 21
6.75392
  0
LINE
  8
0
 10
55.4057
 20
6.75392
 11
55.2893
 21
6.39561
  0
LINE
  8
0
 10
55.2893
 20
6.39561
 11
55.1289
 21
6.05473
  0
LINE
  8
0
 10
55.1289
 20
6.05473
 11
54.927
 21
5.73663
  0
LINE
  8
0
 10
54.927
 20
5.73663
 11
54.6869
 21
5.44635
  0
LINE
  8
0
 10
54.6869
 20
5.44635
 11
54.4123
 21
5.18845
  0
LINE
  8
0
 10
54.4123
 20
5.18845
 11
54.1075
 21
4.96701
  0
LINE
  8
0
 10
54.1075
 20
4.96701
 11
53.7773
 21
4.78551
  0
LINE
  8
0
 10
53.7773
 20
4.78551
 11
53.427
 21
4.64682
  0
LINE
  8
0
 10
53.427
 20
4.64682
 11
53.0621
 21
4.55313
  0
LINE
  8
0
 10
53.0621
 20
4.55313
 11
52.6884
 21
4.50591
  0
LINE
  8
0
 10
52.6884
 20
4.50591
 11
52.3116
 21
4.50591
  0
LINE
  8
0
 10
67.3116
 20
4.50591
 11
66.9379
 21
4.55313
  0
LINE
  8
0
 10
66.9379
 20
4.55313
 11
66.573
 21
4.64682
  0
LINE
  8
0
 10
66.573
 20
4.64682
 11
66.2227
 21
4.78551
  0
LINE
  8
0
 10
66.2227
 20
4.78551
 11
65.8925
 21
4.96701
  0
LINE
  8
0
 10
65.8925
 20
4.96701
 11
65.5877
 21
5.18845
  0
LINE
  8
0
 10
65.5877
 20
5.18845
 11
65.3131
 21
5.44635
  0
LINE
  8
0
 10
65.3131
 20
5.44635
 11
65.073
 21
5.73663
  0
LINE
  8
0
 10
65.073
 20
5.73663
 11
64.8711
 21
6.05473
  0
LINE
  8
0
 10
64.8711
 20
6.05473
 11
64.7107
 21
6.39561
  0
LINE
  8
0
 10
64.7107
 20
6.39561
 11
64.5943
 21
6.75392
  0
LINE
  8
0
 10
64.5943
 20
6.75392
 11
64.5237
 21
7.12399
  0
LINE
  8
0
 10
64.5237
 20
7.12399
 11
64.5
 21
7.5
  0
LINE
  8
0
 10
64.5
 20
7.5
 11
64.5237
 21
7.87599
  0
LINE
  8
0
 10
64.5237
 20
7.87599
 11
64.5943
 21
8.24606
  0
LINE
  8
0
 10
64.5943
 20
8.24606
 11
64.7107
 21
8.60437
  0
LINE
  8
0
 10
64.7107
 20
8.60437
 11
64.8711
 21
8.94525
  0
LINE
  8
0
 10
64.8711
 20
8.94525
 11
65.073
 21
9.26335
  0
LINE
  8
0
 10
65.073
 20
9.26335
 11
65.3131
 21
9.55363
  0
LINE
  8
0
 10
65.3131
 20
9.55363
 11
65.5877
 21
9.81154
  0
LINE
  8
0
 10
65.5877
 20
9.81154
 11
65.8925
 21
10.033
  0
LINE
  8
0
 10
65.8925
 20
10.033
 11
66.2227
 21
10.2145
  0
LINE
  8
0
 10
66.2227
 20
10.2145
 11
66.573
 21
10.3532
  0
LINE
  8
0
 10
66.573
 20
10.3532
 11
66.9379
 21
10.4469
  0
LINE
  8
0
 10
66.9379
 20
10.4469
 11
67.3116
 21
10.4941
  0
LINE
  8
0
 10
67.3116
 20
10.4941
 11
67.6884
 21
10.4941
  0
LINE
  8
0
 10
67.6884
 20
10.4941
 11
68.0621
 21
10.4469
  0
LINE
  8
0
 10
68.0621
 20
10.4469
 11
68.427
 21
10.3532
  0
LINE
  8
0
 10
68.427
 20
10.3532
 11
68.7773
 21
10.2145
  0
LINE
  8
0
 10
68.7773
 20
10.2145
 11
69.1075
 21
10.033
  0
LINE
  8
0
 10
69.1075
 20
10.033
 11
69.4123
 21
9.81154
  0
LINE
  8
0
 10
69.4123
 20
9.81154
 11
69.6869
 21
9.55363
  0
LINE
  8
0
 10
69.6869
 20
9.55363
 11
69.927
 21
9.26335
  0
LINE
  8
0
 10
69.927
 20
9.26335
 11
70.1289
 21
8.94525
  0
LINE
  8
0
 10
70.1289
 20
8.94525
 11
70.2893
 21
8.60437
  0
LINE
  8
0
 10
70.2893
 20
8.60437
 11
70.4057
 21
8.24606
  0
LINE
  8
0
 10
70.4057
 20
8.24606
 11
70.4763
 21
7.87599
  0
LINE
  8
0
 10
70.4763
 20
7.87599
 11
70.5
 21
7.5
  0
LINE
  8
0
 10
70.5
 20
7.5
 11
70.4763
 21
7.12399
  0
LINE
  8
0
 10
70.4763
 20
7.12399
 11
70.4057
 21
6.75392
  0
LINE
  8
0
 10
70.4057
 20
6.75392
 11
70.2893
 21
6.39561
  0
LINE
  8
0
 10
70.2893
 20
6.39561
 11
70.1289
 21
6.05473
  0
LINE
  8
0
 10
70.1289
 20
6.05473
 11
69.927
 21
5.73663
  0
LINE
  8
0
 10
69.927
 20
5.73663
 11
69.6869
 21
5.44635
  0
LINE
  8
0
 10
69.6869
 20
5.44635
 11
69.4123
 21
5.18845
  0
LINE
  8
0
 10
69.4123
 20
5.18845
 11
69.1075
 21
4.96701
  0
LINE
  8
0
 10
69.1075
 20
4.96701
 11
68.7773
 21
4.78551
  0
LINE
  8
0
 10
68.7773
 20
4.78551
 11
68.427
 21
4.64682
  0
LINE
  8
0
 10
68.427
 20
4.64682
 11
68.0621
 21
4.55313
  0
LINE
  8
0
 10
68.0621
 20
4.55313
 11
67.6884
 21
4.50591
  0
LINE
  8
0
 10
67.6884
 20
4.50591
 11
67.3116
 21
4.50591
  0
LINE
  8
0
 10
37.3116
 20
4.50591
 11
36.9379
 21
4.55313
  0
LINE
  8
0
 10
36.9379
 20
4.55313
 11
36.5729
 21
4.64682
  0
LINE
  8
0
 10
36.5729
 20
4.64682
 11
36.2227
 21
4.78551
  0
LINE
  8
0
 10
36.2227
 20
4.78551
 11
35.8925
 21
4.96701
  0
LINE
  8
0
 10
35.8925
 20
4.96701
 11
35.5877
 21
5.18845
  0
LINE
  8
0
 10
35.5877
 20
5.18845
 11
35.3131
 21
5.44635
  0
LINE
  8
0
 10
35.3131
 20
5.44635
 11
35.0729
 21
5.73663
  0
LINE
  8
0
 10
35.0729
 20
5.73663
 11
34.8711
 21
6.05473
  0
LINE
  8
0
 10
34.8711
 20
6.05473
 11
34.7107
 21
6.39561
  0
LINE
  8
0
 10
34.7107
 20
6.39561
 11
34.5942
 21
6.75392
  0
LINE
  8
0
 10
34.5942
 20
6.75392
 11
34.5237
 21
7.12399
  0
LINE
  8
0
 10
34.5237
 20
7.12399
 11
34.5
 21
7.5
  0
LINE
  8
0
 10
34.5
 20
7.5
 11
34.5237
 21
7.87599
  0
LINE
  8
0
 10
34.5237
 20
7.87599
 11
34.5942
 21
8.24606
  0
LINE
  8
0
 10
34.5942
 20
8.24606
 11
34.7107
 21
8.60437
  0
LINE
  8
0
 10
34.7107
 20
8.60437
 11
34.8711
 21
8.94525
  0
LINE
  8
0
 10
34.8711
 20
8.94525
 11
35.0729
 21
9.26335
  0
LINE
  8
0
 10
35.0729
 20
9.26335
 11
35.3131
 21
9.55363
  0
LINE
  8
0
 10
35.3131
 20
9.55363
 11
35.5877
 21
9.81154
  0
LINE
  8
0
 10
35.5877
 20
9.81154
 11
35.8925
 21
10.033
  0
LINE
  8
0
 10
35.8925
 20
10.033
 11
36.2227
 21
10.2145
  0
LINE
  8
0
 10
36.2227
 20
10.2145
 11
36.5729
 21
10.3532
  0
LINE
  8
0
 10
36.5729
 20
10.3532
 11
36.9379
 21
10.4469
  0
LINE
  8
0
 10
36.9379
 20
10.4469
 11
37.3116
 21
10.4941
  0
LINE
  8
0
 10
37.3116
 20
10.4941
 11
37.6884
 21
10.4941
  0
LINE
  8
0
 10
37.6884
 20
10.4941
 11
38.0621
 21
10.4469
  0
LINE
  8
0
 10
38.0621
 20
10.4469
 11
38.427
 21
10.3532
  0
LINE
  8
0
 10
38.427
 20
10.3532
 11
38.7773
 21
10.2145
  0
LINE
  8
0
 10
38.7773
 20
10.2145
 11
39.1075
 21
10.033
  0
LINE
  8
0
 10
39.1075
 20
10.033
 11
39.4123
 21
9.81154
  0
LINE
  8
0
 10
39.4123
 20
9.81154
 11
39.6869
 21
9.55363
  0
LINE
  8
0
 10
39.6869
 20
9.55363
 11
39.927
 21
9.26335
  0
LINE
  8
0
 10
39.927
 20
9.26335
 11
40.1289
 21
8.94525
  0
LINE
  8
0
 10
40.1289
 20
8.94525
 11
40.2893
 21
8.60437
  0
LINE
  8
0
 10
40.2893
 20
8.60437
 11
40.4057
 21
8.24606
  0
LINE
  8
0
 10
40.4057
 20
8.24606
 11
40.4763
 21
7.87599
  0
LINE
  8
0
 10
40.4763
 20
7.87599
 11
40.5
 21
7.5
  0
LINE
  8
0
 10
40.5
 20
7.5
 11
40.4763
 21
7.12399
  0
LINE
  8
0
 10
40.4763
 20
7.12399
 11
40.4057
 21
6.75392
  0
LINE
  8
0
 10
40.4057
 20
6.75392
 11
40.2893
 21
6.39561
  0
LINE
  8
0
 10
40.2893
 20
6.39561
 11
40.1289
 21
6.05473
  0
LINE
  8
0
 10
40.1289
 20
6.05473
 11
39.927
 21
5.73663
  0
LINE
  8
0
 10
39.927
 20
5.73663
 11
39.6869
 21
5.44635
  0
LINE
  8
0
 10
39.6869
 20
5.44635
 11
39.4123
 21
5.18845
  0
LINE
  8
0
 10
39.4123
 20
5.18845
 11
39.1075
 21
4.96701
  0
LINE
  8
0
 10
39.1075
 20
4.96701
 11
38.7773
 21
4.78551
  0
LINE
  8
0
 10
38.7773
 20
4.78551
 11
38.427
 21
4.64682
  0
LINE
  8
0
 10
38.427
 20
4.64682
 11
38.0621
 21
4.55313
  0
LINE
  8
0
 10
38.0621
 20
4.55313
 11
37.6884
 21
4.50591
  0
LINE
  8
0
 10
37.6884
 20
4.50591
 11
37.3116
 21
4.50591
  0
ENDSEC
  0
SECTION
  2
OBJECTS
  0
DICTIONARY
  0
ENDSEC
  0
EOF
