<?xml version="1.0" standalone="no"?>
<!DOCTYPE svg PUBLIC "-//W3C//DTD SVG 1.1//EN" "http://www.w3.org/Graphics/SVG/1.1/DTD/svg11.dtd">
<svg width="90mm" height="15mm" viewBox="0 -15 90 15" xmlns="http://www.w3.org/2000/svg" version="1.1">
<title>OpenSCAD Model</title>
<path d="
M 85.4369,-0.588562 L 86.0451,-0.744705 L 86.6289,-0.975861 L 87.1791,-1.27835 L 87.6871,-1.64743 L 88.1448,-2.07726
 L 88.5451,-2.56107 L 88.8815,-3.09122 L 89.1489,-3.65936 L 89.3429,-4.25655 L 89.4606,-4.87332 L 89.5,-5.5
 L 89.5,-9.5 L 89.4606,-10.1267 L 89.3429,-10.7434 L 89.1489,-11.3406 L 88.8815,-11.9088 L 88.5451,-12.4389
 L 88.1448,-12.9227 L 87.6871,-13.3526 L 87.1791,-13.7216 L 86.6289,-14.0241 L 86.0451,-14.2553 L 85.4369,-14.4114
 L 84.8139,-14.4901 L 5.18604,-14.4901 L 4.56308,-14.4114 L 3.95491,-14.2553 L 3.37109,-14.0241 L 2.82086,-13.7216
 L 2.31287,-13.3526 L 1.85515,-12.9227 L 1.45491,-12.4389 L 1.11845,-11.9088 L 0.851105,-11.3406 L 0.657074,-10.7434
 L 0.539413,-10.1267 L 0.5,-9.5 L 0.5,-5.5 L 0.539413,-4.87332 L 0.657074,-4.25655 L 0.851105,-3.65936
 L 1.11845,-3.09122 L 1.45491,-2.56107 L 1.85515,-2.07726 L 2.31287,-1.64743 L 2.82086,-1.27835 L 3.37109,-0.975861
 L 3.95491,-0.744705 L 4.56308,-0.588562 L 5.18604,-0.509857 L 84.8139,-0.509857 z
M 82.3116,-4.50591 L 81.9379,-4.55313 L 81.573,-4.64682 L 81.2227,-4.78551 L 80.8925,-4.96701 L 80.5877,-5.18845
 L 80.3131,-5.44635 L 80.073,-5.73663 L 79.8711,-6.05473 L 79.7107,-6.39561 L 79.5943,-6.75392 L 79.5237,-7.12399
 L 79.5,-7.5 L 79.5237,-7.87599 L 79.5943,-8.24606 L 79.7107,-8.60437 L 79.8711,-8.94525 L 80.073,-9.26335
 L 80.3131,-9.55363 L 80.5877,-9.81154 L 80.8925,-10.033 L 81.2227,-10.2145 L 81.573,-10.3532 L 81.9379,-10.4469
 L 82.3116,-10.4941 L 82.6884,-10.4941 L 83.0621,-10.4469 L 83.427,-10.3532 L 83.7773,-10.2145 L 84.1075,-10.033
 L 84.4123,-9.81154 L 84.6869,-9.55363 L 84.927,-9.26335 L 85.1289,-8.94525 L 85.2893,-8.60437 L 85.4057,-8.24606
 L 85.4763,-7.87599 L 85.5,-7.5 L 85.4763,-7.12399 L 85.4057,-6.75392 L 85.2893,-6.39561 L 85.1289,-6.05473
 L 84.927,-5.73663 L 84.6869,-5.44635 L 84.4123,-5.18845 L 84.1075,-4.96701 L 83.7773,-4.78551 L 83.427,-4.64682
 L 83.0621,-4.55313 L 82.6884,-4.50591 z
M 7.31161,-4.50591 L 6.93785,-4.55313 L 6.57294,-4.64682 L 6.22266,-4.78551 L 5.89252,-4.96701 L 5.58772,-5.18845
 L 5.31308,-5.44635 L 5.07294,-5.73663 L 4.87108,-6.05473 L 4.71066,-6.39561 L 4.59424,-6.75392 L 4.52365,-7.12399
 L 4.5,-7.5 L 4.52365,-7.87599 L 4.59424,-8.24606 L 4.71066,-8.60437 L 4.87108,-8.94525 L 5.07294,-9.26335
 L 5.31308,-9.55363 L 5.58772,-9.81154 L 5.89252,-10.033 L 6.22266,-10.2145 L 6.57294,-10.3532 L 6.93785,-10.4469
 L 7.31161,-10.4941 L 7.68837,-10.4941 L 8.06213,-10.4469 L 8.42705,-10.3532 L 8.77733,-10.2145 L 9.10747,-10.033
 L 9.41226,-9.81154 L 9.6869,-9.55363 L 9.92705,-9.26335 L 10.1289,-8.94525 L 10.2893,-8.60437 L 10.4057,-8.24606
 L 10.4763,-7.87599 L 10.5,-7.5 L 10.4763,-7.12399 L 10.4057,-6.75392 L 10.2893,-6.39561 L 10.1289,-6.05473
 L 9.92705,-5.73663 L 9.6869,-5.44635 L 9.41226,-5.18845 L 9.10747,-4.96701 L 8.77733,-4.78551 L 8.42705,-4.64682
 L 8.06213,-4.55313 L 7.68837,-4.50591 z
M 67.3116,-4.50591 L 66.9379,-4.55313 L 66.573,-4.64682 L 66.2227,-4.78551 L 65.8925,-4.96701 L 65.5877,-5.18845
 L 65.3131,-5.44635 L 65.073,-5.73663 L 64.8711,-6.05473 L 64.7107,-6.39561 L 64.5943,-6.75392 L 64.5237,-7.12399
 L 64.5,-7.5 L 64.5237,-7.87599 L 64.5943,-8.24606 L 64.7107,-8.60437 L 64.8711,-8.94525 L 65.073,-9.26335
 L 65.3131,-9.55363 L 65.5877,-9.81154 L 65.8925,-10.033 L 66.2227,-10.2145 L 66.573,-10.3532 L 66.9379,-10.4469
 L 67.3116,-10.4941 L 67.6884,-10.4941 L 68.0621,-10.4469 L 68.427,-10.3532 L 68.7773,-10.2145 L 69.1075,-10.033
 L 69.4123,-9.81154 L 69.6869,-9.55363 L 69.927,-9.26335 L 70.1289,-8.94525 L 70.2893,-8.60437 L 70.4057,-8.24606
 L 70.4763,-7.87599 L 70.5,-7.5 L 70.4763,-7.12399 L 70.4057,-6.75392 L 70.2893,-6.39561 L 70.1289,-6.05473
 L 69.927,-5.73663 L 69.6869,-5.44635 L 69.4123,-5.18845 L 69.1075,-4.96701 L 68.7773,-4.78551 L 68.427,-4.64682
 L 68.0621,-4.55313 L 67.6884,-4.50591 z
M 52.3116,-4.50591 L 51.9379,-4.55313 L 51.5729,-4.64682 L 51.2227,-4.78551 L 50.8925,-4.96701 L 50.5877,-5.18845
 L 50.3131,-5.44635 L 50.0729,-5.73663 L 49.8711,-6.05473 L 49.7107,-6.39561 L 49.5942,-6.75392 L 49.5237,-7.12399
 L 49.5,-7.5 L 49.5237,-7.87599 L 49.5942,-8.24606 L 49.7107,-8.60437 L 49.8711,-8.94525 L 50.0729,-9.26335
 L 50.3131,-9.55363 L 50.5877,-9.81154 L 50.8925,-10.033 L 51.2227,-10.2145 L 51.5729,-10.3532 L 51.9379,-10.4469
 L 52.3116,-10.4941 L 52.6884,-10.4941 L 53.0621,-10.4469 L 53.427,-10.3532 L 53.7773,-10.2145 L 54.1075,-10.033
 L 54.4123,-9.81154 L 54.6869,-9.55363 L 54.927,-9.26335 L 55.1289,-8.94525 L 55.2893,-8.60437 L 55.4057,-8.24606
 L 55.4763,-7.87599 L 55.5,-7.5 L 55.4763,-7.12399 L 55.4057,-6.75392 L 55.2893,-6.39561 L 55.1289,-6.05473
 L 54.927,-5.73663 L 54.6869,-5.44635 L 54.4123,-5.18845 L 54.1075,-4.96701 L 53.7773,-4.78551 L 53.427,-4.64682
 L 53.0621,-4.55313 L 52.6884,-4.50591 z
M 37.3116,-4.50591 L 36.9379,-4.55313 L 36.5729,-4.64682 L 36.2227,-4.78551 L 35.8925,-4.96701 L 35.5877,-5.18845
 L 35.3131,-5.44635 L 35.0729,-5.73663 L 34.8711,-6.05473 L 34.7107,-6.39561 L 34.5942,-6.75392 L 34.5237,-7.12399
 L 34.5,-7.5 L 34.5237,-7.87599 L 34.5942,-8.24606 L 34.7107,-8.60437 L 34.8711,-8.94525 L 35.0729,-9.26335
 L 35.3131,-9.55363 L 35.5877,-9.81154 L 35.8925,-10.033 L 36.2227,-10.2145 L 36.5729,-10.3532 L 36.9379,-10.4469
 L 37.3116,-10.4941 L 37.6884,-10.4941 L 38.0621,-10.4469 L 38.427,-10.3532 L 38.7773,-10.2145 L 39.1075,-10.033
 L 39.4123,-9.81154 L 39.6869,-9.55363 L 39.927,-9.26335 L 40.1289,-8.94525 L 40.2893,-8.60437 L 40.4057,-8.24606
 L 40.4763,-7.87599 L 40.5,-7.5 L 40.4763,-7.12399 L 40.4057,-6.75392 L 40.2893,-6.39561 L 40.1289,-6.05473
 L 39.927,-5.73663 L 39.6869,-5.44635 L 39.4123,-5.18845 L 39.1075,-4.96701 L 38.7773,-4.78551 L 38.427,-4.64682
 L 38.0621,-4.55313 L 37.6884,-4.50591 z
M 22.3116,-4.50591 L 21.9379,-4.55313 L 21.5729,-4.64682 L 21.2227,-4.78551 L 20.8925,-4.96701 L 20.5877,-5.18845
 L 20.3131,-5.44635 L 20.0729,-5.73663 L 19.8711,-6.05473 L 19.7107,-6.39561 L 19.5942,-6.75392 L 19.5237,-7.12399
 L 19.5,-7.5 L 19.5237,-7.87599 L 19.5942,-8.24606 L 19.7107,-8.60437 L 19.8711,-8.94525 L 20.0729,-9.26335
 L 20.3131,-9.55363 L 20.5877,-9.81154 L 20.8925,-10.033 L 21.2227,-10.2145 L 21.5729,-10.3532 L 21.9379,-10.4469
 L 22.3116,-10.4941 L 22.6884,-10.4941 L 23.0621,-10.4469 L 23.427,-10.3532 L 23.7773,-10.2145 L 24.1075,-10.033
 L 24.4123,-9.81154 L 24.6869,-9.55363 L 24.927,-9.26335 L 25.1289,-8.94525 L 25.2893,-8.60437 L 25.4057,-8.24606
 L 25.4763,-7.87599 L 25.5,-7.5 L 25.4763,-7.12399 L 25.4057,-6.75392 L 25.2893,-6.39561 L 25.1289,-6.05473
 L 24.927,-5.73663 L 24.6869,-5.44635 L 24.4123,-5.18845 L 24.1075,-4.96701 L 23.7773,-4.78551 L 23.427,-4.64682
 L 23.0621,-4.55313 L 22.6884,-4.50591 z
" stroke="black" fill="lightgray" stroke-width="0.5"/>
</svg>
