  0
SECTION
  2
BLOCKS
  0
ENDSEC
  0
SECTION
  2
ENTITIES
  0
LINE
  8
0
 10
295.437
 20
0.588562
 11
296.045
 21
0.744705
  0
LINE
  8
0
 10
296.045
 20
0.744705
 11
296.629
 21
0.975861
  0
LINE
  8
0
 10
296.629
 20
0.975861
 11
297.179
 21
1.27835
  0
LINE
  8
0
 10
297.179
 20
1.27835
 11
297.687
 21
1.64743
  0
LINE
  8
0
 10
297.687
 20
1.64743
 11
298.145
 21
2.07726
  0
LINE
  8
0
 10
298.145
 20
2.07726
 11
298.545
 21
2.56107
  0
LINE
  8
0
 10
298.545
 20
2.56107
 11
298.882
 21
3.09122
  0
LINE
  8
0
 10
298.882
 20
3.09122
 11
299.149
 21
3.65936
  0
LINE
  8
0
 10
299.149
 20
3.65936
 11
299.343
 21
4.25655
  0
LINE
  8
0
 10
299.343
 20
4.25655
 11
299.461
 21
4.87332
  0
LINE
  8
0
 10
299.461
 20
4.87332
 11
299.5
 21
5.5
  0
LINE
  8
0
 10
299.5
 20
5.5
 11
299.5
 21
9.5
  0
LINE
  8
0
 10
299.5
 20
9.5
 11
299.461
 21
10.1267
  0
LINE
  8
0
 10
299.461
 20
10.1267
 11
299.343
 21
10.7434
  0
LINE
  8
0
 10
299.343
 20
10.7434
 11
299.149
 21
11.3406
  0
LINE
  8
0
 10
299.149
 20
11.3406
 11
298.882
 21
11.9088
  0
LINE
  8
0
 10
298.882
 20
11.9088
 11
298.545
 21
12.4389
  0
LINE
  8
0
 10
298.545
 20
12.4389
 11
298.145
 21
12.9227
  0
LINE
  8
0
 10
298.145
 20
12.9227
 11
297.687
 21
13.3526
  0
LINE
  8
0
 10
297.687
 20
13.3526
 11
297.179
 21
13.7216
  0
LINE
  8
0
 10
297.179
 20
13.7216
 11
296.629
 21
14.0241
  0
LINE
  8
0
 10
296.629
 20
14.0241
 11
296.045
 21
14.2553
  0
LINE
  8
0
 10
296.045
 20
14.2553
 11
295.437
 21
14.4114
  0
LINE
  8
0
 10
295.437
 20
14.4114
 11
294.814
 21
14.4901
  0
LINE
  8
0
 10
294.814
 20
14.4901
 11
5.18604
 21
14.4901
  0
LINE
  8
0
 10
5.18604
 20
14.4901
 11
4.56308
 21
14.4114
  0
LINE
  8
0
 10
4.56308
 20
14.4114
 11
3.95491
 21
14.2553
  0
LINE
  8
0
 10
3.95491
 20
14.2553
 11
3.37109
 21
14.0241
  0
LINE
  8
0
 10
3.37109
 20
14.0241
 11
2.82086
 21
13.7216
  0
LINE
  8
0
 10
2.82086
 20
13.7216
 11
2.31287
 21
13.3526
  0
LINE
  8
0
 10
2.31287
 20
13.3526
 11
1.85515
 21
12.9227
  0
LINE
  8
0
 10
1.85515
 20
12.9227
 11
1.45491
 21
12.4389
  0
LINE
  8
0
 10
1.45491
 20
12.4389
 11
1.11845
 21
11.9088
  0
LINE
  8
0
 10
1.11845
 20
11.9088
 11
0.851105
 21
11.3406
  0
LINE
  8
0
 10
0.851105
 20
11.3406
 11
0.657074
 21
10.7434
  0
LINE
  8
0
 10
0.657074
 20
10.7434
 11
0.539413
 21
10.1267
  0
LINE
  8
0
 10
0.539413
 20
10.1267
 11
0.5
 21
9.5
  0
LINE
  8
0
 10
0.5
 20
9.5
 11
0.5
 21
5.5
  0
LINE
  8
0
 10
0.5
 20
5.5
 11
0.539413
 21
4.87332
  0
LINE
  8
0
 10
0.539413
 20
4.87332
 11
0.657074
 21
4.25655
  0
LINE
  8
0
 10
0.657074
 20
4.25655
 11
0.851105
 21
3.65936
  0
LINE
  8
0
 10
0.851105
 20
3.65936
 11
1.11845
 21
3.09122
  0
LINE
  8
0
 10
1.11845
 20
3.09122
 11
1.45491
 21
2.56107
  0
LINE
  8
0
 10
1.45491
 20
2.56107
 11
1.85515
 21
2.07726
  0
LINE
  8
0
 10
1.85515
 20
2.07726
 11
2.31287
 21
1.64743
  0
LINE
  8
0
 10
2.31287
 20
1.64743
 11
2.82086
 21
1.27835
  0
LINE
  8
0
 10
2.82086
 20
1.27835
 11
3.37109
 21
0.975861
  0
LINE
  8
0
 10
3.37109
 20
0.975861
 11
3.95491
 21
0.744705
  0
LINE
  8
0
 10
3.95491
 20
0.744705
 11
4.56308
 21
0.588562
  0
LINE
  8
0
 10
4.56308
 20
0.588562
 11
5.18604
 21
0.509857
  0
LINE
  8
0
 10
5.18604
 20
0.509857
 11
294.814
 21
0.509857
  0
LINE
  8
0
 10
294.814
 20
0.509857
 11
295.437
 21
0.588562
  0
LINE
  8
0
 10
157.312
 20
4.50591
 11
156.938
 21
4.55313
  0
LINE
  8
0
 10
156.938
 20
4.55313
 11
156.573
 21
4.64682
  0
LINE
  8
0
 10
156.573
 20
4.64682
 11
156.223
 21
4.78551
  0
LINE
  8
0
 10
156.223
 20
4.78551
 11
155.893
 21
4.96701
  0
LINE
  8
0
 10
155.893
 20
4.96701
 11
155.588
 21
5.18845
  0
LINE
  8
0
 10
155.588
 20
5.18845
 11
155.313
 21
5.44635
  0
LINE
  8
0
 10
155.313
 20
5.44635
 11
155.073
 21
5.73663
  0
LINE
  8
0
 10
155.073
 20
5.73663
 11
154.871
 21
6.05473
  0
LINE
  8
0
 10
154.871
 20
6.05473
 11
154.711
 21
6.39561
  0
LINE
  8
0
 10
154.711
 20
6.39561
 11
154.594
 21
6.75392
  0
LINE
  8
0
 10
154.594
 20
6.75392
 11
154.524
 21
7.12399
  0
LINE
  8
0
 10
154.524
 20
7.12399
 11
154.5
 21
7.5
  0
LINE
  8
0
 10
154.5
 20
7.5
 11
154.524
 21
7.87599
  0
LINE
  8
0
 10
154.524
 20
7.87599
 11
154.594
 21
8.24606
  0
LINE
  8
0
 10
154.594
 20
8.24606
 11
154.711
 21
8.60437
  0
LINE
  8
0
 10
154.711
 20
8.60437
 11
154.871
 21
8.94525
  0
LINE
  8
0
 10
154.871
 20
8.94525
 11
155.073
 21
9.26335
  0
LINE
  8
0
 10
155.073
 20
9.26335
 11
155.313
 21
9.55363
  0
LINE
  8
0
 10
155.313
 20
9.55363
 11
155.588
 21
9.81154
  0
LINE
  8
0
 10
155.588
 20
9.81154
 11
155.893
 21
10.033
  0
LINE
  8
0
 10
155.893
 20
10.033
 11
156.223
 21
10.2145
  0
LINE
  8
0
 10
156.223
 20
10.2145
 11
156.573
 21
10.3532
  0
LINE
  8
0
 10
156.573
 20
10.3532
 11
156.938
 21
10.4469
  0
LINE
  8
0
 10
156.938
 20
10.4469
 11
157.312
 21
10.4941
  0
LINE
  8
0
 10
157.312
 20
10.4941
 11
157.688
 21
10.4941
  0
LINE
  8
0
 10
157.688
 20
10.4941
 11
158.062
 21
10.4469
  0
LINE
  8
0
 10
158.062
 20
10.4469
 11
158.427
 21
10.3532
  0
LINE
  8
0
 10
158.427
 20
10.3532
 11
158.777
 21
10.2145
  0
LINE
  8
0
 10
158.777
 20
10.2145
 11
159.107
 21
10.033
  0
LINE
  8
0
 10
159.107
 20
10.033
 11
159.412
 21
9.81154
  0
LINE
  8
0
 10
159.412
 20
9.81154
 11
159.687
 21
9.55363
  0
LINE
  8
0
 10
159.687
 20
9.55363
 11
159.927
 21
9.26335
  0
LINE
  8
0
 10
159.927
 20
9.26335
 11
160.129
 21
8.94525
  0
LINE
  8
0
 10
160.129
 20
8.94525
 11
160.289
 21
8.60437
  0
LINE
  8
0
 10
160.289
 20
8.60437
 11
160.406
 21
8.24606
  0
LINE
  8
0
 10
160.406
 20
8.24606
 11
160.476
 21
7.87599
  0
LINE
  8
0
 10
160.476
 20
7.87599
 11
160.5
 21
7.5
  0
LINE
  8
0
 10
160.5
 20
7.5
 11
160.476
 21
7.12399
  0
LINE
  8
0
 10
160.476
 20
7.12399
 11
160.406
 21
6.75392
  0
LINE
  8
0
 10
160.406
 20
6.75392
 11
160.289
 21
6.39561
  0
LINE
  8
0
 10
160.289
 20
6.39561
 11
160.129
 21
6.05473
  0
LINE
  8
0
 10
160.129
 20
6.05473
 11
159.927
 21
5.73663
  0
LINE
  8
0
 10
159.927
 20
5.73663
 11
159.687
 21
5.44635
  0
LINE
  8
0
 10
159.687
 20
5.44635
 11
159.412
 21
5.18845
  0
LINE
  8
0
 10
159.412
 20
5.18845
 11
159.107
 21
4.96701
  0
LINE
  8
0
 10
159.107
 20
4.96701
 11
158.777
 21
4.78551
  0
LINE
  8
0
 10
158.777
 20
4.78551
 11
158.427
 21
4.64682
  0
LINE
  8
0
 10
158.427
 20
4.64682
 11
158.062
 21
4.55313
  0
LINE
  8
0
 10
158.062
 20
4.55313
 11
157.688
 21
4.50591
  0
LINE
  8
0
 10
157.688
 20
4.50591
 11
157.312
 21
4.50591
  0
LINE
  8
0
 10
82.3116
 20
4.50591
 11
81.9379
 21
4.55313
  0
LINE
  8
0
 10
81.9379
 20
4.55313
 11
81.573
 21
4.64682
  0
LINE
  8
0
 10
81.573
 20
4.64682
 11
81.2227
 21
4.78551
  0
LINE
  8
0
 10
81.2227
 20
4.78551
 11
80.8925
 21
4.96701
  0
LINE
  8
0
 10
80.8925
 20
4.96701
 11
80.5877
 21
5.18845
  0
LINE
  8
0
 10
80.5877
 20
5.18845
 11
80.3131
 21
5.44635
  0
LINE
  8
0
 10
80.3131
 20
5.44635
 11
80.073
 21
5.73663
  0
LINE
  8
0
 10
80.073
 20
5.73663
 11
79.8711
 21
6.05473
  0
LINE
  8
0
 10
79.8711
 20
6.05473
 11
79.7107
 21
6.39561
  0
LINE
  8
0
 10
79.7107
 20
6.39561
 11
79.5943
 21
6.75392
  0
LINE
  8
0
 10
79.5943
 20
6.75392
 11
79.5237
 21
7.12399
  0
LINE
  8
0
 10
79.5237
 20
7.12399
 11
79.5
 21
7.5
  0
LINE
  8
0
 10
79.5
 20
7.5
 11
79.5237
 21
7.87599
  0
LINE
  8
0
 10
79.5237
 20
7.87599
 11
79.5943
 21
8.24606
  0
LINE
  8
0
 10
79.5943
 20
8.24606
 11
79.7107
 21
8.60437
  0
LINE
  8
0
 10
79.7107
 20
8.60437
 11
79.8711
 21
8.94525
  0
LINE
  8
0
 10
79.8711
 20
8.94525
 11
80.073
 21
9.26335
  0
LINE
  8
0
 10
80.073
 20
9.26335
 11
80.3131
 21
9.55363
  0
LINE
  8
0
 10
80.3131
 20
9.55363
 11
80.5877
 21
9.81154
  0
LINE
  8
0
 10
80.5877
 20
9.81154
 11
80.8925
 21
10.033
  0
LINE
  8
0
 10
80.8925
 20
10.033
 11
81.2227
 21
10.2145
  0
LINE
  8
0
 10
81.2227
 20
10.2145
 11
81.573
 21
10.3532
  0
LINE
  8
0
 10
81.573
 20
10.3532
 11
81.9379
 21
10.4469
  0
LINE
  8
0
 10
81.9379
 20
10.4469
 11
82.3116
 21
10.4941
  0
LINE
  8
0
 10
82.3116
 20
10.4941
 11
82.6884
 21
10.4941
  0
LINE
  8
0
 10
82.6884
 20
10.4941
 11
83.0621
 21
10.4469
  0
LINE
  8
0
 10
83.0621
 20
10.4469
 11
83.427
 21
10.3532
  0
LINE
  8
0
 10
83.427
 20
10.3532
 11
83.7773
 21
10.2145
  0
LINE
  8
0
 10
83.7773
 20
10.2145
 11
84.1075
 21
10.033
  0
LINE
  8
0
 10
84.1075
 20
10.033
 11
84.4123
 21
9.81154
  0
LINE
  8
0
 10
84.4123
 20
9.81154
 11
84.6869
 21
9.55363
  0
LINE
  8
0
 10
84.6869
 20
9.55363
 11
84.927
 21
9.26335
  0
LINE
  8
0
 10
84.927
 20
9.26335
 11
85.1289
 21
8.94525
  0
LINE
  8
0
 10
85.1289
 20
8.94525
 11
85.2893
 21
8.60437
  0
LINE
  8
0
 10
85.2893
 20
8.60437
 11
85.4057
 21
8.24606
  0
LINE
  8
0
 10
85.4057
 20
8.24606
 11
85.4763
 21
7.87599
  0
LINE
  8
0
 10
85.4763
 20
7.87599
 11
85.5
 21
7.5
  0
LINE
  8
0
 10
85.5
 20
7.5
 11
85.4763
 21
7.12399
  0
LINE
  8
0
 10
85.4763
 20
7.12399
 11
85.4057
 21
6.75392
  0
LINE
  8
0
 10
85.4057
 20
6.75392
 11
85.2893
 21
6.39561
  0
LINE
  8
0
 10
85.2893
 20
6.39561
 11
85.1289
 21
6.05473
  0
LINE
  8
0
 10
85.1289
 20
6.05473
 11
84.927
 21
5.73663
  0
LINE
  8
0
 10
84.927
 20
5.73663
 11
84.6869
 21
5.44635
  0
LINE
  8
0
 10
84.6869
 20
5.44635
 11
84.4123
 21
5.18845
  0
LINE
  8
0
 10
84.4123
 20
5.18845
 11
84.1075
 21
4.96701
  0
LINE
  8
0
 10
84.1075
 20
4.96701
 11
83.7773
 21
4.78551
  0
LINE
  8
0
 10
83.7773
 20
4.78551
 11
83.427
 21
4.64682
  0
LINE
  8
0
 10
83.427
 20
4.64682
 11
83.0621
 21
4.55313
  0
LINE
  8
0
 10
83.0621
 20
4.55313
 11
82.6884
 21
4.50591
  0
LINE
  8
0
 10
82.6884
 20
4.50591
 11
82.3116
 21
4.50591
  0
LINE
  8
0
 10
97.3116
 20
4.50591
 11
96.9379
 21
4.55313
  0
LINE
  8
0
 10
96.9379
 20
4.55313
 11
96.573
 21
4.64682
  0
LINE
  8
0
 10
96.573
 20
4.64682
 11
96.2227
 21
4.78551
  0
LINE
  8
0
 10
96.2227
 20
4.78551
 11
95.8925
 21
4.96701
  0
LINE
  8
0
 10
95.8925
 20
4.96701
 11
95.5877
 21
5.18845
  0
LINE
  8
0
 10
95.5877
 20
5.18845
 11
95.3131
 21
5.44635
  0
LINE
  8
0
 10
95.3131
 20
5.44635
 11
95.073
 21
5.73663
  0
LINE
  8
0
 10
95.073
 20
5.73663
 11
94.8711
 21
6.05473
  0
LINE
  8
0
 10
94.8711
 20
6.05473
 11
94.7107
 21
6.39561
  0
LINE
  8
0
 10
94.7107
 20
6.39561
 11
94.5943
 21
6.75392
  0
LINE
  8
0
 10
94.5943
 20
6.75392
 11
94.5237
 21
7.12399
  0
LINE
  8
0
 10
94.5237
 20
7.12399
 11
94.5
 21
7.5
  0
LINE
  8
0
 10
94.5
 20
7.5
 11
94.5237
 21
7.87599
  0
LINE
  8
0
 10
94.5237
 20
7.87599
 11
94.5943
 21
8.24606
  0
LINE
  8
0
 10
94.5943
 20
8.24606
 11
94.7107
 21
8.60437
  0
LINE
  8
0
 10
94.7107
 20
8.60437
 11
94.8711
 21
8.94525
  0
LINE
  8
0
 10
94.8711
 20
8.94525
 11
95.073
 21
9.26335
  0
LINE
  8
0
 10
95.073
 20
9.26335
 11
95.3131
 21
9.55363
  0
LINE
  8
0
 10
95.3131
 20
9.55363
 11
95.5877
 21
9.81154
  0
LINE
  8
0
 10
95.5877
 20
9.81154
 11
95.8925
 21
10.033
  0
LINE
  8
0
 10
95.8925
 20
10.033
 11
96.2227
 21
10.2145
  0
LINE
  8
0
 10
96.2227
 20
10.2145
 11
96.573
 21
10.3532
  0
LINE
  8
0
 10
96.573
 20
10.3532
 11
96.9379
 21
10.4469
  0
LINE
  8
0
 10
96.9379
 20
10.4469
 11
97.3116
 21
10.4941
  0
LINE
  8
0
 10
97.3116
 20
10.4941
 11
97.6884
 21
10.4941
  0
LINE
  8
0
 10
97.6884
 20
10.4941
 11
98.0621
 21
10.4469
  0
LINE
  8
0
 10
98.0621
 20
10.4469
 11
98.427
 21
10.3532
  0
LINE
  8
0
 10
98.427
 20
10.3532
 11
98.7773
 21
10.2145
  0
LINE
  8
0
 10
98.7773
 20
10.2145
 11
99.1075
 21
10.033
  0
LINE
  8
0
 10
99.1075
 20
10.033
 11
99.4123
 21
9.81154
  0
LINE
  8
0
 10
99.4123
 20
9.81154
 11
99.6869
 21
9.55363
  0
LINE
  8
0
 10
99.6869
 20
9.55363
 11
99.927
 21
9.26335
  0
LINE
  8
0
 10
99.927
 20
9.26335
 11
100.129
 21
8.94525
  0
LINE
  8
0
 10
100.129
 20
8.94525
 11
100.289
 21
8.60437
  0
LINE
  8
0
 10
100.289
 20
8.60437
 11
100.406
 21
8.24606
  0
LINE
  8
0
 10
100.406
 20
8.24606
 11
100.476
 21
7.87599
  0
LINE
  8
0
 10
100.476
 20
7.87599
 11
100.5
 21
7.5
  0
LINE
  8
0
 10
100.5
 20
7.5
 11
100.476
 21
7.12399
  0
LINE
  8
0
 10
100.476
 20
7.12399
 11
100.406
 21
6.75392
  0
LINE
  8
0
 10
100.406
 20
6.75392
 11
100.289
 21
6.39561
  0
LINE
  8
0
 10
100.289
 20
6.39561
 11
100.129
 21
6.05473
  0
LINE
  8
0
 10
100.129
 20
6.05473
 11
99.927
 21
5.73663
  0
LINE
  8
0
 10
99.927
 20
5.73663
 11
99.6869
 21
5.44635
  0
LINE
  8
0
 10
99.6869
 20
5.44635
 11
99.4123
 21
5.18845
  0
LINE
  8
0
 10
99.4123
 20
5.18845
 11
99.1075
 21
4.96701
  0
LINE
  8
0
 10
99.1075
 20
4.96701
 11
98.7773
 21
4.78551
  0
LINE
  8
0
 10
98.7773
 20
4.78551
 11
98.427
 21
4.64682
  0
LINE
  8
0
 10
98.427
 20
4.64682
 11
98.0621
 21
4.55313
  0
LINE
  8
0
 10
98.0621
 20
4.55313
 11
97.6884
 21
4.50591
  0
LINE
  8
0
 10
97.6884
 20
4.50591
 11
97.3116
 21
4.50591
  0
LINE
  8
0
 10
127.312
 20
4.50591
 11
126.938
 21
4.55313
  0
LINE
  8
0
 10
126.938
 20
4.55313
 11
126.573
 21
4.64682
  0
LINE
  8
0
 10
126.573
 20
4.64682
 11
126.223
 21
4.78551
  0
LINE
  8
0
 10
126.223
 20
4.78551
 11
125.893
 21
4.96701
  0
LINE
  8
0
 10
125.893
 20
4.96701
 11
125.588
 21
5.18845
  0
LINE
  8
0
 10
125.588
 20
5.18845
 11
125.313
 21
5.44635
  0
LINE
  8
0
 10
125.313
 20
5.44635
 11
125.073
 21
5.73663
  0
LINE
  8
0
 10
125.073
 20
5.73663
 11
124.871
 21
6.05473
  0
LINE
  8
0
 10
124.871
 20
6.05473
 11
124.711
 21
6.39561
  0
LINE
  8
0
 10
124.711
 20
6.39561
 11
124.594
 21
6.75392
  0
LINE
  8
0
 10
124.594
 20
6.75392
 11
124.524
 21
7.12399
  0
LINE
  8
0
 10
124.524
 20
7.12399
 11
124.5
 21
7.5
  0
LINE
  8
0
 10
124.5
 20
7.5
 11
124.524
 21
7.87599
  0
LINE
  8
0
 10
124.524
 20
7.87599
 11
124.594
 21
8.24606
  0
LINE
  8
0
 10
124.594
 20
8.24606
 11
124.711
 21
8.60437
  0
LINE
  8
0
 10
124.711
 20
8.60437
 11
124.871
 21
8.94525
  0
LINE
  8
0
 10
124.871
 20
8.94525
 11
125.073
 21
9.26335
  0
LINE
  8
0
 10
125.073
 20
9.26335
 11
125.313
 21
9.55363
  0
LINE
  8
0
 10
125.313
 20
9.55363
 11
125.588
 21
9.81154
  0
LINE
  8
0
 10
125.588
 20
9.81154
 11
125.893
 21
10.033
  0
LINE
  8
0
 10
125.893
 20
10.033
 11
126.223
 21
10.2145
  0
LINE
  8
0
 10
126.223
 20
10.2145
 11
126.573
 21
10.3532
  0
LINE
  8
0
 10
126.573
 20
10.3532
 11
126.938
 21
10.4469
  0
LINE
  8
0
 10
126.938
 20
10.4469
 11
127.312
 21
10.4941
  0
LINE
  8
0
 10
127.312
 20
10.4941
 11
127.688
 21
10.4941
  0
LINE
  8
0
 10
127.688
 20
10.4941
 11
128.062
 21
10.4469
  0
LINE
  8
0
 10
128.062
 20
10.4469
 11
128.427
 21
10.3532
  0
LINE
  8
0
 10
128.427
 20
10.3532
 11
128.777
 21
10.2145
  0
LINE
  8
0
 10
128.777
 20
10.2145
 11
129.107
 21
10.033
  0
LINE
  8
0
 10
129.107
 20
10.033
 11
129.412
 21
9.81154
  0
LINE
  8
0
 10
129.412
 20
9.81154
 11
129.687
 21
9.55363
  0
LINE
  8
0
 10
129.687
 20
9.55363
 11
129.927
 21
9.26335
  0
LINE
  8
0
 10
129.927
 20
9.26335
 11
130.129
 21
8.94525
  0
LINE
  8
0
 10
130.129
 20
8.94525
 11
130.289
 21
8.60437
  0
LINE
  8
0
 10
130.289
 20
8.60437
 11
130.406
 21
8.24606
  0
LINE
  8
0
 10
130.406
 20
8.24606
 11
130.476
 21
7.87599
  0
LINE
  8
0
 10
130.476
 20
7.87599
 11
130.5
 21
7.5
  0
LINE
  8
0
 10
130.5
 20
7.5
 11
130.476
 21
7.12399
  0
LINE
  8
0
 10
130.476
 20
7.12399
 11
130.406
 21
6.75392
  0
LINE
  8
0
 10
130.406
 20
6.75392
 11
130.289
 21
6.39561
  0
LINE
  8
0
 10
130.289
 20
6.39561
 11
130.129
 21
6.05473
  0
LINE
  8
0
 10
130.129
 20
6.05473
 11
129.927
 21
5.73663
  0
LINE
  8
0
 10
129.927
 20
5.73663
 11
129.687
 21
5.44635
  0
LINE
  8
0
 10
129.687
 20
5.44635
 11
129.412
 21
5.18845
  0
LINE
  8
0
 10
129.412
 20
5.18845
 11
129.107
 21
4.96701
  0
LINE
  8
0
 10
129.107
 20
4.96701
 11
128.777
 21
4.78551
  0
LINE
  8
0
 10
128.777
 20
4.78551
 11
128.427
 21
4.64682
  0
LINE
  8
0
 10
128.427
 20
4.64682
 11
128.062
 21
4.55313
  0
LINE
  8
0
 10
128.062
 20
4.55313
 11
127.688
 21
4.50591
  0
LINE
  8
0
 10
127.688
 20
4.50591
 11
127.312
 21
4.50591
  0
LINE
  8
0
 10
142.312
 20
4.50591
 11
141.938
 21
4.55313
  0
LINE
  8
0
 10
141.938
 20
4.55313
 11
141.573
 21
4.64682
  0
LINE
  8
0
 10
141.573
 20
4.64682
 11
141.223
 21
4.78551
  0
LINE
  8
0
 10
141.223
 20
4.78551
 11
140.893
 21
4.96701
  0
LINE
  8
0
 10
140.893
 20
4.96701
 11
140.588
 21
5.18845
  0
LINE
  8
0
 10
140.588
 20
5.18845
 11
140.313
 21
5.44635
  0
LINE
  8
0
 10
140.313
 20
5.44635
 11
140.073
 21
5.73663
  0
LINE
  8
0
 10
140.073
 20
5.73663
 11
139.871
 21
6.05473
  0
LINE
  8
0
 10
139.871
 20
6.05473
 11
139.711
 21
6.39561
  0
LINE
  8
0
 10
139.711
 20
6.39561
 11
139.594
 21
6.75392
  0
LINE
  8
0
 10
139.594
 20
6.75392
 11
139.524
 21
7.12399
  0
LINE
  8
0
 10
139.524
 20
7.12399
 11
139.5
 21
7.5
  0
LINE
  8
0
 10
139.5
 20
7.5
 11
139.524
 21
7.87599
  0
LINE
  8
0
 10
139.524
 20
7.87599
 11
139.594
 21
8.24606
  0
LINE
  8
0
 10
139.594
 20
8.24606
 11
139.711
 21
8.60437
  0
LINE
  8
0
 10
139.711
 20
8.60437
 11
139.871
 21
8.94525
  0
LINE
  8
0
 10
139.871
 20
8.94525
 11
140.073
 21
9.26335
  0
LINE
  8
0
 10
140.073
 20
9.26335
 11
140.313
 21
9.55363
  0
LINE
  8
0
 10
140.313
 20
9.55363
 11
140.588
 21
9.81154
  0
LINE
  8
0
 10
140.588
 20
9.81154
 11
140.893
 21
10.033
  0
LINE
  8
0
 10
140.893
 20
10.033
 11
141.223
 21
10.2145
  0
LINE
  8
0
 10
141.223
 20
10.2145
 11
141.573
 21
10.3532
  0
LINE
  8
0
 10
141.573
 20
10.3532
 11
141.938
 21
10.4469
  0
LINE
  8
0
 10
141.938
 20
10.4469
 11
142.312
 21
10.4941
  0
LINE
  8
0
 10
142.312
 20
10.4941
 11
142.688
 21
10.4941
  0
LINE
  8
0
 10
142.688
 20
10.4941
 11
143.062
 21
10.4469
  0
LINE
  8
0
 10
143.062
 20
10.4469
 11
143.427
 21
10.3532
  0
LINE
  8
0
 10
143.427
 20
10.3532
 11
143.777
 21
10.2145
  0
LINE
  8
0
 10
143.777
 20
10.2145
 11
144.107
 21
10.033
  0
LINE
  8
0
 10
144.107
 20
10.033
 11
144.412
 21
9.81154
  0
LINE
  8
0
 10
144.412
 20
9.81154
 11
144.687
 21
9.55363
  0
LINE
  8
0
 10
144.687
 20
9.55363
 11
144.927
 21
9.26335
  0
LINE
  8
0
 10
144.927
 20
9.26335
 11
145.129
 21
8.94525
  0
LINE
  8
0
 10
145.129
 20
8.94525
 11
145.289
 21
8.60437
  0
LINE
  8
0
 10
145.289
 20
8.60437
 11
145.406
 21
8.24606
  0
LINE
  8
0
 10
145.406
 20
8.24606
 11
145.476
 21
7.87599
  0
LINE
  8
0
 10
145.476
 20
7.87599
 11
145.5
 21
7.5
  0
LINE
  8
0
 10
145.5
 20
7.5
 11
145.476
 21
7.12399
  0
LINE
  8
0
 10
145.476
 20
7.12399
 11
145.406
 21
6.75392
  0
LINE
  8
0
 10
145.406
 20
6.75392
 11
145.289
 21
6.39561
  0
LINE
  8
0
 10
145.289
 20
6.39561
 11
145.129
 21
6.05473
  0
LINE
  8
0
 10
145.129
 20
6.05473
 11
144.927
 21
5.73663
  0
LINE
  8
0
 10
144.927
 20
5.73663
 11
144.687
 21
5.44635
  0
LINE
  8
0
 10
144.687
 20
5.44635
 11
144.412
 21
5.18845
  0
LINE
  8
0
 10
144.412
 20
5.18845
 11
144.107
 21
4.96701
  0
LINE
  8
0
 10
144.107
 20
4.96701
 11
143.777
 21
4.78551
  0
LINE
  8
0
 10
143.777
 20
4.78551
 11
143.427
 21
4.64682
  0
LINE
  8
0
 10
143.427
 20
4.64682
 11
143.062
 21
4.55313
  0
LINE
  8
0
 10
143.062
 20
4.55313
 11
142.688
 21
4.50591
  0
LINE
  8
0
 10
142.688
 20
4.50591
 11
142.312
 21
4.50591
  0
LINE
  8
0
 10
112.312
 20
4.50591
 11
111.938
 21
4.55313
  0
LINE
  8
0
 10
111.938
 20
4.55313
 11
111.573
 21
4.64682
  0
LINE
  8
0
 10
111.573
 20
4.64682
 11
111.223
 21
4.78551
  0
LINE
  8
0
 10
111.223
 20
4.78551
 11
110.893
 21
4.96701
  0
LINE
  8
0
 10
110.893
 20
4.96701
 11
110.588
 21
5.18845
  0
LINE
  8
0
 10
110.588
 20
5.18845
 11
110.313
 21
5.44635
  0
LINE
  8
0
 10
110.313
 20
5.44635
 11
110.073
 21
5.73663
  0
LINE
  8
0
 10
110.073
 20
5.73663
 11
109.871
 21
6.05473
  0
LINE
  8
0
 10
109.871
 20
6.05473
 11
109.711
 21
6.39561
  0
LINE
  8
0
 10
109.711
 20
6.39561
 11
109.594
 21
6.75392
  0
LINE
  8
0
 10
109.594
 20
6.75392
 11
109.524
 21
7.12399
  0
LINE
  8
0
 10
109.524
 20
7.12399
 11
109.5
 21
7.5
  0
LINE
  8
0
 10
109.5
 20
7.5
 11
109.524
 21
7.87599
  0
LINE
  8
0
 10
109.524
 20
7.87599
 11
109.594
 21
8.24606
  0
LINE
  8
0
 10
109.594
 20
8.24606
 11
109.711
 21
8.60437
  0
LINE
  8
0
 10
109.711
 20
8.60437
 11
109.871
 21
8.94525
  0
LINE
  8
0
 10
109.871
 20
8.94525
 11
110.073
 21
9.26335
  0
LINE
  8
0
 10
110.073
 20
9.26335
 11
110.313
 21
9.55363
  0
LINE
  8
0
 10
110.313
 20
9.55363
 11
110.588
 21
9.81154
  0
LINE
  8
0
 10
110.588
 20
9.81154
 11
110.893
 21
10.033
  0
LINE
  8
0
 10
110.893
 20
10.033
 11
111.223
 21
10.2145
  0
LINE
  8
0
 10
111.223
 20
10.2145
 11
111.573
 21
10.3532
  0
LINE
  8
0
 10
111.573
 20
10.3532
 11
111.938
 21
10.4469
  0
LINE
  8
0
 10
111.938
 20
10.4469
 11
112.312
 21
10.4941
  0
LINE
  8
0
 10
112.312
 20
10.4941
 11
112.688
 21
10.4941
  0
LINE
  8
0
 10
112.688
 20
10.4941
 11
113.062
 21
10.4469
  0
LINE
  8
0
 10
113.062
 20
10.4469
 11
113.427
 21
10.3532
  0
LINE
  8
0
 10
113.427
 20
10.3532
 11
113.777
 21
10.2145
  0
LINE
  8
0
 10
113.777
 20
10.2145
 11
114.107
 21
10.033
  0
LINE
  8
0
 10
114.107
 20
10.033
 11
114.412
 21
9.81154
  0
LINE
  8
0
 10
114.412
 20
9.81154
 11
114.687
 21
9.55363
  0
LINE
  8
0
 10
114.687
 20
9.55363
 11
114.927
 21
9.26335
  0
LINE
  8
0
 10
114.927
 20
9.26335
 11
115.129
 21
8.94525
  0
LINE
  8
0
 10
115.129
 20
8.94525
 11
115.289
 21
8.60437
  0
LINE
  8
0
 10
115.289
 20
8.60437
 11
115.406
 21
8.24606
  0
LINE
  8
0
 10
115.406
 20
8.24606
 11
115.476
 21
7.87599
  0
LINE
  8
0
 10
115.476
 20
7.87599
 11
115.5
 21
7.5
  0
LINE
  8
0
 10
115.5
 20
7.5
 11
115.476
 21
7.12399
  0
LINE
  8
0
 10
115.476
 20
7.12399
 11
115.406
 21
6.75392
  0
LINE
  8
0
 10
115.406
 20
6.75392
 11
115.289
 21
6.39561
  0
LINE
  8
0
 10
115.289
 20
6.39561
 11
115.129
 21
6.05473
  0
LINE
  8
0
 10
115.129
 20
6.05473
 11
114.927
 21
5.73663
  0
LINE
  8
0
 10
114.927
 20
5.73663
 11
114.687
 21
5.44635
  0
LINE
  8
0
 10
114.687
 20
5.44635
 11
114.412
 21
5.18845
  0
LINE
  8
0
 10
114.412
 20
5.18845
 11
114.107
 21
4.96701
  0
LINE
  8
0
 10
114.107
 20
4.96701
 11
113.777
 21
4.78551
  0
LINE
  8
0
 10
113.777
 20
4.78551
 11
113.427
 21
4.64682
  0
LINE
  8
0
 10
113.427
 20
4.64682
 11
113.062
 21
4.55313
  0
LINE
  8
0
 10
113.062
 20
4.55313
 11
112.688
 21
4.50591
  0
LINE
  8
0
 10
112.688
 20
4.50591
 11
112.312
 21
4.50591
  0
LINE
  8
0
 10
262.312
 20
4.50591
 11
261.938
 21
4.55313
  0
LINE
  8
0
 10
261.938
 20
4.55313
 11
261.573
 21
4.64682
  0
LINE
  8
0
 10
261.573
 20
4.64682
 11
261.223
 21
4.78551
  0
LINE
  8
0
 10
261.223
 20
4.78551
 11
260.893
 21
4.96701
  0
LINE
  8
0
 10
260.893
 20
4.96701
 11
260.588
 21
5.18845
  0
LINE
  8
0
 10
260.588
 20
5.18845
 11
260.313
 21
5.44635
  0
LINE
  8
0
 10
260.313
 20
5.44635
 11
260.073
 21
5.73663
  0
LINE
  8
0
 10
260.073
 20
5.73663
 11
259.871
 21
6.05473
  0
LINE
  8
0
 10
259.871
 20
6.05473
 11
259.711
 21
6.39561
  0
LINE
  8
0
 10
259.711
 20
6.39561
 11
259.594
 21
6.75392
  0
LINE
  8
0
 10
259.594
 20
6.75392
 11
259.524
 21
7.12399
  0
LINE
  8
0
 10
259.524
 20
7.12399
 11
259.5
 21
7.5
  0
LINE
  8
0
 10
259.5
 20
7.5
 11
259.524
 21
7.87599
  0
LINE
  8
0
 10
259.524
 20
7.87599
 11
259.594
 21
8.24606
  0
LINE
  8
0
 10
259.594
 20
8.24606
 11
259.711
 21
8.60437
  0
LINE
  8
0
 10
259.711
 20
8.60437
 11
259.871
 21
8.94525
  0
LINE
  8
0
 10
259.871
 20
8.94525
 11
260.073
 21
9.26335
  0
LINE
  8
0
 10
260.073
 20
9.26335
 11
260.313
 21
9.55363
  0
LINE
  8
0
 10
260.313
 20
9.55363
 11
260.588
 21
9.81154
  0
LINE
  8
0
 10
260.588
 20
9.81154
 11
260.893
 21
10.033
  0
LINE
  8
0
 10
260.893
 20
10.033
 11
261.223
 21
10.2145
  0
LINE
  8
0
 10
261.223
 20
10.2145
 11
261.573
 21
10.3532
  0
LINE
  8
0
 10
261.573
 20
10.3532
 11
261.938
 21
10.4469
  0
LINE
  8
0
 10
261.938
 20
10.4469
 11
262.312
 21
10.4941
  0
LINE
  8
0
 10
262.312
 20
10.4941
 11
262.688
 21
10.4941
  0
LINE
  8
0
 10
262.688
 20
10.4941
 11
263.062
 21
10.4469
  0
LINE
  8
0
 10
263.062
 20
10.4469
 11
263.427
 21
10.3532
  0
LINE
  8
0
 10
263.427
 20
10.3532
 11
263.777
 21
10.2145
  0
LINE
  8
0
 10
263.777
 20
10.2145
 11
264.107
 21
10.033
  0
LINE
  8
0
 10
264.107
 20
10.033
 11
264.412
 21
9.81154
  0
LINE
  8
0
 10
264.412
 20
9.81154
 11
264.687
 21
9.55363
  0
LINE
  8
0
 10
264.687
 20
9.55363
 11
264.927
 21
9.26335
  0
LINE
  8
0
 10
264.927
 20
9.26335
 11
265.129
 21
8.94525
  0
LINE
  8
0
 10
265.129
 20
8.94525
 11
265.289
 21
8.60437
  0
LINE
  8
0
 10
265.289
 20
8.60437
 11
265.406
 21
8.24606
  0
LINE
  8
0
 10
265.406
 20
8.24606
 11
265.476
 21
7.87599
  0
LINE
  8
0
 10
265.476
 20
7.87599
 11
265.5
 21
7.5
  0
LINE
  8
0
 10
265.5
 20
7.5
 11
265.476
 21
7.12399
  0
LINE
  8
0
 10
265.476
 20
7.12399
 11
265.406
 21
6.75392
  0
LINE
  8
0
 10
265.406
 20
6.75392
 11
265.289
 21
6.39561
  0
LINE
  8
0
 10
265.289
 20
6.39561
 11
265.129
 21
6.05473
  0
LINE
  8
0
 10
265.129
 20
6.05473
 11
264.927
 21
5.73663
  0
LINE
  8
0
 10
264.927
 20
5.73663
 11
264.687
 21
5.44635
  0
LINE
  8
0
 10
264.687
 20
5.44635
 11
264.412
 21
5.18845
  0
LINE
  8
0
 10
264.412
 20
5.18845
 11
264.107
 21
4.96701
  0
LINE
  8
0
 10
264.107
 20
4.96701
 11
263.777
 21
4.78551
  0
LINE
  8
0
 10
263.777
 20
4.78551
 11
263.427
 21
4.64682
  0
LINE
  8
0
 10
263.427
 20
4.64682
 11
263.062
 21
4.55313
  0
LINE
  8
0
 10
263.062
 20
4.55313
 11
262.688
 21
4.50591
  0
LINE
  8
0
 10
262.688
 20
4.50591
 11
262.312
 21
4.50591
  0
LINE
  8
0
 10
247.312
 20
4.50591
 11
246.938
 21
4.55313
  0
LINE
  8
0
 10
246.938
 20
4.55313
 11
246.573
 21
4.64682
  0
LINE
  8
0
 10
246.573
 20
4.64682
 11
246.223
 21
4.78551
  0
LINE
  8
0
 10
246.223
 20
4.78551
 11
245.893
 21
4.96701
  0
LINE
  8
0
 10
245.893
 20
4.96701
 11
245.588
 21
5.18845
  0
LINE
  8
0
 10
245.588
 20
5.18845
 11
245.313
 21
5.44635
  0
LINE
  8
0
 10
245.313
 20
5.44635
 11
245.073
 21
5.73663
  0
LINE
  8
0
 10
245.073
 20
5.73663
 11
244.871
 21
6.05473
  0
LINE
  8
0
 10
244.871
 20
6.05473
 11
244.711
 21
6.39561
  0
LINE
  8
0
 10
244.711
 20
6.39561
 11
244.594
 21
6.75392
  0
LINE
  8
0
 10
244.594
 20
6.75392
 11
244.524
 21
7.12399
  0
LINE
  8
0
 10
244.524
 20
7.12399
 11
244.5
 21
7.5
  0
LINE
  8
0
 10
244.5
 20
7.5
 11
244.524
 21
7.87599
  0
LINE
  8
0
 10
244.524
 20
7.87599
 11
244.594
 21
8.24606
  0
LINE
  8
0
 10
244.594
 20
8.24606
 11
244.711
 21
8.60437
  0
LINE
  8
0
 10
244.711
 20
8.60437
 11
244.871
 21
8.94525
  0
LINE
  8
0
 10
244.871
 20
8.94525
 11
245.073
 21
9.26335
  0
LINE
  8
0
 10
245.073
 20
9.26335
 11
245.313
 21
9.55363
  0
LINE
  8
0
 10
245.313
 20
9.55363
 11
245.588
 21
9.81154
  0
LINE
  8
0
 10
245.588
 20
9.81154
 11
245.893
 21
10.033
  0
LINE
  8
0
 10
245.893
 20
10.033
 11
246.223
 21
10.2145
  0
LINE
  8
0
 10
246.223
 20
10.2145
 11
246.573
 21
10.3532
  0
LINE
  8
0
 10
246.573
 20
10.3532
 11
246.938
 21
10.4469
  0
LINE
  8
0
 10
246.938
 20
10.4469
 11
247.312
 21
10.4941
  0
LINE
  8
0
 10
247.312
 20
10.4941
 11
247.688
 21
10.4941
  0
LINE
  8
0
 10
247.688
 20
10.4941
 11
248.062
 21
10.4469
  0
LINE
  8
0
 10
248.062
 20
10.4469
 11
248.427
 21
10.3532
  0
LINE
  8
0
 10
248.427
 20
10.3532
 11
248.777
 21
10.2145
  0
LINE
  8
0
 10
248.777
 20
10.2145
 11
249.107
 21
10.033
  0
LINE
  8
0
 10
249.107
 20
10.033
 11
249.412
 21
9.81154
  0
LINE
  8
0
 10
249.412
 20
9.81154
 11
249.687
 21
9.55363
  0
LINE
  8
0
 10
249.687
 20
9.55363
 11
249.927
 21
9.26335
  0
LINE
  8
0
 10
249.927
 20
9.26335
 11
250.129
 21
8.94525
  0
LINE
  8
0
 10
250.129
 20
8.94525
 11
250.289
 21
8.60437
  0
LINE
  8
0
 10
250.289
 20
8.60437
 11
250.406
 21
8.24606
  0
LINE
  8
0
 10
250.406
 20
8.24606
 11
250.476
 21
7.87599
  0
LINE
  8
0
 10
250.476
 20
7.87599
 11
250.5
 21
7.5
  0
LINE
  8
0
 10
250.5
 20
7.5
 11
250.476
 21
7.12399
  0
LINE
  8
0
 10
250.476
 20
7.12399
 11
250.406
 21
6.75392
  0
LINE
  8
0
 10
250.406
 20
6.75392
 11
250.289
 21
6.39561
  0
LINE
  8
0
 10
250.289
 20
6.39561
 11
250.129
 21
6.05473
  0
LINE
  8
0
 10
250.129
 20
6.05473
 11
249.927
 21
5.73663
  0
LINE
  8
0
 10
249.927
 20
5.73663
 11
249.687
 21
5.44635
  0
LINE
  8
0
 10
249.687
 20
5.44635
 11
249.412
 21
5.18845
  0
LINE
  8
0
 10
249.412
 20
5.18845
 11
249.107
 21
4.96701
  0
LINE
  8
0
 10
249.107
 20
4.96701
 11
248.777
 21
4.78551
  0
LINE
  8
0
 10
248.777
 20
4.78551
 11
248.427
 21
4.64682
  0
LINE
  8
0
 10
248.427
 20
4.64682
 11
248.062
 21
4.55313
  0
LINE
  8
0
 10
248.062
 20
4.55313
 11
247.688
 21
4.50591
  0
LINE
  8
0
 10
247.688
 20
4.50591
 11
247.312
 21
4.50591
  0
LINE
  8
0
 10
217.312
 20
4.50591
 11
216.938
 21
4.55313
  0
LINE
  8
0
 10
216.938
 20
4.55313
 11
216.573
 21
4.64682
  0
LINE
  8
0
 10
216.573
 20
4.64682
 11
216.223
 21
4.78551
  0
LINE
  8
0
 10
216.223
 20
4.78551
 11
215.893
 21
4.96701
  0
LINE
  8
0
 10
215.893
 20
4.96701
 11
215.588
 21
5.18845
  0
LINE
  8
0
 10
215.588
 20
5.18845
 11
215.313
 21
5.44635
  0
LINE
  8
0
 10
215.313
 20
5.44635
 11
215.073
 21
5.73663
  0
LINE
  8
0
 10
215.073
 20
5.73663
 11
214.871
 21
6.05473
  0
LINE
  8
0
 10
214.871
 20
6.05473
 11
214.711
 21
6.39561
  0
LINE
  8
0
 10
214.711
 20
6.39561
 11
214.594
 21
6.75392
  0
LINE
  8
0
 10
214.594
 20
6.75392
 11
214.524
 21
7.12399
  0
LINE
  8
0
 10
214.524
 20
7.12399
 11
214.5
 21
7.5
  0
LINE
  8
0
 10
214.5
 20
7.5
 11
214.524
 21
7.87599
  0
LINE
  8
0
 10
214.524
 20
7.87599
 11
214.594
 21
8.24606
  0
LINE
  8
0
 10
214.594
 20
8.24606
 11
214.711
 21
8.60437
  0
LINE
  8
0
 10
214.711
 20
8.60437
 11
214.871
 21
8.94525
  0
LINE
  8
0
 10
214.871
 20
8.94525
 11
215.073
 21
9.26335
  0
LINE
  8
0
 10
215.073
 20
9.26335
 11
215.313
 21
9.55363
  0
LINE
  8
0
 10
215.313
 20
9.55363
 11
215.588
 21
9.81154
  0
LINE
  8
0
 10
215.588
 20
9.81154
 11
215.893
 21
10.033
  0
LINE
  8
0
 10
215.893
 20
10.033
 11
216.223
 21
10.2145
  0
LINE
  8
0
 10
216.223
 20
10.2145
 11
216.573
 21
10.3532
  0
LINE
  8
0
 10
216.573
 20
10.3532
 11
216.938
 21
10.4469
  0
LINE
  8
0
 10
216.938
 20
10.4469
 11
217.312
 21
10.4941
  0
LINE
  8
0
 10
217.312
 20
10.4941
 11
217.688
 21
10.4941
  0
LINE
  8
0
 10
217.688
 20
10.4941
 11
218.062
 21
10.4469
  0
LINE
  8
0
 10
218.062
 20
10.4469
 11
218.427
 21
10.3532
  0
LINE
  8
0
 10
218.427
 20
10.3532
 11
218.777
 21
10.2145
  0
LINE
  8
0
 10
218.777
 20
10.2145
 11
219.107
 21
10.033
  0
LINE
  8
0
 10
219.107
 20
10.033
 11
219.412
 21
9.81154
  0
LINE
  8
0
 10
219.412
 20
9.81154
 11
219.687
 21
9.55363
  0
LINE
  8
0
 10
219.687
 20
9.55363
 11
219.927
 21
9.26335
  0
LINE
  8
0
 10
219.927
 20
9.26335
 11
220.129
 21
8.94525
  0
LINE
  8
0
 10
220.129
 20
8.94525
 11
220.289
 21
8.60437
  0
LINE
  8
0
 10
220.289
 20
8.60437
 11
220.406
 21
8.24606
  0
LINE
  8
0
 10
220.406
 20
8.24606
 11
220.476
 21
7.87599
  0
LINE
  8
0
 10
220.476
 20
7.87599
 11
220.5
 21
7.5
  0
LINE
  8
0
 10
220.5
 20
7.5
 11
220.476
 21
7.12399
  0
LINE
  8
0
 10
220.476
 20
7.12399
 11
220.406
 21
6.75392
  0
LINE
  8
0
 10
220.406
 20
6.75392
 11
220.289
 21
6.39561
  0
LINE
  8
0
 10
220.289
 20
6.39561
 11
220.129
 21
6.05473
  0
LINE
  8
0
 10
220.129
 20
6.05473
 11
219.927
 21
5.73663
  0
LINE
  8
0
 10
219.927
 20
5.73663
 11
219.687
 21
5.44635
  0
LINE
  8
0
 10
219.687
 20
5.44635
 11
219.412
 21
5.18845
  0
LINE
  8
0
 10
219.412
 20
5.18845
 11
219.107
 21
4.96701
  0
LINE
  8
0
 10
219.107
 20
4.96701
 11
218.777
 21
4.78551
  0
LINE
  8
0
 10
218.777
 20
4.78551
 11
218.427
 21
4.64682
  0
LINE
  8
0
 10
218.427
 20
4.64682
 11
218.062
 21
4.55313
  0
LINE
  8
0
 10
218.062
 20
4.55313
 11
217.688
 21
4.50591
  0
LINE
  8
0
 10
217.688
 20
4.50591
 11
217.312
 21
4.50591
  0
LINE
  8
0
 10
232.312
 20
4.50591
 11
231.938
 21
4.55313
  0
LINE
  8
0
 10
231.938
 20
4.55313
 11
231.573
 21
4.64682
  0
LINE
  8
0
 10
231.573
 20
4.64682
 11
231.223
 21
4.78551
  0
LINE
  8
0
 10
231.223
 20
4.78551
 11
230.893
 21
4.96701
  0
LINE
  8
0
 10
230.893
 20
4.96701
 11
230.588
 21
5.18845
  0
LINE
  8
0
 10
230.588
 20
5.18845
 11
230.313
 21
5.44635
  0
LINE
  8
0
 10
230.313
 20
5.44635
 11
230.073
 21
5.73663
  0
LINE
  8
0
 10
230.073
 20
5.73663
 11
229.871
 21
6.05473
  0
LINE
  8
0
 10
229.871
 20
6.05473
 11
229.711
 21
6.39561
  0
LINE
  8
0
 10
229.711
 20
6.39561
 11
229.594
 21
6.75392
  0
LINE
  8
0
 10
229.594
 20
6.75392
 11
229.524
 21
7.12399
  0
LINE
  8
0
 10
229.524
 20
7.12399
 11
229.5
 21
7.5
  0
LINE
  8
0
 10
229.5
 20
7.5
 11
229.524
 21
7.87599
  0
LINE
  8
0
 10
229.524
 20
7.87599
 11
229.594
 21
8.24606
  0
LINE
  8
0
 10
229.594
 20
8.24606
 11
229.711
 21
8.60437
  0
LINE
  8
0
 10
229.711
 20
8.60437
 11
229.871
 21
8.94525
  0
LINE
  8
0
 10
229.871
 20
8.94525
 11
230.073
 21
9.26335
  0
LINE
  8
0
 10
230.073
 20
9.26335
 11
230.313
 21
9.55363
  0
LINE
  8
0
 10
230.313
 20
9.55363
 11
230.588
 21
9.81154
  0
LINE
  8
0
 10
230.588
 20
9.81154
 11
230.893
 21
10.033
  0
LINE
  8
0
 10
230.893
 20
10.033
 11
231.223
 21
10.2145
  0
LINE
  8
0
 10
231.223
 20
10.2145
 11
231.573
 21
10.3532
  0
LINE
  8
0
 10
231.573
 20
10.3532
 11
231.938
 21
10.4469
  0
LINE
  8
0
 10
231.938
 20
10.4469
 11
232.312
 21
10.4941
  0
LINE
  8
0
 10
232.312
 20
10.4941
 11
232.688
 21
10.4941
  0
LINE
  8
0
 10
232.688
 20
10.4941
 11
233.062
 21
10.4469
  0
LINE
  8
0
 10
233.062
 20
10.4469
 11
233.427
 21
10.3532
  0
LINE
  8
0
 10
233.427
 20
10.3532
 11
233.777
 21
10.2145
  0
LINE
  8
0
 10
233.777
 20
10.2145
 11
234.107
 21
10.033
  0
LINE
  8
0
 10
234.107
 20
10.033
 11
234.412
 21
9.81154
  0
LINE
  8
0
 10
234.412
 20
9.81154
 11
234.687
 21
9.55363
  0
LINE
  8
0
 10
234.687
 20
9.55363
 11
234.927
 21
9.26335
  0
LINE
  8
0
 10
234.927
 20
9.26335
 11
235.129
 21
8.94525
  0
LINE
  8
0
 10
235.129
 20
8.94525
 11
235.289
 21
8.60437
  0
LINE
  8
0
 10
235.289
 20
8.60437
 11
235.406
 21
8.24606
  0
LINE
  8
0
 10
235.406
 20
8.24606
 11
235.476
 21
7.87599
  0
LINE
  8
0
 10
235.476
 20
7.87599
 11
235.5
 21
7.5
  0
LINE
  8
0
 10
235.5
 20
7.5
 11
235.476
 21
7.12399
  0
LINE
  8
0
 10
235.476
 20
7.12399
 11
235.406
 21
6.75392
  0
LINE
  8
0
 10
235.406
 20
6.75392
 11
235.289
 21
6.39561
  0
LINE
  8
0
 10
235.289
 20
6.39561
 11
235.129
 21
6.05473
  0
LINE
  8
0
 10
235.129
 20
6.05473
 11
234.927
 21
5.73663
  0
LINE
  8
0
 10
234.927
 20
5.73663
 11
234.687
 21
5.44635
  0
LINE
  8
0
 10
234.687
 20
5.44635
 11
234.412
 21
5.18845
  0
LINE
  8
0
 10
234.412
 20
5.18845
 11
234.107
 21
4.96701
  0
LINE
  8
0
 10
234.107
 20
4.96701
 11
233.777
 21
4.78551
  0
LINE
  8
0
 10
233.777
 20
4.78551
 11
233.427
 21
4.64682
  0
LINE
  8
0
 10
233.427
 20
4.64682
 11
233.062
 21
4.55313
  0
LINE
  8
0
 10
233.062
 20
4.55313
 11
232.688
 21
4.50591
  0
LINE
  8
0
 10
232.688
 20
4.50591
 11
232.312
 21
4.50591
  0
LINE
  8
0
 10
277.312
 20
4.50591
 11
276.938
 21
4.55313
  0
LINE
  8
0
 10
276.938
 20
4.55313
 11
276.573
 21
4.64682
  0
LINE
  8
0
 10
276.573
 20
4.64682
 11
276.223
 21
4.78551
  0
LINE
  8
0
 10
276.223
 20
4.78551
 11
275.893
 21
4.96701
  0
LINE
  8
0
 10
275.893
 20
4.96701
 11
275.588
 21
5.18845
  0
LINE
  8
0
 10
275.588
 20
5.18845
 11
275.313
 21
5.44635
  0
LINE
  8
0
 10
275.313
 20
5.44635
 11
275.073
 21
5.73663
  0
LINE
  8
0
 10
275.073
 20
5.73663
 11
274.871
 21
6.05473
  0
LINE
  8
0
 10
274.871
 20
6.05473
 11
274.711
 21
6.39561
  0
LINE
  8
0
 10
274.711
 20
6.39561
 11
274.594
 21
6.75392
  0
LINE
  8
0
 10
274.594
 20
6.75392
 11
274.524
 21
7.12399
  0
LINE
  8
0
 10
274.524
 20
7.12399
 11
274.5
 21
7.5
  0
LINE
  8
0
 10
274.5
 20
7.5
 11
274.524
 21
7.87599
  0
LINE
  8
0
 10
274.524
 20
7.87599
 11
274.594
 21
8.24606
  0
LINE
  8
0
 10
274.594
 20
8.24606
 11
274.711
 21
8.60437
  0
LINE
  8
0
 10
274.711
 20
8.60437
 11
274.871
 21
8.94525
  0
LINE
  8
0
 10
274.871
 20
8.94525
 11
275.073
 21
9.26335
  0
LINE
  8
0
 10
275.073
 20
9.26335
 11
275.313
 21
9.55363
  0
LINE
  8
0
 10
275.313
 20
9.55363
 11
275.588
 21
9.81154
  0
LINE
  8
0
 10
275.588
 20
9.81154
 11
275.893
 21
10.033
  0
LINE
  8
0
 10
275.893
 20
10.033
 11
276.223
 21
10.2145
  0
LINE
  8
0
 10
276.223
 20
10.2145
 11
276.573
 21
10.3532
  0
LINE
  8
0
 10
276.573
 20
10.3532
 11
276.938
 21
10.4469
  0
LINE
  8
0
 10
276.938
 20
10.4469
 11
277.312
 21
10.4941
  0
LINE
  8
0
 10
277.312
 20
10.4941
 11
277.688
 21
10.4941
  0
LINE
  8
0
 10
277.688
 20
10.4941
 11
278.062
 21
10.4469
  0
LINE
  8
0
 10
278.062
 20
10.4469
 11
278.427
 21
10.3532
  0
LINE
  8
0
 10
278.427
 20
10.3532
 11
278.777
 21
10.2145
  0
LINE
  8
0
 10
278.777
 20
10.2145
 11
279.107
 21
10.033
  0
LINE
  8
0
 10
279.107
 20
10.033
 11
279.412
 21
9.81154
  0
LINE
  8
0
 10
279.412
 20
9.81154
 11
279.687
 21
9.55363
  0
LINE
  8
0
 10
279.687
 20
9.55363
 11
279.927
 21
9.26335
  0
LINE
  8
0
 10
279.927
 20
9.26335
 11
280.129
 21
8.94525
  0
LINE
  8
0
 10
280.129
 20
8.94525
 11
280.289
 21
8.60437
  0
LINE
  8
0
 10
280.289
 20
8.60437
 11
280.406
 21
8.24606
  0
LINE
  8
0
 10
280.406
 20
8.24606
 11
280.476
 21
7.87599
  0
LINE
  8
0
 10
280.476
 20
7.87599
 11
280.5
 21
7.5
  0
LINE
  8
0
 10
280.5
 20
7.5
 11
280.476
 21
7.12399
  0
LINE
  8
0
 10
280.476
 20
7.12399
 11
280.406
 21
6.75392
  0
LINE
  8
0
 10
280.406
 20
6.75392
 11
280.289
 21
6.39561
  0
LINE
  8
0
 10
280.289
 20
6.39561
 11
280.129
 21
6.05473
  0
LINE
  8
0
 10
280.129
 20
6.05473
 11
279.927
 21
5.73663
  0
LINE
  8
0
 10
279.927
 20
5.73663
 11
279.687
 21
5.44635
  0
LINE
  8
0
 10
279.687
 20
5.44635
 11
279.412
 21
5.18845
  0
LINE
  8
0
 10
279.412
 20
5.18845
 11
279.107
 21
4.96701
  0
LINE
  8
0
 10
279.107
 20
4.96701
 11
278.777
 21
4.78551
  0
LINE
  8
0
 10
278.777
 20
4.78551
 11
278.427
 21
4.64682
  0
LINE
  8
0
 10
278.427
 20
4.64682
 11
278.062
 21
4.55313
  0
LINE
  8
0
 10
278.062
 20
4.55313
 11
277.688
 21
4.50591
  0
LINE
  8
0
 10
277.688
 20
4.50591
 11
277.312
 21
4.50591
  0
LINE
  8
0
 10
22.3116
 20
4.50591
 11
21.9379
 21
4.55313
  0
LINE
  8
0
 10
21.9379
 20
4.55313
 11
21.5729
 21
4.64682
  0
LINE
  8
0
 10
21.5729
 20
4.64682
 11
21.2227
 21
4.78551
  0
LINE
  8
0
 10
21.2227
 20
4.78551
 11
20.8925
 21
4.96701
  0
LINE
  8
0
 10
20.8925
 20
4.96701
 11
20.5877
 21
5.18845
  0
LINE
  8
0
 10
20.5877
 20
5.18845
 11
20.3131
 21
5.44635
  0
LINE
  8
0
 10
20.3131
 20
5.44635
 11
20.0729
 21
5.73663
  0
LINE
  8
0
 10
20.0729
 20
5.73663
 11
19.8711
 21
6.05473
  0
LINE
  8
0
 10
19.8711
 20
6.05473
 11
19.7107
 21
6.39561
  0
LINE
  8
0
 10
19.7107
 20
6.39561
 11
19.5942
 21
6.75392
  0
LINE
  8
0
 10
19.5942
 20
6.75392
 11
19.5237
 21
7.12399
  0
LINE
  8
0
 10
19.5237
 20
7.12399
 11
19.5
 21
7.5
  0
LINE
  8
0
 10
19.5
 20
7.5
 11
19.5237
 21
7.87599
  0
LINE
  8
0
 10
19.5237
 20
7.87599
 11
19.5942
 21
8.24606
  0
LINE
  8
0
 10
19.5942
 20
8.24606
 11
19.7107
 21
8.60437
  0
LINE
  8
0
 10
19.7107
 20
8.60437
 11
19.8711
 21
8.94525
  0
LINE
  8
0
 10
19.8711
 20
8.94525
 11
20.0729
 21
9.26335
  0
LINE
  8
0
 10
20.0729
 20
9.26335
 11
20.3131
 21
9.55363
  0
LINE
  8
0
 10
20.3131
 20
9.55363
 11
20.5877
 21
9.81154
  0
LINE
  8
0
 10
20.5877
 20
9.81154
 11
20.8925
 21
10.033
  0
LINE
  8
0
 10
20.8925
 20
10.033
 11
21.2227
 21
10.2145
  0
LINE
  8
0
 10
21.2227
 20
10.2145
 11
21.5729
 21
10.3532
  0
LINE
  8
0
 10
21.5729
 20
10.3532
 11
21.9379
 21
10.4469
  0
LINE
  8
0
 10
21.9379
 20
10.4469
 11
22.3116
 21
10.4941
  0
LINE
  8
0
 10
22.3116
 20
10.4941
 11
22.6884
 21
10.4941
  0
LINE
  8
0
 10
22.6884
 20
10.4941
 11
23.0621
 21
10.4469
  0
LINE
  8
0
 10
23.0621
 20
10.4469
 11
23.427
 21
10.3532
  0
LINE
  8
0
 10
23.427
 20
10.3532
 11
23.7773
 21
10.2145
  0
LINE
  8
0
 10
23.7773
 20
10.2145
 11
24.1075
 21
10.033
  0
LINE
  8
0
 10
24.1075
 20
10.033
 11
24.4123
 21
9.81154
  0
LINE
  8
0
 10
24.4123
 20
9.81154
 11
24.6869
 21
9.55363
  0
LINE
  8
0
 10
24.6869
 20
9.55363
 11
24.927
 21
9.26335
  0
LINE
  8
0
 10
24.927
 20
9.26335
 11
25.1289
 21
8.94525
  0
LINE
  8
0
 10
25.1289
 20
8.94525
 11
25.2893
 21
8.60437
  0
LINE
  8
0
 10
25.2893
 20
8.60437
 11
25.4057
 21
8.24606
  0
LINE
  8
0
 10
25.4057
 20
8.24606
 11
25.4763
 21
7.87599
  0
LINE
  8
0
 10
25.4763
 20
7.87599
 11
25.5
 21
7.5
  0
LINE
  8
0
 10
25.5
 20
7.5
 11
25.4763
 21
7.12399
  0
LINE
  8
0
 10
25.4763
 20
7.12399
 11
25.4057
 21
6.75392
  0
LINE
  8
0
 10
25.4057
 20
6.75392
 11
25.2893
 21
6.39561
  0
LINE
  8
0
 10
25.2893
 20
6.39561
 11
25.1289
 21
6.05473
  0
LINE
  8
0
 10
25.1289
 20
6.05473
 11
24.927
 21
5.73663
  0
LINE
  8
0
 10
24.927
 20
5.73663
 11
24.6869
 21
5.44635
  0
LINE
  8
0
 10
24.6869
 20
5.44635
 11
24.4123
 21
5.18845
  0
LINE
  8
0
 10
24.4123
 20
5.18845
 11
24.1075
 21
4.96701
  0
LINE
  8
0
 10
24.1075
 20
4.96701
 11
23.7773
 21
4.78551
  0
LINE
  8
0
 10
23.7773
 20
4.78551
 11
23.427
 21
4.64682
  0
LINE
  8
0
 10
23.427
 20
4.64682
 11
23.0621
 21
4.55313
  0
LINE
  8
0
 10
23.0621
 20
4.55313
 11
22.6884
 21
4.50591
  0
LINE
  8
0
 10
22.6884
 20
4.50591
 11
22.3116
 21
4.50591
  0
LINE
  8
0
 10
292.312
 20
4.50591
 11
291.938
 21
4.55313
  0
LINE
  8
0
 10
291.938
 20
4.55313
 11
291.573
 21
4.64682
  0
LINE
  8
0
 10
291.573
 20
4.64682
 11
291.223
 21
4.78551
  0
LINE
  8
0
 10
291.223
 20
4.78551
 11
290.893
 21
4.96701
  0
LINE
  8
0
 10
290.893
 20
4.96701
 11
290.588
 21
5.18845
  0
LINE
  8
0
 10
290.588
 20
5.18845
 11
290.313
 21
5.44635
  0
LINE
  8
0
 10
290.313
 20
5.44635
 11
290.073
 21
5.73663
  0
LINE
  8
0
 10
290.073
 20
5.73663
 11
289.871
 21
6.05473
  0
LINE
  8
0
 10
289.871
 20
6.05473
 11
289.711
 21
6.39561
  0
LINE
  8
0
 10
289.711
 20
6.39561
 11
289.594
 21
6.75392
  0
LINE
  8
0
 10
289.594
 20
6.75392
 11
289.524
 21
7.12399
  0
LINE
  8
0
 10
289.524
 20
7.12399
 11
289.5
 21
7.5
  0
LINE
  8
0
 10
289.5
 20
7.5
 11
289.524
 21
7.87599
  0
LINE
  8
0
 10
289.524
 20
7.87599
 11
289.594
 21
8.24606
  0
LINE
  8
0
 10
289.594
 20
8.24606
 11
289.711
 21
8.60437
  0
LINE
  8
0
 10
289.711
 20
8.60437
 11
289.871
 21
8.94525
  0
LINE
  8
0
 10
289.871
 20
8.94525
 11
290.073
 21
9.26335
  0
LINE
  8
0
 10
290.073
 20
9.26335
 11
290.313
 21
9.55363
  0
LINE
  8
0
 10
290.313
 20
9.55363
 11
290.588
 21
9.81154
  0
LINE
  8
0
 10
290.588
 20
9.81154
 11
290.893
 21
10.033
  0
LINE
  8
0
 10
290.893
 20
10.033
 11
291.223
 21
10.2145
  0
LINE
  8
0
 10
291.223
 20
10.2145
 11
291.573
 21
10.3532
  0
LINE
  8
0
 10
291.573
 20
10.3532
 11
291.938
 21
10.4469
  0
LINE
  8
0
 10
291.938
 20
10.4469
 11
292.312
 21
10.4941
  0
LINE
  8
0
 10
292.312
 20
10.4941
 11
292.688
 21
10.4941
  0
LINE
  8
0
 10
292.688
 20
10.4941
 11
293.062
 21
10.4469
  0
LINE
  8
0
 10
293.062
 20
10.4469
 11
293.427
 21
10.3532
  0
LINE
  8
0
 10
293.427
 20
10.3532
 11
293.777
 21
10.2145
  0
LINE
  8
0
 10
293.777
 20
10.2145
 11
294.107
 21
10.033
  0
LINE
  8
0
 10
294.107
 20
10.033
 11
294.412
 21
9.81154
  0
LINE
  8
0
 10
294.412
 20
9.81154
 11
294.687
 21
9.55363
  0
LINE
  8
0
 10
294.687
 20
9.55363
 11
294.927
 21
9.26335
  0
LINE
  8
0
 10
294.927
 20
9.26335
 11
295.129
 21
8.94525
  0
LINE
  8
0
 10
295.129
 20
8.94525
 11
295.289
 21
8.60437
  0
LINE
  8
0
 10
295.289
 20
8.60437
 11
295.406
 21
8.24606
  0
LINE
  8
0
 10
295.406
 20
8.24606
 11
295.476
 21
7.87599
  0
LINE
  8
0
 10
295.476
 20
7.87599
 11
295.5
 21
7.5
  0
LINE
  8
0
 10
295.5
 20
7.5
 11
295.476
 21
7.12399
  0
LINE
  8
0
 10
295.476
 20
7.12399
 11
295.406
 21
6.75392
  0
LINE
  8
0
 10
295.406
 20
6.75392
 11
295.289
 21
6.39561
  0
LINE
  8
0
 10
295.289
 20
6.39561
 11
295.129
 21
6.05473
  0
LINE
  8
0
 10
295.129
 20
6.05473
 11
294.927
 21
5.73663
  0
LINE
  8
0
 10
294.927
 20
5.73663
 11
294.687
 21
5.44635
  0
LINE
  8
0
 10
294.687
 20
5.44635
 11
294.412
 21
5.18845
  0
LINE
  8
0
 10
294.412
 20
5.18845
 11
294.107
 21
4.96701
  0
LINE
  8
0
 10
294.107
 20
4.96701
 11
293.777
 21
4.78551
  0
LINE
  8
0
 10
293.777
 20
4.78551
 11
293.427
 21
4.64682
  0
LINE
  8
0
 10
293.427
 20
4.64682
 11
293.062
 21
4.55313
  0
LINE
  8
0
 10
293.062
 20
4.55313
 11
292.688
 21
4.50591
  0
LINE
  8
0
 10
292.688
 20
4.50591
 11
292.312
 21
4.50591
  0
LINE
  8
0
 10
37.3116
 20
4.50591
 11
36.9379
 21
4.55313
  0
LINE
  8
0
 10
36.9379
 20
4.55313
 11
36.5729
 21
4.64682
  0
LINE
  8
0
 10
36.5729
 20
4.64682
 11
36.2227
 21
4.78551
  0
LINE
  8
0
 10
36.2227
 20
4.78551
 11
35.8925
 21
4.96701
  0
LINE
  8
0
 10
35.8925
 20
4.96701
 11
35.5877
 21
5.18845
  0
LINE
  8
0
 10
35.5877
 20
5.18845
 11
35.3131
 21
5.44635
  0
LINE
  8
0
 10
35.3131
 20
5.44635
 11
35.0729
 21
5.73663
  0
LINE
  8
0
 10
35.0729
 20
5.73663
 11
34.8711
 21
6.05473
  0
LINE
  8
0
 10
34.8711
 20
6.05473
 11
34.7107
 21
6.39561
  0
LINE
  8
0
 10
34.7107
 20
6.39561
 11
34.5942
 21
6.75392
  0
LINE
  8
0
 10
34.5942
 20
6.75392
 11
34.5237
 21
7.12399
  0
LINE
  8
0
 10
34.5237
 20
7.12399
 11
34.5
 21
7.5
  0
LINE
  8
0
 10
34.5
 20
7.5
 11
34.5237
 21
7.87599
  0
LINE
  8
0
 10
34.5237
 20
7.87599
 11
34.5942
 21
8.24606
  0
LINE
  8
0
 10
34.5942
 20
8.24606
 11
34.7107
 21
8.60437
  0
LINE
  8
0
 10
34.7107
 20
8.60437
 11
34.8711
 21
8.94525
  0
LINE
  8
0
 10
34.8711
 20
8.94525
 11
35.0729
 21
9.26335
  0
LINE
  8
0
 10
35.0729
 20
9.26335
 11
35.3131
 21
9.55363
  0
LINE
  8
0
 10
35.3131
 20
9.55363
 11
35.5877
 21
9.81154
  0
LINE
  8
0
 10
35.5877
 20
9.81154
 11
35.8925
 21
10.033
  0
LINE
  8
0
 10
35.8925
 20
10.033
 11
36.2227
 21
10.2145
  0
LINE
  8
0
 10
36.2227
 20
10.2145
 11
36.5729
 21
10.3532
  0
LINE
  8
0
 10
36.5729
 20
10.3532
 11
36.9379
 21
10.4469
  0
LINE
  8
0
 10
36.9379
 20
10.4469
 11
37.3116
 21
10.4941
  0
LINE
  8
0
 10
37.3116
 20
10.4941
 11
37.6884
 21
10.4941
  0
LINE
  8
0
 10
37.6884
 20
10.4941
 11
38.0621
 21
10.4469
  0
LINE
  8
0
 10
38.0621
 20
10.4469
 11
38.427
 21
10.3532
  0
LINE
  8
0
 10
38.427
 20
10.3532
 11
38.7773
 21
10.2145
  0
LINE
  8
0
 10
38.7773
 20
10.2145
 11
39.1075
 21
10.033
  0
LINE
  8
0
 10
39.1075
 20
10.033
 11
39.4123
 21
9.81154
  0
LINE
  8
0
 10
39.4123
 20
9.81154
 11
39.6869
 21
9.55363
  0
LINE
  8
0
 10
39.6869
 20
9.55363
 11
39.927
 21
9.26335
  0
LINE
  8
0
 10
39.927
 20
9.26335
 11
40.1289
 21
8.94525
  0
LINE
  8
0
 10
40.1289
 20
8.94525
 11
40.2893
 21
8.60437
  0
LINE
  8
0
 10
40.2893
 20
8.60437
 11
40.4057
 21
8.24606
  0
LINE
  8
0
 10
40.4057
 20
8.24606
 11
40.4763
 21
7.87599
  0
LINE
  8
0
 10
40.4763
 20
7.87599
 11
40.5
 21
7.5
  0
LINE
  8
0
 10
40.5
 20
7.5
 11
40.4763
 21
7.12399
  0
LINE
  8
0
 10
40.4763
 20
7.12399
 11
40.4057
 21
6.75392
  0
LINE
  8
0
 10
40.4057
 20
6.75392
 11
40.2893
 21
6.39561
  0
LINE
  8
0
 10
40.2893
 20
6.39561
 11
40.1289
 21
6.05473
  0
LINE
  8
0
 10
40.1289
 20
6.05473
 11
39.927
 21
5.73663
  0
LINE
  8
0
 10
39.927
 20
5.73663
 11
39.6869
 21
5.44635
  0
LINE
  8
0
 10
39.6869
 20
5.44635
 11
39.4123
 21
5.18845
  0
LINE
  8
0
 10
39.4123
 20
5.18845
 11
39.1075
 21
4.96701
  0
LINE
  8
0
 10
39.1075
 20
4.96701
 11
38.7773
 21
4.78551
  0
LINE
  8
0
 10
38.7773
 20
4.78551
 11
38.427
 21
4.64682
  0
LINE
  8
0
 10
38.427
 20
4.64682
 11
38.0621
 21
4.55313
  0
LINE
  8
0
 10
38.0621
 20
4.55313
 11
37.6884
 21
4.50591
  0
LINE
  8
0
 10
37.6884
 20
4.50591
 11
37.3116
 21
4.50591
  0
LINE
  8
0
 10
7.31161
 20
4.50591
 11
6.93785
 21
4.55313
  0
LINE
  8
0
 10
6.93785
 20
4.55313
 11
6.57294
 21
4.64682
  0
LINE
  8
0
 10
6.57294
 20
4.64682
 11
6.22266
 21
4.78551
  0
LINE
  8
0
 10
6.22266
 20
4.78551
 11
5.89252
 21
4.96701
  0
LINE
  8
0
 10
5.89252
 20
4.96701
 11
5.58772
 21
5.18845
  0
LINE
  8
0
 10
5.58772
 20
5.18845
 11
5.31308
 21
5.44635
  0
LINE
  8
0
 10
5.31308
 20
5.44635
 11
5.07294
 21
5.73663
  0
LINE
  8
0
 10
5.07294
 20
5.73663
 11
4.87108
 21
6.05473
  0
LINE
  8
0
 10
4.87108
 20
6.05473
 11
4.71066
 21
6.39561
  0
LINE
  8
0
 10
4.71066
 20
6.39561
 11
4.59424
 21
6.75392
  0
LINE
  8
0
 10
4.59424
 20
6.75392
 11
4.52365
 21
7.12399
  0
LINE
  8
0
 10
4.52365
 20
7.12399
 11
4.5
 21
7.5
  0
LINE
  8
0
 10
4.5
 20
7.5
 11
4.52365
 21
7.87599
  0
LINE
  8
0
 10
4.52365
 20
7.87599
 11
4.59424
 21
8.24606
  0
LINE
  8
0
 10
4.59424
 20
8.24606
 11
4.71066
 21
8.60437
  0
LINE
  8
0
 10
4.71066
 20
8.60437
 11
4.87108
 21
8.94525
  0
LINE
  8
0
 10
4.87108
 20
8.94525
 11
5.07294
 21
9.26335
  0
LINE
  8
0
 10
5.07294
 20
9.26335
 11
5.31308
 21
9.55363
  0
LINE
  8
0
 10
5.31308
 20
9.55363
 11
5.58772
 21
9.81154
  0
LINE
  8
0
 10
5.58772
 20
9.81154
 11
5.89252
 21
10.033
  0
LINE
  8
0
 10
5.89252
 20
10.033
 11
6.22266
 21
10.2145
  0
LINE
  8
0
 10
6.22266
 20
10.2145
 11
6.57294
 21
10.3532
  0
LINE
  8
0
 10
6.57294
 20
10.3532
 11
6.93785
 21
10.4469
  0
LINE
  8
0
 10
6.93785
 20
10.4469
 11
7.31161
 21
10.4941
  0
LINE
  8
0
 10
7.31161
 20
10.4941
 11
7.68837
 21
10.4941
  0
LINE
  8
0
 10
7.68837
 20
10.4941
 11
8.06213
 21
10.4469
  0
LINE
  8
0
 10
8.06213
 20
10.4469
 11
8.42705
 21
10.3532
  0
LINE
  8
0
 10
8.42705
 20
10.3532
 11
8.77733
 21
10.2145
  0
LINE
  8
0
 10
8.77733
 20
10.2145
 11
9.10747
 21
10.033
  0
LINE
  8
0
 10
9.10747
 20
10.033
 11
9.41226
 21
9.81154
  0
LINE
  8
0
 10
9.41226
 20
9.81154
 11
9.6869
 21
9.55363
  0
LINE
  8
0
 10
9.6869
 20
9.55363
 11
9.92705
 21
9.26335
  0
LINE
  8
0
 10
9.92705
 20
9.26335
 11
10.1289
 21
8.94525
  0
LINE
  8
0
 10
10.1289
 20
8.94525
 11
10.2893
 21
8.60437
  0
LINE
  8
0
 10
10.2893
 20
8.60437
 11
10.4057
 21
8.24606
  0
LINE
  8
0
 10
10.4057
 20
8.24606
 11
10.4763
 21
7.87599
  0
LINE
  8
0
 10
10.4763
 20
7.87599
 11
10.5
 21
7.5
  0
LINE
  8
0
 10
10.5
 20
7.5
 11
10.4763
 21
7.12399
  0
LINE
  8
0
 10
10.4763
 20
7.12399
 11
10.4057
 21
6.75392
  0
LINE
  8
0
 10
10.4057
 20
6.75392
 11
10.2893
 21
6.39561
  0
LINE
  8
0
 10
10.2893
 20
6.39561
 11
10.1289
 21
6.05473
  0
LINE
  8
0
 10
10.1289
 20
6.05473
 11
9.92705
 21
5.73663
  0
LINE
  8
0
 10
9.92705
 20
5.73663
 11
9.6869
 21
5.44635
  0
LINE
  8
0
 10
9.6869
 20
5.44635
 11
9.41226
 21
5.18845
  0
LINE
  8
0
 10
9.41226
 20
5.18845
 11
9.10747
 21
4.96701
  0
LINE
  8
0
 10
9.10747
 20
4.96701
 11
8.77733
 21
4.78551
  0
LINE
  8
0
 10
8.77733
 20
4.78551
 11
8.42705
 21
4.64682
  0
LINE
  8
0
 10
8.42705
 20
4.64682
 11
8.06213
 21
4.55313
  0
LINE
  8
0
 10
8.06213
 20
4.55313
 11
7.68837
 21
4.50591
  0
LINE
  8
0
 10
7.68837
 20
4.50591
 11
7.31161
 21
4.50591
  0
LINE
  8
0
 10
67.3116
 20
4.50591
 11
66.9379
 21
4.55313
  0
LINE
  8
0
 10
66.9379
 20
4.55313
 11
66.573
 21
4.64682
  0
LINE
  8
0
 10
66.573
 20
4.64682
 11
66.2227
 21
4.78551
  0
LINE
  8
0
 10
66.2227
 20
4.78551
 11
65.8925
 21
4.96701
  0
LINE
  8
0
 10
65.8925
 20
4.96701
 11
65.5877
 21
5.18845
  0
LINE
  8
0
 10
65.5877
 20
5.18845
 11
65.3131
 21
5.44635
  0
LINE
  8
0
 10
65.3131
 20
5.44635
 11
65.073
 21
5.73663
  0
LINE
  8
0
 10
65.073
 20
5.73663
 11
64.8711
 21
6.05473
  0
LINE
  8
0
 10
64.8711
 20
6.05473
 11
64.7107
 21
6.39561
  0
LINE
  8
0
 10
64.7107
 20
6.39561
 11
64.5943
 21
6.75392
  0
LINE
  8
0
 10
64.5943
 20
6.75392
 11
64.5237
 21
7.12399
  0
LINE
  8
0
 10
64.5237
 20
7.12399
 11
64.5
 21
7.5
  0
LINE
  8
0
 10
64.5
 20
7.5
 11
64.5237
 21
7.87599
  0
LINE
  8
0
 10
64.5237
 20
7.87599
 11
64.5943
 21
8.24606
  0
LINE
  8
0
 10
64.5943
 20
8.24606
 11
64.7107
 21
8.60437
  0
LINE
  8
0
 10
64.7107
 20
8.60437
 11
64.8711
 21
8.94525
  0
LINE
  8
0
 10
64.8711
 20
8.94525
 11
65.073
 21
9.26335
  0
LINE
  8
0
 10
65.073
 20
9.26335
 11
65.3131
 21
9.55363
  0
LINE
  8
0
 10
65.3131
 20
9.55363
 11
65.5877
 21
9.81154
  0
LINE
  8
0
 10
65.5877
 20
9.81154
 11
65.8925
 21
10.033
  0
LINE
  8
0
 10
65.8925
 20
10.033
 11
66.2227
 21
10.2145
  0
LINE
  8
0
 10
66.2227
 20
10.2145
 11
66.573
 21
10.3532
  0
LINE
  8
0
 10
66.573
 20
10.3532
 11
66.9379
 21
10.4469
  0
LINE
  8
0
 10
66.9379
 20
10.4469
 11
67.3116
 21
10.4941
  0
LINE
  8
0
 10
67.3116
 20
10.4941
 11
67.6884
 21
10.4941
  0
LINE
  8
0
 10
67.6884
 20
10.4941
 11
68.0621
 21
10.4469
  0
LINE
  8
0
 10
68.0621
 20
10.4469
 11
68.427
 21
10.3532
  0
LINE
  8
0
 10
68.427
 20
10.3532
 11
68.7773
 21
10.2145
  0
LINE
  8
0
 10
68.7773
 20
10.2145
 11
69.1075
 21
10.033
  0
LINE
  8
0
 10
69.1075
 20
10.033
 11
69.4123
 21
9.81154
  0
LINE
  8
0
 10
69.4123
 20
9.81154
 11
69.6869
 21
9.55363
  0
LINE
  8
0
 10
69.6869
 20
9.55363
 11
69.927
 21
9.26335
  0
LINE
  8
0
 10
69.927
 20
9.26335
 11
70.1289
 21
8.94525
  0
LINE
  8
0
 10
70.1289
 20
8.94525
 11
70.2893
 21
8.60437
  0
LINE
  8
0
 10
70.2893
 20
8.60437
 11
70.4057
 21
8.24606
  0
LINE
  8
0
 10
70.4057
 20
8.24606
 11
70.4763
 21
7.87599
  0
LINE
  8
0
 10
70.4763
 20
7.87599
 11
70.5
 21
7.5
  0
LINE
  8
0
 10
70.5
 20
7.5
 11
70.4763
 21
7.12399
  0
LINE
  8
0
 10
70.4763
 20
7.12399
 11
70.4057
 21
6.75392
  0
LINE
  8
0
 10
70.4057
 20
6.75392
 11
70.2893
 21
6.39561
  0
LINE
  8
0
 10
70.2893
 20
6.39561
 11
70.1289
 21
6.05473
  0
LINE
  8
0
 10
70.1289
 20
6.05473
 11
69.927
 21
5.73663
  0
LINE
  8
0
 10
69.927
 20
5.73663
 11
69.6869
 21
5.44635
  0
LINE
  8
0
 10
69.6869
 20
5.44635
 11
69.4123
 21
5.18845
  0
LINE
  8
0
 10
69.4123
 20
5.18845
 11
69.1075
 21
4.96701
  0
LINE
  8
0
 10
69.1075
 20
4.96701
 11
68.7773
 21
4.78551
  0
LINE
  8
0
 10
68.7773
 20
4.78551
 11
68.427
 21
4.64682
  0
LINE
  8
0
 10
68.427
 20
4.64682
 11
68.0621
 21
4.55313
  0
LINE
  8
0
 10
68.0621
 20
4.55313
 11
67.6884
 21
4.50591
  0
LINE
  8
0
 10
67.6884
 20
4.50591
 11
67.3116
 21
4.50591
  0
LINE
  8
0
 10
172.312
 20
4.50591
 11
171.938
 21
4.55313
  0
LINE
  8
0
 10
171.938
 20
4.55313
 11
171.573
 21
4.64682
  0
LINE
  8
0
 10
171.573
 20
4.64682
 11
171.223
 21
4.78551
  0
LINE
  8
0
 10
171.223
 20
4.78551
 11
170.893
 21
4.96701
  0
LINE
  8
0
 10
170.893
 20
4.96701
 11
170.588
 21
5.18845
  0
LINE
  8
0
 10
170.588
 20
5.18845
 11
170.313
 21
5.44635
  0
LINE
  8
0
 10
170.313
 20
5.44635
 11
170.073
 21
5.73663
  0
LINE
  8
0
 10
170.073
 20
5.73663
 11
169.871
 21
6.05473
  0
LINE
  8
0
 10
169.871
 20
6.05473
 11
169.711
 21
6.39561
  0
LINE
  8
0
 10
169.711
 20
6.39561
 11
169.594
 21
6.75392
  0
LINE
  8
0
 10
169.594
 20
6.75392
 11
169.524
 21
7.12399
  0
LINE
  8
0
 10
169.524
 20
7.12399
 11
169.5
 21
7.5
  0
LINE
  8
0
 10
169.5
 20
7.5
 11
169.524
 21
7.87599
  0
LINE
  8
0
 10
169.524
 20
7.87599
 11
169.594
 21
8.24606
  0
LINE
  8
0
 10
169.594
 20
8.24606
 11
169.711
 21
8.60437
  0
LINE
  8
0
 10
169.711
 20
8.60437
 11
169.871
 21
8.94525
  0
LINE
  8
0
 10
169.871
 20
8.94525
 11
170.073
 21
9.26335
  0
LINE
  8
0
 10
170.073
 20
9.26335
 11
170.313
 21
9.55363
  0
LINE
  8
0
 10
170.313
 20
9.55363
 11
170.588
 21
9.81154
  0
LINE
  8
0
 10
170.588
 20
9.81154
 11
170.893
 21
10.033
  0
LINE
  8
0
 10
170.893
 20
10.033
 11
171.223
 21
10.2145
  0
LINE
  8
0
 10
171.223
 20
10.2145
 11
171.573
 21
10.3532
  0
LINE
  8
0
 10
171.573
 20
10.3532
 11
171.938
 21
10.4469
  0
LINE
  8
0
 10
171.938
 20
10.4469
 11
172.312
 21
10.4941
  0
LINE
  8
0
 10
172.312
 20
10.4941
 11
172.688
 21
10.4941
  0
LINE
  8
0
 10
172.688
 20
10.4941
 11
173.062
 21
10.4469
  0
LINE
  8
0
 10
173.062
 20
10.4469
 11
173.427
 21
10.3532
  0
LINE
  8
0
 10
173.427
 20
10.3532
 11
173.777
 21
10.2145
  0
LINE
  8
0
 10
173.777
 20
10.2145
 11
174.107
 21
10.033
  0
LINE
  8
0
 10
174.107
 20
10.033
 11
174.412
 21
9.81154
  0
LINE
  8
0
 10
174.412
 20
9.81154
 11
174.687
 21
9.55363
  0
LINE
  8
0
 10
174.687
 20
9.55363
 11
174.927
 21
9.26335
  0
LINE
  8
0
 10
174.927
 20
9.26335
 11
175.129
 21
8.94525
  0
LINE
  8
0
 10
175.129
 20
8.94525
 11
175.289
 21
8.60437
  0
LINE
  8
0
 10
175.289
 20
8.60437
 11
175.406
 21
8.24606
  0
LINE
  8
0
 10
175.406
 20
8.24606
 11
175.476
 21
7.87599
  0
LINE
  8
0
 10
175.476
 20
7.87599
 11
175.5
 21
7.5
  0
LINE
  8
0
 10
175.5
 20
7.5
 11
175.476
 21
7.12399
  0
LINE
  8
0
 10
175.476
 20
7.12399
 11
175.406
 21
6.75392
  0
LINE
  8
0
 10
175.406
 20
6.75392
 11
175.289
 21
6.39561
  0
LINE
  8
0
 10
175.289
 20
6.39561
 11
175.129
 21
6.05473
  0
LINE
  8
0
 10
175.129
 20
6.05473
 11
174.927
 21
5.73663
  0
LINE
  8
0
 10
174.927
 20
5.73663
 11
174.687
 21
5.44635
  0
LINE
  8
0
 10
174.687
 20
5.44635
 11
174.412
 21
5.18845
  0
LINE
  8
0
 10
174.412
 20
5.18845
 11
174.107
 21
4.96701
  0
LINE
  8
0
 10
174.107
 20
4.96701
 11
173.777
 21
4.78551
  0
LINE
  8
0
 10
173.777
 20
4.78551
 11
173.427
 21
4.64682
  0
LINE
  8
0
 10
173.427
 20
4.64682
 11
173.062
 21
4.55313
  0
LINE
  8
0
 10
173.062
 20
4.55313
 11
172.688
 21
4.50591
  0
LINE
  8
0
 10
172.688
 20
4.50591
 11
172.312
 21
4.50591
  0
LINE
  8
0
 10
187.312
 20
4.50591
 11
186.938
 21
4.55313
  0
LINE
  8
0
 10
186.938
 20
4.55313
 11
186.573
 21
4.64682
  0
LINE
  8
0
 10
186.573
 20
4.64682
 11
186.223
 21
4.78551
  0
LINE
  8
0
 10
186.223
 20
4.78551
 11
185.893
 21
4.96701
  0
LINE
  8
0
 10
185.893
 20
4.96701
 11
185.588
 21
5.18845
  0
LINE
  8
0
 10
185.588
 20
5.18845
 11
185.313
 21
5.44635
  0
LINE
  8
0
 10
185.313
 20
5.44635
 11
185.073
 21
5.73663
  0
LINE
  8
0
 10
185.073
 20
5.73663
 11
184.871
 21
6.05473
  0
LINE
  8
0
 10
184.871
 20
6.05473
 11
184.711
 21
6.39561
  0
LINE
  8
0
 10
184.711
 20
6.39561
 11
184.594
 21
6.75392
  0
LINE
  8
0
 10
184.594
 20
6.75392
 11
184.524
 21
7.12399
  0
LINE
  8
0
 10
184.524
 20
7.12399
 11
184.5
 21
7.5
  0
LINE
  8
0
 10
184.5
 20
7.5
 11
184.524
 21
7.87599
  0
LINE
  8
0
 10
184.524
 20
7.87599
 11
184.594
 21
8.24606
  0
LINE
  8
0
 10
184.594
 20
8.24606
 11
184.711
 21
8.60437
  0
LINE
  8
0
 10
184.711
 20
8.60437
 11
184.871
 21
8.94525
  0
LINE
  8
0
 10
184.871
 20
8.94525
 11
185.073
 21
9.26335
  0
LINE
  8
0
 10
185.073
 20
9.26335
 11
185.313
 21
9.55363
  0
LINE
  8
0
 10
185.313
 20
9.55363
 11
185.588
 21
9.81154
  0
LINE
  8
0
 10
185.588
 20
9.81154
 11
185.893
 21
10.033
  0
LINE
  8
0
 10
185.893
 20
10.033
 11
186.223
 21
10.2145
  0
LINE
  8
0
 10
186.223
 20
10.2145
 11
186.573
 21
10.3532
  0
LINE
  8
0
 10
186.573
 20
10.3532
 11
186.938
 21
10.4469
  0
LINE
  8
0
 10
186.938
 20
10.4469
 11
187.312
 21
10.4941
  0
LINE
  8
0
 10
187.312
 20
10.4941
 11
187.688
 21
10.4941
  0
LINE
  8
0
 10
187.688
 20
10.4941
 11
188.062
 21
10.4469
  0
LINE
  8
0
 10
188.062
 20
10.4469
 11
188.427
 21
10.3532
  0
LINE
  8
0
 10
188.427
 20
10.3532
 11
188.777
 21
10.2145
  0
LINE
  8
0
 10
188.777
 20
10.2145
 11
189.107
 21
10.033
  0
LINE
  8
0
 10
189.107
 20
10.033
 11
189.412
 21
9.81154
  0
LINE
  8
0
 10
189.412
 20
9.81154
 11
189.687
 21
9.55363
  0
LINE
  8
0
 10
189.687
 20
9.55363
 11
189.927
 21
9.26335
  0
LINE
  8
0
 10
189.927
 20
9.26335
 11
190.129
 21
8.94525
  0
LINE
  8
0
 10
190.129
 20
8.94525
 11
190.289
 21
8.60437
  0
LINE
  8
0
 10
190.289
 20
8.60437
 11
190.406
 21
8.24606
  0
LINE
  8
0
 10
190.406
 20
8.24606
 11
190.476
 21
7.87599
  0
LINE
  8
0
 10
190.476
 20
7.87599
 11
190.5
 21
7.5
  0
LINE
  8
0
 10
190.5
 20
7.5
 11
190.476
 21
7.12399
  0
LINE
  8
0
 10
190.476
 20
7.12399
 11
190.406
 21
6.75392
  0
LINE
  8
0
 10
190.406
 20
6.75392
 11
190.289
 21
6.39561
  0
LINE
  8
0
 10
190.289
 20
6.39561
 11
190.129
 21
6.05473
  0
LINE
  8
0
 10
190.129
 20
6.05473
 11
189.927
 21
5.73663
  0
LINE
  8
0
 10
189.927
 20
5.73663
 11
189.687
 21
5.44635
  0
LINE
  8
0
 10
189.687
 20
5.44635
 11
189.412
 21
5.18845
  0
LINE
  8
0
 10
189.412
 20
5.18845
 11
189.107
 21
4.96701
  0
LINE
  8
0
 10
189.107
 20
4.96701
 11
188.777
 21
4.78551
  0
LINE
  8
0
 10
188.777
 20
4.78551
 11
188.427
 21
4.64682
  0
LINE
  8
0
 10
188.427
 20
4.64682
 11
188.062
 21
4.55313
  0
LINE
  8
0
 10
188.062
 20
4.55313
 11
187.688
 21
4.50591
  0
LINE
  8
0
 10
187.688
 20
4.50591
 11
187.312
 21
4.50591
  0
LINE
  8
0
 10
52.3116
 20
4.50591
 11
51.9379
 21
4.55313
  0
LINE
  8
0
 10
51.9379
 20
4.55313
 11
51.5729
 21
4.64682
  0
LINE
  8
0
 10
51.5729
 20
4.64682
 11
51.2227
 21
4.78551
  0
LINE
  8
0
 10
51.2227
 20
4.78551
 11
50.8925
 21
4.96701
  0
LINE
  8
0
 10
50.8925
 20
4.96701
 11
50.5877
 21
5.18845
  0
LINE
  8
0
 10
50.5877
 20
5.18845
 11
50.3131
 21
5.44635
  0
LINE
  8
0
 10
50.3131
 20
5.44635
 11
50.0729
 21
5.73663
  0
LINE
  8
0
 10
50.0729
 20
5.73663
 11
49.8711
 21
6.05473
  0
LINE
  8
0
 10
49.8711
 20
6.05473
 11
49.7107
 21
6.39561
  0
LINE
  8
0
 10
49.7107
 20
6.39561
 11
49.5942
 21
6.75392
  0
LINE
  8
0
 10
49.5942
 20
6.75392
 11
49.5237
 21
7.12399
  0
LINE
  8
0
 10
49.5237
 20
7.12399
 11
49.5
 21
7.5
  0
LINE
  8
0
 10
49.5
 20
7.5
 11
49.5237
 21
7.87599
  0
LINE
  8
0
 10
49.5237
 20
7.87599
 11
49.5942
 21
8.24606
  0
LINE
  8
0
 10
49.5942
 20
8.24606
 11
49.7107
 21
8.60437
  0
LINE
  8
0
 10
49.7107
 20
8.60437
 11
49.8711
 21
8.94525
  0
LINE
  8
0
 10
49.8711
 20
8.94525
 11
50.0729
 21
9.26335
  0
LINE
  8
0
 10
50.0729
 20
9.26335
 11
50.3131
 21
9.55363
  0
LINE
  8
0
 10
50.3131
 20
9.55363
 11
50.5877
 21
9.81154
  0
LINE
  8
0
 10
50.5877
 20
9.81154
 11
50.8925
 21
10.033
  0
LINE
  8
0
 10
50.8925
 20
10.033
 11
51.2227
 21
10.2145
  0
LINE
  8
0
 10
51.2227
 20
10.2145
 11
51.5729
 21
10.3532
  0
LINE
  8
0
 10
51.5729
 20
10.3532
 11
51.9379
 21
10.4469
  0
LINE
  8
0
 10
51.9379
 20
10.4469
 11
52.3116
 21
10.4941
  0
LINE
  8
0
 10
52.3116
 20
10.4941
 11
52.6884
 21
10.4941
  0
LINE
  8
0
 10
52.6884
 20
10.4941
 11
53.0621
 21
10.4469
  0
LINE
  8
0
 10
53.0621
 20
10.4469
 11
53.427
 21
10.3532
  0
LINE
  8
0
 10
53.427
 20
10.3532
 11
53.7773
 21
10.2145
  0
LINE
  8
0
 10
53.7773
 20
10.2145
 11
54.1075
 21
10.033
  0
LINE
  8
0
 10
54.1075
 20
10.033
 11
54.4123
 21
9.81154
  0
LINE
  8
0
 10
54.4123
 20
9.81154
 11
54.6869
 21
9.55363
  0
LINE
  8
0
 10
54.6869
 20
9.55363
 11
54.927
 21
9.26335
  0
LINE
  8
0
 10
54.927
 20
9.26335
 11
55.1289
 21
8.94525
  0
LINE
  8
0
 10
55.1289
 20
8.94525
 11
55.2893
 21
8.60437
  0
LINE
  8
0
 10
55.2893
 20
8.60437
 11
55.4057
 21
8.24606
  0
LINE
  8
0
 10
55.4057
 20
8.24606
 11
55.4763
 21
7.87599
  0
LINE
  8
0
 10
55.4763
 20
7.87599
 11
55.5
 21
7.5
  0
LINE
  8
0
 10
55.5
 20
7.5
 11
55.4763
 21
7.12399
  0
LINE
  8
0
 10
55.4763
 20
7.12399
 11
55.4057
 21
6.75392
  0
LINE
  8
0
 10
55.4057
 20
6.75392
 11
55.2893
 21
6.39561
  0
LINE
  8
0
 10
55.2893
 20
6.39561
 11
55.1289
 21
6.05473
  0
LINE
  8
0
 10
55.1289
 20
6.05473
 11
54.927
 21
5.73663
  0
LINE
  8
0
 10
54.927
 20
5.73663
 11
54.6869
 21
5.44635
  0
LINE
  8
0
 10
54.6869
 20
5.44635
 11
54.4123
 21
5.18845
  0
LINE
  8
0
 10
54.4123
 20
5.18845
 11
54.1075
 21
4.96701
  0
LINE
  8
0
 10
54.1075
 20
4.96701
 11
53.7773
 21
4.78551
  0
LINE
  8
0
 10
53.7773
 20
4.78551
 11
53.427
 21
4.64682
  0
LINE
  8
0
 10
53.427
 20
4.64682
 11
53.0621
 21
4.55313
  0
LINE
  8
0
 10
53.0621
 20
4.55313
 11
52.6884
 21
4.50591
  0
LINE
  8
0
 10
52.6884
 20
4.50591
 11
52.3116
 21
4.50591
  0
LINE
  8
0
 10
202.312
 20
4.50591
 11
201.938
 21
4.55313
  0
LINE
  8
0
 10
201.938
 20
4.55313
 11
201.573
 21
4.64682
  0
LINE
  8
0
 10
201.573
 20
4.64682
 11
201.223
 21
4.78551
  0
LINE
  8
0
 10
201.223
 20
4.78551
 11
200.893
 21
4.96701
  0
LINE
  8
0
 10
200.893
 20
4.96701
 11
200.588
 21
5.18845
  0
LINE
  8
0
 10
200.588
 20
5.18845
 11
200.313
 21
5.44635
  0
LINE
  8
0
 10
200.313
 20
5.44635
 11
200.073
 21
5.73663
  0
LINE
  8
0
 10
200.073
 20
5.73663
 11
199.871
 21
6.05473
  0
LINE
  8
0
 10
199.871
 20
6.05473
 11
199.711
 21
6.39561
  0
LINE
  8
0
 10
199.711
 20
6.39561
 11
199.594
 21
6.75392
  0
LINE
  8
0
 10
199.594
 20
6.75392
 11
199.524
 21
7.12399
  0
LINE
  8
0
 10
199.524
 20
7.12399
 11
199.5
 21
7.5
  0
LINE
  8
0
 10
199.5
 20
7.5
 11
199.524
 21
7.87599
  0
LINE
  8
0
 10
199.524
 20
7.87599
 11
199.594
 21
8.24606
  0
LINE
  8
0
 10
199.594
 20
8.24606
 11
199.711
 21
8.60437
  0
LINE
  8
0
 10
199.711
 20
8.60437
 11
199.871
 21
8.94525
  0
LINE
  8
0
 10
199.871
 20
8.94525
 11
200.073
 21
9.26335
  0
LINE
  8
0
 10
200.073
 20
9.26335
 11
200.313
 21
9.55363
  0
LINE
  8
0
 10
200.313
 20
9.55363
 11
200.588
 21
9.81154
  0
LINE
  8
0
 10
200.588
 20
9.81154
 11
200.893
 21
10.033
  0
LINE
  8
0
 10
200.893
 20
10.033
 11
201.223
 21
10.2145
  0
LINE
  8
0
 10
201.223
 20
10.2145
 11
201.573
 21
10.3532
  0
LINE
  8
0
 10
201.573
 20
10.3532
 11
201.938
 21
10.4469
  0
LINE
  8
0
 10
201.938
 20
10.4469
 11
202.312
 21
10.4941
  0
LINE
  8
0
 10
202.312
 20
10.4941
 11
202.688
 21
10.4941
  0
LINE
  8
0
 10
202.688
 20
10.4941
 11
203.062
 21
10.4469
  0
LINE
  8
0
 10
203.062
 20
10.4469
 11
203.427
 21
10.3532
  0
LINE
  8
0
 10
203.427
 20
10.3532
 11
203.777
 21
10.2145
  0
LINE
  8
0
 10
203.777
 20
10.2145
 11
204.107
 21
10.033
  0
LINE
  8
0
 10
204.107
 20
10.033
 11
204.412
 21
9.81154
  0
LINE
  8
0
 10
204.412
 20
9.81154
 11
204.687
 21
9.55363
  0
LINE
  8
0
 10
204.687
 20
9.55363
 11
204.927
 21
9.26335
  0
LINE
  8
0
 10
204.927
 20
9.26335
 11
205.129
 21
8.94525
  0
LINE
  8
0
 10
205.129
 20
8.94525
 11
205.289
 21
8.60437
  0
LINE
  8
0
 10
205.289
 20
8.60437
 11
205.406
 21
8.24606
  0
LINE
  8
0
 10
205.406
 20
8.24606
 11
205.476
 21
7.87599
  0
LINE
  8
0
 10
205.476
 20
7.87599
 11
205.5
 21
7.5
  0
LINE
  8
0
 10
205.5
 20
7.5
 11
205.476
 21
7.12399
  0
LINE
  8
0
 10
205.476
 20
7.12399
 11
205.406
 21
6.75392
  0
LINE
  8
0
 10
205.406
 20
6.75392
 11
205.289
 21
6.39561
  0
LINE
  8
0
 10
205.289
 20
6.39561
 11
205.129
 21
6.05473
  0
LINE
  8
0
 10
205.129
 20
6.05473
 11
204.927
 21
5.73663
  0
LINE
  8
0
 10
204.927
 20
5.73663
 11
204.687
 21
5.44635
  0
LINE
  8
0
 10
204.687
 20
5.44635
 11
204.412
 21
5.18845
  0
LINE
  8
0
 10
204.412
 20
5.18845
 11
204.107
 21
4.96701
  0
LINE
  8
0
 10
204.107
 20
4.96701
 11
203.777
 21
4.78551
  0
LINE
  8
0
 10
203.777
 20
4.78551
 11
203.427
 21
4.64682
  0
LINE
  8
0
 10
203.427
 20
4.64682
 11
203.062
 21
4.55313
  0
LINE
  8
0
 10
203.062
 20
4.55313
 11
202.688
 21
4.50591
  0
LINE
  8
0
 10
202.688
 20
4.50591
 11
202.312
 21
4.50591
  0
ENDSEC
  0
SECTION
  2
OBJECTS
  0
DICTIONARY
  0
ENDSEC
  0
EOF
